<svg xmlns="http://www.w3.org/2000/svg" width="15" height="14" viewBox="0 0 15 14" fill="none">
    <path d="M9.36731 6.46052C9.36731 6.17611 9.13675 5.94556 8.85234 5.94556H3.54817C3.26375 5.94556 3.0332 6.17611 3.0332 6.46052C3.0332 6.74494 3.26375 6.97549 3.54817 6.97549H8.85234C9.13675 6.97549 9.36731 6.74494 9.36731 6.46052Z" fill="#073742"/>
    <path d="M3.54817 8.00537C3.26375 8.00537 3.0332 8.23592 3.0332 8.52034C3.0332 8.80476 3.26375 9.03531 3.54817 9.03531H6.76958C7.05399 9.03531 7.28454 8.80476 7.28454 8.52034C7.28454 8.23592 7.05399 8.00537 6.76958 8.00537H3.54817Z" fill="#073742"/>
    <path d="M4.75872 12.9491H3.03643C2.46853 12.9491 2.0065 12.4871 2.0065 11.9192V2.85577C2.0065 2.28786 2.46853 1.82583 3.03643 1.82583H9.36768C9.93558 1.82583 10.3976 2.28786 10.3976 2.85577V6.02282C10.3976 6.30724 10.6282 6.53779 10.9126 6.53779C11.197 6.53779 11.4275 6.30724 11.4275 6.02282V2.85577C11.4275 1.71996 10.5035 0.795898 9.36768 0.795898H3.03643C1.90062 0.795898 0.976562 1.71996 0.976562 2.85577V11.9192C0.976562 13.055 1.90062 13.9791 3.03643 13.9791H4.75872C5.04313 13.9791 5.27368 13.7485 5.27368 13.4641C5.27368 13.1797 5.04313 12.9491 4.75872 12.9491Z" fill="#073742"/>
    <path d="M8.85234 3.88574H3.54817C3.26375 3.88574 3.0332 4.11629 3.0332 4.40071C3.0332 4.68513 3.26375 4.91568 3.54817 4.91568H8.85234C9.13675 4.91568 9.36731 4.68513 9.36731 4.40071C9.36731 4.11629 9.13675 3.88574 8.85234 3.88574Z" fill="#073742"/>
    <path fill-rule="evenodd" clip-rule="evenodd" d="M7.86033 12.1264C7.84234 12.1055 7.82353 12.0852 7.80393 12.0656C7.79136 12.053 7.7785 12.0408 7.76538 12.0289C7.75799 12.0222 7.75052 12.0156 7.74297 12.0091C7.65611 11.9344 7.55824 11.8737 7.45293 11.8292C7.4529 11.8292 7.45296 11.8292 7.45293 11.8292C7.41178 11.8118 7.36939 11.7968 7.32618 11.7845L6.62695 11.5845L7.32593 11.3849C7.36937 11.3725 7.41189 11.3574 7.45325 11.3399C7.45323 11.3399 7.45326 11.3399 7.45325 11.3399C7.5584 11.2954 7.65615 11.2347 7.74289 11.1601C7.76381 11.1421 7.78409 11.1233 7.80369 11.1037C7.82333 11.0841 7.84219 11.0637 7.86023 11.0428C7.93491 10.9559 7.99556 10.858 8.0401 10.7527C8.04009 10.7527 8.04011 10.7527 8.0401 10.7527C8.0575 10.7116 8.07248 10.6692 8.08483 10.626L8.28475 9.92674L8.48443 10.6257C8.49684 10.6692 8.51188 10.7117 8.52939 10.753C8.52939 10.753 8.5294 10.753 8.52939 10.753C8.57394 10.8582 8.63457 10.9559 8.70917 11.0427C8.72717 11.0636 8.74598 11.0839 8.76557 11.1035C8.78522 11.1231 8.80556 11.142 8.82654 11.16C8.91339 11.2347 9.01126 11.2954 9.11657 11.3399C9.11654 11.3399 9.1166 11.3399 9.11657 11.3399C9.15773 11.3573 9.20011 11.3723 9.24333 11.3846L9.94255 11.5845L9.24358 11.7842C9.20013 11.7966 9.15762 11.8117 9.11626 11.8292C9.11625 11.8292 9.11627 11.8292 9.11626 11.8292C9.01111 11.8737 8.91335 11.9344 8.82662 12.009C8.8057 12.027 8.78541 12.0458 8.76582 12.0654C8.74617 12.085 8.72732 12.1053 8.70928 12.1263C8.6346 12.2132 8.57394 12.311 8.5294 12.4164C8.52939 12.4164 8.52942 12.4163 8.5294 12.4164C8.512 12.4575 8.49702 12.4999 8.48467 12.5431L8.48443 12.5434L8.28475 13.2423L8.08508 12.5434C8.07271 12.5001 8.05774 12.4577 8.0403 12.4165C8.04024 12.4163 8.04017 12.4162 8.04011 12.416C7.99557 12.3109 7.93494 12.2132 7.86033 12.1264ZM9.38995 13.2423L9.6805 13.3391C9.70626 13.3477 9.73127 13.3581 9.75535 13.3703C9.75533 13.3703 9.75538 13.3703 9.75535 13.3703C9.80733 13.3967 9.85505 13.4312 9.89649 13.4726C9.93793 13.514 9.97239 13.5617 9.99872 13.6137C9.99871 13.6136 9.99873 13.6137 9.99872 13.6137C10.0109 13.6377 10.0214 13.6628 10.03 13.6886L10.1268 13.9791L10.2235 13.6886C10.2321 13.6628 10.2426 13.6378 10.2547 13.6137C10.2547 13.6138 10.2548 13.6137 10.2547 13.6137C10.2811 13.5618 10.3156 13.514 10.357 13.4726C10.3985 13.4312 10.4461 13.3967 10.4981 13.3704C10.498 13.3704 10.4981 13.3704 10.4981 13.3704C10.5222 13.3582 10.5472 13.3477 10.573 13.3391L10.8636 13.2423L10.573 13.1456C10.5472 13.137 10.5222 13.1265 10.4982 13.1143C10.4981 13.1143 10.4982 13.1144 10.4982 13.1143C10.4462 13.088 10.3985 13.0535 10.357 13.0121C10.3156 12.9706 10.2811 12.923 10.2548 12.871C10.2548 12.871 10.2548 12.871 10.2548 12.871C10.2426 12.8469 10.2321 12.8218 10.2235 12.7961L10.1268 12.5055L10.03 12.7961C10.0214 12.8218 10.011 12.8469 9.99876 12.8709C9.99875 12.871 9.99877 12.8709 9.99876 12.8709C9.97243 12.9229 9.93793 12.9706 9.89649 13.0121C9.85505 13.0535 9.80741 13.088 9.75543 13.1143C9.75541 13.1143 9.75546 13.1143 9.75543 13.1143C9.73135 13.1265 9.70626 13.137 9.6805 13.1456L9.38995 13.2423ZM10.4952 11.0319L10.5588 10.7777C10.5604 10.7713 10.5621 10.7648 10.5638 10.7584C10.5652 10.7535 10.5666 10.7486 10.5681 10.7436C10.5681 10.7437 10.5681 10.7436 10.5681 10.7436C10.5772 10.7127 10.5882 10.6824 10.6008 10.6529C10.6422 10.556 10.7018 10.4676 10.7768 10.3926C10.7767 10.3927 10.7769 10.3925 10.7768 10.3926C10.8518 10.3177 10.9403 10.2579 11.037 10.2166C11.0665 10.204 11.0969 10.193 11.1278 10.1839C11.1278 10.1839 11.1278 10.1839 11.1278 10.1839C11.1327 10.1824 11.1377 10.181 11.1427 10.1796C11.1491 10.1779 11.1555 10.1762 11.162 10.1746L11.4162 10.1109L11.162 10.0473C11.1555 10.0457 11.1491 10.044 11.1427 10.0423C11.1377 10.0409 11.1328 10.0395 11.1278 10.038C11.1278 10.038 11.1279 10.038 11.1278 10.038C11.0969 10.0289 11.0665 10.0179 11.037 10.0053C10.9403 9.96395 10.852 9.9044 10.777 9.82948C10.7769 9.82941 10.7771 9.82954 10.777 9.82948C10.702 9.75446 10.6422 9.66584 10.6008 9.56903C10.5882 9.53952 10.5772 9.50923 10.5681 9.47831C10.5681 9.47829 10.5681 9.47833 10.5681 9.47831C10.5666 9.47339 10.5652 9.4684 10.5638 9.46345C10.5621 9.45704 10.5604 9.4506 10.5588 9.44414L10.4952 9.18994L10.4315 9.44414C10.4299 9.45059 10.4282 9.45701 10.4265 9.46341C10.4251 9.46837 10.4237 9.47332 10.4222 9.47826C10.4222 9.47827 10.4222 9.47824 10.4222 9.47826C10.4131 9.50921 10.4021 9.53956 10.3895 9.56909C10.3481 9.66585 10.2886 9.75424 10.2136 9.82923C10.2136 9.82926 10.2136 9.8292 10.2136 9.82923C10.1386 9.90426 10.0501 9.96397 9.95326 10.0054C9.92382 10.018 9.89361 10.0289 9.86277 10.038C9.86276 10.038 9.86278 10.038 9.86277 10.038C9.85777 10.0395 9.85272 10.0409 9.84769 10.0423C9.84135 10.0441 9.83499 10.0457 9.82859 10.0473L9.57415 10.1109L9.82859 10.1746C9.83499 10.1762 9.84135 10.1778 9.84769 10.1796C9.85272 10.181 9.85773 10.1824 9.86273 10.1839C9.86272 10.1839 9.86274 10.1839 9.86273 10.1839C9.89357 10.193 9.92382 10.2039 9.95326 10.2165C10.0501 10.2579 10.1385 10.3175 10.2135 10.3926C10.2135 10.3925 10.2135 10.3926 10.2135 10.3926C10.2885 10.4676 10.3481 10.556 10.3895 10.6528C10.4021 10.6823 10.4131 10.7126 10.4222 10.7436C10.4222 10.7436 10.4222 10.7436 10.4222 10.7436C10.4237 10.7485 10.4251 10.7535 10.4265 10.7585C10.4282 10.7649 10.4299 10.7713 10.4315 10.7777L10.4952 11.0319Z" fill="#073742"/>
</svg>
