<svg width="86" height="94" viewBox="0 0 86 94" fill="none" xmlns="http://www.w3.org/2000/svg">
<path fill-rule="evenodd" clip-rule="evenodd" d="M23.8801 71.4572C22.2801 76.0772 17.6501 79.1872 14.6301 82.8472C13.8101 83.8372 15.3801 85.0772 16.2101 84.0772C19.1801 80.4872 23.5101 77.4472 25.4001 73.0672C25.7501 72.8972 26.0001 72.5572 25.9101 72.1072C25.8901 72.0372 25.8801 71.9672 25.8601 71.8972C25.8501 71.8272 25.8101 71.7872 25.7901 71.7272C25.7901 71.7372 25.8001 71.7372 25.8001 71.7472C25.7301 70.7672 24.2001 70.5072 23.8801 71.4572Z" fill="#073742"/>
<path fill-rule="evenodd" clip-rule="evenodd" d="M27.91 76.5372C27.12 76.9372 26.42 77.4072 25.78 77.9372C26.3 77.0872 26.81 76.2372 27.32 75.3772C27.97 74.2672 26.13 73.4872 25.48 74.5872C23.49 77.9572 20.04 80.1072 17.88 83.3472C17.17 84.4072 18.74 85.6572 19.46 84.5772C19.86 83.9772 20.31 83.4172 20.77 82.8772C20.31 83.8572 19.91 84.8572 19.57 85.8872C19.32 86.6672 19.98 87.3772 20.65 87.2872C20.3 88.1372 21.34 89.0372 22.17 88.4472C23 87.8672 23.73 87.1872 24.43 86.4772C23.99 87.0372 23.52 87.5972 23.03 88.0672C22.73 88.1072 22.44 88.2572 22.26 88.5872C22.17 88.7572 22.08 88.9172 21.99 89.0772C21.47 89.9972 22.76 90.8172 23.51 90.2672C25.04 89.1672 26.33 87.2772 27.45 85.7872C28.57 84.3072 29.82 82.4872 29.91 80.5672C29.95 79.7472 29.07 79.0272 28.32 79.6172C28.27 79.6572 28.22 79.7072 28.17 79.7472C28.52 79.1172 28.88 78.4872 29.2 77.8372C29.56 77.1072 28.69 76.1472 27.91 76.5372Z" fill="#073742"/>
<path fill-rule="evenodd" clip-rule="evenodd" d="M79.2001 20.6171C79.0601 18.9871 78.9301 17.2871 78.6701 15.6171C78.8301 14.2871 78.6901 12.9471 78.0101 11.6571C77.9001 11.4471 77.7101 11.2871 77.5001 11.1871C76.9601 9.86711 76.2101 8.63711 75.1701 7.57711C74.8501 7.24711 74.1901 7.32711 73.8701 7.65711C73.3901 7.00711 72.8801 6.38711 72.3301 5.83711C71.7901 5.28711 70.8201 5.79711 70.7301 6.47711C70.4401 8.53711 71.2101 10.2471 71.9801 12.1471C72.9301 14.4971 73.5001 17.1171 73.9701 19.7571C74.1001 21.2171 74.3201 22.6671 74.6001 24.1071C74.7601 27.6871 75.4101 31.1871 76.2101 34.7071C76.0901 34.3671 75.7601 34.0871 75.4001 34.0071C73.9901 33.6771 72.1001 33.8771 70.6001 34.6171C70.3101 34.5071 69.9701 34.5271 69.6601 34.7371C69.0701 35.1471 68.5301 35.5971 68.0101 36.0671C68.3701 35.1171 68.6601 34.1371 68.7801 33.0771C68.9001 32.0671 67.6601 31.5371 67.0001 32.3071C62.2101 37.9171 57.3701 43.6771 55.1201 50.8171C55.0001 51.1871 55.1301 51.5871 55.3601 51.8771C53.9701 53.7771 52.6301 55.7271 51.3001 57.6871C50.7001 58.5671 50.1201 59.4471 49.5601 60.3371C48.1601 62.1771 46.8601 64.0871 45.7801 66.1671C45.7101 66.2971 45.6801 66.4271 45.6701 66.5471C43.1901 69.3171 40.8701 72.2371 38.6001 75.1671C37.7901 76.2071 34.4601 79.4871 35.6401 81.0871C36.4001 82.1271 38.0001 80.9171 37.2401 79.8771C37.6801 80.4671 38.6001 78.5071 39.0801 77.8371C39.2301 77.6371 39.3901 77.4371 39.5401 77.2371C38.9101 78.3671 38.3101 79.5071 37.7201 80.6471C37.2701 81.4971 38.3101 82.2571 39.0501 81.9471C39.0001 82.0171 38.9501 82.0871 38.9001 82.1571C38.1801 83.2071 39.6901 84.4271 40.4801 83.3871C43.4401 79.4571 45.7301 75.0071 49.0601 71.4171C49.1201 71.4671 49.1901 71.4971 49.2701 71.5371C49.2601 71.5771 49.2401 71.6171 49.2301 71.6571C46.1101 74.8271 44.4701 79.3371 41.7001 82.8471C40.9001 83.8571 42.4501 85.0771 43.2701 84.0771C43.2901 84.0471 43.3201 84.0171 43.3401 83.9871C43.3501 84.1071 43.3701 84.2171 43.4101 84.3271C43.2001 84.5871 42.9901 84.8471 42.7601 85.0971C42.0001 85.9271 43.3101 87.2771 44.1501 86.5071C44.2101 86.4471 44.2701 86.3871 44.3301 86.3271C44.3401 86.3171 44.3501 86.3071 44.3601 86.2871C45.6001 85.0971 46.5401 83.7371 47.4001 82.3171C50.1001 79.4371 52.8701 75.5871 53.4101 71.9971C55.2201 69.5271 56.8501 66.9371 58.3401 64.2771C58.5701 63.9471 58.8001 63.6071 59.0301 63.2771C59.1601 63.0971 59.1901 62.9071 59.2001 62.7271C59.5901 61.9971 59.9801 61.2671 60.3501 60.5371C60.6901 60.7371 61.1201 60.7671 61.4301 60.4671C63.9501 58.0271 65.4701 55.0371 67.3301 52.0971C68.0701 50.9371 68.9001 49.8471 69.7401 48.7771C71.4801 47.0371 73.1201 45.2671 74.2901 43.2271C74.5401 43.4071 74.8001 43.5571 75.0501 43.6571C75.3801 43.7971 75.6801 43.8171 75.9801 43.7971C76.3501 44.0971 76.7901 44.3371 77.3701 44.5371C78.1701 44.7971 79.0401 44.1171 78.7001 43.2471C78.5701 42.9071 78.3501 42.4871 78.0901 42.0571C78.2801 41.6571 78.4301 41.2271 78.5301 40.7771C78.8801 40.6871 79.1901 40.4371 79.2401 39.9871C79.5401 37.3671 79.4901 34.7571 79.3901 32.1371C79.4601 30.4971 79.4601 28.8571 79.2201 27.1571C79.1901 25.3771 79.2101 23.5971 79.3901 21.8171C79.4301 21.4671 79.3001 21.2071 79.1101 21.0071C79.1901 20.9271 79.2201 20.7871 79.2001 20.6171ZM45.2501 72.9771C44.1301 74.4871 43.1001 76.0571 42.0601 77.6271C42.6501 76.6271 43.2201 75.6171 43.7801 74.5871C44.0601 74.0771 44.3601 73.5871 44.6701 73.0971C45.1101 72.5671 45.5701 72.0571 46.0501 71.5671C45.8001 72.0471 45.5301 72.5171 45.2501 72.9771ZM49.6901 68.0671C49.6201 68.1271 49.5401 68.1871 49.4701 68.2571C49.4301 67.9771 49.3001 67.7371 49.1001 67.5871C49.2801 67.3971 49.4601 67.1971 49.6401 66.9971C49.6901 67.1871 49.7801 67.3571 49.9101 67.5071C49.8301 67.6871 49.7601 67.8871 49.6901 68.0671ZM56.8501 62.9571C55.8301 64.3371 54.7701 65.6771 53.7801 67.0471C55.0601 65.0871 56.2401 63.0471 57.4701 61.0471C57.5401 61.1471 57.6301 61.2371 57.7401 61.3071C57.4501 61.8571 57.1501 62.4071 56.8501 62.9571ZM68.2301 38.6771C67.7101 39.6871 67.0601 40.6471 66.3901 41.5871C66.0601 41.9171 65.7401 42.2571 65.4301 42.6071C66.2501 41.2071 67.1601 39.8671 68.2301 38.6771ZM65.2301 47.7971C65.4201 47.4271 65.6001 47.0571 65.7801 46.6771C65.9101 46.3871 65.9001 46.1271 65.8001 45.9071C66.2601 45.2271 66.7101 44.5371 67.1801 43.8671C67.4501 43.4971 67.7101 43.1171 67.9801 42.7371C68.6001 42.1271 69.2601 41.5471 69.9501 41.0271C68.8301 43.5071 66.8801 45.6771 65.2301 47.7971ZM71.8401 41.6271C71.9801 41.3071 72.1101 40.9771 72.2301 40.6471C72.3701 40.6971 72.5101 40.7371 72.6601 40.7771C72.7001 40.8771 72.7401 40.9671 72.7901 41.0471C72.4601 41.2271 72.1501 41.4271 71.8401 41.6271Z" fill="#073742"/>
<path fill-rule="evenodd" clip-rule="evenodd" d="M37.41 43.6171C36.04 41.9971 34.42 40.6171 33.02 39.0271C32.83 38.7371 32.64 38.4671 32.39 38.1871C32.17 37.9371 32.07 37.7971 32.02 37.7671C31.9 37.6071 31.78 37.4471 31.67 37.2771C31.26 36.6571 30.22 36.8071 29.95 37.4871C29.36 38.9971 31.16 39.5971 31.74 40.8471C32.73 43.0071 32.69 45.5671 33.38 47.8271C33.54 48.3471 34.2 48.5771 34.68 48.3871C35.36 48.1171 35.44 47.6171 35.58 46.9571C35.6 46.8671 35.6 46.7871 35.6 46.7171C36 46.5971 36.34 46.2471 36.39 45.8071C36.66 45.5471 36.94 45.2871 37.22 45.0171C37.59 44.6671 37.79 44.0671 37.41 43.6171Z" fill="#073742"/>
<path fill-rule="evenodd" clip-rule="evenodd" d="M57.54 9.61719C58.24 12.7472 58.9 16.3872 59.49 19.7672C59.54 20.0372 59.93 20.5572 59.47 20.7772C58.87 20.9072 58.91 20.2172 58.82 19.8972C58.47 18.6672 58.34 17.3372 58.05 15.9872C57.87 15.1472 57.7 14.2772 57.54 13.4072C57.38 12.5172 57.15 11.6272 57.03 10.8272C56.98 10.5172 57.01 10.2272 56.97 9.90719C57.01 9.83719 57.05 9.76719 57.04 9.64719C57.2 9.63719 57.37 9.62719 57.54 9.61719Z" fill="white"/>
<path fill-rule="evenodd" clip-rule="evenodd" d="M55.3 11.4572C55.78 11.5372 55.72 12.1872 55.79 12.5172C56.32 14.8472 57.31 17.4972 57.57 20.2372C57.61 20.6372 57.79 21.1872 57.4 21.5172C56.83 21.5472 57 20.9572 56.92 20.6272C56.5 18.8572 56.27 16.7572 55.69 14.8872C55.37 13.8672 55 13.0372 54.97 11.7372C55.01 11.6172 55.09 11.5272 55.2 11.4672C55.24 11.4572 55.27 11.4572 55.3 11.4572Z" fill="white"/>
<path fill-rule="evenodd" clip-rule="evenodd" d="M60.42 14.8171C60.64 16.4471 61.36 18.4671 61.62 20.1271C61.69 20.5471 61.96 21.5971 61.31 21.7471C60.85 21.4771 61.05 20.9771 60.98 20.5871C60.64 18.8171 60.03 17.1671 59.85 15.0971C59.82 14.9671 59.92 14.9471 59.92 14.8371C60.08 14.8371 60.25 14.8271 60.42 14.8171Z" fill="white"/>
<path fill-rule="evenodd" clip-rule="evenodd" d="M62.8 17.6971C63.23 18.0971 63.15 19.1171 63.21 20.0271C63.27 20.8471 63.54 21.8971 63.02 22.2371C62.36 22.2171 62.52 21.0871 62.47 20.3371C62.41 19.4671 62.27 18.3971 62.4 17.9771C62.37 17.8471 62.47 17.8271 62.47 17.7171C62.58 17.7071 62.69 17.6971 62.8 17.6971Z" fill="white"/>
<path fill-rule="evenodd" clip-rule="evenodd" d="M52.6901 30.3472C53.3301 30.5072 53.3101 31.3372 53.4601 31.8072C54.4901 35.0272 56.1001 37.9472 57.1301 41.2572C57.2801 41.7572 57.5901 42.4472 57.0701 42.8672C56.4801 42.6172 56.5301 41.8872 56.3801 41.3972C55.6001 38.7972 54.2301 36.3872 53.3401 33.8472C52.9901 32.8472 52.5901 31.4672 52.4501 30.6172C52.4201 30.4772 52.5201 30.4672 52.5201 30.3572C52.5801 30.3572 52.6401 30.3472 52.6901 30.3472Z" fill="white"/>
<path fill-rule="evenodd" clip-rule="evenodd" d="M50.4401 31.8472C51.1301 32.0472 51.1901 32.9272 51.3901 33.4672C51.6201 34.0772 51.8001 34.7572 52.0201 35.3672C52.4601 36.5572 53.1601 37.6872 53.6101 38.8872C54.3101 40.7472 54.8901 42.7072 55.5201 44.6572C55.7101 45.2272 56.1901 45.9872 55.6501 46.5872C55.0801 46.6572 55.2601 46.0372 55.1701 45.7772C54.5201 43.7272 53.7601 41.5172 52.9701 39.3472C52.5401 38.1872 51.9101 37.0672 51.4701 35.9072C50.9901 34.6472 50.5401 33.3572 50.2001 32.1172C50.1701 31.9772 50.2701 31.9672 50.2701 31.8572C50.3201 31.8572 50.3801 31.8472 50.4401 31.8472Z" fill="white"/>
<path fill-rule="evenodd" clip-rule="evenodd" d="M58.0601 38.6671C57.4201 38.8071 57.2901 37.8771 57.1301 37.3771C56.5901 35.7471 56.0301 33.4371 55.5701 31.7471C55.5401 31.6171 55.6401 31.5971 55.6401 31.4871C56.3701 31.2571 56.4701 32.3871 56.6801 33.1071C57.0701 34.4571 57.3801 35.6371 57.7801 36.9071C57.9701 37.5471 58.3401 38.1771 58.0601 38.6671Z" fill="white"/>
<path fill-rule="evenodd" clip-rule="evenodd" d="M72.0703 43.8773C71.1303 44.3973 70.5803 43.1173 70.1203 42.4873C69.0803 41.0673 67.9803 39.9973 66.7303 38.4973C66.2003 37.8673 64.7003 36.5273 65.5503 35.9673C66.1103 36.4173 66.5303 37.1273 67.0203 37.7273C68.4203 39.4573 70.0803 41.0773 71.4203 42.9973C71.6003 43.3273 72.1703 43.2173 72.0703 43.8773Z" fill="white"/>
<path fill-rule="evenodd" clip-rule="evenodd" d="M25.1801 42.3972C25.8701 42.4472 25.6101 43.3772 25.7001 43.7972C25.9801 45.1272 26.5901 46.5072 26.9901 47.9272C27.3801 49.3072 27.8801 50.6772 28.2801 52.0572C28.9101 54.1872 29.5001 56.2972 29.9801 58.5172C30.1101 59.1172 30.5101 60.1972 29.9501 60.5372C29.3401 60.5772 29.5201 59.8172 29.4601 59.5572C28.8301 56.8672 28.2701 54.2772 27.4101 51.5972C26.9901 50.2872 26.6101 48.7372 26.1001 47.1372C25.6601 45.7572 24.7101 43.8572 24.9601 42.6572C24.9501 42.5172 25.0101 42.4372 25.1101 42.3972C25.1301 42.4072 25.1501 42.3972 25.1801 42.3972Z" fill="white"/>
<path fill-rule="evenodd" clip-rule="evenodd" d="M68.7001 47.6471C67.9201 47.8871 67.2501 47.1171 66.6901 46.6071C65.5101 45.5271 64.6401 44.6271 63.3501 43.3771C62.7401 42.7771 61.6701 41.9771 61.8601 41.2871C61.9201 41.2871 61.9701 41.2771 62.0301 41.2771C62.7001 41.5571 63.2701 42.2171 63.8201 42.7571C65.1601 44.0771 66.4501 45.5371 67.9701 46.7771C68.2501 46.9971 68.8101 47.1171 68.7001 47.6471Z" fill="white"/>
<path fill-rule="evenodd" clip-rule="evenodd" d="M51.41 42.5671C52.02 43.5771 52.21 45.0871 52.75 46.1871C52.91 46.4871 53.36 46.9071 52.99 47.2671C52.18 47.2171 51.97 46.1471 51.68 45.4171C51.36 44.5871 51.14 43.6871 50.92 42.8571C50.89 42.7271 50.99 42.7071 50.99 42.5971C51.13 42.5871 51.27 42.5771 51.41 42.5671Z" fill="white"/>
<path fill-rule="evenodd" clip-rule="evenodd" d="M23.0601 44.6472C23.5401 44.7572 23.5401 45.3772 23.6401 45.7072C25.2001 51.1472 26.7601 56.7572 28.5301 61.9872C28.6601 62.3772 28.7601 62.8872 28.8701 63.3172C28.9701 63.6872 29.3101 64.1372 28.9501 64.4872C28.4001 64.5972 28.3201 63.9072 28.2201 63.6072C26.7301 59.3272 25.4301 54.5972 24.1001 50.0572C23.6001 48.3472 23.0701 46.5972 22.7401 44.9172C22.7801 44.7972 22.8601 44.7072 22.9701 44.6472C23.0001 44.6572 23.0301 44.6572 23.0601 44.6472Z" fill="white"/>
<path fill-rule="evenodd" clip-rule="evenodd" d="M61.01 42.3472C61.57 42.3072 61.81 42.9172 62.08 43.2072C62.95 44.1272 63.97 44.9772 64.96 45.8772C65.94 46.7672 66.81 47.7372 67.84 48.6372C68.14 48.8972 68.69 49.1072 68.75 49.5872C68.35 50.1472 67.86 49.6772 67.56 49.4172C65.88 47.9672 64.4 46.4272 62.69 44.7672C61.95 44.0472 61.02 43.4072 60.85 42.4472C60.91 42.4172 60.92 42.3472 61.01 42.3472Z" fill="white"/>
<path fill-rule="evenodd" clip-rule="evenodd" d="M83.9501 41.2172C84.4401 41.5372 84.2701 42.2372 84.3001 42.7072C84.4801 45.3472 84.1901 47.6872 83.4201 49.6772C83.2101 50.2172 83.1201 50.7872 82.9301 51.2272C82.7801 51.5672 82.4401 51.8272 82.2401 52.1972C81.9001 52.8372 81.7901 53.6672 81.4501 54.2772C81.2501 54.6372 80.8901 54.8872 80.6701 55.2572C80.5101 55.5272 80.4001 55.9072 80.2301 56.2172C80.0701 56.5072 79.8001 56.7672 79.6901 57.0072C79.4601 57.5572 79.7801 58.4372 78.7701 58.4172C78.6201 57.1772 79.3901 56.1672 79.9001 55.2172C80.1701 54.7272 80.4701 54.2872 80.7301 53.8172C80.9901 53.3472 81.2401 52.8572 81.4701 52.3372C81.6901 51.8572 82.0101 51.4072 82.2201 50.9372C82.3701 50.5972 82.4401 50.1672 82.5701 49.8172C82.8401 49.0572 83.2301 48.1072 83.4001 47.0672C83.4501 46.7372 83.3701 46.3672 83.4101 45.9672C83.4801 45.3772 83.7001 44.8672 83.7001 44.0872C83.7001 43.2872 83.4601 42.1472 83.6001 41.3172C83.6601 41.2372 83.7501 41.1772 83.8401 41.1372C83.9301 41.1272 83.9401 41.1672 83.9501 41.2172Z" fill="white"/>
<path fill-rule="evenodd" clip-rule="evenodd" d="M49.0301 46.0172C49.3601 46.6872 49.5901 47.5372 49.8601 48.3272C50.1301 49.0972 50.5801 49.8872 50.4301 50.5672C49.5901 50.6172 49.4701 49.4272 49.2101 48.7072C48.9301 47.9172 48.6701 47.0472 48.4601 46.3172C48.4301 46.1872 48.5301 46.1672 48.5301 46.0572C48.6901 46.0472 48.8601 46.0272 49.0301 46.0172Z" fill="white"/>
<path fill-rule="evenodd" clip-rule="evenodd" d="M65.9201 52.6372C65.0501 52.8472 64.3501 52.0272 63.8201 51.5172C62.3701 50.0972 61.1301 48.4572 59.5601 47.0872C59.2601 46.8272 58.7501 46.6372 58.8201 46.1272C58.8801 46.0472 59.0501 46.0572 59.0601 45.9472C59.1601 45.9272 59.2101 45.9572 59.2301 46.0172C61.5501 47.5172 63.0301 49.9972 65.1801 51.7672C65.4501 51.9772 66.0201 52.1072 65.9201 52.6372Z" fill="white"/>
<path fill-rule="evenodd" clip-rule="evenodd" d="M29.69 51.7072C30.26 52.0272 30.38 52.8971 30.58 53.5871C30.79 54.3071 30.85 55.1371 31.07 55.8271C31.32 56.6271 31.96 57.2871 31.64 57.9771C31.06 58.1171 30.92 57.3671 30.72 56.8571C30.34 55.8871 30.19 54.8772 29.83 53.6272C29.6 52.8372 29.2 52.2172 29.53 51.7072C29.58 51.7172 29.63 51.7072 29.69 51.7072Z" fill="white"/>
<path fill-rule="evenodd" clip-rule="evenodd" d="M22.4901 52.4472C22.9101 52.5272 22.8801 53.1172 22.9801 53.4272C23.6501 55.4872 24.5901 57.6872 24.9501 60.1172C24.9901 60.4272 25.2201 60.9172 24.8501 61.1372C24.3501 61.2272 24.3001 60.6572 24.2101 60.3372C23.8801 59.2672 23.7101 58.0272 23.3901 56.9372C22.9601 55.4472 22.2201 54.0272 22.1701 52.6372C22.0901 52.4572 22.4501 52.2672 22.4901 52.4472Z" fill="white"/>
<path fill-rule="evenodd" clip-rule="evenodd" d="M85.0401 49.9972C85.6901 50.1072 85.5501 50.8872 85.5401 51.2272C85.5401 51.9572 85.3501 52.7872 85.1901 53.5272C85.0501 54.1872 84.6901 54.7872 84.4701 55.4272C84.3301 55.8472 84.3701 56.3172 84.2201 56.7072C83.9501 57.4272 83.4401 58.1872 83.1101 58.9772C82.9301 59.4172 82.8201 59.7472 82.6001 60.1072C82.4001 60.4372 82.1101 60.7172 81.9101 61.0772C81.6501 61.5472 81.5101 62.1372 81.2601 62.6372C81.0201 63.1172 80.6701 63.5072 80.4201 63.9572C80.11 64.5272 80.1201 65.7372 79.1101 65.7272C78.9001 65.0872 79.4401 64.5672 79.6701 64.0872C80.1701 63.0772 80.7101 62.1172 81.2301 61.0272C81.3601 60.7572 81.4401 60.4872 81.6001 60.2472C81.7501 60.0272 82.0001 59.8772 82.1501 59.6172C82.4101 59.1572 82.62 58.4872 82.88 57.8872C83.1 57.3572 83.4301 56.7572 83.6101 56.2372C83.7201 55.9272 83.6901 55.5472 83.7901 55.2172C83.9801 54.6272 84.2901 54.1072 84.4301 53.4872C84.6601 52.4872 84.8501 51.6072 84.7201 50.2672C84.7601 50.1472 84.84 50.0572 84.95 49.9972C84.99 50.0072 85.0101 50.0072 85.0401 49.9972Z" fill="white"/>
<path fill-rule="evenodd" clip-rule="evenodd" d="M4.57003 56.8572C4.63003 56.8572 4.68003 56.8472 4.74003 56.8472C5.41003 57.2572 4.77003 58.3172 4.55003 58.9672C3.83003 61.0672 3.07003 63.4772 3.02003 66.3172C2.99003 67.9772 3.10003 70.2372 3.40003 72.0272C3.49003 72.5772 4.04003 73.2872 3.43003 73.7072C2.86003 73.5772 2.76003 73.0072 2.68003 72.6572C2.49003 71.7672 2.55003 70.7072 2.48003 69.7172C2.27003 66.5772 2.32003 64.0972 2.94003 61.5972C3.41003 59.7972 4.06003 58.1772 4.57003 56.8572Z" fill="white"/>
<path fill-rule="evenodd" clip-rule="evenodd" d="M20.97 56.1771C21.32 57.2971 21.59 58.6171 21.9 59.9071C22 60.3271 22.19 60.8771 22.25 61.3171C22.3 61.7271 22.49 62.3771 22 62.5971C21.35 62.5271 21.56 61.7171 21.49 61.2871C21.24 59.7771 20.58 58.0571 20.41 56.4671C20.48 56.3971 20.53 56.3071 20.56 56.2071C20.69 56.1871 20.83 56.1871 20.97 56.1771Z" fill="white"/>
<path fill-rule="evenodd" clip-rule="evenodd" d="M0.880052 67.0471C1.43005 67.1971 1.28005 67.9871 1.31005 68.4471C1.49005 70.7471 1.87005 72.7671 2.33005 74.8671C2.68005 76.4571 3.04005 77.7571 3.62005 78.9971C3.79005 79.3571 4.24005 79.7771 3.96005 80.2371C3.26005 80.4971 3.33005 79.9371 3.05005 79.2871C2.77005 78.6371 2.28005 77.7971 2.05005 76.9071C1.69005 75.5471 1.31005 73.8971 1.07005 72.4171C0.830052 70.9371 0.450052 68.9371 0.560052 67.3071C0.550052 67.1671 0.610052 67.0871 0.710052 67.0471C0.770052 67.0571 0.820052 67.0571 0.880052 67.0471Z" fill="white"/>
<path fill-rule="evenodd" clip-rule="evenodd" d="M29.67 82.7271C29.1 82.8171 28.91 82.1971 28.6 81.8671C27.08 80.2871 25.69 78.6371 23.97 76.9571C23.75 76.7471 23.39 76.3671 22.98 76.0071C22.54 75.6271 21.49 75.3271 22.22 74.7971C23.03 74.8571 23.48 75.6071 23.99 76.1071C25.03 77.1271 26.04 78.1871 27.07 79.2671C27.58 79.8071 28.05 80.3471 28.53 80.8571C29.01 81.3771 30.02 81.7971 29.67 82.7271Z" fill="white"/>
<path fill-rule="evenodd" clip-rule="evenodd" d="M24.0501 89.4371C23.4701 89.5371 23.2401 88.8871 22.9801 88.5871C20.9901 86.2571 18.1201 84.5371 16.0501 82.1371C16.0301 81.9871 16.1401 81.9571 16.1101 81.7971C16.1701 81.7971 16.2201 81.7871 16.2801 81.7871C16.8501 81.7171 17.1001 82.3171 17.4301 82.6371C19.3701 84.4871 21.7401 86.0971 23.5401 88.2971C23.8001 88.5871 24.4101 88.9171 24.0501 89.4371Z" fill="white"/>
<path fill-rule="evenodd" clip-rule="evenodd" d="M80.89 45.9772C79.18 46.4872 77.32 45.7572 75.7 45.2272C75.24 45.0772 74.44 44.6072 74.14 44.6572C73.63 44.7472 72.37 46.8372 72.04 47.3272C71.31 48.3972 70.65 49.2372 70.12 50.0672C68.83 52.0672 67.32 53.6272 66.01 55.4072C64.65 57.2472 63.1 58.9272 61.99 60.8172C60.84 62.7872 59.56 64.5972 58.5 66.6171C57.46 68.5872 56.38 70.6672 55.11 72.5772C54.47 73.5372 53.83 74.5071 53.28 75.4771C52.71 76.4872 52.21 77.5272 51.54 78.3772C48.7 81.9672 46.27 85.7271 43.59 89.1972C43.04 88.9472 42.56 88.8072 42.11 88.4572C41.69 88.1372 41.35 87.7472 40.95 87.4372C38.47 85.5472 35.72 83.9872 32.7 82.5972C32.16 82.8572 31.65 83.2972 31.26 83.7072C29.85 85.1772 28.44 86.6471 27.19 88.4472C27.09 88.5872 27.05 88.7572 26.97 88.8872C26.61 89.3972 25.98 90.0371 25.57 90.5872C25.31 90.9371 24.93 91.4872 24.57 92.0872C24.36 92.4371 23.81 93.4772 23.57 93.5072C23.36 93.5272 22.53 92.5772 22.22 92.2472C21.69 91.6772 21.32 91.2472 20.95 90.8972C20.06 90.0472 18.97 89.3372 18.1 88.6472C16.09 87.0372 14.5 85.3772 12.4 84.1372C12.12 83.8972 12.49 83.4172 12.25 83.2172C11.15 81.6572 10.09 79.5172 9.16004 77.4372C8.02004 74.8772 6.69004 72.2972 5.57004 69.2472C5.28004 68.4572 4.88004 67.5772 4.91004 66.9272C4.94004 66.2772 5.64004 65.3872 6.19004 64.6472C6.74004 63.9172 7.41004 63.2172 7.83004 62.6772C8.86004 61.3672 9.82004 59.8872 10.84 58.5972C11.93 57.2172 12.97 55.9172 13.94 54.5072C14.89 53.1272 15.66 51.6072 16.68 50.1872C17.66 48.8372 18.69 47.4672 19.6 45.9472C20.05 45.1972 20.49 44.4772 20.97 43.7472C21.88 42.3572 22.92 41.0772 23.89 39.5872C24.32 38.9272 24.75 38.1672 25.27 37.4672C25.51 37.1472 25.87 36.8872 26.13 36.4872C26.58 35.8072 27.35 33.5072 28.28 33.3872C28.5 33.3572 29.35 33.6872 29.58 33.8872C29.69 33.9872 29.63 34.1372 29.78 34.2972C32.45 37.2472 35.45 40.3172 38.12 43.0072C40.01 40.6372 41.34 37.8872 42.9 35.1772C43.4 34.3172 43.93 33.4272 44.41 32.5472C44.9 31.6372 45.46 30.7972 46 29.9072C47.55 27.3772 49.05 24.6772 50.62 22.0972C50.18 21.5372 49.38 21.3172 48.85 20.8672C48.39 20.4672 48.06 19.8472 47.48 19.3572C46.97 18.9272 46.5 18.4772 45.96 18.0272C45.57 17.6972 45.08 17.1872 44.52 16.6072C44.07 16.1372 43.25 15.4672 43.23 15.0072C43.19 14.0872 45.27 13.2272 46.03 12.7072C46.61 12.3172 47.12 12.0072 47.56 11.6772C48.05 11.3172 48.42 10.8072 48.91 10.4872C49.53 10.0872 50.32 9.85716 51.04 9.49716C51.69 9.16716 52.34 8.75716 52.99 8.43716C54.31 7.78716 55.61 7.01716 56.89 6.23716C59.4 4.69716 62.24 3.41716 64.87 1.98716C65.97 1.38716 66.96 0.677157 68.03 0.177157C69.57 -0.542843 70.26 1.10716 71.19 1.98716C71.45 2.23716 71.68 2.44716 71.91 2.69716C73.45 4.35716 75.54 5.66716 77.12 7.40716C77.34 7.64716 77.51 7.97716 77.76 8.20716C78 8.43716 78.35 8.50716 78.55 8.74716C78.89 9.13716 79.45 10.1672 79.51 10.4572C79.63 11.0472 79.54 11.9072 79.57 12.6472C79.79 17.7272 80.36 24.2272 80.34 29.1172C80.32 32.8672 80.95 36.7772 80.92 40.2072C80.92 40.5172 80.82 40.8272 80.81 41.1472C80.77 42.7972 81.09 44.4072 80.89 45.9772ZM65.45 3.18716C64.22 3.86716 62.9 4.62716 61.55 5.30716C58.17 6.99716 54.98 8.94716 51.79 10.5972C51.07 10.9672 50.28 11.1972 49.67 11.5872C49.09 11.9472 48.62 12.5472 48.08 12.9572C47 13.7672 45.93 14.3072 44.85 15.0272C45.43 16.0172 46.6 16.7472 47.37 17.4672C47.89 17.9572 48.54 18.3872 48.98 18.8772C49.27 19.1972 49.41 19.6372 49.72 19.9272C49.94 20.1272 50.52 20.5372 50.96 20.7672C51.51 21.0672 52.1 21.0772 52.2 21.6072C52.29 22.0672 51.58 22.9972 51.24 23.6072C50.83 24.3472 50.39 24.9572 50.1 25.4572C49.7 26.1372 49.44 26.8172 49.05 27.3872C48.62 28.0272 48.25 28.6072 47.91 29.2372C47.16 30.6172 46.27 31.7572 45.63 32.9272C45.28 33.5772 44.95 34.2072 44.58 34.8572C43.86 36.1172 43.18 37.4272 42.48 38.7072C41.09 41.2172 39.31 43.6472 37.83 46.0172C37.03 47.2972 36.32 48.3072 35.55 49.7072C35.19 50.3672 34.66 51.3772 34.23 51.3972C33.21 51.4372 32.87 48.7472 32.54 47.6372C32.04 45.9472 31.61 44.7572 31.17 43.5172C30.15 40.6272 29.66 37.6472 28.5 35.1872C27.86 35.7172 27.63 36.5372 27.2 37.2172C26.76 37.9172 26.18 38.4772 25.73 39.1672C24.86 40.5072 23.97 41.8472 22.96 43.1472C21.98 44.4072 21.19 45.8372 20.37 47.2872C19.57 48.6972 18.47 49.9472 17.52 51.2772C16.58 52.5872 15.87 54.0672 14.93 55.4172C14.02 56.7272 13.05 57.9772 11.98 59.2372C11.03 60.3672 10.21 61.7572 9.12004 63.1372C8.71004 63.6572 8.09004 64.2972 7.56004 65.0172C7.05004 65.7072 6.30004 66.5572 6.27004 67.1272C6.23004 67.7372 6.65004 68.5772 6.92004 69.2772C7.69004 71.2472 8.58004 73.3572 9.42004 75.0972C9.72004 75.7272 10.11 76.2672 10.38 76.8872C11.27 78.9272 12.08 80.7772 13.2 82.4272C13.57 82.4072 13.86 82.0272 14.08 81.7772C14.36 81.4771 14.59 81.1672 14.86 80.8872C16.55 79.1072 17.66 77.0572 19.19 75.1171C20.08 73.9872 21.29 72.6572 22.23 71.4572C22.63 70.9472 23.04 70.2272 23.62 69.5072C24.1 68.9172 24.67 67.7472 25.36 67.7872C25.84 67.8172 26.08 68.4372 26.46 69.1472C26.84 69.8372 27.14 70.4372 27.33 70.7772C29.23 74.1972 31.4 76.7872 32.87 80.3472C33.26 80.3872 33.39 79.8871 33.66 79.6171C33.98 79.3072 34.37 79.1072 34.62 78.7972C34.98 78.3372 35.28 77.7872 35.62 77.2972C35.97 76.7972 36.27 76.2872 36.61 75.7972C38.7 72.7972 40.94 70.0872 43.2 67.2572C44.65 65.4372 45.97 63.3472 47.35 61.3272C48.72 59.3272 50.13 57.3372 51.41 55.3172C52.05 54.3172 52.85 53.4172 53.49 52.3972C54.13 51.3772 54.59 50.2272 55.21 49.1572C55.82 48.1172 56.44 47.1072 57.11 46.0772C57.78 45.0472 58.38 43.9972 59 42.9172C59.61 41.8372 60.16 40.7672 60.81 39.7572C62.43 37.2372 64.25 34.8972 65.69 32.0972C66.52 30.4872 66.92 30.4472 68.25 31.3372C68.7 31.6372 69.1 32.1372 69.49 32.2672C70.17 32.4972 71.06 32.4872 71.7 32.5372C72.54 32.5972 73.36 32.4672 74.23 32.5372C74.04 28.2072 73.18 24.0572 72.71 19.9972C72.47 17.9372 71.94 15.8572 71.64 14.1672C71.27 12.1072 70.94 10.3172 70.5 8.50716C69.9 6.06716 69.61 3.60716 68.67 1.37716C68.61 1.37716 68.56 1.38716 68.5 1.38716C67.42 1.78716 66.52 2.59716 65.45 3.18716ZM71.24 4.05716C71.12 4.04716 71.09 3.92716 70.98 3.90716C70.92 4.08716 71.22 4.26716 71.24 4.05716ZM73.6 7.85716C74.39 8.31716 75.01 8.82716 75.63 9.23716C75.81 9.31716 75.81 9.31716 75.71 9.14716C74.21 7.99716 72.97 6.55716 71.26 5.65716C71.4 7.06716 72.63 7.29716 73.6 7.85716ZM72 9.14716C74.07 9.97716 75.82 11.7672 77.56 12.9072C77.81 13.0672 78.24 13.4672 78.34 13.1872C78.25 12.8072 77.89 12.7372 77.7 12.4672C77.65 12.7172 77.43 12.4372 77.28 12.4972C75.49 11.1472 73.82 9.64716 71.87 8.47716C71.83 8.80716 72.01 8.87716 72 9.14716ZM77.58 11.8072C77.24 11.1372 76.48 10.7772 75.88 10.3172C75.27 9.84716 74.65 9.28716 74.03 9.09716C75.29 9.91716 76.36 10.9372 77.58 11.8072ZM73.76 11.3872C75.26 12.3472 76.37 13.3072 77.66 14.1572C77.87 14.2972 78.26 14.7772 78.36 14.4472C78.03 13.9072 77.43 13.6172 76.93 13.2772C75.34 12.2172 73.98 10.9772 72.33 10.0472C72.32 9.99716 72.31 9.94716 72.24 9.96716C72.2 10.7872 73.14 10.9972 73.76 11.3872ZM77.23 10.3972C77.18 10.3372 76.84 10.0072 76.96 10.1572C77.12 10.3572 77.3 10.4772 77.23 10.3972ZM72.61 11.8872C74.71 12.7472 76.41 14.5672 78.1 15.8172C78.16 15.8572 78.36 16.3072 78.45 15.9672C78.32 15.3372 77.65 15.0272 77.18 14.7072C75.67 13.6672 74.31 12.4672 72.67 11.6372C72.65 11.5772 72.59 11.5472 72.5 11.5672C72.5 11.7172 72.61 11.7372 72.61 11.8872ZM73.05 14.6472C73.27 14.6272 73.5 14.6172 73.72 14.5972C75.51 15.4972 76.95 16.8072 78.58 17.8972C78.67 16.8072 77.57 16.4472 76.93 15.8972C75.61 14.7772 74.34 13.4172 72.76 12.8072C72.84 13.4372 72.96 14.0272 73.05 14.6472ZM73.39 15.9672C74.02 16.3672 74.8 16.6772 75.41 17.1772C76.46 18.0472 77.39 19.3272 78.31 20.1872C78.33 20.2072 78.65 20.5972 78.74 20.3272C78.71 19.8772 78.68 19.4272 78.65 18.9872C76.93 17.6772 75.4 16.1372 73.26 15.3072C73.33 15.4972 73.41 15.6772 73.39 15.9672ZM76.16 19.4872C77.09 20.2272 77.94 21.1372 78.84 21.6672C77.42 20.2672 75.9 18.4072 74.25 17.3372C74.07 17.2172 73.67 16.6772 73.56 17.0472C74.01 18.2172 75.23 18.7472 76.16 19.4872ZM73.98 19.6372C75.88 20.6872 77.2 22.3972 78.97 23.5972C79.12 22.7972 78.44 22.4272 78.02 22.0572C76.66 20.8372 75.33 19.7872 73.92 18.7072C73.87 18.7172 73.82 18.7272 73.84 18.7972C74.03 18.9072 73.91 19.3872 73.98 19.6372ZM74.27 21.5572C75.93 22.7672 77.4 24.1872 79.08 25.3672C79.06 25.0272 79.04 24.6972 79.01 24.3572C78.71 24.4272 78.6 24.2872 78.41 24.2272C77 23.0072 75.75 21.6072 74.12 20.6372C74.12 20.5872 74.05 20.5472 74.04 20.6472C74.2 20.8672 74.19 21.2572 74.27 21.5572ZM75.81 24.3172C76.87 25.1872 77.66 25.9972 78.59 26.7472C78.63 26.7772 78.92 27.1572 79.02 26.8872C79.01 26.6672 78.96 26.4072 79.06 26.2972C77.45 25.1572 76.06 23.7672 74.43 22.6472C74.37 23.5372 75.21 23.8272 75.81 24.3172ZM75.89 25.4972C76.85 26.2772 77.74 27.3172 78.59 28.0172C78.73 28.1272 79.1 28.5372 79.11 28.2372C77.72 26.8072 76.23 25.5072 74.63 24.3272C74.83 24.9472 75.37 25.0772 75.89 25.4972ZM74.94 26.4872C76.27 27.2972 77.59 28.6872 78.7 29.6872C78.77 29.7472 79 30.2172 79.14 29.9072C79.27 29.2672 78.65 29.0072 78.3 28.6972C77.18 27.7172 76.07 26.4272 74.89 25.7272C74.88 25.6772 74.87 25.6272 74.8 25.6472C74.77 26.0272 74.98 26.1172 74.94 26.4872ZM77.94 30.9172C78.59 31.0272 78.81 31.6072 79.27 31.9272C79.25 31.6772 79.24 31.4272 79.22 31.1672C77.86 30.0072 76.53 28.3372 75.1 27.5672C76.15 28.5672 77.19 29.5772 77.94 30.9172ZM76.54 30.0872C76.12 29.6672 75.8 29.1272 75.27 28.8272C75.52 29.3772 76.22 29.8972 76.54 30.0872ZM76.39 31.6972C77.41 32.7372 78.3 33.8372 79.13 34.7972C79.25 34.7872 79.42 35.1372 79.38 34.7772C79.36 34.2172 78.87 33.8472 78.54 33.4872C77.47 32.3472 76.53 31.2072 75.45 30.1572C75.44 30.1072 75.43 30.0572 75.36 30.0772C75.31 31.0372 75.89 31.1872 76.39 31.6972ZM76.87 33.8572C77.81 34.9072 78.62 36.4172 79.55 37.3072C79.53 36.9472 79.5 36.5772 79.48 36.2172C78.16 34.7772 76.94 33.2272 75.48 31.9372C75.44 33.0172 76.35 33.2672 76.87 33.8572ZM68.67 37.1972C68.33 36.8172 67.98 36.2072 67.63 35.5772C67.31 34.9972 66.72 34.3372 66.67 33.8672C66.63 33.4172 67.17 33.0272 66.84 32.6772C65.86 34.7672 64.43 36.4672 63.35 38.4772C64.22 38.7772 64.62 39.7072 65.16 40.3772C66.56 42.1172 68.28 43.7072 69.86 45.1172C70.12 45.3472 70.81 45.7772 70.36 46.2672C69.46 46.0672 68.94 45.2272 68.31 44.6372C68 44.3372 67.62 44.0972 67.33 43.7772C67.02 43.4472 66.74 43.1372 66.42 42.8272C65.44 41.8672 64.68 40.7672 63.86 39.7972C63.62 39.5172 63.3 39.0572 62.88 39.0172C64.82 41.5972 67.23 44.2472 69.38 46.5872C69.63 46.8572 70.43 47.2672 69.79 47.7372C68.98 47.3272 68.43 46.5572 67.81 45.9272C65.9 43.9672 64.21 41.8272 62.5 39.7072C61.29 41.0472 60.66 42.8872 59.61 44.3672C62.2 46.7672 64.36 49.6572 67.11 51.8672C67.2 51.6872 67.33 51.5372 67.5 51.4172C66.28 50.2172 65.07 48.8072 63.7 47.5472C63.07 46.9672 62.36 46.2672 61.72 45.6572C61.46 45.4072 61.02 45.0472 60.73 44.7072C60.49 44.4172 59.92 43.8672 60.48 43.4572C61.79 44.6072 62.98 45.8972 64.27 47.0772C65.56 48.2572 66.74 49.5572 67.9 50.8772C69.19 49.3372 70.29 47.6472 71.36 45.9272C71.08 45.9772 70.99 45.8072 70.84 45.7072C68.94 43.3472 66.4 41.1972 64.71 38.6172C64.53 38.3372 63.82 37.7572 64.46 37.3672C64.93 37.4672 65.14 37.9972 65.37 38.3172C67.27 41.0172 69.67 43.0672 71.68 45.5672C72 44.8972 72.66 44.5272 72.91 43.7972C71.01 41.6372 69.44 39.0672 67.48 37.0772C66.93 36.5172 66.22 35.9872 66 35.1572C66.11 35.0672 66.24 34.9972 66.32 34.8872C67.24 35.4572 67.8 36.8972 68.67 37.1972ZM79.36 33.2672C79.27 32.5572 78.57 32.5372 78.35 31.9872C78.25 31.9872 78.15 31.8472 78.1 32.0072C78.54 32.3972 78.85 32.9472 79.36 33.2672ZM69.94 33.5672C69.53 33.6472 69.09 33.2772 68.84 33.4672C69.01 33.6772 69.75 33.6972 69.94 33.5672ZM71.73 33.7872C71.33 33.7472 70.06 33.6672 70.8 33.7672C71.77 33.8972 73.3 34.2572 74.35 33.8672C73.51 33.8272 72.4 33.8472 71.73 33.7872ZM68.46 35.3472C68.42 34.9472 67.85 34.2672 67.89 34.3772C68.03 34.7672 68.16 35.1572 68.46 35.3472ZM70 35.6672C70.27 35.6672 70.34 35.4972 70.67 35.5372C71.81 36.0472 73.73 35.6472 75.24 35.7372C75.11 35.3072 74.92 34.9672 74.74 34.5872C72.83 35.0472 71.26 34.4372 69.5 34.4372C69.63 34.8872 69.84 35.2572 70 35.6672ZM32.86 40.0272C32.48 39.7072 32.03 39.4672 31.78 39.0072C31.69 38.7172 31.85 38.6472 31.91 38.4872C31.43 38.1272 31.14 37.5572 30.64 37.2272C31.06 38.7372 31.44 40.2872 31.95 41.6872C33.31 42.0072 34.23 43.4272 35.42 44.3172C35.81 44.6072 36.47 44.6772 36.42 45.3472C36.3 45.3772 36.29 45.4972 36.18 45.5272C34.58 44.8872 33.7 43.4272 32.27 42.5872C32.35 43.5772 33.34 43.8972 34.08 44.4872C34.34 44.6972 34.62 45.0172 35.07 45.3472C35.32 45.5372 36.13 46.1372 36.22 46.1172C36.4 46.0772 36.44 45.8172 36.53 45.6772C36.69 45.4272 37.47 44.3472 37.44 44.1872C37.42 44.0372 36.74 43.5972 36.63 43.4872C36.3 43.1372 36.12 42.9272 35.98 42.6072C35.26 42.4272 34.91 41.2072 34.3 41.4572C33.94 41.4872 34.4 41.7072 34.4 41.7072C34.75 42.1272 35.05 42.4572 35.4 42.8172C35.85 43.2772 36.6 43.6472 36.68 44.3272C36.17 44.6472 35.69 44.1172 35.38 43.8272C35.05 43.4972 34.69 43.1072 34.38 42.7972C33.7 42.1172 33.06 41.2772 32.38 40.6572C32.02 40.3272 31.46 40.2572 31.47 39.6272C31.91 38.8172 32.5 40.2072 32.86 40.0272ZM77.15 36.7072C77.36 36.6772 77.5 36.7272 77.58 36.8472C78.02 37.9672 78.61 38.9172 79.22 39.8572C78.39 38.0072 77.46 36.2572 76.27 34.8272C76.54 35.4772 76.86 36.0672 77.15 36.7072ZM71.04 37.3672C72.42 37.2572 74.3 37.3672 75.92 37.2872C75.87 36.9472 75.72 36.7272 75.61 36.4672C73.97 36.2972 71.84 36.6872 70.37 36.3172C70.57 36.7072 70.75 37.1072 71.04 37.3672ZM71.93 39.2472C73.45 39.5572 75.14 39.6772 77.01 39.5772C76.8 39.0272 76.61 38.4672 76.32 38.0172C74.66 37.9972 72.79 38.2072 71.34 37.9272C71.38 38.5472 71.72 38.8172 71.93 39.2472ZM72.8 40.9572C74.52 40.8272 75.98 40.9972 77.61 40.9672C77.55 40.7372 77.46 40.5372 77.4 40.3072C75.53 40.4872 74.1 40.1672 72.42 40.1372C72.51 40.4472 72.65 40.7072 72.8 40.9572ZM74.24 42.2972C75.5 42.5672 77 42.6772 78.32 42.7772C78.32 42.2672 78.08 42.0272 77.91 41.7072C76.34 41.7272 74.93 41.5572 73.27 41.6872C73.23 42.2672 73.85 42.2172 74.24 42.2972ZM33.34 45.8972C34.1 46.2972 34.58 47.0072 35.38 47.3572C35.49 47.0872 35.73 46.9272 35.75 46.5772C34.66 46.0772 33.93 45.1672 32.92 44.5772C33.06 45.0072 33.26 45.3872 33.34 45.8972ZM79.63 42.2672C79.63 42.0272 79.58 41.8472 79.43 41.7772C79.45 41.9972 79.5 42.1772 79.63 42.2672ZM74.22 43.3072C75.83 43.8672 77.37 44.5272 79.21 44.8272C79.18 44.2672 78.83 44.0572 78.78 43.5072C77.1 43.4472 75.5 43.2872 74.02 42.9872C73.99 43.2172 74.21 43.1472 74.22 43.3072ZM64.78 50.7772C62.98 48.9272 61.3 47.0472 59.52 45.2272C59.41 45.2272 59.4 45.1272 59.26 45.1572C58.96 45.7872 58.58 46.0972 58.11 46.8372C57.89 47.1772 57.1 48.1972 57.12 48.4172C57.13 48.5272 57.77 49.0472 58.02 49.2872C58.36 49.6072 58.67 49.9172 58.92 50.1572C59.65 50.8372 60.05 51.3872 60.73 51.9772C61.08 52.2772 61.42 52.4572 61.71 52.7572C62.31 53.3772 62.76 53.9572 63.43 54.5772C63.95 55.0572 64.51 55.8372 64.8 54.9072C63 53.2272 61.32 51.3872 59.64 49.6872C59.05 49.0972 58.31 48.5572 57.99 47.7772C58.87 47.3672 59.46 48.5172 59.93 48.9972C61.7 50.7872 63.42 52.7872 65.34 54.1972C65.74 53.5772 66.23 53.0272 66.65 52.4272C65.92 52.0172 65.35 51.3672 64.78 50.7772ZM34.77 48.3272C35.13 47.7672 33.9 47.2972 33.68 47.1372C33.89 47.7072 34.23 48.1372 34.77 48.3272ZM56.45 49.7372C57.23 50.0472 57.75 50.7472 58.32 51.2972C59.83 52.7272 61.39 54.1672 62.74 55.6372C63 55.9272 63.28 56.3472 63.72 56.4172C64.05 56.0372 63.65 55.6772 63.4 55.4272C63.1 55.1172 62.69 54.8372 62.41 54.5672C60.58 52.7672 58.64 50.8872 56.91 49.2072C56.83 49.2172 56.81 49.1472 56.74 49.1372C56.58 49.2772 56.56 49.5472 56.45 49.7372ZM54.88 52.7072C55.18 52.6272 55.33 52.7372 55.48 52.8372C57.4 55.0772 59.44 57.1572 61.71 58.9972C61.74 58.6772 62.07 58.6272 62.09 58.2972C60.23 56.0872 57.91 54.3972 56.11 52.1272C55.74 52.0172 55.41 51.2872 55.96 51.1272C56.65 51.5172 57.05 52.2372 57.59 52.7872C59.28 54.4872 61.03 56.0372 62.65 57.7572C62.76 57.4872 62.96 57.2972 63.11 57.0472C60.93 54.5772 58.47 52.4072 56.07 50.1872C55.77 51.1172 55.17 51.7772 54.88 52.7072ZM53.8 54.2172C54.22 54.1872 54.57 54.5772 54.85 54.8172C56.64 56.3772 58.51 58.0072 60.22 59.5172C60.43 59.6972 60.72 60.2872 61.09 59.9672C61.3 59.5272 60.76 59.2272 60.52 58.9972C58.49 57.0872 56.41 55.1472 54.64 53.0672C54.63 53.0172 54.62 52.9672 54.55 52.9872C54.38 53.4572 54.03 53.7872 53.8 54.2172ZM50.35 59.3372C52.07 61.5072 54.51 63.2772 56.7 64.8072C56.99 65.0172 57.34 65.4072 57.75 65.3272C58.05 64.9072 57.57 64.6372 57.35 64.4272C57.07 64.1472 56.73 63.8672 56.45 63.6472C55.21 62.6572 54.1 61.5972 52.96 60.5972C52.39 60.0972 51.58 59.6872 51.33 58.9372C52.12 58.4872 52.7 59.5072 53.17 59.9072C54.88 61.3972 56.66 62.9472 58.35 64.2772C58.46 63.8972 58.79 63.7172 58.88 63.3172C56.98 61.4572 54.98 59.6972 52.88 58.0772C52.61 57.9572 52.06 57.7972 52.33 57.3572C53.11 57.1772 53.81 57.8172 54.33 58.2372C56.1 59.6872 57.69 61.3472 59.44 62.6972C59.83 62.1672 59.52 62.0172 59.2 61.6972C58.34 60.8272 57.36 60.1672 56.51 59.3472C55.65 58.5172 54.8 57.5772 53.9 56.9072C53.6 56.6872 52.94 56.5972 53.08 56.0372C53.2 56.0072 53.21 55.8872 53.32 55.8572C54.04 56.0672 54.63 56.6072 55.17 57.0772C56.87 58.5572 58.28 60.2772 60.19 61.4572C61.01 60.7972 59.62 59.9372 59.22 59.5872C57.94 58.4672 56.74 57.4972 55.46 56.3872C54.81 55.8172 53.94 55.2072 53.66 54.6572C53.64 54.6072 53.67 54.5372 53.65 54.4872C53.64 54.4372 53.63 54.3872 53.56 54.4072C52.42 55.9772 51.5 57.7572 50.35 59.3372ZM50.06 60.1172C49.98 60.1172 49.95 60.0572 49.89 60.0472C49.69 60.1872 49.56 60.3972 49.51 60.6572C52.08 62.6272 54.26 65.0472 56.93 66.9072C56.98 66.6072 57.16 66.4272 57.3 66.2072C54.83 64.2472 52.08 62.5972 50.06 60.1172ZM48.96 61.1972C48.36 62.2972 47.49 63.1772 46.89 64.2872C47.11 64.2772 47.38 64.2072 47.4 64.4172C49.67 66.7571 52.35 68.6372 54.82 70.7472C55.24 70.0772 54.99 70.1572 54.58 69.7472C53.62 68.7972 52.69 67.8672 51.7 67.0772C51.04 66.5472 50.26 66.0872 49.57 65.5372C48.88 64.9772 48.02 64.5072 47.68 63.7272C48.02 63.2372 48.37 63.6772 48.7 63.9072C50.76 65.4172 52.88 67.2072 54.69 68.8972C54.92 69.1172 55.23 69.4472 55.57 69.4272C56.13 68.4772 54.86 67.9372 54.34 67.4872C52.69 66.0372 51.02 64.6072 49.26 63.4472C48.9 63.2072 48.33 62.9472 48.43 62.4072C48.86 62.1372 49.25 62.5572 49.55 62.7572C52.03 64.3272 54.06 66.4271 56.32 68.1171C56.28 67.8171 56.55 67.7972 56.53 67.5172C53.81 65.6572 51.66 63.1072 48.96 61.1972ZM46.28 65.2572C48.46 67.3772 51.02 69.0472 53.02 71.3772C53.37 71.4972 54 71.9272 53.59 72.3472C53.13 72.6472 52.8 72.0672 52.54 71.8272C51.86 71.1872 51.29 70.6072 50.65 70.0172C49.37 68.8372 48 67.7472 46.71 66.5772C46.44 66.3372 46.18 66.0572 45.99 65.9472C45.72 65.7971 45.85 65.9572 45.74 66.0472C45.21 66.4772 46.04 66.7972 46.22 66.9372C46.62 67.2472 46.96 67.5972 47.21 67.7972C49.32 69.5472 51.49 71.1471 53.29 72.9472C53.69 72.4572 54.05 71.9272 54.36 71.3572C53.17 70.3472 51.92 69.3072 50.6 68.1572C49.39 67.0972 47.43 66.0172 46.73 64.5372C46.72 64.4872 46.71 64.4372 46.64 64.4572C46.59 64.7872 46.28 64.8872 46.28 65.2572ZM44.97 67.0272C44.83 67.4572 44.4 67.6372 44.28 68.0872C46.93 70.3571 49.52 72.6972 52.16 74.9771C52.4 74.4971 52.65 74.0372 52.91 73.5772C50.41 71.2272 47.73 69.0872 44.97 67.0272ZM42.54 73.5172C43.02 73.9972 43.63 74.4272 44.15 74.9272C44.68 75.4372 45.22 75.9872 45.77 76.4172C46.36 76.8872 46.84 77.3772 47.39 77.9072C47.9 78.4072 48.65 78.8072 48.85 79.5772C48.88 79.7572 48.8 79.8472 48.61 79.8472C48.16 79.7672 47.83 79.3572 47.55 79.0772C47.23 78.7472 46.96 78.3572 46.64 78.0472C44.73 76.1472 42.33 74.7871 40.87 72.4472C40.6 72.5572 40.05 73.0972 39.94 73.6072C41.4 74.6772 42.75 75.8772 44.05 77.1272C45.37 78.3872 46.48 79.8972 48.09 80.8172C48.54 80.0572 49.24 79.5072 49.63 78.6872C47.21 76.7272 45 74.2472 42.7 72.2372C42.4 71.9672 41.72 71.6872 42.03 71.0972C42.59 70.9272 42.86 71.4972 43.17 71.7772C45.51 73.8972 47.68 76.0972 50.08 78.0572C50.36 77.7772 50.62 77.4771 50.77 77.0872C49.04 75.9572 47.73 74.4272 46.28 73.0072C45.48 72.2172 44.58 71.3872 43.77 70.7271C43.48 70.4872 42.92 70.3572 42.95 69.8572C43.37 69.4272 43.86 69.8871 44.15 70.1171C46.68 72.0771 48.74 74.7772 51.17 76.6372C51.33 76.3272 51.45 75.9872 51.7 75.7572C49.31 73.1272 46.4 71.0972 43.88 68.6072C42.74 69.5272 42.05 70.8472 41.16 71.9972C41.79 72.3772 42.05 73.0272 42.54 73.5172ZM25.06 73.0972C25.19 73.2372 25.21 73.4472 25.35 73.5872C25.47 73.7171 25.65 73.7572 25.79 73.8972C26.61 74.6872 27.36 75.4772 28.14 76.2672C29.22 77.3572 30.13 78.5572 31.14 79.4372C29.74 76.8772 28.08 74.6272 26.68 72.0672C25.45 72.0872 25.46 70.6972 24.7 70.1772C24.61 70.3572 24.48 70.5072 24.31 70.6272C25.03 71.4272 25.82 72.1572 26.57 72.9172C27.31 73.6672 28.07 74.5072 28.52 75.5672C28.35 75.5772 28.43 75.8072 28.2 75.7572C27.68 75.5972 27.42 75.0372 27.11 74.6472C26.11 73.3872 24.99 72.3272 23.85 71.3272C23.5 72.2572 24.59 72.6072 25.06 73.0972ZM22.96 89.4172C23.3 89.7672 23.83 90.0572 23.88 90.6171C23.81 90.6272 23.64 90.9072 23.81 90.8772C25.04 89.1572 26.27 87.4472 27.6 85.8172C28.94 84.1572 30.56 82.7872 31.92 81.1472C31.7 81.0172 31.7 80.6171 31.53 80.4172C31.52 80.3272 31.14 80.8472 30.86 80.5472C28.58 77.4272 25.75 74.9472 23.05 72.3072C23.04 72.5372 22.94 72.5872 22.91 72.6572C22.75 72.9672 22.83 72.6972 22.93 72.9072C23.22 73.5172 24.28 74.0272 24.72 74.3872C26.75 76.0672 28.43 78.2571 30.16 80.0872C30.46 80.4072 31.09 80.8572 30.84 81.3872C30.3 81.6172 29.88 81.0072 29.61 80.7072C29.28 80.3272 28.97 79.8372 28.69 79.5072C26.71 77.2072 24.54 75.1171 22.28 73.2772C21.91 73.8272 21.4 74.2472 21.12 74.8772C23.9 76.9272 26.23 80.0972 28.64 82.5472C28.91 82.8272 29.79 83.2472 29.14 83.7772C28.56 83.7572 28.33 83.1272 27.97 82.7572C26.87 81.6072 25.78 80.4672 24.71 79.3572C23.67 78.2772 22.61 76.9572 21.45 75.9472C21.09 75.6372 20.56 75.1771 20.18 75.8671C22.64 77.8671 24.96 80.5471 27.22 82.7271C27.47 82.9671 28.29 83.3271 27.8 83.8671C27.28 84.0371 27.01 83.4472 26.74 83.1772C26.42 82.8572 26.07 82.5272 25.75 82.2372C23.75 80.3572 21.97 78.1572 19.8 76.5672C19.61 76.6072 18.91 77.4072 18.94 77.5472C18.95 77.5872 19.82 78.1672 20.09 78.3972C22.41 80.3172 24.34 82.4472 26.47 84.2072C26.81 84.4972 27.51 84.8472 27.23 85.4172C26.67 85.5372 26.27 85.0472 25.92 84.7472C24.8 83.7672 23.81 82.7472 22.77 81.7572C21.73 80.7672 20.7 79.6972 19.62 78.8472C19.29 78.5872 18.7 78.0771 18.41 78.3372C17.97 78.7971 18.55 79.0372 18.9 79.3172C20.03 80.3172 21.32 81.4272 22.57 82.5272C23.14 83.0272 23.69 83.7172 24.29 84.2672C24.75 84.6872 26.03 85.3772 25.43 86.1272C24.98 86.0872 24.72 85.6172 24.45 85.3472C22.33 83.2372 20.1 81.3272 17.89 79.3772C17.49 79.6072 17.2 79.9371 17.03 80.3671C19.44 82.5371 22.43 84.7172 24.81 86.9272C25.07 87.1672 25.86 87.5472 25.31 88.0772C24.83 88.1372 24.6 87.6272 24.33 87.3872C21.88 85.1172 18.92 83.2172 16.64 80.9072C16.08 81.3872 15.5 81.8671 15.15 82.5272C18 84.5372 20.6 86.9872 22.96 89.4172ZM39.46 74.1472C39.44 74.0472 39.36 74.0972 39.29 74.1572C39.29 74.2672 39.19 74.2772 39.22 74.4172C41.42 77.4472 44.4 79.5872 46.84 82.3372C47.23 82.1572 47.37 81.7471 47.53 81.3671C44.64 79.1871 42.45 76.2072 39.46 74.1472ZM39.51 77.3472C40.63 78.6872 41.81 80.1172 43.12 80.8172C41.67 78.8572 40.43 76.6672 38.37 75.4072C38.09 76.2072 39.01 76.7472 39.51 77.3472ZM37 77.5972C37.25 78.0072 37.8 78.5471 38.16 78.5272C37.87 78.0772 37.37 77.8572 37.31 77.1472C37.62 76.7572 38.09 77.2072 38.32 77.0772C38.12 76.9172 37.99 76.6672 37.85 76.4372C37.44 76.7272 37.23 77.1772 37 77.5972ZM36.59 79.1472C36.76 79.0872 37.15 79.2172 37.17 79.0272C36.87 78.8572 36.85 78.3672 36.45 78.3172C36.26 78.6272 36.33 78.9172 36.59 79.1472ZM42.17 81.8872C41.38 80.7472 40.42 79.3072 39.27 78.8772C40.12 80.0272 40.97 81.1572 42.17 81.8872ZM37.22 79.6972C37.61 80.3372 38.29 80.6472 38.83 81.1072C38.37 80.5372 38.03 79.8472 37.37 79.5172C37.38 79.6172 37.37 79.7171 37.22 79.6972ZM37.62 81.9372C38.32 82.7272 38.93 83.9972 39.62 84.0772C38.43 82.6372 37.6 80.7871 35.89 79.9472C36.3 80.6572 36.99 81.2172 37.62 81.9372ZM35.92 81.7172C36.21 81.8672 36.68 82.2872 36.88 82.2472C36.22 81.5872 35.69 80.7672 34.97 80.1872C35.02 80.6572 35.76 81.0872 35.92 81.7172ZM46.01 83.8172C46.15 83.4972 46.45 83.3072 46.54 82.9372C45.64 82.0972 44.58 81.0772 43.75 80.2572C43.63 80.1372 43.38 79.6072 43.31 79.9472C44.25 81.2072 45.1 82.5372 46.01 83.8172ZM34.7 81.1272C34.53 81.0572 34.54 80.7672 34.26 80.8172C34.2 81.1072 34.57 81.3672 34.7 81.1272ZM41.68 83.2672C41.01 82.5572 40.45 81.2472 39.67 80.9572C40.42 81.5772 40.93 82.9472 41.68 83.2672ZM33.99 81.7672C33.83 81.7472 33.9 81.4472 33.64 81.5372C33.59 81.7572 33.98 81.9072 33.99 81.7672ZM15.04 83.2972C14.86 83.2372 14.78 83.0572 14.52 83.0772C14.53 83.2872 14.97 83.4572 15.04 83.2972ZM35.73 82.5772C35.61 82.4972 35.55 82.3572 35.38 82.3472C35.35 82.5372 35.66 82.7972 35.73 82.5772ZM19.05 87.7472C19.2 87.8172 19.32 87.9172 19.41 88.0572C19.59 87.9872 19.23 87.7872 19.13 87.7372C17.79 86.4972 16.01 84.6172 14.59 84.0772C16.13 85.2372 17.63 86.4472 19.05 87.7472ZM42.85 86.8972C42.79 87.3472 42.82 87.6372 43.32 87.6272C43.36 87.4472 43.48 87.3472 43.54 87.1872C43.29 87.1772 43.12 87.0672 43.01 86.8872C41.97 85.3072 40.92 83.2572 39.35 82.5772C40.5 84.0472 41.48 85.6872 42.85 86.8972ZM45.07 84.8072C44.96 84.9472 44.88 85.1171 44.67 85.1672C43.89 84.4972 43.28 83.6272 42.42 83.0472C42.96 84.1072 43.86 84.7772 44.22 86.0472C44.85 85.5172 45.46 84.5472 45.77 84.0072C44.73 84.1672 44.18 82.5172 43.39 82.3972C44.01 83.1372 44.53 83.9771 45.07 84.8072ZM43.56 86.1772C43.44 86.1572 43.29 85.7171 43.21 85.9472C43.32 85.9771 43.48 86.4072 43.56 86.1772ZM43.85 86.7472C44.11 86.5572 43.62 86.2472 43.58 86.4272C43.75 86.4372 43.62 86.7972 43.85 86.7472Z" fill="white"/>
</svg>
