<svg xmlns="http://www.w3.org/2000/svg" width="115" height="24" viewBox="0 0 115 24" fill="none">
    <g clip-path="url(#clip0_296_4713)">
        <path d="M15.0152 23.1223C14.0628 23.1223 13.1104 23.1223 12.158 23.1223C11.8769 23.1223 11.5946 23.1296 11.4576 22.8157C11.3122 22.485 11.5618 22.3032 11.7497 22.1142C13.7369 20.1221 15.7289 18.1349 17.7186 16.1441C18.2868 15.5758 18.2844 15.5527 17.7234 14.9869C16.8449 14.1011 15.9785 13.2008 15.0819 12.3332C14.6917 11.9552 14.6711 11.6535 15.0637 11.2718C15.9882 10.3715 16.9031 9.46151 17.8009 8.53334C18.1717 8.15044 18.4625 8.11408 18.8576 8.51395C20.8654 10.5447 22.8962 12.5538 24.9101 14.5797C25.5511 15.2244 25.5377 15.9235 24.8858 16.5779C22.8271 18.6402 20.7587 20.694 18.7061 22.7624C18.4456 23.0254 18.1729 23.1332 17.8094 23.1272C16.8788 23.1102 15.947 23.1211 15.0164 23.1223H15.0152Z" fill="#08272E"/>
        <path d="M0.0507812 11.8706C0.0604749 11.4586 0.199822 11.1435 0.468822 10.8758C2.58326 8.76734 4.69527 6.65896 6.80123 4.5421C7.0157 4.32641 7.23987 4.25735 7.5331 4.25856C9.46094 4.26825 11.3876 4.26462 13.3154 4.26219C13.5759 4.26219 13.8437 4.24886 13.9758 4.52513C14.1272 4.84381 13.8922 5.03405 13.6971 5.23035C11.6796 7.25512 9.67178 9.28959 7.6361 11.2962C7.2435 11.684 7.21442 11.936 7.62156 12.3238C8.557 13.2144 9.4464 14.1522 10.3734 15.0513C10.732 15.3991 10.7999 15.6705 10.4073 16.051C9.46578 16.9634 8.54731 17.8988 7.63489 18.8403C7.26531 19.222 6.96845 19.2451 6.57585 18.8476C4.56683 16.8144 2.54085 14.7981 0.513655 12.783C0.244655 12.5152 0.0834976 12.2147 0.0507812 11.8742V11.8706Z" fill="#08272E"/>
        <path d="M80.9145 9.32455C80.9145 7.78931 80.9375 6.33405 80.9024 4.8812C80.8902 4.37107 81.0441 4.20507 81.5422 4.25717C82.1868 4.32382 83.0301 3.98938 83.43 4.39288C83.7996 4.76488 83.5294 5.59854 83.5306 6.22863C83.539 10.0758 83.5245 13.9242 83.5463 17.7714C83.5487 18.2536 83.4203 18.4027 82.9502 18.3566C82.5309 18.3154 82.102 18.3166 81.6827 18.3566C81.2126 18.4002 80.8999 18.3191 80.9932 17.7374C78.3275 18.9916 76.0228 18.6329 74.576 16.7644C73.0917 14.8475 73.1377 12.0315 74.662 10.1861C75.9562 8.61934 78.4668 7.86202 80.9145 9.32576V9.32455ZM80.9145 13.5304C80.9145 12.5893 80.8482 12.0387 80.7158 11.8788C80.0893 11.1215 78.7782 10.7422 77.827 11.0427C76.8589 11.3481 76.1924 12.2423 76.1185 13.3316C76.0398 14.5034 76.5717 15.4691 77.5702 15.915C78.4717 16.3185 79.3235 16.1525 80.1705 15.6957C80.9557 15.2716 80.9666 14.5846 80.9157 13.8478C80.9084 13.7424 80.9157 13.637 80.9157 13.5316L80.9145 13.5304Z" fill="#08272E"/>
        <path d="M43.3624 9.31955C46.1554 8.09208 48.1802 8.39501 49.6972 10.2416C51.1428 12.001 51.2179 14.7226 49.8572 16.6213C49.1192 17.6513 48.0881 18.2232 46.8594 18.474C45.6453 18.7212 44.5256 18.4461 43.3927 17.7579C43.3927 19.3816 43.3636 20.8962 43.4072 22.4084C43.4242 22.9973 43.2533 23.2021 42.6717 23.1294C42.0707 23.0543 41.2601 23.3911 40.9147 22.9852C40.6166 22.6362 40.8142 21.8547 40.8142 21.2646C40.8105 17.2877 40.8214 13.3097 40.8008 9.33288C40.7984 8.8385 40.922 8.64705 41.4309 8.70157C41.8284 8.74398 42.2379 8.7452 42.6354 8.70157C43.1176 8.64947 43.4072 8.76943 43.3624 9.32076V9.31955ZM43.3927 13.5096C43.3927 13.8901 43.4036 14.2706 43.389 14.6511C43.3794 14.9055 43.4787 15.0897 43.6459 15.269C44.5789 16.2699 46.256 16.4286 47.275 15.6059C48.3074 14.771 48.5255 13.1073 47.7488 11.9901C47.1078 11.068 46.0342 10.7239 44.8879 11.0741C43.7174 11.4315 43.3939 11.9041 43.3939 13.2564C43.3939 13.3412 43.3939 13.426 43.3939 13.5096H43.3927Z" fill="#08272E"/>
        <path d="M114.535 18.3469C113.391 18.3469 112.396 18.33 111.402 18.3566C111.082 18.3651 110.902 18.2112 110.702 18.0173C109.488 16.8432 108.268 15.6739 107.022 14.4767C106.911 14.5337 107.003 14.7263 107 14.8742C106.991 15.869 106.978 16.8638 107.004 17.8574C107.014 18.25 106.892 18.376 106.501 18.3542C105.932 18.3227 105.357 18.3263 104.786 18.3542C104.439 18.3712 104.367 18.2367 104.368 17.9168C104.377 13.5158 104.378 9.11493 104.367 4.714C104.367 4.34564 104.484 4.23779 104.839 4.25597C105.345 4.28263 105.856 4.29353 106.362 4.25355C106.851 4.21477 107.016 4.35775 107.009 4.87515C106.978 6.88417 106.997 8.89561 106.997 10.9046V11.6801C107.681 11.2633 108.177 10.7701 108.607 10.2539C109.648 9.00588 110.897 8.42305 112.53 8.69689C112.938 8.76475 113.367 8.70659 113.964 8.70659C113.076 9.53176 112.3 10.2551 111.521 10.9737C110.915 11.5323 110.317 12.1006 109.69 12.6349C109.351 12.9245 109.29 13.1002 109.659 13.4552C111.136 14.8802 112.574 16.3464 114.025 17.7992C114.169 17.9434 114.304 18.0973 114.536 18.3445L114.535 18.3469Z" fill="#08272E"/>
        <path d="M90.9005 14.1741C89.9481 14.1741 88.9945 14.1899 88.0421 14.1668C87.6095 14.1559 87.5404 14.2977 87.664 14.6867C88.1935 16.3576 90.2462 16.9598 91.859 15.9044C92.3792 15.5635 92.8635 15.6172 93.3118 16.0656C93.8918 16.6456 93.8365 17.1695 93.1458 17.6372C90.3455 19.5141 85.8671 18.5557 85.111 14.5667C84.6384 12.0742 85.9652 9.52109 88.1511 8.78437C90.9732 7.83317 93.8098 9.59258 94.2097 12.5431C94.3575 13.6313 93.8902 14.1753 92.8077 14.1753C92.1728 14.1753 91.5379 14.1753 90.9017 14.1753L90.9005 14.1741ZM89.6876 12.2644V12.2705C90.1323 12.2705 90.577 12.2717 91.0217 12.2705C91.6191 12.2681 91.6881 12.1518 91.3852 11.6198C91.0059 10.9534 90.4013 10.6008 89.6561 10.6359C88.8224 10.6759 88.1802 11.0964 87.8046 11.8779C87.6386 12.2232 87.8022 12.2729 88.0978 12.2681C88.6273 12.2584 89.1569 12.2657 89.6864 12.2657L89.6876 12.2644Z" fill="#08272E"/>
        <path d="M57.7182 14.1737C56.7658 14.1737 55.8121 14.1883 54.8597 14.1677C54.4635 14.1592 54.3969 14.2743 54.5108 14.6451C54.8937 15.8907 56.235 16.6941 57.4952 16.4057C57.9969 16.2906 58.5167 16.1476 58.8632 15.7817C59.3734 15.2449 59.6969 15.4594 60.0386 15.921C60.0507 15.938 60.0689 15.9513 60.0834 15.9659C60.7361 16.6186 60.6594 17.2038 59.8532 17.7216C57.6382 19.1454 54.5192 18.7152 52.938 16.768C51.3664 14.8317 51.5663 11.5916 53.3887 9.7983C54.6731 8.53448 56.2447 8.2364 57.9096 8.73199C59.6945 9.26272 60.6784 10.6089 61.031 12.395C61.3812 14.1665 61.3509 14.1725 59.5588 14.1725C58.9444 14.1725 58.3313 14.1725 57.717 14.1725L57.7182 14.1737ZM56.4822 12.2689V12.2653C56.9669 12.2653 57.4528 12.2411 57.9351 12.2714C58.4973 12.3065 58.4791 12.0642 58.2707 11.68C57.8951 10.9857 57.3001 10.6331 56.527 10.6271C55.7322 10.621 54.9288 11.2196 54.6501 11.9091C54.5253 12.2168 54.6259 12.275 54.9034 12.2714C55.4292 12.2641 55.9563 12.2689 56.4822 12.2689Z" fill="#08272E"/>
        <path d="M65.0978 9.43849C66.4525 8.50547 67.7902 8.29221 69.203 8.76235C70.9297 9.33671 72.0166 10.7301 72.0809 12.5465C72.1439 14.3435 72.1002 16.1429 72.1245 17.9422C72.1293 18.3009 71.9827 18.3627 71.6749 18.3518C71.1248 18.3324 70.5723 18.3215 70.0234 18.3554C69.6296 18.3797 69.5205 18.2524 69.5266 17.8611C69.5484 16.3803 69.5363 14.8984 69.5338 13.4165C69.5338 13.2057 69.5338 12.9924 69.5023 12.784C69.2842 11.3045 68.19 10.6199 66.7481 11.0488C66.4403 11.1409 66.1629 11.2875 65.8939 11.4584C65.4164 11.7625 65.1802 12.1381 65.1995 12.7585C65.2504 14.4283 65.1971 16.1017 65.231 17.7726C65.2407 18.2694 65.0832 18.3882 64.6216 18.3554C64.0739 18.3155 63.5213 18.3336 62.9712 18.3506C62.6659 18.3603 62.575 18.2464 62.5762 17.9459C62.5847 15.0038 62.5859 12.063 62.5762 9.12102C62.575 8.7672 62.7277 8.69329 63.0354 8.70298C63.5213 8.71873 64.0121 8.74175 64.4955 8.69813C64.9839 8.6533 65.2044 8.81325 65.099 9.43849H65.0978Z" fill="#08272E"/>
        <path d="M99.6616 8.55127C100.656 8.52946 101.581 8.79604 102.463 9.23952C102.76 9.38856 102.901 9.55578 102.629 9.85023C102.572 9.91202 102.529 9.98594 102.483 10.0562C102.23 10.4464 102.06 10.9468 101.709 11.2001C101.283 11.509 100.933 10.9068 100.495 10.8256C99.9597 10.7251 99.4496 10.673 98.9443 10.8971C98.7056 11.0025 98.5069 11.1637 98.5045 11.463C98.502 11.7308 98.6608 11.9016 98.8837 11.9986C99.2896 12.1743 99.6992 12.3427 100.117 12.4869C100.717 12.6953 101.316 12.9001 101.855 13.243C103.497 14.2839 103.603 16.5146 102.049 17.6924C100.832 18.6133 99.4387 18.7102 98.0028 18.4194C97.2152 18.2595 96.4736 17.9529 95.7842 17.5216C95.4982 17.3434 95.3698 17.1811 95.6351 16.8927C95.6921 16.8309 95.7296 16.7533 95.7781 16.6831C96.0423 16.3001 96.2276 15.7852 96.5912 15.5707C97.0213 15.315 97.3352 15.9342 97.7617 16.0578C98.3772 16.2359 98.9879 16.3922 99.6313 16.3074C100.055 16.2517 100.442 16.0736 100.509 15.6143C100.569 15.2011 100.244 14.9745 99.9064 14.8122C99.0303 14.3917 98.0561 14.2148 97.2116 13.7192C95.5745 12.7583 95.3855 10.6814 96.8371 9.45884C97.483 8.91478 98.2439 8.60822 99.0933 8.55248C99.2824 8.54036 99.4738 8.55006 99.6641 8.55006L99.6616 8.55127Z" fill="#08272E"/>
        <path d="M35.7323 8.54675C36.8313 8.52131 37.774 8.79394 38.6767 9.24591C38.9906 9.40343 39.0778 9.58155 38.8234 9.86388C38.7531 9.94143 38.7046 10.0384 38.6477 10.1268C38.4053 10.4977 38.2405 10.986 37.9012 11.2113C37.5087 11.4719 37.1536 10.9375 36.7428 10.843C36.1685 10.7097 35.6135 10.6503 35.078 10.9375C34.5799 11.2053 34.5533 11.6972 35.0452 11.9723C35.4281 12.1868 35.8535 12.3334 36.2715 12.4764C36.8713 12.6824 37.4711 12.8847 38.0139 13.2216C39.7261 14.2855 39.8218 16.5502 38.1872 17.7401C36.9755 18.6222 35.6026 18.7106 34.1898 18.4174C33.3803 18.2502 32.6206 17.9339 31.9202 17.4807C31.6706 17.3196 31.5991 17.1742 31.8088 16.9379C31.8778 16.8603 31.9251 16.7622 31.9857 16.675C32.2498 16.2921 32.4364 15.771 32.8011 15.5662C33.2216 15.33 33.5451 15.9407 33.9753 16.063C34.5496 16.2266 35.1167 16.3769 35.719 16.3223C36.1637 16.2812 36.589 16.1491 36.6932 15.6632C36.7986 15.1736 36.4157 14.9434 36.0364 14.7859C35.2961 14.4805 34.5339 14.2249 33.7972 13.9098C33.058 13.5936 32.4473 13.121 32.1892 12.3079C31.7894 11.0466 32.3601 9.74998 33.6215 9.05931C34.3049 8.68489 35.0307 8.49344 35.7335 8.54554L35.7323 8.54675Z" fill="#08272E"/>
    </g>
    <defs>
        <clipPath id="clip0_296_4713">
            <rect width="115" height="23" fill="white" transform="translate(0 0.189941)"/>
        </clipPath>
    </defs>
</svg>
