<svg xmlns="http://www.w3.org/2000/svg" width="139" height="88" viewBox="0 0 139 88" fill="none">
    <path d="M81.4824 20.5514C81.9295 20.5755 82.2675 20.6582 82.4965 20.7993C82.7449 20.9357 82.9445 21.1677 83.0954 21.4954C83.311 21.9636 83.484 22.4893 83.6144 23.0727C83.7449 23.6561 83.7663 24.0213 83.6787 24.1685C83.3574 24.708 83.0863 24.4991 82.8656 23.5415C82.8393 23.475 82.8166 23.4024 82.7976 23.3236C82.6061 22.317 82.2728 21.7008 81.7976 21.475C81.3224 21.2491 80.7271 21.4186 80.0117 21.9835C79.5048 22.392 78.8234 23.2041 77.9674 24.4201C77.1115 25.636 76.5017 26.66 76.138 27.492C75.7499 28.3927 75.7055 29.1868 76.0047 29.8742C76.316 30.569 76.8284 30.843 77.542 30.6961C77.9339 30.6191 78.17 30.5132 78.2504 30.3783C78.3234 30.2557 78.453 30.1763 78.6393 30.1403C78.8449 30.0994 78.9823 30.2008 79.0513 30.4445C79.0846 30.5824 79.0599 30.6929 78.9774 30.7762C78.8949 30.8594 78.7156 30.9668 78.4395 31.0984C77.9139 31.3445 77.4832 31.4729 77.1472 31.4837C76.8305 31.4897 76.4974 31.385 76.1478 31.1695C75.7548 30.944 75.4853 30.6773 75.3391 30.3692C75.205 30.0686 75.1128 29.601 75.0623 28.9664L74.9975 27.996L76.7245 25.1376C77.484 23.8622 78.006 23.0272 78.2904 22.6325C78.5942 22.2331 78.9487 21.8731 79.3537 21.5528C80.0011 21.0466 80.4169 20.7496 80.601 20.6619C80.7923 20.5619 81.0862 20.5251 81.4824 20.5514Z" fill="#073742"/>
    <path d="M85.539 23.6303L86.4806 23.0037L88.5237 24.2631L88.3842 25.535C88.2514 26.6435 88.0519 27.518 87.7857 28.1586C87.5269 28.787 86.9217 29.8725 85.9701 31.415C85.4348 32.2586 85.0199 32.8998 84.7256 33.3387C84.4386 33.7653 84.1483 34.1144 83.8547 34.3861C83.5804 34.6529 83.3369 34.8129 83.1239 34.8661C82.9231 34.9267 82.6656 34.944 82.3515 34.918C81.8924 34.8865 81.5764 34.7253 81.4036 34.4344C81.2502 34.1386 81.1824 33.6023 81.2002 32.8253C81.2241 31.7336 81.3867 30.7273 81.6879 29.8065C81.9964 28.8734 82.5304 27.7692 83.2899 26.4938C83.9034 25.4637 84.3231 24.8004 84.5491 24.5039C84.7872 24.2147 85.1172 23.9236 85.539 23.6303ZM87.7081 25.0931C87.6514 24.7732 87.4785 24.5241 87.1892 24.3458C86.9072 24.1552 86.6294 24.1097 86.3559 24.2093C85.9202 24.3599 85.5324 24.6237 85.1924 25.0009C84.8718 25.3733 84.3974 26.0868 83.7694 27.1414C83.0318 28.38 82.5184 29.4634 82.2293 30.3917C81.9595 31.3151 81.8736 32.1926 81.9716 33.0242C82.0465 33.5901 82.1804 33.9325 82.3733 34.0513C82.5782 34.1776 82.8842 34.1064 83.2914 33.8377C83.558 33.6668 83.8336 33.384 84.118 32.9893C84.4025 32.5946 84.8953 31.8087 85.5963 30.6314C86.4946 29.1231 87.0965 27.9601 87.4021 27.1426C87.7198 26.3325 87.8218 25.6494 87.7081 25.0931Z" fill="#073742"/>
    <path d="M95.3047 28.4429C95.4494 28.5321 95.5345 28.6935 95.5601 28.9273C95.5977 29.1684 95.5572 29.3195 95.4385 29.3804C95.3125 29.4536 94.8705 30.2374 94.1125 31.7316C93.2106 33.5227 92.28 35.2375 91.3208 36.8759C90.3689 38.5021 89.8277 39.3001 89.6973 39.2701C89.5983 39.2426 89.5503 38.8944 89.5531 38.2256C89.5632 37.5445 89.6231 37.1119 89.7326 36.928C89.7764 36.8544 89.8022 36.7697 89.8098 36.6738C89.8175 36.5779 89.8098 36.3972 89.7867 36.1315C89.7757 35.8733 89.7626 35.5634 89.7472 35.2018C89.7318 34.8403 89.7184 34.2955 89.707 33.5676C89.7028 32.8274 89.7111 32.0111 89.7318 31.1185C89.7584 29.9949 89.7174 29.3996 89.6089 29.3327C89.5125 29.2733 89.213 29.7761 88.7106 30.8411C88.2155 31.8938 87.4421 33.3032 86.3905 35.0691C85.7113 36.2095 85.2587 36.928 85.0327 37.2246C84.8187 37.5286 84.6635 37.6509 84.5671 37.5914C84.4706 37.532 84.5225 37.2789 84.7226 36.8323C84.9347 36.393 85.4402 35.4473 86.2392 33.995C87.5226 31.7015 88.3451 30.1129 88.7066 29.2292C89.2316 27.9602 89.6038 27.0999 89.8233 26.6484C90.0621 26.1921 90.2383 25.9654 90.3519 25.9683C90.5042 25.9616 90.6158 26.1478 90.6867 26.5268C90.7769 26.901 90.7673 27.18 90.6577 27.364C90.5774 27.4989 90.5608 27.7066 90.608 27.9871C90.6672 28.2751 90.6734 28.5136 90.6267 28.7028C90.553 28.9926 90.492 29.3993 90.4439 29.9229C90.4078 30.4539 90.3792 30.9308 90.3581 31.3537C90.349 31.7839 90.3385 32.272 90.3265 32.8179C90.3265 33.3711 90.324 33.6797 90.3189 33.7437C90.2633 35.4697 90.3319 36.3921 90.5247 36.511C90.5777 36.5604 90.7636 36.3313 91.0824 35.8237C91.4205 35.3112 91.8052 34.6514 92.2364 33.8443C92.6676 33.0371 93.0516 32.2679 93.3882 31.5366C93.8713 30.4764 94.2735 29.6765 94.5948 29.137C94.9234 28.5851 95.1601 28.3538 95.3047 28.4429Z" fill="#073742"/>
    <path d="M101.581 32.3119C101.726 32.401 101.811 32.5625 101.837 32.7962C101.874 33.0374 101.834 33.1884 101.715 33.2494C101.589 33.3226 101.147 34.1063 100.389 35.6005C99.4872 37.3917 98.5566 39.1064 97.5974 40.7449C96.6454 42.371 96.1043 43.1691 95.9739 43.139C95.8749 43.1115 95.8268 42.7634 95.8297 42.0945C95.8398 41.4134 95.8996 40.9809 96.0092 40.7969C96.053 40.7233 96.0787 40.6386 96.0864 40.5428C96.094 40.4469 96.0864 40.2661 96.0633 40.0004C96.0523 39.7422 96.0391 39.4323 96.0237 39.0708C96.0084 38.7092 95.9949 38.1645 95.9835 37.4365C95.9794 36.6964 95.9877 35.88 96.0084 34.9875C96.0349 33.8638 95.9939 33.2685 95.8855 33.2017C95.789 33.1422 95.4896 33.645 94.9872 34.71C94.4921 35.7628 93.7187 37.1721 92.6671 38.938C91.9879 40.0785 91.5353 40.797 91.3093 41.0935C91.0953 41.3975 90.9401 41.5198 90.8436 41.4603C90.7472 41.4009 90.799 41.1479 90.9991 40.7012C91.2113 40.262 91.7168 39.3162 92.5157 37.864C93.7992 35.5704 94.6217 33.9818 94.9831 33.0981C95.5082 31.8291 95.8804 30.9688 96.0999 30.5173C96.3387 30.061 96.5148 29.8343 96.6284 29.8373C96.7807 29.8306 96.8923 30.0167 96.9632 30.3957C97.0535 30.7699 97.0439 31.0489 96.9343 31.2329C96.854 31.3678 96.8374 31.5755 96.8845 31.856C96.9437 32.144 96.95 32.3826 96.9033 32.5717C96.8295 32.8615 96.7686 33.2682 96.7204 33.7918C96.6844 34.3228 96.6558 34.7997 96.6346 35.2226C96.6255 35.6529 96.615 36.1409 96.603 36.6868C96.6031 37.2401 96.6006 37.5487 96.5955 37.6126C96.5398 39.3386 96.6084 40.261 96.8013 40.3799C96.8543 40.4293 97.0401 40.2002 97.3589 39.6926C97.6971 39.1801 98.0817 38.5203 98.513 37.7132C98.9442 36.9061 99.3281 36.1369 99.6648 35.4055C100.148 34.3454 100.55 33.5455 100.871 33.0059C101.2 32.4541 101.437 32.2227 101.581 32.3119Z" fill="#073742"/>
    <path d="M104.284 35.0844C104.711 35.1969 105.143 35.4128 105.579 35.7319C106.023 36.0388 106.201 36.2658 106.113 36.4129C106.047 36.5233 105.78 36.5012 105.312 36.3467C104.856 36.1996 104.363 36.0303 103.835 35.8386C103.326 35.6421 102.994 35.5632 102.839 35.6018C102.614 35.6476 102.208 36.2606 101.62 37.4408L100.75 39.1927L101.636 39.7388C102.01 39.9691 102.234 40.1324 102.308 40.2286C102.395 40.3323 102.398 40.4516 102.318 40.5865C102.237 40.7214 102.134 40.7836 102.009 40.7732C101.895 40.7703 101.674 40.6845 101.346 40.5158C100.837 40.2357 100.479 40.1321 100.271 40.205C100.063 40.2778 99.6625 40.8527 99.0706 41.9296L98.1537 43.5522L98.9208 43.9245C99.8566 44.4007 100.446 44.7389 100.689 44.9392C100.94 45.1272 101.014 45.307 100.912 45.4787C100.817 45.6381 100.692 45.6954 100.538 45.6504C100.391 45.5932 100.102 45.4407 99.6731 45.1929C99.244 44.9452 98.7892 44.7403 98.3089 44.5783C97.7176 44.3815 97.3909 44.1969 97.3288 44.0245C97.2308 43.7462 97.4899 43.076 98.1059 42.0139C98.2618 41.7244 98.5588 41.2118 98.997 40.476C100.248 38.3471 101.112 36.8004 101.587 35.8361C101.982 35.0067 102.28 34.5199 102.482 34.3757C102.69 34.2192 102.957 34.2831 103.282 34.5673C103.571 34.8292 103.905 35.0016 104.284 35.0844Z" fill="#073742"/>
    <path d="M108.769 37.3711C109.216 37.3952 109.554 37.4778 109.783 37.619C110.031 37.7553 110.231 37.9874 110.382 38.3151C110.597 38.7832 110.77 39.309 110.901 39.8924C111.031 40.4757 111.053 40.841 110.965 40.9881C110.644 41.5277 110.373 41.3187 110.152 40.3612C110.126 40.2947 110.103 40.2221 110.084 40.1433C109.893 39.1367 109.559 38.5205 109.084 38.2946C108.609 38.0688 108.014 38.2383 107.298 38.8032C106.791 39.2116 106.11 40.0238 105.254 41.2397C104.398 42.4557 103.788 43.4796 103.425 44.3117C103.036 45.2124 102.992 46.0065 103.291 46.6939C103.602 47.3887 104.115 47.6627 104.829 47.5158C105.22 47.4388 105.457 47.3329 105.537 47.198C105.61 47.0754 105.74 46.996 105.926 46.9599C106.131 46.919 106.269 47.0205 106.338 47.2642C106.371 47.4021 106.346 47.5126 106.264 47.5958C106.181 47.6791 106.002 47.7865 105.726 47.9181C105.2 48.1641 104.77 48.2926 104.434 48.3034C104.117 48.3094 103.784 48.2046 103.434 47.9892C103.041 47.7637 102.772 47.4969 102.626 47.1889C102.492 46.8883 102.399 46.4207 102.349 45.786L102.284 44.8157L104.011 41.9572C104.77 40.6819 105.292 39.8469 105.577 39.4522C105.881 39.0527 106.235 38.6928 106.64 38.3724C107.288 37.8663 107.703 37.5693 107.887 37.4816C108.079 37.3816 108.373 37.3448 108.769 37.3711Z" fill="#073742"/>
    <path d="M114.109 39.5814C114.78 39.8942 115.533 40.3168 116.37 40.8491C116.965 41.2329 117.312 41.4803 117.411 41.5914C117.521 41.7099 117.534 41.8686 117.448 42.0674C117.382 42.2614 117.296 42.3507 117.19 42.3355C117.103 42.3155 116.868 42.1706 116.485 41.9009L115.668 41.3219L115.364 41.9144C115.364 41.9144 115.205 42.21 114.886 42.8012C114.574 43.3802 114.211 44.045 113.797 44.7957C113.395 45.5537 112.978 46.3363 112.547 47.1435C112.135 47.9458 111.776 48.6463 111.469 49.2449C111.169 49.8313 111.009 50.1687 110.989 50.2572C110.947 50.466 110.815 50.5773 110.593 50.5911C110.378 50.5926 110.256 50.4925 110.228 50.2907C110.192 50.1848 110.873 48.8193 112.272 46.1943C113.678 43.557 114.41 42.0221 114.47 41.5896C114.518 41.2332 114.502 40.9971 114.423 40.8812C114.355 40.7727 114.093 40.5773 113.635 40.2949C113.225 40.0423 112.977 39.8642 112.89 39.7605C112.816 39.6643 112.822 39.5426 112.91 39.3954C112.99 39.2605 113.099 39.202 113.237 39.2198C113.387 39.2451 113.677 39.3656 114.109 39.5814Z" fill="#073742"/>
    <path d="M81.4824 20.5514C81.9295 20.5755 82.2675 20.6582 82.4965 20.7993C82.7449 20.9357 82.9445 21.1677 83.0954 21.4954C83.311 21.9636 83.484 22.4893 83.6144 23.0727C83.7449 23.6561 83.7663 24.0213 83.6787 24.1685C83.3574 24.708 83.0863 24.4991 82.8656 23.5415C82.8393 23.475 82.8166 23.4024 82.7976 23.3236C82.6061 22.317 82.2728 21.7008 81.7976 21.475C81.3224 21.2491 80.7271 21.4186 80.0117 21.9835C79.5048 22.392 78.8234 23.2041 77.9674 24.4201C77.1115 25.636 76.5017 26.66 76.138 27.492C75.7499 28.3927 75.7055 29.1868 76.0047 29.8742C76.316 30.569 76.8284 30.843 77.542 30.6961C77.9339 30.6191 78.17 30.5132 78.2504 30.3783C78.3234 30.2557 78.453 30.1763 78.6393 30.1403C78.8449 30.0994 78.9823 30.2008 79.0513 30.4445C79.0846 30.5824 79.0599 30.6929 78.9774 30.7762C78.8949 30.8594 78.7156 30.9668 78.4395 31.0984C77.9139 31.3445 77.4832 31.4729 77.1472 31.4837C76.8305 31.4897 76.4974 31.385 76.1478 31.1695C75.7548 30.944 75.4853 30.6773 75.3391 30.3692C75.205 30.0686 75.1128 29.601 75.0623 28.9664L74.9975 27.996L76.7245 25.1376C77.484 23.8622 78.006 23.0272 78.2904 22.6325C78.5942 22.2331 78.9487 21.8731 79.3537 21.5528C80.0011 21.0466 80.4169 20.7496 80.601 20.6619C80.7923 20.5619 81.0862 20.5251 81.4824 20.5514Z" stroke="#073742"/>
    <path d="M85.539 23.6303L86.4806 23.0037L88.5237 24.2631L88.3842 25.535C88.2514 26.6435 88.0519 27.518 87.7857 28.1586C87.5269 28.787 86.9217 29.8725 85.9701 31.415C85.4348 32.2586 85.0199 32.8998 84.7256 33.3387C84.4386 33.7653 84.1483 34.1144 83.8547 34.3861C83.5804 34.6529 83.3369 34.8129 83.1239 34.8661C82.9231 34.9267 82.6656 34.944 82.3515 34.918C81.8924 34.8865 81.5764 34.7253 81.4036 34.4344C81.2502 34.1386 81.1824 33.6023 81.2002 32.8253C81.2241 31.7336 81.3867 30.7273 81.6879 29.8065C81.9964 28.8734 82.5304 27.7692 83.2899 26.4938C83.9034 25.4637 84.3231 24.8004 84.5491 24.5039C84.7872 24.2147 85.1172 23.9236 85.539 23.6303ZM87.7081 25.0931C87.6514 24.7732 87.4785 24.5241 87.1892 24.3458C86.9072 24.1552 86.6294 24.1097 86.3559 24.2093C85.9202 24.3599 85.5324 24.6237 85.1924 25.0009C84.8718 25.3733 84.3974 26.0868 83.7694 27.1414C83.0318 28.38 82.5184 29.4634 82.2293 30.3917C81.9595 31.3151 81.8736 32.1926 81.9716 33.0242C82.0465 33.5901 82.1804 33.9325 82.3733 34.0513C82.5782 34.1776 82.8842 34.1064 83.2914 33.8377C83.558 33.6668 83.8336 33.384 84.118 32.9893C84.4025 32.5946 84.8953 31.8087 85.5963 30.6314C86.4946 29.1231 87.0965 27.9601 87.4021 27.1426C87.7198 26.3325 87.8218 25.6494 87.7081 25.0931Z" stroke="#073742"/>
    <path d="M95.3047 28.4429C95.4494 28.5321 95.5345 28.6935 95.5601 28.9273C95.5977 29.1684 95.5572 29.3195 95.4385 29.3804C95.3125 29.4536 94.8705 30.2374 94.1125 31.7316C93.2106 33.5227 92.28 35.2375 91.3208 36.8759C90.3689 38.5021 89.8277 39.3001 89.6973 39.2701C89.5983 39.2426 89.5503 38.8944 89.5531 38.2256C89.5632 37.5445 89.6231 37.1119 89.7326 36.928C89.7764 36.8544 89.8022 36.7697 89.8098 36.6738C89.8175 36.5779 89.8098 36.3972 89.7867 36.1315C89.7757 35.8733 89.7626 35.5634 89.7472 35.2018C89.7318 34.8403 89.7184 34.2955 89.707 33.5676C89.7028 32.8274 89.7111 32.0111 89.7318 31.1185C89.7584 29.9949 89.7174 29.3996 89.6089 29.3327C89.5125 29.2733 89.213 29.7761 88.7106 30.8411C88.2155 31.8938 87.4421 33.3032 86.3905 35.0691C85.7113 36.2095 85.2587 36.928 85.0327 37.2246C84.8187 37.5286 84.6635 37.6509 84.5671 37.5914C84.4706 37.532 84.5225 37.2789 84.7226 36.8323C84.9347 36.393 85.4402 35.4473 86.2392 33.995C87.5226 31.7015 88.3451 30.1129 88.7066 29.2292C89.2316 27.9602 89.6038 27.0999 89.8233 26.6484C90.0621 26.1921 90.2383 25.9654 90.3519 25.9683C90.5042 25.9616 90.6158 26.1478 90.6867 26.5268C90.7769 26.901 90.7673 27.18 90.6577 27.364C90.5774 27.4989 90.5608 27.7066 90.608 27.9871C90.6672 28.2751 90.6734 28.5136 90.6267 28.7028C90.553 28.9926 90.492 29.3993 90.4439 29.9229C90.4078 30.4539 90.3792 30.9308 90.3581 31.3537C90.349 31.7839 90.3385 32.272 90.3265 32.8179C90.3265 33.3711 90.324 33.6797 90.3189 33.7437C90.2633 35.4697 90.3319 36.3921 90.5247 36.511C90.5777 36.5604 90.7636 36.3313 91.0824 35.8237C91.4205 35.3112 91.8052 34.6514 92.2364 33.8443C92.6676 33.0371 93.0516 32.2679 93.3882 31.5366C93.8713 30.4764 94.2735 29.6765 94.5948 29.137C94.9234 28.5851 95.1601 28.3538 95.3047 28.4429Z" stroke="#073742"/>
    <path d="M101.581 32.3119C101.726 32.401 101.811 32.5625 101.837 32.7962C101.874 33.0374 101.834 33.1884 101.715 33.2494C101.589 33.3226 101.147 34.1063 100.389 35.6005C99.4872 37.3917 98.5566 39.1064 97.5974 40.7449C96.6454 42.371 96.1043 43.1691 95.9739 43.139C95.8749 43.1115 95.8268 42.7634 95.8297 42.0945C95.8398 41.4134 95.8996 40.9809 96.0092 40.7969C96.053 40.7233 96.0787 40.6386 96.0864 40.5428C96.094 40.4469 96.0864 40.2661 96.0633 40.0004C96.0523 39.7422 96.0391 39.4323 96.0237 39.0708C96.0084 38.7092 95.9949 38.1645 95.9835 37.4365C95.9794 36.6964 95.9877 35.88 96.0084 34.9875C96.0349 33.8638 95.9939 33.2685 95.8855 33.2017C95.789 33.1422 95.4896 33.645 94.9872 34.71C94.4921 35.7628 93.7187 37.1721 92.6671 38.938C91.9879 40.0785 91.5353 40.797 91.3093 41.0935C91.0953 41.3975 90.9401 41.5198 90.8436 41.4603C90.7472 41.4009 90.799 41.1479 90.9991 40.7012C91.2113 40.262 91.7168 39.3162 92.5157 37.864C93.7992 35.5704 94.6217 33.9818 94.9831 33.0981C95.5082 31.8291 95.8804 30.9688 96.0999 30.5173C96.3387 30.061 96.5148 29.8343 96.6284 29.8373C96.7807 29.8306 96.8923 30.0167 96.9632 30.3957C97.0535 30.7699 97.0439 31.0489 96.9343 31.2329C96.854 31.3678 96.8374 31.5755 96.8845 31.856C96.9437 32.144 96.95 32.3826 96.9033 32.5717C96.8295 32.8615 96.7686 33.2682 96.7204 33.7918C96.6844 34.3228 96.6558 34.7997 96.6346 35.2226C96.6255 35.6529 96.615 36.1409 96.603 36.6868C96.6031 37.2401 96.6006 37.5487 96.5955 37.6126C96.5398 39.3386 96.6084 40.261 96.8013 40.3799C96.8543 40.4293 97.0401 40.2002 97.3589 39.6926C97.6971 39.1801 98.0817 38.5203 98.513 37.7132C98.9442 36.9061 99.3281 36.1369 99.6648 35.4055C100.148 34.3454 100.55 33.5455 100.871 33.0059C101.2 32.4541 101.437 32.2227 101.581 32.3119Z" stroke="#073742"/>
    <path d="M104.284 35.0844C104.711 35.1969 105.143 35.4128 105.579 35.7319C106.023 36.0388 106.201 36.2658 106.113 36.4129C106.047 36.5233 105.78 36.5012 105.312 36.3467C104.856 36.1996 104.363 36.0303 103.835 35.8386C103.326 35.6421 102.994 35.5632 102.839 35.6018C102.614 35.6476 102.208 36.2606 101.62 37.4408L100.75 39.1927L101.636 39.7388C102.01 39.9691 102.234 40.1324 102.308 40.2286C102.395 40.3323 102.398 40.4516 102.318 40.5865C102.237 40.7214 102.134 40.7836 102.009 40.7732C101.895 40.7703 101.674 40.6845 101.346 40.5158C100.837 40.2357 100.479 40.1321 100.271 40.205C100.063 40.2778 99.6625 40.8527 99.0706 41.9296L98.1537 43.5522L98.9208 43.9245C99.8566 44.4007 100.446 44.7389 100.689 44.9392C100.94 45.1272 101.014 45.307 100.912 45.4787C100.817 45.6381 100.692 45.6954 100.538 45.6504C100.391 45.5932 100.102 45.4407 99.6731 45.1929C99.244 44.9452 98.7892 44.7403 98.3089 44.5783C97.7176 44.3815 97.3909 44.1969 97.3288 44.0245C97.2308 43.7462 97.4899 43.076 98.1059 42.0139C98.2618 41.7244 98.5588 41.2118 98.997 40.476C100.248 38.3471 101.112 36.8004 101.587 35.8361C101.982 35.0067 102.28 34.5199 102.482 34.3757C102.69 34.2192 102.957 34.2831 103.282 34.5673C103.571 34.8292 103.905 35.0016 104.284 35.0844Z" stroke="#073742"/>
    <path d="M108.769 37.3711C109.216 37.3952 109.554 37.4778 109.783 37.619C110.031 37.7553 110.231 37.9874 110.382 38.3151C110.597 38.7832 110.77 39.309 110.901 39.8924C111.031 40.4757 111.053 40.841 110.965 40.9881C110.644 41.5277 110.373 41.3187 110.152 40.3612C110.126 40.2947 110.103 40.2221 110.084 40.1433C109.893 39.1367 109.559 38.5205 109.084 38.2946C108.609 38.0688 108.014 38.2383 107.298 38.8032C106.791 39.2116 106.11 40.0238 105.254 41.2397C104.398 42.4557 103.788 43.4796 103.425 44.3117C103.036 45.2124 102.992 46.0065 103.291 46.6939C103.602 47.3887 104.115 47.6627 104.829 47.5158C105.22 47.4388 105.457 47.3329 105.537 47.198C105.61 47.0754 105.74 46.996 105.926 46.9599C106.131 46.919 106.269 47.0205 106.338 47.2642C106.371 47.4021 106.346 47.5126 106.264 47.5958C106.181 47.6791 106.002 47.7865 105.726 47.9181C105.2 48.1641 104.77 48.2926 104.434 48.3034C104.117 48.3094 103.784 48.2046 103.434 47.9892C103.041 47.7637 102.772 47.4969 102.626 47.1889C102.492 46.8883 102.399 46.4207 102.349 45.786L102.284 44.8157L104.011 41.9572C104.77 40.6819 105.292 39.8469 105.577 39.4522C105.881 39.0527 106.235 38.6928 106.64 38.3724C107.288 37.8663 107.703 37.5693 107.887 37.4816C108.079 37.3816 108.373 37.3448 108.769 37.3711Z" stroke="#073742"/>
    <path d="M114.109 39.5814C114.78 39.8942 115.533 40.3168 116.37 40.8491C116.965 41.2329 117.312 41.4803 117.411 41.5914C117.521 41.7099 117.534 41.8686 117.448 42.0674C117.382 42.2614 117.296 42.3507 117.19 42.3355C117.103 42.3155 116.868 42.1706 116.485 41.9009L115.668 41.3219L115.364 41.9144C115.364 41.9144 115.205 42.21 114.886 42.8012C114.574 43.3802 114.211 44.045 113.797 44.7957C113.395 45.5537 112.978 46.3363 112.547 47.1435C112.135 47.9458 111.776 48.6463 111.469 49.2449C111.169 49.8313 111.009 50.1687 110.989 50.2572C110.947 50.466 110.815 50.5773 110.593 50.5911C110.378 50.5926 110.256 50.4925 110.228 50.2907C110.192 50.1848 110.873 48.8193 112.272 46.1943C113.678 43.557 114.41 42.0221 114.47 41.5896C114.518 41.2332 114.502 40.9971 114.423 40.8812C114.355 40.7727 114.093 40.5773 113.635 40.2949C113.225 40.0423 112.977 39.8642 112.89 39.7605C112.816 39.6643 112.822 39.5426 112.91 39.3954C112.99 39.2605 113.099 39.202 113.237 39.2198C113.387 39.2451 113.677 39.3656 114.109 39.5814Z" stroke="#073742"/>
    <path fill-rule="evenodd" clip-rule="evenodd" d="M94.3839 10.8821C93.9956 11.6264 93.1757 11.7343 92.5501 12.0903C91.8273 12.511 91.2016 13.018 90.4681 13.3524C89.1197 13.9889 87.6202 14.4204 86.1531 14.9382C85.4843 15.1755 84.7076 15.6825 83.9525 15.3805C84.1251 14.4096 85.3656 14.4851 86.056 14.237C86.8543 13.9565 87.6741 13.5898 88.4724 13.2877C90.1229 12.6728 91.6331 11.7343 93.2189 11.0116C93.4346 10.785 93.6288 10.483 93.8877 10.4614C93.9632 10.3859 94.0711 10.5046 94.1358 10.4075C94.2761 10.5585 94.2976 10.7311 94.3839 10.8821Z" fill="#073742"/>
    <path fill-rule="evenodd" clip-rule="evenodd" d="M134.513 46.114C133.585 45.9738 133.531 44.8951 133.272 44.1615C132.722 42.5865 132.204 41.3568 131.309 39.6092C130.942 38.8972 130.09 37.7538 130.532 37.085C130.619 37.085 130.705 37.085 130.813 37.1497C131.352 37.8077 131.73 38.6168 132.107 39.3503C133.057 41.2166 133.65 42.9749 134.373 44.949C134.502 45.2726 134.912 45.7473 134.513 46.114Z" fill="#073742"/>
    <path fill-rule="evenodd" clip-rule="evenodd" d="M92.6686 56.8257C92.0861 56.4374 92.7657 55.8548 92.9167 55.5851C93.3698 54.7869 93.9091 54.1181 94.0602 53.4169C94.1572 52.9746 94.0602 52.3705 94.0925 51.8311C94.1141 51.3025 94.2543 50.6877 94.2004 50.2885C94.071 49.3716 93.3914 48.7783 93.4992 47.8182C94.2651 47.5269 94.3191 48.2605 94.5672 49.0264C94.9447 50.2022 94.9339 50.3209 94.8692 51.788C94.8369 52.6078 94.9879 53.4169 94.5887 54.2907C94.3622 54.7761 93.9739 55.2831 93.6718 55.747C93.4237 56.1245 93.2295 56.8041 92.6686 56.8257Z" fill="#073742"/>
    <path fill-rule="evenodd" clip-rule="evenodd" d="M90.2305 53.3628C89.8853 53.1363 90.1766 52.7587 90.4031 52.4027C90.7267 51.4319 90.6728 50.5365 90.3815 49.7059C90.1226 49.4793 89.7774 49.598 89.6911 49.2744C89.7882 48.3035 90.5757 48.7889 90.8885 49.0586C91.1151 49.2636 91.4711 50.256 91.4926 50.8278C91.5034 51.2161 91.32 51.9173 91.1798 52.3488C91.0288 52.8774 90.867 53.7188 90.2305 53.3628Z" fill="#073742"/>
    <path fill-rule="evenodd" clip-rule="evenodd" d="M81.1907 44.0535C80.4248 44.8733 79.3353 45.2725 78.4184 45.7471C77.9653 45.9736 77.4906 46.1463 76.9728 46.3404C76.5629 46.5022 76.0235 46.9985 75.5165 46.6101C75.6891 45.6716 77.1131 45.5961 77.9006 45.2077C78.8175 44.7547 79.605 44.1614 80.4788 43.827C80.5651 43.7407 80.6945 43.7946 80.7808 43.6975C80.975 43.7946 81.1584 43.9025 81.1907 44.0535Z" fill="#073742"/>
    <path fill-rule="evenodd" clip-rule="evenodd" d="M112.539 78.5948C111.881 78.4438 111.849 77.6132 111.741 77.1385C111.363 75.4988 111.072 73.7405 110.64 72.0576C110.058 69.8246 109.216 67.6456 108.914 65.4126C108.958 65.337 109.012 65.2615 109.055 65.186C109.831 65.1968 109.68 66.0814 109.907 66.9012C110.371 68.5841 111.007 70.3856 111.385 71.8958C111.827 73.6434 112.086 75.2291 112.485 76.9767C112.604 77.4513 113.078 78.1525 112.539 78.5948Z" fill="#073742"/>
    <path fill-rule="evenodd" clip-rule="evenodd" d="M102.41 76.3187C101.827 76.2432 101.957 75.5096 101.87 75.1213C101.32 72.4999 101.363 69.5334 100.878 66.7934C100.803 66.3727 100.511 65.8657 100.759 65.4342C101.827 65.3047 101.698 67.322 101.795 68.2281C102 70.2022 102.108 71.8203 102.324 73.6973C102.442 74.5927 103.089 75.5743 102.41 76.3187Z" fill="#073742"/>
    <path fill-rule="evenodd" clip-rule="evenodd" d="M78.5154 53.9453C78.03 53.557 77.2856 51.475 78.4507 51.6584C78.6772 51.9389 78.6664 52.4782 78.742 52.9097C78.7959 53.2657 79.2382 53.7943 78.5154 53.9453Z" fill="#073742"/>
    <path fill-rule="evenodd" clip-rule="evenodd" d="M77.1995 51.9392C77.9115 52.306 77.7604 53.1582 77.9222 53.676C78.0409 54.0535 78.5587 54.5174 78.0841 54.9597C77.1132 54.6684 77.1995 53.5897 77.0161 52.8993C76.9082 52.6835 76.5415 52.5217 76.6709 52.252C76.8004 51.9176 77.0485 52.101 77.1995 51.9392Z" fill="#073742"/>
    <path fill-rule="evenodd" clip-rule="evenodd" d="M67.9871 57.9371C67.534 57.6242 67.8469 57.0417 67.8253 56.6533C67.7929 55.9953 67.5233 55.3912 67.5233 54.744C67.6527 54.4635 67.9008 54.6577 68.0734 54.5498C68.3215 54.9489 68.6128 55.9198 68.6559 56.5239C68.6775 57.0525 68.5804 57.9802 67.9871 57.9371Z" fill="#073742"/>
    <path fill-rule="evenodd" clip-rule="evenodd" d="M66.7465 57.6996C65.9914 56.9984 66.11 56.0923 66.1748 55.1969C66.3042 55.1753 66.4229 55.143 66.5523 55.1106C66.8544 55.6608 67.4261 57.0847 66.7465 57.6996Z" fill="#073742"/>
    <path fill-rule="evenodd" clip-rule="evenodd" d="M56.4121 68.3577C55.5276 67.8399 55.7217 66.3405 55.7217 65.3588C56.4877 64.9489 56.4984 66.1031 56.5955 66.8691C56.6818 67.4624 56.8113 68.2175 56.4121 68.3577Z" fill="#073742"/>
    <path fill-rule="evenodd" clip-rule="evenodd" d="M54.7399 69.6626C54.2652 69.5332 54.2329 68.8536 54.1466 68.2171C54.0603 67.5483 53.7259 66.2862 54.7075 66.6422C54.8801 67.0952 54.8585 67.6454 54.9233 68.174C54.9772 68.6162 55.3332 69.3066 54.7399 69.6626Z" fill="#073742"/>
    <path fill-rule="evenodd" clip-rule="evenodd" d="M53.2945 71.1191C52.6688 71.0113 52.6796 70.213 52.5717 69.706C52.4639 69.2098 52.2158 68.5409 52.5502 68.1957C52.6796 67.9692 52.8738 68.0879 53.0788 68.2065C53.2514 68.5302 53.1219 68.8538 53.1866 69.2313C53.2945 69.8462 53.9202 70.6013 53.2945 71.1191Z" fill="#073742"/>
    <path fill-rule="evenodd" clip-rule="evenodd" d="M52.4638 70.9142C51.7087 71.4751 51.4714 70.1806 51.4714 69.7599C52.2265 69.0803 52.4962 70.418 52.4638 70.9142Z" fill="#073742"/>
    <path fill-rule="evenodd" clip-rule="evenodd" d="M50.3925 71.6477C49.8963 72.1763 49.2167 71.173 49.2059 70.7955C49.6805 70.1267 50.5651 71.2054 50.3925 71.6477Z" fill="#073742"/>
    <path fill-rule="evenodd" clip-rule="evenodd" d="M17.4586 60.968C16.7466 60.3854 16.9732 59.393 16.9947 58.6379C17.0055 57.8612 17.0055 56.9982 17.2321 56.2107C18.3324 55.5419 17.7822 57.7857 17.7714 58.5839C17.7606 59.6411 18.0195 60.5041 17.4586 60.968Z" fill="#073742"/>
    <path fill-rule="evenodd" clip-rule="evenodd" d="M49.713 78.1851C49.6698 78.2606 49.7669 78.3038 49.8208 78.3577C49.8424 79.156 48.4832 79.0589 48.5587 78.3146C48.8931 78.0233 49.2815 78.0233 49.713 78.1851Z" fill="#073742"/>
    <path fill-rule="evenodd" clip-rule="evenodd" d="M47.4261 78.2496C47.3722 78.638 47.5879 79.3607 46.9839 79.4686C46.315 79.1773 46.52 77.5808 47.4261 78.2496Z" fill="#073742"/>
    <path fill-rule="evenodd" clip-rule="evenodd" d="M45.9591 77.8611C45.7002 78.627 45.9375 79.8891 45.15 80.353C44.546 79.9431 45.0314 78.0876 45.506 77.5698C45.6463 77.6777 45.8081 77.7748 45.9591 77.8611Z" fill="#073742"/>
    <path fill-rule="evenodd" clip-rule="evenodd" d="M41.6549 81.4858C41.3205 81.1514 41.4931 80.5904 41.4931 80.2021C41.4931 78.9831 41.396 77.667 41.6657 76.3509C41.8059 76.3725 41.9246 76.3509 42.0433 76.2646C42.1404 76.3078 42.1727 76.3617 42.1511 76.4373C42.4532 77.16 42.2482 78.2172 42.2482 79.1773C42.2374 79.9324 42.6797 81.3671 41.6549 81.4858Z" fill="#073742"/>
    <path fill-rule="evenodd" clip-rule="evenodd" d="M43.5533 80.8492C42.8413 80.504 43.2836 79.7381 43.3807 79.2419C43.4886 78.6917 43.4778 78.0445 43.7906 77.5698C43.9093 77.6453 44.2868 77.4835 44.2221 77.7316C44.5457 78.2171 44.1574 78.9398 44.0495 79.5439C43.9524 80.0186 44.0819 80.709 43.5533 80.8492Z" fill="#073742"/>
    <path fill-rule="evenodd" clip-rule="evenodd" d="M38.0412 81.2595C37.4803 80.828 37.7068 79.7709 37.8255 78.8755C37.9441 77.9046 37.901 76.5023 38.5806 76.1355C38.6561 76.1786 38.7316 76.2326 38.8071 76.2757C39.0121 77.0848 38.6669 77.9909 38.5482 78.8971C38.4619 79.6953 38.7963 80.7957 38.0412 81.2595Z" fill="#073742"/>
    <path fill-rule="evenodd" clip-rule="evenodd" d="M40.2092 77.473C40.5436 77.9908 40.3279 78.7459 40.3171 79.3608C40.2955 79.9757 40.4358 80.774 39.8964 81.2378C39.8101 81.1731 39.7454 81.1731 39.6914 81.2163C39.3139 80.7093 39.5296 79.9757 39.5404 79.404C39.5512 78.7999 39.5728 78.1634 39.713 77.5917C39.8317 77.3975 40.0043 77.3544 40.2092 77.473Z" fill="#073742"/>
    <path fill-rule="evenodd" clip-rule="evenodd" d="M35.7865 81.4428C35.355 80.9142 35.5599 80.1376 35.6031 79.5119C35.7002 78.3037 35.8943 77.171 35.657 76.006C36.3474 75.3264 36.6171 76.7719 36.6279 77.3652C36.6387 77.9153 36.4661 78.7999 36.4121 79.5874C36.3582 80.3964 36.4337 81.4752 35.7865 81.4428Z" fill="#073742"/>
    <path fill-rule="evenodd" clip-rule="evenodd" d="M33.8232 81.5074C33.4564 81.1407 33.6937 80.5258 33.7584 80.0727C33.8232 79.6089 33.9634 79.0803 34.0173 78.6272C34.136 77.6671 33.931 76.61 34.3625 75.844C34.4273 75.6499 34.5783 75.8225 34.6646 75.7146C34.7401 75.7577 34.8156 75.8117 34.8911 75.8548C34.8695 77.1493 34.8372 78.7782 34.5891 80.2669C34.5243 80.7092 34.438 81.4967 33.8232 81.5074Z" fill="#073742"/>
    <path fill-rule="evenodd" clip-rule="evenodd" d="M12.7986 63.2874C13.0036 63.87 12.8849 64.6035 12.8525 65.2508C12.8202 65.8764 12.9496 66.7071 12.3779 67.2033C11.7091 66.7718 12.0435 65.8872 12.0758 65.2939C12.1082 64.6574 12.065 63.9563 12.2269 63.3522C12.3671 63.1472 12.5613 63.1041 12.7986 63.2874Z" fill="#073742"/>
    <path fill-rule="evenodd" clip-rule="evenodd" d="M26.531 81.0004C25.8837 80.7307 26.175 79.9325 26.1858 79.501C26.1966 78.994 26.2181 78.4438 26.1642 77.9908C26.0563 77.0307 25.5601 76.0274 25.8837 75.0242C25.9808 75.0026 26.1211 75.1105 26.2074 75.0134C26.3044 75.0566 26.3368 75.1213 26.3152 75.186C26.7575 76.0382 26.7575 77.117 26.8546 78.0878C26.9409 78.994 27.2861 80.1698 26.531 81.0004Z" fill="#073742"/>
    <path fill-rule="evenodd" clip-rule="evenodd" d="M19.4974 83.3415C18.7638 82.7914 19.2601 81.7773 19.314 81.0762C19.3679 80.2563 19.314 79.4904 19.3787 78.7569C19.5082 78.5627 19.6808 78.5303 19.8749 78.6382C20.3712 79.2855 20.0691 80.1916 20.0152 80.9791C19.9613 81.7234 20.1662 82.7266 19.4974 83.3415Z" fill="#073742"/>
    <path fill-rule="evenodd" clip-rule="evenodd" d="M72.2804 61.1731C70.1229 61.8851 67.9438 62.5647 65.7647 63.1904C65.0851 65.4989 62.9061 67.775 61.8489 69.9433C61.5145 70.6229 61.439 71.3241 61.1693 71.8743C60.6515 72.9207 59.9611 73.967 59.3354 74.7977C58.5372 75.8656 57.3182 76.61 56.261 77.4729C53.2837 79.9109 49.6483 81.3456 46.4229 82.2302C45.1392 82.9961 43.7045 83.762 42.2158 83.9885C41.5901 84.0856 40.9105 83.967 40.2525 84.0425C39.6052 84.118 38.9796 84.2906 38.3431 84.3445C35.3334 84.6358 32.3345 82.7372 29.2385 82.8127C28.0951 82.8451 26.8545 83.104 25.6463 83.2442C25.2472 83.2874 24.8373 83.2874 24.4921 83.3737C23.8772 83.5355 23.2731 83.9778 22.5827 84.2043C20.8136 84.7976 18.4619 85.4125 16.833 86.3834C16.2505 86.7285 15.614 87.8504 14.751 86.7933C14.6755 86.1676 15.4091 85.6714 15.819 85.4341C15.6895 85.2183 15.5924 85.0026 15.5924 84.7652C15.7111 83.9454 15.8837 83.2118 15.8513 82.4675C15.8298 81.9713 15.4846 81.3888 15.8837 80.8818C16.8114 81.1299 16.6172 82.1547 16.5957 82.8235C16.5741 83.5786 16.4878 84.3769 16.3799 85.0457C16.8114 85.0349 17.1566 84.6142 17.5773 84.5063C17.491 84.2798 17.1243 84.1288 17.2321 83.8591C17.2213 83.2766 17.3292 82.6833 17.4047 82.036C17.4694 81.5074 17.2861 80.7631 17.8146 80.364C18.559 80.7955 18.203 81.6477 18.1167 82.2733C18.0304 82.9637 18.0304 83.6649 17.9225 84.2906C19.0984 83.967 20.231 83.4276 21.3853 83.0393C21.094 82.5538 21.3313 81.9497 21.3421 81.3996C21.3637 80.3424 21.2882 79.2637 21.2558 78.131C21.2451 77.6671 21.0832 76.9012 21.6442 76.6639C22.162 76.8581 22.0433 77.4622 22.0541 77.8829C22.0757 78.3036 22.0865 78.789 22.0865 79.1881C22.108 80.3963 22.162 81.4859 21.9894 82.7696C22.3346 82.9206 23.1005 82.4567 23.5859 82.2733C23.6722 81.022 23.7477 79.857 23.532 78.6056C23.4349 78.0555 23.3486 77.4082 23.2515 76.8257C23.176 76.3403 22.9171 75.4665 23.532 75.186C24.0606 75.542 24.0174 76.2863 24.1037 76.8365C24.3626 78.4007 24.697 80.1482 24.2224 81.9389C25.4521 82.0468 26.5633 81.6153 27.7607 81.583C27.8901 79.9648 28.0519 78.3683 27.9009 76.7502C27.8577 76.2971 27.4262 75.6391 27.9548 75.2831C28.8394 75.6283 28.5913 76.8257 28.6236 77.6348C28.6668 78.8861 28.8394 80.0403 28.505 81.4103C28.8502 81.4967 29.163 81.3996 29.4866 81.3888C29.8426 79.7707 29.8318 78.0123 30.026 76.2647C30.0692 75.844 29.8426 74.9595 30.5654 74.8948C31.094 75.0566 30.8135 75.7362 30.7703 76.0922C30.684 76.9875 30.5762 77.8613 30.5438 78.8429C30.5222 79.6304 30.587 80.4718 30.3389 81.3888C30.8782 81.6477 31.3205 81.4427 31.8599 81.7016C32.0756 80.1914 32.0541 78.584 32.108 77.0414C32.1296 76.6099 31.9785 75.9411 32.5287 75.693C33.1436 75.9411 32.8847 76.7502 32.8739 77.1925C32.8415 78.6488 32.8523 80.2885 32.6258 81.8526C33.9203 82.1655 35.8296 82.9637 37.4478 83.05C38.246 83.0932 39.3463 82.7911 40.4575 82.6941C41.5146 82.597 42.561 82.597 43.3916 82.2841C44.6861 81.7987 45.8619 80.9465 47.1996 80.4934C47.8576 80.2669 48.5372 80.159 49.1737 79.9109C51.6224 78.9724 54.0065 77.5916 56.4768 75.6067C57.6634 74.6574 58.9687 73.2335 59.864 71.4104C60.1984 70.72 60.2416 69.9649 60.5652 69.2745C61.4282 67.4083 62.8737 65.9628 63.8877 63.9671C63.4347 63.8592 63.1218 64.2476 62.6903 64.5065C61.7518 65.0674 60.7378 65.6715 59.7669 66.9552C59.1305 67.7858 58.6235 68.8214 57.9007 69.7491C57.4261 70.364 56.412 71.3241 55.7432 71.8203C55.6138 71.9066 55.0097 72.295 54.6969 72.4568C54.3624 72.6294 53.7044 72.8451 53.1327 73.0825C52.205 73.46 51.4283 74.0102 51.1586 72.8128C51.7735 71.8635 53.0464 71.6477 54.0604 71.0976C55.0744 70.5474 56.11 69.8139 56.8436 68.8754C57.0485 68.6165 57.3937 68.185 57.5232 67.7966C57.7065 67.2465 57.4153 66.4806 57.3398 65.8657C57.275 65.3155 56.9514 64.5712 57.5124 64.0426C58.5156 64.7762 57.8252 65.898 58.2675 66.7718C58.4832 66.4806 58.6558 65.9951 58.9255 65.898C58.9471 64.7869 58.4832 63.4601 59.1844 62.4137C60.1984 62.8128 59.357 64.1613 59.6375 64.9487C61.2664 64.2584 60.0474 62.6726 60.9751 61.6154C61.7518 62.144 61.2232 62.9639 61.3095 63.6435C61.7842 63.514 62.1941 63.0933 62.6472 62.8776C62.8629 62.198 62.5069 61.0761 63.2621 60.6985C63.9632 61.13 63.4239 61.842 63.467 62.4353C63.8122 62.5108 64.0819 62.2519 64.3947 62.1548C64.6968 61.5939 64.3516 60.3964 65.2254 60.3209C65.8079 60.6661 65.1822 61.3026 65.2901 61.7557C65.398 61.939 65.9697 61.6801 66.2394 61.6046C66.5846 61.0653 66.3041 59.9218 67.1024 59.8894C67.6849 60.2346 67.1455 60.8495 67.1671 61.3242C68.0948 61.5507 67.8899 60.472 68.44 59.9757C69.0873 59.9757 68.7313 60.5475 68.9686 60.8387C69.7022 60.7632 69.2707 59.7708 69.9934 59.555C70.4357 59.7384 70.4681 60.0189 70.2415 60.3533C71.0937 60.4504 71.0614 59.8463 71.4497 59.2853C71.6763 59.2098 72.0107 59.6413 72.2372 59.5658C72.7442 59.3609 73.2944 59.4148 73.6719 58.6489C74.0603 58.7136 74.427 58.7028 74.783 58.595C75.1067 58.4116 74.9988 58.1634 75.2685 57.829C75.4519 57.7859 75.7 58.0124 75.9265 58.1419C76.5198 57.678 77.2318 57.6996 77.8143 57.1818C77.9545 56.9229 78.2027 57.171 78.3968 57.1171C80.3386 56.0275 82.7549 55.0675 84.9124 53.3846C85.5597 52.8776 86.66 52.2843 86.9512 51.6694C87.1886 51.1732 86.9297 50.116 86.5953 49.8464C85.8509 49.2315 83.8984 49.4149 82.9168 49.5767C81.6331 49.7816 80.5327 50.2455 79.5187 50.5475C74.837 51.9715 70.6407 53.5464 66.0237 54.8301C64.8694 55.1538 63.7259 55.4558 62.6256 55.8118C61.4821 56.1678 60.4465 56.7503 59.3678 57.0847C58.0625 57.4838 56.6062 57.7104 55.2794 57.6241C52.5502 56.3619 53.8015 54.1829 52.7983 52.5324C50.9213 50.6878 48.753 52.5648 46.671 50.5152C45.9267 49.7924 47.0486 48.2498 47.0594 47.3329C47.0701 46.9661 46.8868 46.2757 46.5416 45.9413C45.1608 44.5929 42.4316 45.348 41.0184 44.5066C40.8134 44.3879 40.3604 44.0535 40.1878 43.773C39.821 43.1474 40.4359 42.2952 40.123 41.4861C39.9181 40.9467 39.2924 40.4505 38.7315 40.2887C37.9332 40.0622 37.0702 40.5152 36.2072 40.2024C35.6678 40.7741 34.7617 40.8389 34.0713 41.2164C33.6614 41.443 33.273 41.8852 32.8415 42.1549C32.41 42.4246 31.8922 42.554 31.5578 42.8453C31.094 43.2337 30.8027 43.8162 30.3604 44.2369C29.519 45.0244 28.4726 45.5853 27.5449 46.3296C27.0703 46.7072 26.6172 47.0956 26.1641 47.5055C25.6895 47.9262 25.3443 48.444 24.8912 48.8539C24.039 49.6198 22.9063 49.9974 22.0973 50.7417C22.2375 51.3782 22.2375 52.2196 22.162 53.0286C22.1296 53.4062 22.3346 53.924 21.7844 53.9671C20.9214 53.266 21.7197 52.1764 21.3853 51.3566C21.2019 51.486 21.0185 51.6478 20.8459 51.8744C20.9322 52.0686 21.1803 52.2412 21.1156 52.4677C20.9646 53.1041 20.9862 53.6975 21.0185 54.3339C21.0401 54.8949 21.3529 55.6176 20.8891 56.0707C20.1232 55.8873 20.2634 54.9272 20.2418 54.3771C20.2095 53.6975 20.2418 52.9855 20.3173 52.3814C20.0045 52.5432 19.7132 52.7913 19.4328 53.1042C19.3573 53.2336 19.9506 53.2552 19.929 53.5141C19.5298 54.938 19.7564 56.2864 19.8966 57.6672C19.9398 58.0664 20.1447 58.6489 19.7348 58.9509C19.1091 58.9294 19.1199 58.1742 19.0768 57.7859C18.9258 56.4698 18.7963 54.9164 19.2062 53.4817C18.6776 53.6004 18.5806 54.2045 18.2785 54.6144C17.8362 55.2077 17.2645 56.006 16.628 56.9013C16.4231 57.1926 16.1318 57.4299 16.0239 57.6996C15.7003 58.4763 16.0347 59.609 16.0779 60.5151C16.0994 61.0005 16.0347 61.4752 16.0671 61.8959C16.0994 62.3274 16.4446 62.9423 15.9053 63.1796C15.1717 62.856 15.2688 61.8527 15.2472 61.1623C15.2257 60.3964 15.3012 59.609 15.1394 58.9509C13.7801 60.2562 14.2764 61.7233 14.3735 63.0717C14.4058 63.514 14.449 63.9887 14.4921 64.431C14.5245 64.8085 14.7187 65.445 14.1685 65.6176C13.4565 65.089 13.7262 64.172 13.6831 63.4924C13.6291 62.7589 13.4242 62.0253 13.4457 61.3134C12.8524 62.2519 12.2268 63.0933 11.5472 63.6543C11.5687 64.2907 11.5256 65.035 11.504 65.7686C11.4824 66.3943 11.6658 67.3004 11.0833 67.6456C10.2527 67.1278 10.8999 65.5097 10.7705 64.5604C10.3498 64.8948 9.86432 65.0998 9.65936 65.4773C9.07684 66.5561 10.2958 68.131 9.30337 69.1127C8.66691 68.8106 8.9366 68.131 8.91502 67.6887C8.88266 67.2033 8.75321 66.7394 8.72085 66.2864C8.38644 66.4482 8.08439 66.7718 7.76077 66.966C7.52345 67.6887 8.2462 68.7783 7.41557 69.2206C6.7036 68.7675 7.05958 68.0771 7.01643 67.473C5.76509 68.2173 3.94202 69.2206 2.38863 70.2454C1.86004 70.5906 1.30989 71.1623 0.824454 70.871C-0.588699 70.0188 2.36705 68.6488 2.82013 68.3791C3.89887 67.7319 5.19336 66.8689 5.99163 66.405C8.09518 65.1645 10.4684 63.0717 12.011 61.0761C13.0682 59.7169 13.9204 58.0448 14.9128 56.7935C15.6895 55.8226 16.5633 54.3663 17.5989 53.0179C18.0628 52.4245 18.7316 51.9283 19.3896 51.3566C20.6302 50.2778 21.7736 49.2638 23.0573 48.4116C23.7262 47.9693 24.1684 47.4192 24.7941 46.8259C25.1285 46.513 25.5924 46.2973 25.9807 45.9629C26.3367 45.65 26.6603 45.2186 27.0595 44.9273C27.8146 44.3556 28.6992 43.9025 29.3788 43.2768C30.0584 42.6511 30.5114 41.9068 31.1911 41.4106C31.5147 41.184 31.9893 40.9791 32.3561 40.7525C33.122 40.2671 33.78 39.8464 34.643 39.5012C35.7002 39.0805 37.8793 38.498 39.0335 38.8216C40.533 39.2423 41.1155 40.375 41.6441 41.3135C41.6225 41.9068 41.4175 42.5541 41.5901 43.1042C43.4024 44.1074 45.7217 43.2337 47.534 44.9057C48.0194 45.348 48.4617 46.3189 48.5264 46.9122C48.602 47.7212 48.1597 48.6705 47.8253 49.5767C50.0151 50.8604 51.7843 49.5227 53.6936 51.3242C53.9957 51.6155 54.4056 52.3598 54.5674 52.8345C54.8371 53.6327 54.5458 55.2401 55.1068 55.7363C55.3872 55.9952 55.8727 56.0275 56.3042 56.0599C58.5911 56.2109 61.2772 54.4849 63.5533 54.075C59.2815 51.0869 57.8252 47.4408 56.6386 43.7407C56.1747 41.3351 56.6386 38.6814 57.9978 35.5962C58.5911 34.2585 59.0658 33.1906 59.8748 31.7451C61.59 28.6814 62.8953 25.1863 64.7076 21.8206C66.207 19.0267 68.1488 16.2651 69.7561 13.4172C71.2016 10.8714 72.2264 8.16374 74.1466 5.56397C75.4734 3.77326 77.7712 1.32452 79.3677 0.483099C80.5975 -0.164146 82.7334 0.386014 83.9416 0.0300293C87.5338 1.15192 91.3849 3.13681 95.1821 5.15406C99.0332 7.19288 102.712 10.1702 106.919 12.4032C109.249 13.633 111.773 15.0138 114.125 16.2759C115.365 16.9447 116.714 17.9803 117.944 18.5628C119.993 19.5337 122.151 21.195 124.254 22.511C128.364 25.0892 131.741 27.1712 134.481 29.7817C135.052 30.3211 135.807 30.785 136.207 31.292C136.422 31.5617 136.584 31.9716 136.789 32.4031C138.062 35.1107 139.087 37.7213 138.267 41.1517C138.051 42.0686 137.652 43.0718 137.296 44.0751C136.282 46.8582 134.491 49.8895 132.356 52.9747C129.346 57.322 126.778 62.1548 123.704 66.61C122.766 67.9692 121.838 69.2853 121.072 70.6337C119.885 72.7157 118.558 74.7006 117.253 76.3834C115.98 78.0231 115.419 79.0263 114.028 79.8246C112.884 80.4826 111.644 81.0112 110.414 80.9789C109.346 80.9573 107.987 80.3856 106.843 80.0188C106.52 79.9109 106.164 79.9433 105.883 79.8462C105.182 79.5981 104.47 79.1342 103.661 78.7782C99.6373 76.9983 95.1713 74.377 90.9426 72.0792C87.5985 70.2669 84.578 67.9908 81.1368 66.0383C80.166 65.4881 79.0656 65.089 78.1056 64.5604C77.1455 64.0426 76.2825 63.3306 75.3332 62.8236C74.2221 62.2735 73.0678 62.0469 72.2804 61.1731ZM135.689 44.0643C136.217 42.7051 136.822 41.3027 137.016 40.0729C137.102 39.5659 137.005 38.9187 137.016 38.3577C137.059 36.4268 136.325 34.9489 135.516 33.2445C135.333 32.8562 135.236 32.3276 135.052 32.101C134.707 31.648 133.952 31.2704 133.423 30.7634C132.884 30.2348 132.442 29.6739 131.978 29.3179C129.4 27.3762 126.433 25.6286 123.305 23.6653C119.119 21.0439 115.732 18.8649 111.676 16.5887C110.177 15.7473 108.602 14.8519 106.994 13.9782C101.557 11.0224 95.7106 6.64272 90.3601 4.30185C88.5586 3.51437 86.9297 2.44641 85.3331 1.89625C84.0171 1.44318 83.0354 1.46475 81.7517 1.46475C79.81 1.46475 79.1843 2.09042 77.5878 3.66539C75.0959 6.11413 73.3807 9.33957 71.4281 12.9749C70.1552 15.3374 68.5371 17.5704 67.3397 19.8357C64.9881 24.3125 62.7011 28.9403 60.5113 33.115C60.0474 33.9996 59.6591 35.046 59.2599 35.9737C57.9762 38.9079 57.4584 41.3459 57.987 43.6328C58.1812 44.485 58.5695 45.2833 58.9687 46.1786C59.7777 47.9801 60.425 49.7277 62.1725 50.979C62.1833 48.7137 61.9136 46.3081 61.6547 44.1182C61.5792 43.4926 61.288 42.2844 61.946 41.9392C62.5069 42.1226 62.3344 42.7806 62.3559 43.1582C62.5285 45.4235 62.9384 47.6673 62.9708 49.8571C62.9816 50.7525 62.5501 51.9391 63.6936 52.4569C63.8446 49.7061 64.1035 46.3512 63.9956 43.4386C63.8014 42.9963 64.7184 42.964 64.3516 42.6943C64.0819 41.8744 63.6828 40.5799 63.5533 39.5228C63.2189 36.8043 64.3084 32.7591 65.6461 29.6954C66.1207 28.5951 66.8866 27.5595 67.5123 26.3729C69.2383 23.1043 70.878 19.4366 72.6471 16.3083C75.5058 11.249 79.4324 3.11523 83.8337 3.08286C84.5349 3.07208 86.9728 3.62224 87.5877 3.93507C88.0408 4.17239 88.5046 4.67941 89.1087 5.10012C92.8951 7.73225 97.2856 9.87894 100.943 12.5219C104.556 15.1324 108.246 17.743 112.323 19.9868C115.862 21.9285 117.89 23.1906 121.007 25.4344C124.114 27.6674 126.638 29.1777 127.9 31.6803C128.99 33.827 130.058 35.7364 128.558 38.3038C129.076 38.6059 129.378 39.0374 129.626 39.512C130.112 40.4289 130.435 41.54 130.845 42.5217C131.277 43.5573 131.503 44.6252 131.935 45.5637C132.258 46.2649 132.776 47.0956 133.078 47.6673C133.197 47.883 133.359 48.3793 133.521 48.1635C134.502 46.8798 135.139 45.4774 135.689 44.0643ZM85.7862 4.94909C85.9372 5.08933 85.5813 5.34823 85.5273 5.53161C83.6395 6.44854 81.482 7.26839 79.6805 8.18532C78.9578 8.55209 78.3429 8.81099 78.0948 9.86815C81.1908 8.43343 84.3946 7.48413 87.3612 5.51003C86.9513 5.0246 86.2824 4.97067 85.7862 4.94909ZM91.4172 8.27162C89.907 9.35036 88.2242 9.52296 86.66 10.2134C83.0246 11.8207 79.5187 13.4388 75.8941 14.9167C75.7 15.1108 75.344 14.593 75.1606 14.8843C75.0851 15.2079 74.4918 15.812 74.2437 16.3406C76.6493 15.8228 79.2382 14.7225 81.7733 13.5575C83.7258 12.6621 85.5597 11.853 87.469 11.1303C87.9976 10.9361 88.8283 10.3428 89.4 10.9469C89.0332 11.5402 88.2242 11.7128 87.5877 11.9501C85.5381 12.7376 83.6503 13.4388 81.6438 14.4312C79.8208 15.3266 77.6525 16.0925 75.6676 16.7937C74.9988 17.031 73.9632 17.1605 73.6504 17.4517C73.1649 17.9048 72.9384 18.8864 72.4853 19.825C71.2879 22.2953 69.7777 25.1 68.6342 27.1604C67.9977 28.3254 67.3397 29.3287 66.8866 30.4614C65.6461 33.5358 64.5781 36.9554 64.9018 39.6091C65.0851 41.1085 65.8618 43.2229 66.9729 44.334C68.4832 45.8442 71.3203 46.869 73.3483 48.3361C75.3871 48.088 77.3181 47.1819 79.1304 46.2865C79.4971 46.1031 80.0689 45.7148 80.4896 46.1786C80.3601 46.7288 79.6697 46.9553 79.2059 47.1926C77.9222 47.8399 76.5198 48.3145 75.2685 48.6813C75.0743 48.746 74.481 48.7892 74.7507 48.9941C75.2685 49.3178 75.7755 49.6414 76.2933 49.9542C78.5586 49.2207 81.029 48.4979 83.3483 48.2714C83.92 48.2174 84.5349 48.1419 85.0311 48.1527C85.6783 48.1743 86.6384 48.1743 87.2317 48.5734C87.7064 48.8971 88.2565 49.965 88.3644 50.3534C88.7959 51.9823 87.5554 53.0179 86.2501 54.0642C85.495 54.6683 84.7398 55.2616 84.1034 55.6068C86.8002 57.4515 89.756 58.692 92.0537 59.8463C92.7225 60.1807 93.4237 60.5367 94.1249 60.8172C95.5165 61.3997 96.8649 62.0901 98.2241 62.6402C99.2166 63.0394 100.457 63.2659 101.525 63.5248C102.755 63.8268 104.136 64.3123 105.02 64.431C106.876 64.6791 108.407 63.9671 109.939 62.9099C110.533 62.5 111.191 62.0793 111.514 61.7557C112.776 60.5043 113.294 58.4439 114.524 56.7935C115.128 55.9736 115.851 55.2616 116.466 54.3771C118.041 52.1009 119.26 49.7493 120.835 47.581C121.859 46.1678 123.057 45.0459 123.974 43.773C125.117 42.1765 126.066 40.3966 127.005 38.6059C128.116 36.4915 128.181 35.0029 127.264 33.4171C126.951 32.8777 126.714 32.2844 126.444 31.8314C125.808 30.7526 124.599 29.6739 123.434 28.7677C117.372 24.0213 108.17 19.6631 102.129 15.0893C99.3892 16.2651 96.3687 17.6675 93.6179 18.4226C93.2403 18.5197 92.6362 18.8972 92.3558 18.3794C92.7225 17.592 93.7797 17.5704 94.4917 17.3654C95.3115 17.1281 96.0882 16.8045 96.8649 16.4916C98.0407 16.017 99.2273 15.5855 100.295 15.1109C100.716 14.9275 101.18 14.6578 101.331 14.4744C100.446 13.9782 99.8422 13.4064 99.1195 12.8778C97.5445 13.7516 95.8725 14.2694 94.2867 14.7764C92.4421 15.3589 90.5543 16.1464 88.7743 16.5671C88.4291 16.6427 87.9005 16.9879 87.6416 16.5024C87.7064 15.8768 88.3968 15.963 88.8067 15.8444C90.263 15.4129 91.5575 14.8412 92.9491 14.3665C94.7829 13.7408 96.7354 13.3741 98.4075 12.3277C96.0774 10.9901 93.7473 9.62005 91.4172 8.27162ZM87.879 6.04941C87.1023 6.71823 86.2285 7.03106 85.3763 7.47335C83.7042 8.34713 82.2371 9.01595 80.6082 9.62005C79.81 9.9221 79.0225 10.3967 78.1595 10.4399C77.8251 10.3428 78.0085 10.1271 77.9222 9.96525C77.5878 10.6125 76.9189 11.3353 76.7895 11.9393C80.7701 10.0623 84.8046 8.41186 88.7959 6.62115C88.4939 6.43776 88.1918 6.24358 87.879 6.04941ZM89.4971 7.06343C89.4324 7.04185 89.3353 7.23602 89.2706 7.24681C88.9254 7.27917 88.2889 7.6891 87.7819 7.91563C86.6061 8.43343 85.7431 8.81099 84.6751 9.28563C82.1077 10.4399 79.2922 11.6265 76.9621 12.6945C76.7679 12.8886 76.4119 12.3708 76.2286 12.6621C75.9373 13.1475 75.8294 13.5898 75.4411 14.0968C76.0883 13.9674 76.7032 13.7085 77.3397 13.4604C80.5867 12.2198 83.7366 10.6664 86.865 9.37193C88.1487 8.84335 89.4971 8.46579 90.7269 7.82933C90.2846 7.69988 89.9609 7.18209 89.4971 7.06343ZM84.4701 4.66862C84.5888 4.77649 84.5564 4.90594 84.427 5.06775C84.7075 5.15405 84.934 4.97067 85.1497 4.76571C84.9016 4.65783 84.6535 4.51759 84.4701 4.66862ZM79.9826 7.20366C81.0505 6.59956 82.1832 6.25437 83.262 5.72579C83.1649 5.63949 83.208 5.52083 83.1325 5.42374C82.1509 6.1465 80.6945 6.29752 79.9826 7.20366ZM127.178 41.0762C128.537 43.9456 129.475 47.1495 130.727 49.9434C130.899 50.3318 131.428 50.828 131.039 51.3242C130.101 51.1408 129.939 49.965 129.648 49.2746C128.591 46.8151 127.792 44.2477 126.649 41.9284C126.466 42.3922 126.196 42.8669 125.862 43.3631C126.843 45.9521 128.094 48.746 129.001 51.335C129.238 52.0146 129.421 52.759 129.659 53.3523C129.702 53.4601 129.756 53.9348 130.025 53.7946C130.932 52.2735 132.226 51.0114 132.895 49.3825C132.69 48.4656 132.302 47.5918 131.838 46.7935C130.425 44.334 129.896 41.3459 128.353 39.0373C127.933 39.7277 127.415 40.4289 127.178 41.0762ZM124.718 45.0028C125.991 47.5702 126.735 50.321 127.458 52.9316C127.706 53.8161 128.321 54.7115 128.094 55.6824C127.393 55.8873 127.447 55.2401 127.318 54.8733C126.228 51.8528 125.667 48.4979 124.168 45.7255C123.931 46.2326 123.607 46.3512 123.37 46.8259C125.268 50.4504 125.754 54.3986 127.339 58.0987C128.019 57.02 128.688 55.9412 129.367 54.8733C128.267 51.3134 127.037 47.7752 125.247 44.3663C125.063 44.5929 124.923 44.9596 124.718 45.0028ZM121.827 48.7568C123.348 52.4893 124.945 56.2001 126.12 60.0189C126.347 59.6629 126.573 59.3069 126.789 58.9401C125.096 55.2077 124.783 51.1516 122.722 47.4947C122.442 47.9046 121.913 48.4332 121.827 48.7568ZM119.874 51.7126C121.072 54.3879 121.708 57.6241 122.582 60.3749C122.722 60.8064 123.035 61.3242 123.175 61.8204C123.294 62.2195 123.531 62.9207 122.96 63.1904C122.463 62.9639 122.474 62.349 122.345 61.9498C121.309 58.7999 120.651 55.6608 119.292 52.6511C119.098 52.9747 118.86 53.0502 118.688 53.4493C120.209 56.8042 121.05 60.5906 122.151 63.9779C122.28 64.3878 122.776 65.1106 122.172 65.4881C121.6 65.391 121.568 64.6898 121.428 64.2799C120.338 60.9466 119.702 57.5054 118.105 54.3771C117.555 54.8625 117.782 55.5637 117.976 56.1138C118.159 56.6532 118.429 57.2034 118.602 57.678C119.637 60.5906 120.295 63.665 121.212 66.4913C121.266 66.6639 121.309 67.2896 121.525 67.0091C122.463 65.7578 123.348 64.2476 124.254 62.8236C123.154 59.3716 122.237 55.5097 121.083 52.1656C120.942 51.7557 120.338 51.0977 120.942 50.6878C121.471 50.8064 121.665 51.4752 121.805 51.8744C121.978 52.349 122.064 52.8776 122.194 53.2983C123.1 56.1678 123.866 59.0696 124.88 61.8312C125.096 61.4428 125.376 61.335 125.581 60.8819C124.276 57.1171 123.078 53.3307 121.244 49.6953C120.737 50.116 120.338 51.0653 119.874 51.7126ZM120.899 67.9908C119.529 63.9779 118.699 59.8463 117.134 55.8873C117.059 55.8657 117.005 55.8981 116.962 55.9952C116.93 56.0491 116.897 56.0923 116.865 56.1462C117.221 56.5777 117.35 57.171 117.49 57.7104C117.631 58.2605 117.803 58.7568 117.987 59.3069C118.979 62.1872 119.357 65.391 120.101 68.2389C120.155 68.4331 120.09 69.0911 120.371 68.8322C120.554 68.5517 120.727 68.2713 120.899 67.9908ZM115.613 57.8183C115.883 58.9294 116.034 60.0297 116.39 61.1947C116.725 62.295 117.156 63.3738 117.415 64.5172C117.868 66.4913 118.353 68.5733 118.839 70.4395C118.882 70.6337 118.828 71.3025 119.109 71.0329C119.281 70.7524 119.465 70.4719 119.637 70.1914C118.796 65.6715 117.857 61.1624 116.369 56.7935C116.142 57.2573 115.829 57.3436 115.613 57.8183ZM112.895 62.3274C113.251 62.7697 113.251 63.3846 113.391 63.9239C113.531 64.4849 113.801 65.0027 113.963 65.5744C114.287 66.6532 114.405 67.8074 114.664 68.8969C115.106 70.8063 115.613 72.8236 115.98 74.6466C116.023 74.8624 115.969 75.4988 116.25 75.2399C117.35 74.3122 116.757 73.6542 116.509 72.6186C115.624 68.9401 114.977 65.3371 114.373 61.8527C114.297 61.3889 113.887 60.4935 114.578 60.1591C115.16 60.4072 115.042 61.2055 115.128 61.6802C115.441 63.4061 115.743 65.0998 116.099 66.7934C116.509 68.7459 116.8 70.8926 117.318 72.7049C117.372 72.8991 117.49 73.5895 117.706 73.2766C117.933 72.9207 118.159 72.5647 118.386 72.1979C117.393 67.7103 116.347 63.2335 114.988 58.8215C114.243 59.9973 113.715 61.13 112.895 62.3274ZM111.04 63.7405C111.288 65.9196 112.075 68.2713 112.615 70.6229C112.852 71.6801 113.003 72.9638 113.219 74.1073C113.305 74.5927 113.553 75.24 113.618 75.8548C113.661 76.2863 113.898 77.268 113.024 77.3111C112.571 76.9228 112.949 76.4266 112.906 75.9519C112.841 75.0566 112.453 74.021 112.248 73.0717C111.601 70.1159 111.115 67.1817 110.198 64.3986C109.54 64.8624 108.839 65.1429 108.17 65.5852C108.958 69.3176 109.767 73.46 110.306 77.2033C110.371 77.6671 110.705 78.4654 110.069 78.7674C109.572 78.4546 109.529 77.6995 109.443 77.2033C109.357 76.6207 109.324 76.0166 109.249 75.4665C108.861 72.6402 108.213 69.7599 107.652 67.0739C107.555 66.5992 107.706 65.7794 107.005 65.7039C106.628 65.7362 106.8 66.1354 106.822 66.3403C106.843 66.5776 106.908 66.9552 106.94 67.171C107.447 69.9649 107.965 72.8451 108.537 75.5636C108.645 76.049 108.828 76.6423 108.914 77.1925C108.979 77.624 109.184 78.4977 108.526 78.6596C107.944 78.3467 108.084 77.57 108.03 77.063C107.965 76.4697 107.836 75.9411 107.706 75.3586C107.059 72.5539 106.703 69.6736 106.164 66.8905C106.067 66.3943 106.023 65.5421 105.204 65.8549C105.409 67.8937 105.786 70.0943 106.088 72.3058C106.39 74.5172 106.919 76.7394 107.458 78.8429C108.429 78.9724 109.26 79.4794 110.123 79.5549C112.064 79.7167 114.222 78.3467 115.538 76.2108C114.783 73.158 114.103 69.5658 113.305 66.459C113.014 65.3479 112.69 63.9455 112.129 63.0394C111.805 63.4061 111.417 63.5572 111.04 63.7405ZM104.912 68.8969C104.858 68.5302 104.599 67.9908 104.492 67.3436C104.351 66.5237 104.621 65.5852 103.812 65.5205C103.51 65.9412 103.704 66.5345 103.758 66.9876C104.136 70.6445 104.405 74.4309 105.15 77.926C105.581 78.077 106.056 78.433 106.476 78.5409C105.765 75.5743 105.43 72.1116 104.912 68.8969ZM103.769 74.4848C103.478 72.4029 103.359 70.3425 103.143 68.3144C103.035 67.3004 103.014 66.2324 102.701 65.2508C101.482 64.9056 100.263 64.5712 99.0763 64.3662C99.551 66.8581 100.155 70.0836 100.446 72.9314C100.522 73.6434 100.36 75.3478 100.781 75.8225C101.18 76.2648 101.913 76.3942 102.42 76.6315C103.003 76.912 103.488 77.2464 104.125 77.4945C104.157 76.4805 103.898 75.4881 103.769 74.4848ZM98.3212 64.2152C98.2673 64.0534 98.181 63.9995 98.0084 64.021C97.9544 63.9887 97.9113 63.9563 97.8573 63.9239C97.8897 67.624 98.8714 71.1084 98.839 74.8192C99.195 75.035 99.5402 75.2076 99.853 75.2399C99.6265 71.5075 98.8821 67.8829 98.3212 64.2152ZM95.6135 63.0609C96.3039 66.5669 96.5736 70.1699 97.4474 73.6326C97.3719 73.7621 97.2856 73.8915 97.2101 74.021C97.5014 74.2367 97.7171 74.1504 98.0299 74.4309C98.0191 71.0868 97.2856 67.8829 97.0267 64.5928C97.0051 64.2476 97.1454 63.8916 96.9188 63.568C96.4766 63.3846 95.9911 62.9639 95.6135 63.0609ZM64.6321 50.8064C64.5997 51.5939 64.4271 52.403 64.6536 53.1689C65.398 53.719 65.9266 53.3523 66.4659 53.0179C66.6709 50.7957 66.5954 48.6489 66.4875 46.5022C66.4659 46.1786 66.7356 45.7903 66.3365 45.553C66.0129 45.553 66.2286 45.9521 66.1962 46.1139C66.0776 46.9985 65.9697 47.8507 65.9913 48.6597C66.0236 49.7924 66.3365 50.9575 66.0344 52.0038C65.8834 51.9067 65.8079 52.1549 65.6353 51.9607C65.247 51.4537 65.398 50.7741 65.3548 50.1808C65.2577 48.6813 65.344 47.0632 65.3548 45.5745C65.3548 45.2401 65.2362 44.8626 65.4519 44.5605C65.1391 44.3448 65.0636 43.7299 64.8047 43.7191C64.8155 46.0707 64.7399 48.5734 64.6321 50.8064ZM94.0602 62.295C93.8876 62.6618 93.9631 63.1472 94.017 63.5572C94.2112 64.938 94.3946 66.103 94.6103 67.5701C94.729 68.3576 94.729 69.2529 94.8369 70.2777C94.8908 70.7632 95.0418 72.6402 95.3115 72.9314C95.6999 73.3521 96.2608 73.3306 96.6384 73.5463C95.7646 69.9757 95.4625 66.2648 94.7937 62.651C94.524 62.4137 94.3083 62.4568 94.0602 62.295ZM93.1109 61.9175C92.2695 61.6046 91.3633 60.9898 90.5327 60.7309C91.0289 62.9531 91.126 65.7578 91.3525 68.3144C91.4065 68.8862 91.3741 70.5582 91.6761 70.871C91.8056 71.0005 92.0213 71.1084 92.2587 71.1299C92.0213 69.0264 91.8595 66.5453 91.6114 64.3015C91.5683 63.9024 91.5359 63.5356 91.482 63.1472C91.428 62.7481 91.3202 62.3166 91.3957 61.9175C91.579 61.8635 91.7625 61.7664 91.9674 61.8527C92.345 62.5863 92.3881 63.5032 92.4636 64.3015C92.5499 65.1537 92.4852 65.9951 92.5823 66.8365C92.7872 68.4978 92.8736 70.2022 93.3266 71.7988C93.6395 71.9929 93.9415 72.1871 94.2436 72.3813C94.1465 69.1019 93.4669 65.3695 93.1109 61.9175ZM73.4238 50.9682C73.8661 51.0653 74.2437 50.9035 74.5997 50.6338C74.2113 50.4612 73.7474 49.9542 73.4022 49.9866C73.4562 50.2994 73.4562 50.6338 73.4238 50.9682ZM70.5112 52.0254C71.3311 51.8312 70.9859 50.979 70.9967 50.3965C71.0074 49.7277 71.0937 49.0373 71.0182 48.4871C70.8348 48.3793 70.6622 48.2606 70.4789 48.1527C70.371 49.4688 70.2739 50.7849 70.5112 52.0254ZM71.8273 51.4645C72.1293 51.4645 72.4422 51.4645 72.6687 51.1408C72.6363 50.6015 72.7011 50.0405 72.6255 49.5011C72.3667 49.3393 72.1078 49.1775 71.8596 49.0157C71.8489 49.8356 71.8057 50.6554 71.8273 51.4645ZM67.2103 52.856C67.5339 53.0178 67.7604 52.7697 68.0409 52.7374C68.2135 50.7633 68.2459 48.8323 68.1596 46.923C67.8899 46.718 67.4368 46.567 67.3613 46.3189C67.2103 48.5087 67.5231 50.6123 67.2103 52.856ZM69.6374 48.8108C69.659 48.1419 69.7777 47.5163 68.9902 47.4408C68.9902 48.8647 68.85 50.8927 68.9039 52.5324C69.1196 52.4245 69.357 52.403 69.5727 52.3167C69.6374 51.3997 69.6051 49.8787 69.6374 48.8108ZM89.6481 60.2778C89.4755 60.4827 89.1087 59.8463 88.9361 60.0512C89.1519 63.0933 89.7452 66.0491 89.8962 69.1127C89.7883 69.3069 89.6805 69.4902 89.5294 69.5226C89.9178 69.7599 90.2954 70.008 90.6837 70.2454C90.5758 66.8689 90.3061 63.5248 89.6481 60.2778ZM87.4043 59.4148C87.5338 61.6586 87.6956 64.0426 87.9545 66.3943C88.03 67.1386 88.0731 67.9045 87.9437 68.638C88.332 68.6812 88.8175 69.2098 89.195 69.2098C88.9038 65.9843 88.3213 62.8236 88.1702 59.5766C87.9437 59.4364 87.7064 59.2853 87.4798 59.1451C87.2317 59.199 87.4043 59.3177 87.4043 59.4148ZM86.7139 67.0091C86.8757 67.3867 86.4443 67.9045 87.1778 68.1526C87.2857 67.4299 87.2102 66.6532 87.1131 65.8657C86.9081 64.226 86.7247 62.5431 86.6492 60.9682C86.6061 60.1376 86.865 59.1991 86.2285 58.5626C86.1746 58.5302 86.1314 58.4979 86.0775 58.4655C86.3364 61.3026 86.5198 64.1613 86.7139 67.0091ZM82.6471 56.7503C82.7118 58.9186 82.8844 61.4321 82.8412 63.6219C82.8305 64.2799 82.4529 65.4773 83.4561 65.7146C83.1757 65.0242 83.2835 64.2691 83.2188 63.5248C83.1541 62.7805 83.0246 62.0146 83.0246 61.2702C83.0246 60.5043 82.9599 59.7492 82.9599 58.9833C82.9599 58.4116 82.9168 57.7104 82.9599 57.2681C82.9815 57.0739 83.262 56.8582 83.0138 56.664C82.8736 56.6316 82.6686 56.3296 82.5823 56.5022C82.6686 56.5669 82.6579 56.664 82.6471 56.7503ZM83.8121 57.7967C83.92 57.6025 84.0279 57.4191 84.1789 57.3868C84.0387 57.3652 83.8337 57.0523 83.7474 57.2249C83.8337 57.3975 83.7258 57.6241 83.8121 57.7967ZM84.8046 58.0987C84.9556 60.7632 85.1821 63.6111 85.4087 66.1893C85.441 66.5669 85.1605 67.171 85.7862 67.2896C85.9588 64.7006 85.5057 61.6909 85.3224 58.9725C85.2684 58.7891 84.9664 58.6597 85.0095 58.4547C84.9232 58.2713 85.3655 57.9801 84.9448 57.8722C84.8801 57.8506 84.7938 57.7751 84.7398 57.8506C84.8261 57.9261 84.8154 58.0124 84.8046 58.0987ZM83.8876 63.3091C83.9631 64.2368 84.1357 64.9703 84.3083 65.7146C84.3731 65.9843 84.125 66.3295 84.4809 66.4698C84.6751 63.6111 84.0387 60.9574 84.0279 58.1527C83.9308 58.1095 83.8121 58.0016 83.7474 58.0879C83.8984 59.7708 83.7582 61.6802 83.8876 63.3091ZM81.9675 60.0728C81.8596 60.5906 81.8057 61.2271 81.7194 61.842C81.6331 62.4029 81.7193 63.2335 81.1152 63.4924C80.5651 63.1688 80.824 62.4353 80.8995 61.9606C81.1692 60.267 81.4173 58.6165 81.2447 57.1386C81.0074 57.2573 80.7593 57.3112 80.5543 57.5594C80.7593 57.6672 80.9319 57.7751 80.8456 57.9585C80.4464 59.1559 80.5327 60.0513 80.4572 61.1408C80.4033 61.9391 80.5651 62.8128 80.1768 63.6435C80.0257 63.5464 79.9502 63.7945 79.7668 63.6003C79.454 62.8344 79.6482 61.9714 79.7237 61.1084C79.8208 59.965 79.6913 58.7891 80.0581 57.678C79.5619 58.0987 78.6557 58.2821 78.3753 58.6597C78.4939 58.4979 78.6773 58.6165 78.8607 58.746C78.9254 59.9757 78.893 61.2379 78.8607 62.5C78.7097 62.4137 78.6449 62.7265 78.4831 62.5863C77.8359 62.1117 78.1811 61.281 78.1811 60.6769C78.1811 59.9757 78.0732 59.2961 78.1703 58.6381C77.8682 58.8431 77.4907 58.7352 77.2318 59.1235C77.2749 60.3209 77.1994 61.5399 77.5878 62.6618C79.1412 63.5679 80.6622 64.3878 82.1077 64.8517C81.9675 63.3738 82.0106 61.0868 81.9675 60.0728ZM75.5597 59.6953C75.9804 60.2346 75.6137 60.9574 75.7863 61.5507C76.0452 61.6478 76.3904 62.0685 76.6061 61.9606C76.2717 61.13 76.6708 60.1483 76.3256 59.3285C76.1099 59.5982 75.7863 59.4364 75.5597 59.6953ZM73.8014 60.623C74.1682 60.6014 74.6752 61.1947 75.0204 61.0653C74.8154 60.7093 75.1174 60.2562 74.8909 59.911C74.5673 60.1699 73.8553 60.1915 73.8014 60.623Z" fill="#073742"/>
    <path fill-rule="evenodd" clip-rule="evenodd" d="M118.505 83.3197C114.74 85.5419 110.738 86.7501 106.531 84.9594C105.247 84.42 104.578 86.4696 105.851 87.009C110.543 88.9939 115.236 87.7425 119.465 85.2506C120.662 84.5495 119.702 82.6077 118.505 83.3197Z" fill="#073742"/>
</svg>