<svg width="219" height="27" viewBox="0 0 219 27" fill="none" xmlns="http://www.w3.org/2000/svg">
<g id="SVG" clip-path="url(#clip0_296_5044)">
<g id="Clip path group">
<mask id="mask0_296_5044" style="mask-type:luminance" maskUnits="userSpaceOnUse" x="0" y="0" width="219" height="27">
<g id="clip0_1532_68695">
<path id="Vector" d="M218.5 0.640015H0.5V26.64H218.5V0.640015Z" fill="white"/>
</g>
</mask>
<g mask="url(#mask0_296_5044)">
<g id="Group">
<path id="Vector_2" d="M211.13 12.062C209.067 12.5128 207.077 12.8886 205.013 13.3394C202.729 13.8654 200.444 14.3914 198.159 15.0677C195.506 15.8192 192.853 16.6458 190.126 17.5475C188.21 18.1487 186.294 18.9001 184.378 19.5013C183.42 19.8018 182.388 20.0273 181.356 20.2527C180.545 20.403 179.808 20.6284 178.998 20.7787C178.777 20.7787 178.482 20.7787 178.261 20.7787C178.334 20.4782 178.482 20.1024 178.555 19.8018C178.629 19.4261 178.777 19.1255 178.85 18.7498C179.145 17.6978 179.44 16.5706 179.735 15.5186C179.882 14.7672 180.029 14.0157 180.177 13.3394C180.251 12.9637 180.251 12.588 180.251 12.1371C180.251 11.7614 180.177 11.3857 180.103 11.0099C180.029 10.4088 179.735 9.7325 179.44 9.20648C179.219 8.90591 178.998 8.60533 178.629 8.37989C178.261 8.15446 177.892 8.00417 177.524 7.92903C177.229 7.85388 176.86 7.85388 176.492 7.77874C176.197 7.77874 175.829 7.77874 175.534 7.77874C174.723 7.85388 173.912 8.07932 173.102 8.37989C172.512 8.60533 171.923 8.75562 171.259 8.90591C170.228 9.20648 169.196 9.50706 168.164 9.88278C165.953 10.6342 163.742 11.3105 161.531 12.1371C158.804 13.114 156.151 14.0909 153.424 15.0677C150.919 15.9695 148.413 16.8712 145.907 17.6227C144.359 18.1487 142.812 18.5244 141.19 18.9753C139.643 19.4261 138.021 19.8018 136.4 20.0273C134.779 20.2527 133.084 20.3279 131.388 20.1776C130.873 20.1024 130.357 19.9521 129.914 19.8018C129.62 19.6516 129.325 19.5013 129.03 19.2758C128.809 19.0504 128.588 18.9001 128.367 18.6747C128.293 18.5995 128.219 18.4492 128.219 18.3741C128.072 17.9232 127.998 17.3972 127.925 16.9464C127.851 16.0446 127.851 15.1429 127.851 14.3163C127.851 13.4897 127.851 12.6631 127.777 11.8365C127.777 10.5591 127.704 9.35677 127.556 8.07932C127.335 6.50128 127.04 4.8481 126.156 3.42036C125.935 3.11978 125.714 2.8192 125.419 2.51862C125.124 2.21804 124.829 1.99261 124.534 1.76718C123.945 1.31632 123.282 1.01574 122.618 0.790304C122.25 0.715159 121.881 0.715159 121.513 0.640015C121.439 0.640015 121.365 0.640015 121.292 0.640015C120.997 0.640015 120.776 0.640015 120.481 0.715159C119.597 0.790304 118.712 0.940593 117.828 1.16603C117.017 1.39146 116.28 1.69203 115.47 1.99261C114.733 2.29319 113.922 2.51862 113.185 2.8192C111.564 3.42036 109.942 4.1718 108.321 4.92325C106.847 5.59955 105.373 6.35099 103.899 7.10244C103.088 7.55331 102.278 7.92903 101.467 8.37989C100.214 9.0562 99.0348 9.7325 97.782 10.4088C95.9395 11.4608 94.0233 12.5128 92.1809 13.5649C90.1173 14.7672 87.9801 15.9695 85.9165 17.0966C83.3371 18.5995 80.6102 20.0273 77.8834 21.2296C76.7779 21.6805 75.6724 22.1313 74.5669 22.5071C73.4615 22.8828 72.356 23.2585 71.1768 23.4088C70.2924 23.4839 69.4081 23.5591 68.45 23.4839C68.1552 23.4088 67.8604 23.3336 67.5656 23.2585C67.4182 23.1834 67.1971 23.0331 67.0497 22.9579C66.8286 22.7325 66.6812 22.5822 66.4601 22.3568C66.3864 22.2816 66.3864 22.2065 66.3127 22.1313C66.1653 21.6053 66.0179 21.0042 65.9442 20.4782C65.8705 19.6516 65.7968 18.825 65.7968 17.9984C65.7231 17.1718 65.6494 16.3452 65.6494 15.5938C65.5757 14.3163 65.4283 12.9637 65.2072 11.6862C65.0598 10.9348 64.8387 10.2585 64.6177 9.50706C64.3229 8.68048 64.0281 7.92903 63.5859 7.17758C63.2174 6.57643 62.7015 6.05041 62.2593 5.5244C61.7434 4.99839 61.0801 4.54752 60.4905 4.1718C60.122 3.72094 59.4588 3.4955 58.7218 3.27007C57.8374 2.96949 56.953 2.89435 56.0686 2.8192C52.6048 2.51862 49.141 3.27007 45.8245 4.02151C42.3607 4.77296 38.9706 5.74984 35.6542 6.80186C34.1065 7.25273 32.6325 7.70359 31.0849 8.22961C28.7265 9.13134 26.2945 10.0331 23.9361 10.9348C20.0301 12.4377 16.1241 14.0909 12.2918 15.744C11.26 16.1949 10.2282 16.6458 9.19642 17.0966C8.23834 17.4724 7.35396 17.9232 6.39588 18.3741C4.40602 19.351 2.48986 20.3279 0.5 21.3047C4.11122 20.2527 7.64875 19.1255 11.1863 18.0735C14.0605 17.2469 16.9348 16.4203 19.809 15.5186C22.978 14.5417 26.1471 13.4897 29.3161 12.4377C30.2005 12.1371 31.1586 11.8365 32.0429 11.4608C33.6643 10.8597 35.2857 10.4088 36.907 9.88278C39.3391 9.13134 41.7711 8.3799 44.2032 7.70359C45.4561 7.40302 46.6352 7.10244 47.8881 6.80186C49.2147 6.50128 50.5412 6.2007 51.9415 5.97527C53.6366 5.74984 55.3316 5.67469 57.0267 5.90013C57.6163 6.12556 58.1322 6.27585 58.7218 6.50128C59.164 6.72672 59.6799 7.02729 60.0483 7.32787C60.4168 7.62845 60.7853 8.00417 61.0801 8.30475C61.3749 8.75562 61.596 9.20648 61.8171 9.65735C62.2593 10.7845 62.5541 11.9117 62.7752 13.0388C62.9963 14.7672 63.07 16.5706 63.2174 18.299C63.2174 18.6747 63.2911 18.9753 63.2911 19.351C63.2911 20.1024 63.4385 20.929 63.5122 21.6805C63.5859 22.0562 63.6596 22.3568 63.7333 22.7325C63.807 23.1082 63.9544 23.4088 64.1755 23.7094C64.3229 24.0099 64.6177 24.3105 64.8387 24.6111C64.9861 24.8365 65.2072 24.9868 65.3546 25.1371C65.5757 25.2874 65.7231 25.4377 65.9442 25.588C66.5338 25.9637 67.1971 26.2643 67.8604 26.4146C68.5974 26.5649 69.3344 26.64 69.9976 26.64C71.6927 26.64 73.3878 26.2643 74.9354 25.8134C75.7461 25.588 76.4831 25.2874 77.2201 24.9868C77.9571 24.6862 78.7678 24.3857 79.5047 24.0851C81.1261 23.3336 82.7475 22.5822 84.3688 21.7556C85.0321 21.3799 85.7691 21.0042 86.4324 20.6284C86.9483 20.3279 87.3905 20.0273 87.9064 19.8018C89.3803 18.9753 90.8543 18.0735 92.402 17.2469C94.097 16.2701 95.8658 15.2932 97.5609 14.3163C99.4033 13.2643 101.172 12.2874 103.015 11.2354C103.899 10.7094 104.783 10.2585 105.741 9.80764C107.731 8.75562 109.721 7.77874 111.785 6.95215C113.111 6.35099 114.438 5.82498 115.838 5.37411C117.165 4.92325 118.565 4.39724 119.965 4.1718C120.628 4.09666 121.218 4.02151 121.808 4.09666C121.881 4.09666 121.955 4.1718 122.102 4.1718C122.324 4.24695 122.471 4.39724 122.618 4.47238C122.839 4.69781 123.061 4.92325 123.282 5.14868C123.429 5.29897 123.503 5.5244 123.65 5.74984C123.945 6.57643 124.092 7.47816 124.24 8.37989C124.387 9.50706 124.387 10.7094 124.387 11.8365C124.387 12.6631 124.387 13.4897 124.387 14.3163C124.387 15.218 124.387 16.1198 124.387 17.0966C124.387 17.4724 124.461 17.9232 124.534 18.299C124.608 18.6747 124.682 18.9753 124.756 19.351C124.829 19.7267 125.05 20.1024 125.198 20.403C125.271 20.6284 125.419 20.7787 125.566 20.929C125.714 21.1545 125.861 21.3799 126.082 21.6053C126.303 21.9059 126.598 22.0562 126.819 22.2816C127.114 22.5071 127.409 22.7325 127.777 22.9579C128.072 23.1082 128.367 23.2585 128.662 23.4088C129.03 23.5591 129.399 23.7094 129.767 23.8597C130.504 24.0851 131.315 24.1602 132.125 24.2354C133.01 24.3105 133.894 24.2354 134.779 24.2354C136.4 24.1602 138.021 23.8597 139.569 23.5591C141.264 23.1834 142.959 22.6573 144.654 22.1313C147.971 21.1545 151.14 19.9521 154.382 18.7498C155.34 18.3741 156.372 17.9984 157.33 17.6227C159.541 16.7961 161.752 15.8943 163.963 15.1429C165.806 14.4666 167.648 13.7903 169.491 13.1891C170.375 12.8886 171.259 12.6631 172.144 12.3625C172.586 12.2123 173.102 12.062 173.544 11.9117C174.281 11.6862 175.018 11.4608 175.829 11.3105C176.123 11.3105 176.418 11.3105 176.713 11.3105C176.787 11.3105 176.787 11.3105 176.86 11.3105C176.934 11.536 176.934 11.6862 177.008 11.9117C177.008 12.2123 177.008 12.4377 177.008 12.7383C176.713 14.2412 176.271 15.6689 175.829 17.1718C175.608 17.9232 175.386 18.6747 175.092 19.4261C175.018 19.6516 174.944 19.877 174.797 20.1024C174.649 20.4782 174.649 20.8539 174.649 21.2296C174.649 21.3799 174.723 21.5302 174.723 21.7556C174.723 21.981 174.797 22.1313 174.871 22.3568C174.944 22.7325 175.165 23.0331 175.313 23.4088C175.386 23.4839 175.46 23.5591 175.46 23.6342C175.608 23.8597 175.755 24.0099 175.976 24.1602C176.344 24.4608 176.639 24.6111 177.081 24.7614C177.818 24.9868 178.629 25.062 179.366 24.9868C180.103 24.9117 180.84 24.7614 181.577 24.6111C182.24 24.4608 182.977 24.3105 183.641 24.1602C185.336 23.7845 186.957 23.1834 188.578 22.5822C191.747 21.3799 194.843 20.1776 197.938 18.9001C202.213 17.0966 206.635 15.4435 210.909 13.7903C212.015 13.3394 213.12 12.8886 214.299 12.5128C215.699 11.9868 217.1 11.3857 218.5 10.9348C216.068 11.0099 213.636 11.536 211.13 12.062ZM176.713 11.0851C176.787 11.0851 176.787 11.1602 176.86 11.1602C176.787 11.0851 176.713 11.0851 176.713 11.0851Z" fill="#073742"/>
</g>
</g>
</g>
</g>
<defs>
<clipPath id="clip0_296_5044">
<rect width="218" height="26" fill="white" transform="translate(0.5 0.640015)"/>
</clipPath>
</defs>
</svg>
