<svg xmlns="http://www.w3.org/2000/svg" width="28" height="28" viewBox="0 0 31 31" fill="none">
    <g clip-path="url(#clip0_679_39559)">
        <path d="M1.25 27.1996C2.71141 22.8769 4.21835 18.7797 9.24021 18.3545C12.946 18.0408 14.6578 21.412 16.0709 24.3726C16.974 26.2648 17.814 30.9538 17.9472 27.0283C18.2074 19.3633 22.3743 11.2376 25.5369 4.45508C26.2899 2.84006 26.6287 0.0466692 27.2445 2.54899C27.7178 4.47225 27.7536 6.58933 28.1721 8.50282C28.5655 10.3012 27.351 4.62555 27.1391 3.68407C26.9731 2.94616 27.3586 1.93549 26.2537 2.18492C24.0604 2.68003 21.9895 4.43374 19.8446 5.22608" stroke="#56FFA4" stroke-width="2" stroke-linecap="round"/>
    </g>
    <defs>
        <clipPath id="clip0_679_39559">
            <rect width="30" height="30" fill="white" transform="translate(0.25 0.550049)"/>
        </clipPath>
    </defs>
</svg>