<svg xmlns="http://www.w3.org/2000/svg" width="16" height="20" viewBox="0 0 16 20" fill="none">
    <path d="M2.71946e-08 4L4 8L4 5L12 5C12.5304 5 13.0391 5.21071 13.4142 5.58579C13.7893 5.96086 14 6.46957 14 7C14 7.53043 13.7893 8.03914 13.4142 8.41421C13.0391 8.78929 12.5304 9 12 9L4 9C2.93913 9 1.92172 9.42143 1.17157 10.1716C0.421427 10.9217 8.117e-08 11.9391 8.83825e-08 13C9.55949e-08 14.0609 0.421427 15.0783 1.17157 15.8284C1.92172 16.5786 2.93913 17 4 17L12 17L12 20L16 16L12 12L12 15L4 15C3.46957 15 2.96086 14.7893 2.58579 14.4142C2.21071 14.0391 2 13.5304 2 13C2 12.4696 2.21071 11.9609 2.58579 11.5858C2.96086 11.2107 3.46957 11 4 11L12 11C13.0609 11 14.0783 10.5786 14.8284 9.82843C15.5786 9.07828 16 8.06087 16 7C16 5.93913 15.5786 4.92172 14.8284 4.17157C14.0783 3.42143 13.0609 3 12 3L4 3L4 -2.71946e-08L2.71946e-08 4Z" fill="#073742"/>
</svg>
