<svg width="55" height="40" viewBox="0 0 55 40" fill="none" xmlns="http://www.w3.org/2000/svg">
<path d="M7.07019 6.18581C8.68133 5.29689 19.1127 -1.1966 21.1504 3.02433C23.093 7.04836 13.7744 14.31 18.6783 18.1193C22.8803 21.3833 31.3826 17.5261 35.4885 15.7816C38.231 14.6162 40.4993 12.7162 43.0337 11.2397C43.2183 11.1322 46.1629 9.16664 45.6283 9.16664" stroke="#073742" stroke-width="1.5" stroke-linecap="round"/>
<path d="M40.6659 8.01815C42.194 7.8987 48.0929 6.0779 46.9162 9.13133C46.2877 10.7623 45.7443 11.8598 45.7443 13.6286" stroke="#073742" stroke-width="1.5" stroke-linecap="round"/>
<path d="M34.886 39.9995C35.3932 40.0145 35.8069 39.6712 35.8602 39.2383C35.9003 38.8951 35.9003 38.5443 35.8936 38.2011C35.8536 36.7011 36.5275 35.5369 37.3015 34.4325C37.6418 33.9474 38.1556 33.7235 38.7161 33.7086C39.2031 33.6937 39.6969 33.7012 40.184 33.6937C40.4042 33.6862 40.631 33.6862 40.8446 33.634C41.1315 33.5668 41.3984 33.1937 41.4051 32.8803C41.4117 32.5519 41.2583 32.2833 41.0047 32.1713C40.3441 31.8877 39.6836 31.5818 38.9963 31.4102C37.5684 31.052 36.8277 29.9475 36.3673 28.5296C36.2673 28.2311 36.3273 27.858 36.334 27.5222C36.3473 26.8804 36.4007 26.2386 36.3807 25.5969C36.374 25.2834 36.1672 25.0521 35.8669 25.0073C35.5666 24.9625 35.3331 25.1267 35.2263 25.4177C35.0529 25.9177 34.866 26.4326 34.7793 26.9625C34.3322 29.5967 32.1837 31.4773 29.7816 31.3057C29.5614 31.2908 29.3412 31.2311 29.1211 31.246C28.8475 31.2609 28.5939 31.3952 28.4805 31.7012C28.347 32.0519 28.3871 32.4101 28.634 32.6639C28.8208 32.8579 29.0677 33.0146 29.3145 33.0892C31.1428 33.6265 32.3639 35.0593 33.4915 36.6041C33.7784 36.9996 33.8451 37.604 33.9986 38.119C34.1321 38.5891 34.1988 39.0891 34.3856 39.5294C34.4723 39.7533 34.7593 39.8876 34.886 39.9995ZM32.3305 32.7832C32.931 32.343 33.4648 32.0072 33.9452 31.5967C34.419 31.1863 34.846 30.7012 35.3131 30.2236C35.8936 30.9773 36.4274 31.6713 37.0079 32.4251C36.1605 33.0146 35.6801 33.8429 35.2197 34.6937C35.0929 34.925 34.9061 35.1116 34.7059 35.3728C34.2722 34.8728 33.9052 34.4474 33.5249 34.0295C33.1445 33.6191 32.7575 33.231 32.3305 32.7832Z" fill="#073742"/>
</svg>
