<svg xmlns="http://www.w3.org/2000/svg" width="24" height="12" viewBox="0 0 24 12" fill="none">
    <path fill-rule="evenodd" clip-rule="evenodd" d="M5.25 3C3.621 3 2.25 4.371 2.25 6C2.25 7.629 3.621 9 5.25 9C6.0375 9 6.933 8.634 7.9875 7.9095C8.7525 7.3845 9.525 6.7245 10.329 6C9.525 5.2755 8.751 4.617 7.989 4.0905C6.9315 3.366 6.0375 3 5.25 3ZM12 4.476C11.115 3.6765 10.194 2.877 9.2625 2.2365C8.067 1.4145 6.7125 0.75 5.25 0.75C2.379 0.75 1.6174e-08 3.129 3.56929e-08 6C5.52118e-08 8.871 2.379 11.25 5.25 11.25C6.7125 11.25 8.067 10.584 9.2625 9.7635C10.194 9.123 11.115 8.3235 12 7.524C12.885 8.3235 13.806 9.123 14.7375 9.7635C15.933 10.584 17.2875 11.25 18.75 11.25C21.621 11.25 24 8.871 24 6C24 3.129 21.621 0.75 18.75 0.75C17.2875 0.75 15.933 1.4145 14.7375 2.2365C13.806 2.877 12.885 3.6765 12 4.476ZM13.671 6C14.475 6.7245 15.249 7.383 16.011 7.9095C17.067 8.634 17.961 9 18.75 9C20.379 9 21.75 7.629 21.75 6C21.75 4.371 20.379 3 18.75 3C17.9625 3 17.067 3.366 16.0125 4.0905C15.2475 4.6155 14.475 5.2755 13.671 6Z" fill="#073742"/>
</svg>
