<svg width="150" height="30" viewBox="0 0 240 30" fill="none" xmlns="http://www.w3.org/2000/svg">
<path d="M39.5218 10.4745L29.0483 0.000976562H44.8865L55.36 10.4745L39.9886 25.8427H24.1505L39.5218 10.4745Z" fill="#073742"/>
<path d="M55.36 10.4746H39.5218L24.1505 25.8428L55.36 10.4746Z" fill="#073742"/>
<path d="M55.36 10.4746H39.5218L24.1505 25.8428L55.36 10.4746Z" fill="#073742"/>
<path opacity="0.37" d="M55.36 10.4746H39.5219L37.0729 12.9235L55.36 10.4746Z" fill="#073742"/>
<path d="M55.36 10.4746L38.3997 18.1603L24.1505 25.8428L55.36 10.4746Z" fill="#073742"/>
<path d="M55.3601 10.4745L44.8866 0.000976562H29.0484L55.3601 10.4745Z" fill="#073742"/>
<path d="M55.3601 10.4745L44.8866 0.000976562H29.0484L55.3601 10.4745Z" fill="#073742"/>
<path opacity="0.37" d="M55.3601 10.4745H39.5219L29.0484 0.000976562L55.3601 10.4745Z" fill="#073742"/>
<path d="M55.3601 10.4745L42.2042 4.64628L29.0484 0.000976562L55.3601 10.4745Z" fill="#073742"/>
<path d="M15.8382 19.5254L26.3117 29.9989H10.4735L0 19.5254L15.3714 4.15723H31.2095L15.8382 19.5254Z" fill="#073742"/>
<path d="M0 19.5254H15.8382L31.2095 4.15723L0 19.5254Z" fill="#073742"/>
<path d="M0 19.5254H15.8382L31.2095 4.15723L0 19.5254Z" fill="#073742"/>
<path opacity="0.37" d="M0 19.5251H15.8382L18.2871 17.0762L0 19.5251Z" fill="#073742"/>
<path d="M0 19.5254L16.9603 11.8397L31.2095 4.15723L0 19.5254Z" fill="#073742"/>
<path d="M0 19.5251L10.4735 29.9987H26.3117L0 19.5251Z" fill="#073742"/>
<path d="M0 19.5251L10.4735 29.9987H26.3117L0 19.5251Z" fill="#073742"/>
<path opacity="0.37" d="M0 19.5251H15.8382L26.3117 29.9987L0 19.5251Z" fill="#073742"/>
<path d="M0 19.5251L13.1558 25.3534L26.3117 29.9987L0 19.5251Z" fill="#073742"/>
<path d="M78.7077 29.3825H68.36V0H78.2631C83.2348 0 86.994 1.24834 89.5405 3.74502C92.087 6.22842 93.3602 9.85392 93.3602 14.6215C93.3602 19.3227 92.1476 22.9615 89.7224 25.5379C87.2971 28.1009 83.6256 29.3825 78.7077 29.3825ZM74.989 5.91634V23.506H77.677C80.6546 23.506 82.8912 22.8353 84.3868 21.494C85.8824 20.1394 86.6302 17.8353 86.6302 14.5817C86.6302 12.7888 86.4011 11.2948 85.943 10.0996C85.4849 8.8911 84.7978 7.99469 83.8816 7.41036C82.9788 6.82603 82.0424 6.43426 81.0723 6.23506C80.1022 6.02258 78.93 5.91634 77.5557 5.91634H74.989Z" fill="#073742"/>
<path d="M117.047 20.5378H102.253C102.334 21.9854 102.812 23.0744 103.688 23.8048C104.564 24.5352 105.715 24.9004 107.144 24.9004C109.043 24.9004 110.297 24.0837 110.903 22.4502L116.703 23.6255C115.073 27.8619 111.752 29.9867 106.739 30C103.735 30 101.202 29.0571 99.1404 27.1713C97.0789 25.2722 96.0482 22.4768 96.0482 18.7849C96.0482 16.9124 96.3446 15.2324 96.9375 13.745C97.5303 12.2576 98.332 11.0823 99.3425 10.2191C100.353 9.34263 101.485 8.67862 102.738 8.22709C103.991 7.77557 105.325 7.5498 106.739 7.5498C109.663 7.5498 112.115 8.43958 114.096 10.2191C116.09 11.9854 117.087 14.5551 117.087 17.9283C117.087 18.3134 117.08 18.7118 117.067 19.1235C117.054 19.5219 117.047 19.8539 117.047 20.1195V20.5378ZM106.558 12.6494C105.48 12.6494 104.537 12.9947 103.728 13.6853C102.92 14.3626 102.455 15.259 102.334 16.3745H110.782C110.701 15.259 110.27 14.3626 109.488 13.6853C108.72 12.9947 107.743 12.6494 106.558 12.6494Z" fill="#073742"/>
<path d="M132.346 29.3825H126.889L118.098 8.16733H124.403L129.577 21.8725L134.872 8.16733H141.077L132.346 29.3825Z" fill="#073742"/>
<path d="M154.739 29.3825H144.391V0H154.295C159.266 0 163.025 1.24834 165.572 3.74502C168.118 6.22842 169.392 9.85392 169.392 14.6215C169.392 19.3227 168.179 22.9615 165.754 25.5379C163.329 28.1009 159.657 29.3825 154.739 29.3825ZM151.02 5.91634V23.506H153.708C156.686 23.506 158.923 22.8353 160.418 21.494C161.914 20.1394 162.662 17.8353 162.662 14.5817C162.662 12.7888 162.433 11.2948 161.974 10.0996C161.516 8.8911 160.829 7.99469 159.913 7.41036C159.01 6.82603 158.074 6.43426 157.104 6.23506C156.134 6.02258 154.961 5.91634 153.587 5.91634H151.02Z" fill="#073742"/>
<path d="M175.091 27.1713C173.083 25.2722 172.08 22.4768 172.08 18.7849C172.08 15.0797 173.083 12.2842 175.091 10.3984C177.112 8.49934 179.665 7.5498 182.751 7.5498C185.85 7.5498 188.403 8.49934 190.41 10.3984C192.431 12.2842 193.442 15.0797 193.442 18.7849C193.442 22.4768 192.431 25.2722 190.41 27.1713C188.403 29.0571 185.85 30 182.751 30C179.665 30 177.112 29.0571 175.091 27.1713ZM179.436 14.2231C178.668 15.2722 178.284 16.7928 178.284 18.7849C178.284 20.7636 178.668 22.2776 179.436 23.3267C180.218 24.3758 181.323 24.9004 182.751 24.9004C184.192 24.9004 185.297 24.3758 186.065 23.3267C186.847 22.2776 187.237 20.7636 187.237 18.7849C187.237 16.7928 186.847 15.2722 186.065 14.2231C185.297 13.174 184.192 12.6494 182.751 12.6494C181.323 12.6494 180.218 13.174 179.436 14.2231Z" fill="#073742"/>
<path d="M201.728 18.7849C201.728 22.8619 203.082 24.9004 205.791 24.9004C207.892 24.9004 209.166 23.7317 209.61 21.3944L215.734 22.251C215.182 24.9203 214.009 26.8792 212.217 28.1275C210.439 29.3758 208.297 30 205.791 30C202.813 30 200.354 29.0637 198.414 27.1912C196.487 25.3054 195.524 22.5033 195.524 18.7849C195.524 15.0531 196.487 12.251 198.414 10.3785C200.354 8.4927 202.813 7.5498 205.791 7.5498C208.297 7.5498 210.439 8.18061 212.217 9.44223C214.009 10.6906 215.182 12.656 215.734 15.3386L209.651 16.255C209.206 13.8645 207.919 12.6627 205.791 12.6494C204.497 12.6494 203.493 13.1873 202.779 14.2629C202.079 15.3254 201.728 16.8327 201.728 18.7849Z" fill="#073742"/>
<path d="M219.049 29.3825V0H225.253V16.1155H226.163C226.877 16.1155 227.456 16.0359 227.901 15.8765C228.345 15.7171 228.817 15.3386 229.315 14.741C229.652 14.3559 230.056 13.6189 230.528 12.5299L231.256 10.8964C231.889 9.75432 232.63 9.01727 233.479 8.68526C234.341 8.33997 235.574 8.16733 237.177 8.16733H238.451L237.824 13.5857H237.177C236.49 13.5857 235.998 13.7118 235.702 13.9641C235.406 14.2032 235.082 14.6946 234.732 15.4382C234.368 16.2218 233.964 16.8327 233.519 17.2709C233.088 17.7092 232.495 18.0212 231.741 18.2072V18.3665C232.98 18.6321 234.334 19.9535 235.803 22.3307L239.36 29.3825H232.529L229.679 23.3068C228.938 21.9256 227.766 21.2284 226.163 21.2151H225.253V29.3825H219.049Z" fill="#073742"/>
</svg>
