<svg width="96" height="82" viewBox="0 0 96 82" fill="none" xmlns="http://www.w3.org/2000/svg">
<path fill-rule="evenodd" clip-rule="evenodd" d="M71.2415 71.8065C74.0031 70.5132 76.6015 67.8798 78.8969 65.06C81.4487 62.9044 83.849 60.6206 85.8765 57.9056C88.6031 56.6472 90.6888 54.2352 91.9239 51.4388C92.658 50.4716 93.3105 49.423 93.8698 48.2811C94.2077 47.5819 93.8465 46.7546 93.1241 46.5798C93.3688 45.8225 93.5319 45.0301 93.5668 44.2028C93.6018 43.294 92.5182 42.7929 91.7957 43.2357C91.7841 43.2474 91.7608 43.259 91.7491 43.259C91.7608 43.0726 91.7841 42.8745 91.7841 42.6881C91.7957 41.954 90.9917 41.3481 90.2926 41.5928C90.1994 41.6277 90.1062 41.6743 90.013 41.7093C90.0246 41.6627 90.0363 41.6161 90.0479 41.5695C90.6655 40.2178 88.8012 39.1225 88.0088 40.4276C87.1932 41.7908 86.529 43.2008 85.7367 44.5524C85.3172 44.8437 84.921 45.17 84.5132 45.4846C84.1753 44.8088 83.2548 44.4708 82.6489 45.1467C80.4699 47.5703 78.4425 50.0988 76.5782 52.7321C73.5486 54.7479 71.0434 57.8474 68.8645 60.8885C68.5615 60.8769 68.2586 60.9468 68.0023 61.1566C65.4155 63.2306 62.4442 65.3746 62.1762 68.8935C62.1296 69.546 62.7705 70.0354 63.3647 70.0354C63.5046 70.0354 63.6444 70.0354 63.7959 70.0354C63.924 70.2568 64.1221 70.4549 64.4251 70.5598C65.4271 70.8977 65.6718 70.886 66.5807 70.7462C67.8624 72.0163 68.9694 72.8669 71.2415 71.8065ZM85.4221 47.6985C84.6064 48.9336 83.6626 50.0988 82.6722 51.229C82.6605 51.2057 82.6489 51.194 82.6372 51.1707C83.0217 50.5299 83.3597 49.8774 83.6626 49.1899C84.2336 48.6889 84.8278 48.1878 85.4221 47.6985Z" fill="white"/>
<path fill-rule="evenodd" clip-rule="evenodd" d="M40.1308 62.253C40.2124 62.8123 40.6202 63.3134 41.2727 63.2434C46.05 62.6608 50.839 62.4977 55.5348 61.3791C56.2106 61.216 56.6534 60.2372 56.199 59.6546C56.0242 59.4332 55.9077 59.2118 55.8144 58.9904C56.0125 58.5244 55.9077 57.9534 55.5348 57.6271C55.5115 56.0658 56.164 54.6559 53.6472 53.7237C52.8082 53.4207 52.2839 54.0966 52.2722 54.8074C52.214 54.7841 52.1674 54.7491 52.1091 54.7258C47.7163 53.4674 43.2419 53.8053 38.7908 54.551C33.7338 54.9355 28.6885 55.4715 23.6315 55.9026C23.515 55.856 23.3984 55.8211 23.2703 55.8094C21.6856 55.7046 20.299 55.8094 18.8425 56.0541C18.2482 55.9376 17.654 55.7628 17.083 55.5181C17.0714 55.5065 17.0597 55.5065 17.0481 55.4948V55.5065C16.9549 55.4599 16.85 55.4249 16.7568 55.39C15.4401 54.9239 14.8691 56.8465 15.9062 57.5339C17.6889 58.7225 20.1592 62.1831 22.6061 61.8452C23.0372 61.7869 23.3169 61.5306 23.4917 61.2276C23.5499 61.2509 23.6082 61.2742 23.6664 61.2975C23.48 61.9734 23.8412 62.8007 24.7617 62.7774C24.8316 62.7774 24.8899 62.7657 24.9598 62.7657V62.7774C25.0647 62.7657 25.1696 62.7657 25.2628 62.754C25.7056 62.7424 26.1483 62.7074 26.5795 62.6841C26.7659 62.824 26.9873 62.9288 27.2786 62.9172C28.0593 62.9055 28.84 62.8589 29.6206 62.8007C33.1745 63.2318 36.6934 63.4066 40.1308 62.253Z" fill="white"/>
<path fill-rule="evenodd" clip-rule="evenodd" d="M69.6337 81.641C69.9716 80.6156 71.2883 81.0817 71.8826 81.0118C72.9895 80.872 74.6441 80.2195 76.0657 79.6602C76.7415 79.3922 77.3823 79.0892 78.0115 78.8329C79.3632 78.2852 80.575 78.0755 81.7052 77.388C82.5092 76.8986 82.8471 76.0364 83.7444 76.0713C83.8492 76.0946 83.8143 76.2694 83.9424 76.2694C83.9424 76.3393 83.9424 76.3976 83.9424 76.4675C82.9404 77.8541 81.4605 78.5532 79.3865 79.1941C78.2562 79.5553 77.0677 80.3127 75.786 80.7322C75.4481 80.8487 75.0752 80.837 74.714 80.9535C74.0032 81.1866 72.7798 81.7692 71.8942 81.8857C71.0786 82.0139 70.3678 82.0838 69.6337 81.641Z" fill="black"/>
<path fill-rule="evenodd" clip-rule="evenodd" d="M74.294 37.5385C74.0726 36.921 74.7484 36.4782 75.1446 36.0471C75.9602 35.1732 76.5545 34.3575 77.44 33.2622C77.9178 32.668 78.244 31.6659 79.083 32.0504C79.083 32.1203 79.083 32.1786 79.083 32.2485C78.5703 33.3205 77.6265 34.2293 76.8807 35.2314C76.5312 35.6975 76.17 36.1752 75.7272 36.6297C75.3893 37.0025 75.0164 37.8531 74.294 37.5385Z" fill="black"/>
<path fill-rule="evenodd" clip-rule="evenodd" d="M63.9937 78.8098C64.0753 77.831 65.9513 78.367 67.0232 78.2622C69.1439 78.0408 71.3928 77.5048 73.3736 76.8639C75.2496 76.258 76.8692 75.2909 78.2325 74.417C78.384 74.4636 78.4772 74.5568 78.6287 74.6034C78.7802 75.3608 77.9995 75.4307 77.277 75.9085C76.2983 76.561 75.9604 76.794 74.7486 77.2251C73.0357 77.8427 70.5072 78.4836 68.305 78.8215C67.2097 78.9846 66.4639 79.0661 65.66 79.0661C65.124 79.0661 64.32 79.3574 63.9937 78.8098Z" fill="black"/>
<path fill-rule="evenodd" clip-rule="evenodd" d="M77.592 30.4197C77.6269 31.1887 76.9162 31.6898 76.4501 32.2025C73.6886 35.1854 71.1601 38.6111 68.2004 41.5707C67.8159 41.9552 67.1518 42.7942 66.4526 42.2931C66.6857 41.6173 67.3265 41.1862 67.7926 40.6968C70.5775 37.8071 73.1759 34.4979 75.9491 31.4218C76.3336 31.0023 76.823 30.1983 77.592 30.4197Z" fill="black"/>
<path fill-rule="evenodd" clip-rule="evenodd" d="M62.9337 43.7369C62.8172 42.9446 63.6328 42.4552 64.0756 41.9541C65.4855 40.3694 66.8721 38.7731 68.2936 36.9787C69.5521 35.3824 70.9969 33.7627 72.6165 32.0965C73.1409 31.5605 73.6652 30.4536 74.2595 30.7915C74.341 30.7682 74.3527 30.8264 74.3643 30.8847C74.3876 30.9662 74.4692 30.9779 74.4692 31.0828C74.4925 31.1643 74.4343 31.176 74.376 31.176C72.6865 33.4365 70.5425 35.4057 68.7131 37.6546C67.3615 39.3208 66.0797 41.0103 64.5883 42.63C64.1805 43.0611 63.7377 43.97 62.9337 43.7369Z" fill="black"/>
<path fill-rule="evenodd" clip-rule="evenodd" d="M72.6397 12.5801C72.6863 12.7782 72.5815 12.8364 72.5465 12.9762C71.4046 13.2093 70.9851 11.9043 70.2627 11.3566C69.5053 10.774 68.4333 10.2497 67.4895 9.64378C65.6718 8.49023 63.9123 7.38329 61.6518 6.52104C60.5915 6.11322 59.3331 5.61215 58.2961 5.50728C56.7347 5.34415 54.4858 5.64714 52.7147 5.61218C52.2719 5.60053 51.5146 5.84519 51.3398 5.25093C51.3631 4.49355 52.2836 4.74993 52.7031 4.73828C54.2528 4.65671 56.49 4.51686 57.9931 4.63338C59.1117 4.72659 60.5216 5.16939 61.7334 5.63547C64.0056 6.52103 66.0097 7.68623 67.9673 8.94465C68.981 9.59716 70.0879 10.1564 70.8453 10.7507C71.5794 11.3333 71.9872 12.0674 72.6397 12.5801Z" fill="black"/>
<path fill-rule="evenodd" clip-rule="evenodd" d="M61.7915 40.1372C61.7798 39.3449 62.4789 38.7856 62.9334 38.2496C65.1939 35.5463 67.3029 32.8547 69.4352 29.697C69.7615 29.2076 70.146 28.6367 70.6703 27.9142C71.1131 27.285 71.8472 25.9683 72.5113 26.6092C72.5113 26.7024 72.5113 26.8073 72.5113 26.9005C69.6682 30.9904 66.6154 35.1269 63.4344 39.0303C63.0732 39.4731 62.5722 40.3586 61.7915 40.1372Z" fill="black"/>
<path fill-rule="evenodd" clip-rule="evenodd" d="M59.5312 34.3932C59.3215 33.6475 60.0905 33.1464 60.475 32.7037C63.0035 29.8489 65.1941 26.5514 67.3497 22.9742C67.7576 22.2984 68.2819 21.0167 68.9927 21.6692C68.9228 22.2751 68.3751 22.9625 67.9556 23.65C67.6177 24.221 67.2682 24.8152 66.907 25.3396C65.0193 28.0778 63.2948 30.8976 61.0809 33.3911C60.7081 33.799 60.1837 34.6029 59.5312 34.3932Z" fill="black"/>
<path fill-rule="evenodd" clip-rule="evenodd" d="M59.1817 26.7485C58.7622 25.9911 59.6012 25.1755 60.0207 24.5813C60.9528 23.2762 61.8617 21.9129 62.8871 20.6079C63.3648 19.9903 63.8891 19.3495 64.53 19.1048C64.798 19.0232 64.7281 19.3029 64.9262 19.2912C64.9495 19.4077 64.9029 19.466 64.8329 19.4893C63.994 20.7594 62.957 21.9013 62.0598 23.1713C61.6286 23.7889 61.1742 24.4064 60.7198 25.059C60.3236 25.6299 60.044 26.597 59.1817 26.7485Z" fill="black"/>
<path fill-rule="evenodd" clip-rule="evenodd" d="M63.9589 4.50491C63.0967 4.57482 62.4558 3.91067 61.6868 3.57276C60.9643 3.2465 60.0438 2.96685 59.2165 2.73381C56.9211 2.09295 54.3343 1.68511 51.4446 1.51033C50.2211 1.44041 48.9977 1.82495 48.1121 1.56861C48.1354 0.857833 48.6947 0.752942 49.0792 0.671378C50.1046 0.449989 51.4912 0.811205 52.9011 0.89277C53.3439 0.916074 53.8449 0.846174 54.2761 0.869478C56.0239 0.974347 58.3193 1.55693 60.0788 2.12788C61.2556 2.5124 61.8382 2.78042 62.8403 3.24651C63.586 3.59607 64.2269 3.67762 63.9589 4.50491Z" fill="black"/>
<path fill-rule="evenodd" clip-rule="evenodd" d="M59.1116 22.9269C58.8669 22.4259 59.3796 21.9015 59.6709 21.5403C60.3234 20.7363 60.8827 20.0023 61.5818 19.1517C61.8964 18.7672 62.2344 18.1612 62.8403 18.2428C62.9218 18.3244 62.8985 18.5108 63.0383 18.5341C63.0617 18.6506 63.015 18.7089 62.9451 18.7322C62.0829 19.8275 61.2323 21.0393 60.2652 22.2162C60.0321 22.5191 59.6826 23.1949 59.1116 22.9269Z" fill="black"/>
<path fill-rule="evenodd" clip-rule="evenodd" d="M58.3773 20.293C57.8879 19.5706 58.9133 18.8249 59.6124 18.0092C60.1834 17.3334 61.0456 15.5856 61.8379 16.2032C61.768 17.0305 60.7893 17.8111 60.2183 18.487C59.6008 19.2094 59.2279 20.1648 58.3773 20.293Z" fill="black"/>
<path fill-rule="evenodd" clip-rule="evenodd" d="M40.1886 48.6774C40.0371 47.9084 40.8295 47.3724 41.2373 46.7898C42.0646 45.5896 42.7987 44.3428 43.7192 43.1194C44.1153 42.5834 44.4533 41.7794 45.164 41.7212C45.2806 41.6978 45.3388 41.7444 45.3621 41.8144C45.4204 41.8959 45.467 41.9658 45.467 42.1057C44.3367 43.7952 42.9035 45.6712 41.6451 47.4773C41.3072 47.9433 41.0159 49.0619 40.1886 48.6774Z" fill="black"/>
<path fill-rule="evenodd" clip-rule="evenodd" d="M35.1437 50.927C34.5495 50.2163 35.435 49.5987 35.7962 49.1559C37.8819 46.5459 39.921 44.2271 42.0184 41.2908C42.3214 40.8597 42.7408 40.347 43.2652 39.6945C43.708 39.1468 44.3605 37.8418 45.0013 38.4827C45.0013 38.5759 45.0013 38.6807 45.0013 38.774C42.7525 42.0016 40.2473 44.9962 37.7305 48.0257C37.3226 48.5151 36.8915 49.0278 36.4837 49.5172C36.0875 50.0065 35.8428 50.7639 35.1437 50.927Z" fill="black"/>
<path fill-rule="evenodd" clip-rule="evenodd" d="M30.4593 51.9984C30.203 51.4158 30.8555 51.0546 31.1235 50.7166C31.9857 49.5864 32.8247 48.3746 33.6986 47.1395C36.4951 43.2244 39.7576 39.7987 42.5891 35.4991C43.0668 34.7766 43.8708 33.39 44.6049 33.4017V33.4949C44.6981 33.5648 44.7564 33.6697 44.803 33.7862C44.8263 33.8678 44.768 33.8794 44.7098 33.8911C41.7501 38.8665 37.5554 43.0729 34.188 47.8153C33.349 48.9922 32.5916 50.2156 31.6129 51.3924C31.3682 51.6837 31.0303 52.3363 30.4593 51.9984Z" fill="black"/>
<path fill-rule="evenodd" clip-rule="evenodd" d="M42.0763 50.1117C41.6335 49.366 42.5656 48.6086 43.0201 48.0376C43.4862 47.455 44.0338 46.4996 44.8494 46.4297C44.931 46.5113 44.9194 46.6977 45.0475 46.721C45.0592 46.8375 45.0242 46.8957 44.9543 46.9191C44.6164 47.5483 44.0571 48.061 43.6143 48.6086C43.1832 49.1446 42.9036 49.9719 42.0763 50.1117Z" fill="black"/>
<path fill-rule="evenodd" clip-rule="evenodd" d="M27.2081 51.5684C26.9634 51.0557 27.5227 50.6246 27.7674 50.2867C29.62 47.7232 31.6591 45.0316 33.8031 42.6196C36.0054 40.1494 37.6716 37.4578 39.734 34.7662C39.9554 34.4749 40.27 33.8573 40.7944 34.067C40.7827 34.1952 41.1323 34.4283 40.8992 34.4516C37.59 39.9863 32.8943 44.6587 29.1306 49.8672C28.9093 50.1818 28.583 50.5896 28.2684 50.9625C28.047 51.2421 27.7907 51.9529 27.2081 51.5684Z" fill="black"/>
<path fill-rule="evenodd" clip-rule="evenodd" d="M27.3369 47.8383C26.8591 46.8945 28.0243 46.1138 28.5603 45.3681C29.6906 43.7951 30.6227 42.4434 31.9045 40.6956C32.4055 40.0081 33.4076 38.1322 34.2232 38.7963C34.1999 38.8429 34.2582 38.9478 34.2232 38.9944C33.7805 39.7402 33.093 40.4742 32.4987 41.2782C31.4267 42.7697 30.3431 44.3078 29.2478 45.8458C28.7235 46.6032 28.1525 47.5004 27.3369 47.8383Z" fill="black"/>
<path fill-rule="evenodd" clip-rule="evenodd" d="M25.612 44.5406C25.0644 43.8647 26.1247 43.2239 26.7539 42.4549C27.3016 41.7907 28.0473 40.206 28.8863 40.8469C28.8863 40.9168 28.8863 40.975 28.8863 41.0449C28.4901 41.7557 27.8609 42.3267 27.3482 42.9326C26.8588 43.5269 26.4743 44.3541 25.612 44.5406Z" fill="black"/>
<path fill-rule="evenodd" clip-rule="evenodd" d="M17.0943 34.9052C16.9079 34.1012 17.6419 33.4836 18.1313 32.8311C19.0868 31.5494 19.7859 30.3842 20.9045 28.951C21.4522 28.2519 21.9649 27.0633 22.932 27.4478C22.932 27.5178 22.932 27.576 22.932 27.6459C22.5475 28.3101 21.9882 28.8927 21.4988 29.5336C20.5666 30.7454 19.716 32.0854 18.7256 33.4137C18.5275 33.67 18.2945 34.1245 18.0614 34.4041C17.84 34.6605 17.572 35.1731 17.0943 34.9052Z" fill="black"/>
<path fill-rule="evenodd" clip-rule="evenodd" d="M17.5487 38.0275C17.3157 37.34 17.9915 36.7341 18.3993 36.1515C19.18 35.0329 19.8675 34.0542 20.788 32.7724C21.2541 32.1199 21.7085 30.8032 22.5241 31.4674C22.5241 31.5606 22.5241 31.6655 22.5241 31.7587C21.2424 33.2385 20.1704 35.1145 18.9936 36.8273C18.6557 37.3051 18.2828 38.1673 17.5487 38.0275Z" fill="black"/>
<path fill-rule="evenodd" clip-rule="evenodd" d="M13.3659 34.7767C13.4125 34.2757 13.9019 33.9144 14.2282 33.5882C15.8711 31.9452 17.2577 30.2674 18.7258 28.1117C19.0871 27.5757 19.9726 25.9328 20.5436 25.9211C20.765 25.9211 20.7533 26.026 20.9397 26.1076C20.7183 26.9465 19.9726 27.8437 19.3201 28.7875C18.2248 30.3955 17.0479 31.9219 15.6847 33.3668C15.0904 33.996 14.2981 35.2195 13.3659 34.7767Z" fill="black"/>
<path fill-rule="evenodd" clip-rule="evenodd" d="M11.5833 33.8215C11.3036 32.8311 12.3873 32.2834 12.9116 31.7358C13.4825 31.1415 14.1467 30.454 14.6361 29.8365C15.7081 28.5081 16.6403 27.0167 17.9919 26.0496C18.0851 26.0496 18.19 26.0496 18.2832 26.0496C18.6794 26.6438 18.1434 26.8419 17.619 27.4362C16.1858 29.0674 14.974 30.6871 13.4942 32.2135C12.9349 32.8311 12.4572 33.7399 11.5833 33.8215Z" fill="black"/>
<path fill-rule="evenodd" clip-rule="evenodd" d="M15.8593 21.4006C14.1115 22.1346 12.189 22.2861 10.8024 23.3581C10.3945 23.6727 10.2431 24.3602 9.54394 24.267C9.18272 23.2183 10.2664 22.6706 11.1752 22.1813C12.1656 21.6336 14.2048 20.8413 15.568 20.9228C15.8244 20.8879 15.836 21.1442 15.8593 21.4006Z" fill="black"/>
<path fill-rule="evenodd" clip-rule="evenodd" d="M1.09619 28.5437C0.164023 28.0892 1.39914 27.1687 1.64383 26.6677C1.73705 26.1084 1.98175 25.6889 2.29635 25.1879C3.1353 23.8945 4.45198 22.4496 5.75701 21.4942C7.38829 20.3057 9.46236 19.6065 11.2917 18.5462C12.2006 18.7443 12.7133 18.0568 13.3425 18.3132C13.6221 18.2899 13.6338 18.5462 13.6454 18.7909C13.1444 19.3735 12.4453 19.1521 11.7928 19.3152C11.3267 19.4434 10.9072 19.793 10.4295 20.026C9.10115 20.6902 7.59803 21.2029 6.44448 21.9603C4.54519 23.2304 3.13529 25.5957 1.94679 27.6348C1.79531 27.9261 1.65549 28.6252 1.09619 28.5437Z" fill="black"/>
<path fill-rule="evenodd" clip-rule="evenodd" d="M56.0589 63.173C51.4563 62.8351 46.3877 64.0469 41.1792 64.1401C35.9008 64.245 30.6225 64.7577 25.7985 64.5247C24.61 64.4664 22.7457 64.2217 21.7669 63.8139C19.0869 62.7186 17.2226 60.4232 15.1952 58.5472C13.8202 57.0091 12.5968 55.3196 10.9888 53.9213C9.96339 53.0358 8.9147 52.2085 8.28549 50.8335C7.71454 49.6101 7.29507 47.3962 7.2135 45.7532C7.10863 43.819 7.17855 41.8265 7.29507 39.869C7.55141 35.7674 7.91263 31.9106 9.83521 29.2306C10.3013 28.5898 11.1286 27.8324 11.851 27.1333C12.9347 26.0962 13.9484 25.2223 15.335 24.7096C17.4557 23.9289 20.2172 24.0688 23.1652 24.0688C28.8747 24.0804 33.3607 24.0222 38.8488 24.162C40.7481 24.2086 42.5775 24.1853 44.4301 24.1503C48.2171 24.0804 51.9923 24.1387 55.3015 23.4512C56.0822 19.2448 53.0061 11.1117 58.902 11.7176C60.6498 11.904 62.5141 13.7567 63.7609 14.9569C65.1009 16.2386 66.7205 17.3922 68.2353 18.4991C69.3073 19.2798 70.0763 20.3051 71.0318 21.0975C71.7891 21.715 72.7213 22.1578 73.5136 22.7171C75.075 23.8357 76.4267 25.2223 77.9997 26.4574C80.971 28.8111 84.0588 31.2814 86.6688 34.0313C87.0184 34.3925 87.298 34.7653 87.6709 35.0916C87.7758 35.1848 87.7291 35.2897 87.869 35.3829C88.2069 35.5926 88.4516 35.6509 88.7662 35.9538C89.1041 36.2801 89.3488 36.7928 89.675 37.2123C90.5373 38.3309 91.4811 39.4961 92.39 40.6846C93.5668 42.2343 95.3962 43.7258 95.9089 45.6134C96.2468 46.8369 95.5943 49.3887 94.732 50.8335C94.0679 51.9521 92.9376 53.094 91.9588 54.2126C90.9801 55.3196 89.8382 56.3683 88.8827 57.3121C88.3467 57.8364 87.7175 58.2675 87.2398 58.8152C86.7737 59.3628 86.4008 59.9687 85.8998 60.5047C84.7229 61.7515 83.2897 63.0099 81.8565 64.2101C81.0991 64.8509 80.2602 65.6433 79.4445 66.4123C78.6522 67.158 77.9298 68.0086 77.0326 68.7078C76.7413 68.9408 76.4383 69.0573 76.1587 69.3137C74.7255 70.6769 73.1291 72.3432 71.1366 73.5201C69.9714 74.2192 69.1907 74.7668 67.4313 74.5687C66.3709 74.4522 65.5553 73.7298 64.5649 73.054C62.7705 71.8421 60.9294 70.8983 59.2981 69.5234C58.5524 68.8942 57.5503 68.265 57.0027 67.5076C56.8396 67.2862 56.8279 66.7036 56.5017 66.6337C56.3269 65.5617 55.9773 64.5829 56.0589 63.173ZM94.4524 46.1843C92.6463 44.3666 91.0034 41.5701 89.139 39.8107C89.0225 39.7058 88.4982 38.9717 88.3467 39.531C88.4865 39.6825 88.8361 39.6242 88.941 39.8107C89.5702 41.1507 90.7703 42.0479 91.6442 43.1898C92.5181 44.32 93.2289 45.66 94.4524 46.4756C94.4524 46.3708 94.4524 46.2776 94.4524 46.1843ZM94.2776 47.5593C93.0425 46.5689 92.0754 45.2172 91.0733 43.9006C90.3276 42.9101 89.442 42.0129 88.7662 41.1041C88.5681 40.8477 88.3817 40.335 87.9622 40.335C87.9272 40.6846 88.2768 40.8477 88.4632 41.1041C90.1178 43.3995 92.2035 45.8464 94.2776 47.8622C94.2892 47.7574 94.2776 47.6525 94.2776 47.5593ZM92.9143 47.7807C93.2522 48.1652 93.5086 48.6196 93.9164 48.9342C93.8465 48.3866 92.8793 47.769 92.9143 47.7807ZM93.5435 49.7266C91.1782 47.3496 89.1624 44.623 86.6455 42.4091C86.7504 42.8286 87.1699 43.0965 87.4495 43.3762C87.7641 43.6908 88.0554 44.0054 88.3467 44.3433C90.0712 46.3009 91.8889 48.0836 93.1707 50.4257C93.2639 50.1694 93.5435 50.0878 93.5435 49.7266ZM92.4832 50.6238C91.318 48.9808 89.3721 46.7087 87.7641 44.9259C87.4145 44.5414 86.3542 43.1315 85.9697 43.1898C85.725 43.2364 85.5036 43.9938 85.3987 44.087C87.8224 46.464 89.8615 49.2372 92.4948 51.4045C92.623 51.1365 93.124 50.7287 92.9726 50.5073C92.9842 50.7287 92.623 50.5772 92.4832 50.6238ZM88.4982 42.6654C88.102 42.1877 87.8806 41.6051 87.3912 41.2206C86.9718 41.7449 87.5777 41.9896 87.9039 42.2926C89.1157 43.7141 90.9684 45.695 91.9122 46.7204C90.8635 45.2639 89.5702 43.9588 88.4982 42.6654ZM84.6181 44.5997C84.4549 45.0541 83.8607 45.0891 83.7558 45.6017C86.0163 47.9904 88.1603 50.4839 90.5606 52.7328C90.7587 52.791 90.5489 53.2804 90.7703 53.3154C91.0034 52.7677 91.586 52.558 91.819 52.022C89.2206 49.7499 87.1699 46.9184 84.6181 44.5997ZM88.3817 51.789C86.5173 49.8314 84.6763 47.7341 82.9868 46.1028C82.7304 46.4058 82.3342 46.5689 82.1245 46.9068C83.1149 47.4661 83.7441 48.4099 84.5248 49.3071C85.5619 50.5189 86.5989 51.6375 87.8224 52.8726C88.2185 53.2805 89.174 54.6204 89.5236 54.6088C89.7333 54.5971 90.5723 53.362 90.479 53.4086C89.8615 53.5834 88.9526 52.3716 88.3817 51.789ZM88.8361 55.203C88.7079 55.203 88.7429 55.0399 88.638 55.0166C87.2048 53.4203 84.9793 51.2996 83.3363 49.3304C83.0567 48.9925 81.9148 47.3612 81.5303 47.4078C81.2157 47.4428 80.9826 48.3283 80.8661 48.3983C83.1266 51.0782 85.3405 53.8164 87.9738 56.1002C88.3001 55.8439 88.5914 55.5526 88.8361 55.203ZM12.9463 28.2169C12.3521 28.7995 11.6879 29.3355 11.2102 29.9181C9.25261 32.3301 9.12444 35.7558 8.75157 39.869C8.47192 43.015 8.6001 45.8931 9.10113 48.2002C9.52061 50.1111 9.99834 51.218 11.2335 52.1735C14.4028 54.6437 19.8676 54.7952 25.5888 54.6437C28.6533 54.5622 31.9275 54.1893 35.2833 53.8747C40.6083 53.3737 46.3178 53.8863 51.4447 53.4669C53.1692 53.327 54.7422 53.0124 56.3385 53.2804C57.0959 54.5855 57.0143 56.4964 57.2124 58.3607C57.4338 60.3649 57.329 62.3457 57.5154 64.1401C57.6203 65.1655 57.9232 66.5172 58.7388 66.6687C59.2865 66.7619 60.5682 66.1676 61.1741 65.8413C63.0618 64.8043 64.2852 63.4993 65.7068 61.9379C66.5108 61.0524 67.4779 60.2018 68.3052 59.3395C69.1325 58.4773 69.9598 57.5567 70.7987 56.7411C71.7192 55.8555 72.7912 55.0865 73.502 54.2359C74.4691 53.0824 75.1682 51.8356 76.0888 50.752C77.0093 49.6683 78.256 48.8876 79.2698 47.8506C79.7941 47.3146 80.1786 46.6038 80.703 46.0562C81.7749 44.9609 83.1033 44.0637 84.1753 42.9567C85.3172 41.7799 86.1911 40.5681 86.9485 39.0766C87.1116 37.3172 86.6688 36.3151 85.8998 35.4645C84.9676 34.4391 83.8024 33.4137 82.9052 32.5748C81.2157 31.0134 79.4445 29.487 77.72 28.1586C75.1449 26.1778 72.698 23.859 69.9598 22.2277C69.1791 21.3422 68.3168 20.5382 67.3614 19.8274C66.0913 22.0297 64.2969 24.0571 62.7821 26.1894C61.6286 27.8091 60.5799 29.487 59.3448 30.9551C58.9952 31.363 58.5524 32.2252 57.795 31.9689C57.7834 31.2697 58.3427 30.7687 58.7505 30.2793C61.6286 26.7953 63.9823 22.9968 66.6855 19.4429C66.0214 18.8254 65.2757 18.1845 64.495 17.5203C63.7492 16.8911 63.0501 16.2269 62.3044 15.5977C61.6635 15.0617 60.8595 14.3043 60.0206 13.78C59.17 13.2557 58.0514 12.8129 56.9794 13.7334C56.4784 16.9377 57.294 21.4121 56.793 24.6164C54.917 25.2806 52.2953 25.4321 50.1513 25.6301C48.5084 25.77 46.7256 25.7 44.9545 25.7233C43.23 25.7583 41.4472 25.9098 39.7577 25.8166C33.4772 25.4903 27.1152 25.735 21.126 25.4787C19.4482 25.4088 17.8052 25.6768 16.2322 25.9681C15.9758 27.2498 15.1485 27.9256 14.4261 28.7412C13.459 29.8365 12.6434 30.8736 11.7461 31.9339C11.35 32.4 10.8489 33.2972 10.1032 33.0408C9.97504 32.3417 10.6625 31.8057 11.047 31.3513C12.4103 29.755 13.9251 28.2402 15.0786 26.574C15.1369 26.574 15.1835 26.4924 15.0786 26.4807C14.3562 26.9701 13.6338 27.5411 12.9463 28.2169ZM81.5419 52.8959C82.4042 53.8514 83.4295 54.6205 84.2335 55.3895C84.5831 55.7274 85.958 57.7315 86.4358 57.6966C86.529 57.6849 87.2631 56.6829 87.298 56.6945C84.7346 54.3291 82.544 51.5792 80.1903 48.9925C79.8058 49.4586 79.1532 49.6683 78.9435 50.2859C79.8058 50.8102 80.6447 51.8939 81.5419 52.8959ZM85.7599 58.2093C83.2198 55.8206 80.8661 53.2455 78.3609 50.7986C77.8482 51.0782 77.4637 51.4744 77.2074 51.9987C79.0018 53.6184 80.5398 55.5526 82.4042 57.1023C83.2897 57.8364 84.3384 58.3375 85.0958 59.2114C85.2706 58.8268 85.725 58.722 85.7599 58.2093ZM84.42 59.7007C83.6626 58.9433 82.8353 58.4423 82.0313 57.7898C81.5652 57.4053 81.0758 56.9625 80.633 56.543C79.7358 55.6808 78.7454 54.9583 77.9414 54.0495C77.5336 53.5834 77.3588 52.9775 76.7413 52.6978C76.4383 52.6978 75.9606 53.3503 75.7858 53.7931C78.3959 56.042 80.5515 58.7686 83.3713 60.8077C83.8141 60.528 84.2219 60.2134 84.42 59.7007ZM75.0983 54.4923C75.0051 54.6903 74.9352 54.9117 74.7138 54.9933C75.0051 55.7973 75.7392 56.3566 76.3218 56.9275C78.1628 58.6986 79.7941 60.5863 81.7167 62.2176C82.1828 62.0544 82.4624 61.7165 82.777 61.4136C79.8873 59.4444 77.9181 56.5314 75.0983 54.4923ZM81.1341 62.707C78.5007 60.6795 76.5199 57.9762 74.0496 55.7857C73.805 55.9604 73.6302 56.2168 73.3738 56.3915C75.4362 59.0133 77.8948 61.2155 80.1786 63.6158C80.5631 63.3711 80.9593 63.1381 81.1341 62.707ZM79.596 64.1984C77.1957 61.8913 75.0168 59.3628 72.6048 57.079C72.3018 57.4286 71.8824 57.6733 71.6377 58.0811C72.43 58.4074 73.1408 59.0366 73.7234 59.6075C75.5178 61.3553 76.9743 63.4177 78.9202 65.0024C79.06 64.6412 79.4795 64.5713 79.596 64.1984ZM78.256 65.5035C77.3006 64.6179 76.3801 63.7323 75.4595 62.8118C74.5973 61.9496 73.9331 60.9475 73.0592 60.1086C72.4533 59.5376 71.626 59.1997 71.2648 58.3724C71.1949 58.5938 70.9735 58.6753 70.7754 58.7802C71.1017 59.5725 71.8358 60.1085 72.3834 60.7144C74.0963 62.6254 75.646 64.5946 77.487 66.3074C77.7666 66.0628 78.1745 65.9462 78.256 65.5035ZM76.3218 67.4027C76.4034 67.228 76.5315 67.0998 76.7063 67.0065C74.7138 64.4081 72.3834 62.171 70.2977 59.6774C69.9248 59.8289 69.6685 60.0969 69.4238 60.3766C71.2415 62.0078 73.1175 63.6391 74.807 65.2704C75.378 65.818 76.1004 66.3773 76.3101 67.2046C76.3334 67.3212 76.182 67.3561 76.3218 67.4027ZM74.038 65.6782C72.8145 64.5014 71.661 63.4644 70.4492 62.4157C69.9132 61.9496 69.249 60.9125 68.5615 61.2738C68.5499 61.6583 69.0276 61.8564 69.2607 62.0428C71.5211 63.8372 73.7117 65.7831 75.7392 67.7057C75.9023 67.7057 75.9839 67.6241 76.0305 67.5076C75.2382 67.1347 74.7255 66.3424 74.038 65.6782ZM75.1682 68.3116C73.3505 66.6454 71.4862 64.8626 69.5869 63.4177C68.9344 62.9167 68.3984 62.1943 67.6993 62.0778C68.713 63.3478 69.9365 64.4198 71.1017 65.5384C72.2785 66.6687 73.3622 67.9504 74.8886 68.6961C74.9002 68.498 75.1449 68.5097 75.1682 68.3116ZM71.7192 67.2978C70.1113 65.7481 68.5382 64.2217 66.9302 62.7769C68.6664 64.3849 70.1928 66.5405 72.0338 68.0669C72.3484 68.3232 72.8145 68.4747 73.1291 68.7311C73.4321 68.9757 73.5719 69.5001 74.0263 69.4069C73.3039 68.6379 72.465 68.0086 71.7192 67.2978ZM69.6452 66.8434C69.0975 66.2725 68.6081 65.6549 68.0488 65.1073C67.4895 64.5596 66.8953 63.9188 66.1612 63.5692C65.9515 64.0003 66.4409 64.3266 66.6739 64.5363C66.9652 64.8043 67.3847 65.049 67.6643 65.3054C69.5053 66.9017 71.2065 68.731 73.1524 70.106C71.9989 68.9757 70.7638 67.997 69.6452 66.8434ZM72.465 70.6071C71.1366 69.7099 69.8782 68.498 68.6781 67.3445C67.7692 66.4706 66.837 65.7947 65.9864 65.049C65.8116 64.8975 65.5903 64.2101 65.1941 64.5713C65.0076 64.8393 65.4504 64.8276 65.497 64.8626C65.6602 64.9674 65.8349 65.1189 65.9981 65.2471C67.9207 66.7386 69.7034 68.7544 71.393 70.339C71.6493 70.5721 71.9756 71.0498 72.3834 70.91C72.3717 70.7818 72.4999 70.7702 72.465 70.6071ZM71.2998 71.4227C70.7871 70.7236 71.4512 71.6208 71.2998 71.4227V71.4227ZM64.6231 65.1772C64.4833 65.4802 64.8795 65.6316 65.031 65.7598C67.0351 67.4377 68.8295 69.4535 70.822 71.0382C68.946 68.8709 66.7438 67.0648 64.6231 65.1772ZM63.7492 65.8763C65.532 67.8921 67.8508 69.873 69.8316 71.3528C67.7342 69.605 66.033 67.4261 63.7492 65.8763ZM69.2723 72.6345C69.482 72.8442 69.8083 72.6578 69.8549 72.4248C69.5986 72.4364 69.3888 72.4947 69.2723 72.6345ZM62.8753 66.4822C62.9452 66.692 63.3181 67.0765 63.4696 66.8667C63.2132 66.8085 63.2249 66.4589 62.8753 66.4822ZM61.0343 67.5891C61.6868 67.7872 62.351 68.4864 62.8171 68.533C62.2345 68.2883 61.6985 67.4377 61.0343 67.5891ZM55.7676 58.6753C55.5695 58.6753 55.3714 58.687 55.185 58.687C53.6353 57.7315 52.3652 56.4847 50.5242 55.8322C50.3028 55.7041 50.3261 55.3079 50.0231 55.2496C49.7668 55.2613 49.557 55.3079 49.4405 55.4594C51.8175 56.9276 53.7751 58.8268 56.0006 60.4348C55.9307 59.8406 55.9074 59.1997 55.7676 58.6753ZM53.8333 59.8872C51.9224 58.3491 50.0231 56.811 48.1588 55.3895C47.5412 55.4361 47.1684 55.2263 46.5858 55.2263C47.5762 56.2517 48.7647 57.2887 50.1746 58.4889C50.7222 58.955 51.4214 59.3978 52.1671 60.0153C52.7963 60.5397 53.4605 61.4952 54.0547 61.6466C54.7072 61.8098 55.4646 61.4835 56.0123 61.6117C56.0123 61.5185 56.0123 61.4136 56.0123 61.3204C55.2199 61.0174 54.5208 60.4465 53.8333 59.8872ZM55.5462 57.114C54.113 56.6013 53.3556 54.8651 51.3981 55.238C52.9361 55.9371 54.0198 57.114 55.5578 57.8014C55.8025 57.6966 55.418 57.4169 55.5462 57.114ZM55.4064 54.667C54.8238 54.6787 54.2295 54.6903 53.6469 54.702C54.1596 55.203 54.6373 55.739 55.4297 55.9371C55.4413 56.042 55.5578 56.007 55.5229 55.8322C55.2898 55.6458 55.4763 55.0282 55.4064 54.667ZM46.912 56.7877C45.8517 55.9138 45.2108 54.8884 43.3582 55.2846C45.1176 57.65 48.0772 59.6425 50.3494 61.8214C51.1534 61.7981 51.9341 61.7515 52.5982 61.5883C50.7805 60.1085 48.8463 58.3607 46.912 56.7877ZM41.89 55.3079C41.1443 55.3196 40.3869 55.3312 39.6411 55.3545C40.8646 57.0557 43.8009 59.3628 45.5371 61.1223C45.9333 61.5301 46.1313 62.1593 46.6324 62.2758C47.18 62.404 48.788 61.9263 49.0793 61.8331C46.6557 59.6891 44.2087 57.5684 41.89 55.3079ZM45.2458 62.1127C43.3815 60.3532 41.4705 58.4773 39.5596 56.6362C38.7206 55.8206 38.5109 55.1215 37.1826 55.4011C39.1751 57.5101 41.0394 60.5863 43.3931 62.5322C43.8359 62.2176 45.1176 62.7186 45.2458 62.1127ZM37.404 56.9625C36.9379 56.4381 36.1688 55.5293 35.7028 55.4244C35.0269 55.273 34.4793 55.7041 33.8384 55.5526C35.26 57.1955 37.5438 59.2929 39.2333 61.0407C40.049 61.8796 41.2258 63.1614 42.0065 62.4622C40.6199 61.0873 38.9071 58.652 37.404 56.9625ZM32.58 55.5876C31.8692 55.6109 31.3099 55.774 30.5293 55.7274C32.6849 58.3491 35.4231 60.3649 37.7186 62.8468C38.5575 62.5671 39.1634 62.8934 39.6761 62.5205C37.2292 60.2717 34.9454 57.8947 32.58 55.5876ZM29.5505 55.8322C28.9795 55.9488 28.2571 55.9371 27.791 56.1585C28.7698 57.0324 29.8884 58.0345 30.9837 59.1414C32.0324 60.2017 32.9762 61.4602 33.9899 62.3224C34.6191 62.8584 35.5047 63.2429 36.5534 62.8584C34.2812 60.4464 31.5546 58.5122 29.5505 55.8322ZM28.2105 57.6267C27.5813 57.0441 26.8472 55.9604 25.7286 56.1002C27.0103 57.5917 28.9795 59.5259 30.6341 61.297C31.4148 62.136 32.1139 63.5109 33.5005 62.905C31.7294 61.099 30.0166 59.3162 28.2105 57.6267ZM25.8568 57.5684C25.3208 57.0091 24.7848 56.1235 23.8643 56.1352C23.8992 56.4848 24.2255 56.846 24.4702 57.1023C25.3441 58.0228 26.3695 58.7569 27.2667 59.5959C28.4901 60.7378 29.6437 61.9962 30.8672 63.0565C30.9371 63.0332 31.0652 63.0565 31.0652 62.9517C29.399 61.064 27.523 59.3279 25.8568 57.5684ZM25.8917 59.4327C24.9712 58.652 24.0274 57.8713 23.2933 57.0324C23.037 56.7294 22.8739 56.2168 22.3961 56.1702C23.1535 57.4868 24.4469 58.652 25.6004 59.8405C26.1714 60.4231 26.719 61.0524 27.3016 61.6699C27.8493 62.2525 28.5251 63.0332 29.3874 63.1031C29.4573 63.0798 29.5854 63.1031 29.5854 62.9983C28.2688 61.8797 27.1968 60.5513 25.8917 59.4327ZM22.5243 57.8364C22.2563 57.5334 22.0815 57.1722 21.8252 56.8693C21.6387 56.6595 21.2892 56.2284 20.928 56.2983C23.0137 58.5588 25.2858 61.1223 27.4298 62.94C25.9034 61.1922 24.0391 59.5026 22.5243 57.8364ZM21.2542 57.8597C20.7415 57.2771 20.2172 56.543 19.4598 56.2284C21.4989 58.2559 23.806 61.3553 26.1597 62.9633C24.4585 61.2971 22.769 59.5726 21.2542 57.8597ZM18.6791 56.8227C18.4228 56.578 18.2247 56.077 17.7819 56.1469C19.2734 57.9296 21.196 59.5376 22.7806 61.1456C23.3632 61.7282 23.7827 62.5671 24.4818 62.6836C22.5359 60.8543 20.5551 58.6287 18.6791 56.8227ZM16.6051 55.9837C16.1273 56.042 15.8826 55.3428 15.5214 55.6108C17.479 57.4752 19.5763 59.724 21.6038 61.1805C19.8676 59.5259 18.1082 57.8947 16.6051 55.9837ZM19.4365 60.5397C18.9238 59.8405 19.588 60.7378 19.4365 60.5397V60.5397Z" fill="black"/>
</svg>
