<svg xmlns="http://www.w3.org/2000/svg" width="31" height="31" viewBox="0 0 31 31" fill="none">
  <g clip-path="url(#clip0_679_39569)">
    <path d="M3.83008 23.8469C9.25626 21.162 16.4476 16.1764 17.3721 9.61047C17.5894 8.06719 16.6053 2.68048 14.3101 2.55558C11.3983 2.39713 9.65229 5.67805 9.65229 8.23751C9.65229 11.9043 12.0776 16.7014 14.4826 19.369C16.4054 21.5017 18.5168 23.0191 20.7145 24.7975C21.8024 25.6778 23.5275 26.3884 24.4019 27.4589C25.5141 28.8206 23.8908 23.3705 23.2375 22.4106C23.1095 22.2226 24.6702 26.0343 25.7604 26.8886C26.3035 27.3142 23.502 27.6846 23.2375 27.7335C21.3548 28.0814 19.5537 28.8152 17.8034 29.55" stroke="#073742" stroke-width="2" stroke-linecap="round"/>
  </g>
  <defs>
    <clipPath id="clip0_679_39569">
      <rect width="30" height="30" fill="white" transform="translate(0.830078 0.550049)"/>
    </clipPath>
  </defs>
</svg>