<svg width="30" height="33" viewBox="0 0 30 33" fill="none" xmlns="http://www.w3.org/2000/svg">
<g clip-path="url(#clip0_51_59430)">
<mask id="mask0_51_59430" style="mask-type:luminance" maskUnits="userSpaceOnUse" x="0" y="0" width="30" height="33">
<path d="M30 0.820312H0V32.1795H30V0.820312Z" fill="white"/>
</mask>
<g mask="url(#mask0_51_59430)">
<path d="M29.2249 19.6297C28.8673 19.2663 28.4896 18.9233 28.0935 18.6024C27.6037 18.2228 27.3931 17.804 27.4873 17.1501C27.5914 16.4154 27.3294 15.5717 27.6098 14.9521C27.8902 14.3326 28.6678 13.9089 29.2127 13.3873C30.0698 12.5681 30.2339 11.5211 29.6571 10.4913C28.969 9.26684 28.2649 8.0497 27.5449 6.8399C26.9424 5.82725 25.9531 5.45868 24.8118 5.79174C24.322 5.93501 23.82 6.04888 23.3596 6.25827C22.7694 6.52521 22.309 6.43705 21.7984 6.04521C21.2131 5.59705 20.3633 5.38276 19.9727 4.82072C19.582 4.25868 19.5967 3.38439 19.4192 2.65215C19.1412 1.5048 18.3098 0.837455 17.1331 0.827659C15.7453 0.817864 14.3575 0.817864 12.9698 0.827659C11.7514 0.833782 10.9212 1.495 10.6433 2.67052C10.4963 3.20079 10.3785 3.73875 10.2906 4.28194C10.2208 4.82317 9.97224 5.12807 9.4702 5.3546C8.77347 5.66929 8.14653 6.33419 7.44857 6.39909C6.71387 6.46521 5.94245 5.97786 5.17836 5.7648C4.09592 5.46235 3.11265 5.8444 2.54449 6.79827C1.81469 8.02276 1.1004 9.25746 0.401629 10.5024C-0.160412 11.5028 0.00244653 12.5534 0.824079 13.3505C1.32122 13.8403 1.85755 14.2775 2.34245 14.7734C2.49164 14.9468 2.57792 15.1656 2.58735 15.3942C2.61674 16.1289 2.61674 16.8636 2.58735 17.5983C2.58125 17.8271 2.49796 18.0472 2.35101 18.2228C1.86734 18.7187 1.33714 19.1693 0.831426 19.6432C0.352753 20.0928 0.0567243 20.7032 0 21.3575C0.140816 21.7554 0.230199 22.1791 0.431015 22.5428C1.10081 23.7562 1.80122 24.9526 2.5053 26.1464C3.1053 27.164 4.08979 27.5509 5.2249 27.2301C5.65983 27.1219 6.0866 26.9832 6.50204 26.815C7.1951 26.5113 7.79143 26.526 8.4 27.0489C8.76734 27.3611 9.26571 27.5032 9.66245 27.7836C9.91305 27.9546 10.106 28.1975 10.2159 28.4803C10.4069 29.0791 10.4963 29.7048 10.6408 30.3244C10.92 31.506 11.7429 32.1721 12.9673 32.1795C14.3551 32.1885 15.7429 32.1885 17.1306 32.1795C18.3122 32.1709 19.1425 31.5097 19.4241 30.3648C19.555 29.8935 19.6572 29.4146 19.7302 28.9309C19.8135 28.2415 20.122 27.8056 20.798 27.5521C21.2878 27.3685 21.6943 26.9901 22.1669 26.7562C22.4063 26.6371 22.6779 26.5989 22.9408 26.6472C23.5935 26.804 24.2229 27.0501 24.8694 27.2338C25.9506 27.5424 26.951 27.175 27.5167 26.2334C28.2604 24.9917 28.9849 23.7395 29.6902 22.4766C30.2388 21.4787 30.0563 20.4342 29.2249 19.6297ZM27.8571 21.753C27.218 22.8195 26.6106 23.9044 25.9739 24.9734C25.8567 25.13 25.7196 25.2708 25.5661 25.3921C24.5865 25.0885 23.749 24.8497 22.9224 24.5595C22.3653 24.3648 21.9429 24.4713 21.4531 24.8044C20.6641 25.3431 19.8356 25.8216 18.9747 26.2358C18.4849 26.4807 18.1996 26.777 18.0967 27.306C17.94 28.1056 17.7367 28.8979 17.5739 29.695C17.4955 30.077 17.3155 30.2313 16.9065 30.2228C15.6624 30.1983 14.4176 30.1983 13.1718 30.2228C12.7567 30.2313 12.5914 30.0636 12.5143 29.6864C12.3465 28.8672 12.1469 28.0554 11.9767 27.2375C11.8776 26.7587 11.6094 26.4819 11.1637 26.2579C10.2612 25.7938 9.38449 25.2783 8.53102 24.726C8.11469 24.4579 7.73265 24.3721 7.26857 24.5252C6.47633 24.7897 5.67673 25.0273 4.88204 25.2905C4.51469 25.413 4.28816 25.3321 4.08979 24.9721C3.48857 23.8836 2.8653 22.8085 2.22122 21.7432C2.01183 21.3954 2.05347 21.1664 2.35469 20.9044C2.99871 20.368 3.61193 19.7956 4.19143 19.1901C4.44467 18.8904 4.59529 18.5175 4.62122 18.126C4.67571 17.05 4.67571 15.9719 4.62122 14.8958C4.60239 14.5044 4.45766 14.1294 4.20857 13.8268C3.63306 13.1962 2.97428 12.6391 2.33143 12.0734C2.04734 11.8285 2.02163 11.6019 2.20898 11.2811C2.85673 10.195 3.49469 9.10399 4.10816 7.9995C4.29796 7.65786 4.52082 7.59909 4.85877 7.70929C5.65347 7.96766 6.45061 8.19909 7.24653 8.47093C7.73633 8.63623 8.12694 8.53827 8.5604 8.25419C9.39177 7.70686 10.2531 7.20649 11.1404 6.75541C11.6069 6.52031 11.8812 6.22888 11.9829 5.72562C12.1482 4.90644 12.3502 4.09582 12.5216 3.27664C12.5951 2.91786 12.7665 2.77215 13.1473 2.77827C14.4127 2.7995 15.678 2.7995 16.9433 2.77827C17.329 2.77092 17.4943 2.92888 17.5678 3.28154C17.7392 4.0995 17.9351 4.91133 18.1053 5.73052C18.2069 6.23378 18.4886 6.52031 18.9539 6.75541C19.8392 7.2077 20.6978 7.71057 21.5253 8.26154C21.96 8.54684 22.3531 8.63868 22.8404 8.47337C23.6118 8.21133 24.398 7.99093 25.1669 7.72766C25.5637 7.59174 25.7975 7.68358 26.0069 8.06194C26.5971 9.13378 27.2094 10.1926 27.8437 11.2383C28.0665 11.6056 28.0237 11.8505 27.7004 12.1273C27.082 12.6599 26.5041 13.2366 25.8918 13.7766C25.5404 14.0864 25.4155 14.4391 25.4302 14.9093C25.462 15.9856 25.4057 17.0656 25.4559 18.1395C25.4733 18.5127 25.6122 18.87 25.8514 19.157C26.4466 19.7759 27.0749 20.362 27.7335 20.913C28.0396 21.1762 28.0616 21.4113 27.8571 21.753Z" fill="#BDEDFC"/>
<path d="M11.5059 12.9004C11.0871 12.451 10.5263 12.4816 9.9459 13.0032C8.97284 13.871 8.00345 14.7449 7.03774 15.6249C6.37284 16.2371 6.37284 16.771 7.03774 17.3783C8.001 18.2591 8.9708 19.133 9.94712 20C10.5349 20.524 11.0871 20.5522 11.5059 20.1016C11.9247 19.651 11.8316 19.0657 11.2757 18.5563C10.541 17.884 9.79529 17.2204 8.99692 16.5016C9.79529 15.7816 10.541 15.1191 11.2757 14.4457C11.8328 13.9302 11.9149 13.34 11.5059 12.9004Z" fill="#BDEDFC"/>
<path d="M19.9565 12.8541C19.5781 12.5173 19.1483 12.4732 18.721 12.7598C18.1871 13.1161 18.1663 13.8483 18.6891 14.3381C19.4593 15.0581 20.2504 15.7622 21.0708 16.4969C20.2308 17.2561 19.4214 17.9663 18.6377 18.701C18.5413 18.7851 18.4624 18.8874 18.4056 19.002C18.3488 19.1167 18.3152 19.2414 18.3068 19.3691C18.2984 19.4968 18.3153 19.6248 18.3565 19.746C18.3977 19.8671 18.4625 19.9789 18.5471 20.0749C18.628 20.175 18.7287 20.2573 18.8431 20.3165C18.9574 20.3757 19.0828 20.4104 19.2113 20.4186C19.3397 20.4268 19.4685 20.4082 19.5894 20.364C19.7103 20.3198 19.8207 20.2509 19.9136 20.1618C21.023 19.1994 22.1153 18.2198 23.1904 17.223C23.652 16.7945 23.6471 16.1969 23.183 15.7647C22.1214 14.7826 21.034 13.8177 19.9565 12.8541Z" fill="#BDEDFC"/>
<path d="M16.1148 11.2796C15.6115 11.2232 15.1744 11.5587 15.0373 12.149C14.4005 14.882 13.7691 17.6167 13.143 20.353C12.9838 21.0436 13.2507 21.5494 13.8373 21.6926C14.4238 21.8359 14.8805 21.4955 15.0446 20.7926C15.4622 19.011 15.8675 17.2257 16.2801 15.4428C16.525 14.3934 16.7699 13.3453 16.9915 12.3914C16.9952 11.7767 16.6156 11.3359 16.1148 11.2796Z" fill="#BDEDFC"/>
</g>
</g>
<defs>
<clipPath id="clip0_51_59430">
<rect width="30" height="32" fill="white" transform="translate(0 0.5)"/>
</clipPath>
</defs>
</svg>
