<svg width="357" height="308" viewBox="0 0 357 308" fill="none" xmlns="http://www.w3.org/2000/svg">
<path d="M290.951 201.035C291.827 200.743 290.623 200.269 290.659 199.904C289.783 200.159 290.988 200.67 290.951 201.035Z" fill="#36D9FF"/>
<path d="M337.013 228.773C336.538 226.328 339.568 225.853 341.32 224.466C343.729 222.569 345.371 219.649 347.05 217.605C345.043 219.32 337.597 221.328 333.326 223.043C331.647 223.7 330.078 224.831 329.019 225.05C325.406 225.78 320.734 224.649 317.303 223.335C313.945 222.058 310.514 220.525 308.142 219.028C301.463 214.794 297.156 208.188 292.995 203.589C292.411 204.355 292.849 206.107 292.411 207.02C286.316 210.998 274.818 212.349 264.088 209.867C262.518 209.502 261.022 208.626 259.233 208.151C254.014 206.764 249.853 205.341 245.51 203.005C242.809 201.545 240.327 199.793 237.772 198.151C233.501 195.34 230.618 193.26 227.479 189.573C226.494 188.405 225.216 187.383 224.632 186.434C223.136 184.135 221.493 179.901 221.201 177.565C220.179 169.937 223.793 163.769 227.771 159.535C229.778 158.403 231.384 158.111 234.341 157.527C236.604 157.089 239.487 157.235 243.21 157.527C250.145 158.075 256.313 161.323 262.08 164.097C268.139 167.017 274.344 168.44 282.118 169.243C275.439 155.045 274.49 139.095 270.402 122.598C267.592 111.356 264.599 101.465 258.941 93.1428C256.058 88.8359 252.189 85.04 248.356 81.9741C239.268 74.7837 229.194 69.4914 213.463 68.7979C210.762 68.6884 208.061 67.8854 205.178 67.9584C200.762 68.0314 195.871 69.5279 191.162 70.2579C186.417 70.9878 182.22 71.8638 178.278 73.3968C174.738 74.7837 171.124 76.8642 167.693 78.8351C160.686 82.8865 157.218 86.6094 152.51 92.8508C149.59 96.7197 148.787 99.6761 147.363 104.859C146.305 108.691 144.334 114.568 143.933 119.459C143.057 129.423 144.006 139.278 145.648 148.074C147.473 157.819 153.13 165.812 156.817 174.098C159.773 180.741 162.73 185.084 167.109 189.829C169.482 192.42 171.854 194.793 174.263 197.567C175.431 198.917 176.271 200.487 177.402 201.874C179.702 204.611 183.06 206.983 185.98 209.319C188.899 211.655 191.71 214.283 194.849 216.181C195.396 216.875 195.944 217.568 196.272 218.481C200.616 221.437 204.229 225.05 208.864 227.934C213.536 230.817 218.391 232.679 223.756 234.796C228.866 236.84 233.611 239.212 239.779 240.818C245.583 242.315 251.641 242.971 258.102 242.826C256.751 239.322 257.043 233.482 257.262 228.81C257.335 227.021 256.496 224.174 258.394 223.371C260.912 224.028 259.635 227.313 259.525 229.394C259.306 234.248 259.562 239.723 260.657 243.118C262.007 243.3 263.285 243.519 264.964 243.41C263.869 239.906 263.139 234.905 263.248 229.394C263.285 227.897 262.737 225.89 264.088 225.087C266.57 225.525 265.365 229.54 265.511 232.241C265.73 236.329 266.643 240.563 267.518 243.41C268.796 243.774 270.438 243.738 272.081 243.702C270.949 241.22 270.84 237.533 270.657 233.409C270.584 231.584 269.599 229.175 271.241 228.262C273.723 228.956 272.774 232.606 272.957 235.124C273.176 238.336 274.344 241.585 274.125 243.702C275.293 244.249 276.935 244.322 278.687 244.285C277.775 242.46 277.775 238.811 277.811 235.416C277.848 233.664 277.3 231.438 278.687 230.854C281.315 231.511 279.855 237.241 280.111 240.307C280.293 242.424 281.06 242.68 280.95 246.329C282.191 246.329 283.432 246.329 284.673 246.329C284.235 242.68 283.469 241.293 283.25 238.592C283.067 236.146 282.593 232.204 284.381 231C286.899 231.949 285.585 235.708 285.804 238.519C285.987 241.147 286.79 243.045 287.228 244.723C288.615 244.796 289.381 244.176 290.951 244.395C290.075 242.899 289.892 240.453 289.527 238.081C289.235 236 288.14 233.117 289.819 231.766C292.228 232.314 291.498 235.781 291.827 238.044C292.192 240.563 292.812 242.68 293.542 244.322C296.207 243.665 298.908 243.811 301.572 243.446C305.441 242.935 309.018 241.512 312.449 240.855C313.69 240.636 314.748 240.855 315.88 240.563C317.048 240.234 317.96 239.577 319.019 239.139C320.771 239.212 322.158 241.658 324.457 241.986C327.049 242.351 330.917 242.534 333.91 242.278C335.918 242.096 338.363 241.658 339.057 240.271C336.392 240.709 333.728 240.964 333.618 238.555C333.509 236.183 336.137 236.365 338.473 235.416C340.48 234.577 343.145 232.934 345.626 231.401C348.181 229.832 351.43 228.627 351.357 226.839C348.948 227.058 346.977 227.313 344.495 228.262C342.269 229.065 337.743 232.569 337.013 228.773ZM151.634 128.656C148.495 129.058 150.466 124.824 152.218 126.941C152.4 127.926 151.889 128.145 151.634 128.656ZM218.865 82.5945C225.362 83.361 229.742 86.2445 233.757 89.4564C235.18 90.5878 237.042 91.5368 238.027 92.5953C239.122 93.7633 239.706 95.1867 240.619 96.6102C241.458 97.9607 242.006 99.4571 242.918 101.173C243.721 102.706 244.889 103.764 245.217 105.735C245.582 107.998 245.181 110.005 242.918 109.75C241.13 109.531 241.312 107.158 240.619 105.443C239.925 103.764 236.604 97.5957 234.888 95.6977C233.83 94.4932 231.786 92.9968 230.034 91.6828C226.566 89.0914 222.26 87.1204 217.442 86.5364C214.339 86.1714 212.405 87.0109 212.587 84.237C212.733 81.4996 216.639 82.3025 218.865 82.5945ZM188.242 108.034C191.308 97.6322 201.966 90.2593 215.69 92.0113C225.69 93.2888 231.129 99.7856 234.596 107.45C236.385 111.429 238.283 115.845 238.319 120.627C238.356 128.62 233.465 135.956 228.574 138.949C227.515 139.606 225.617 139.971 224.012 140.665C222.369 141.358 220.727 142.453 219.449 142.672C213.208 143.694 205.324 142.271 201.419 140.665C196.126 138.511 189.885 131.54 188.242 126.649C186.454 121.174 186.783 112.962 188.242 108.034ZM156.488 128.364C156.963 128.364 157.437 128.364 157.912 128.364C158.678 130.591 155.868 137.051 153.057 135.518C153.641 132.598 155.43 130.846 156.488 128.364ZM155.612 136.942C156.78 134.533 158.277 132.197 159.627 130.08C162.876 130.919 159.919 134.131 158.788 136.394C157.875 138.183 156.89 140.117 156.196 141.541C155.503 142.964 155.247 145.409 153.349 144.679C152.838 141.796 154.481 139.241 155.612 136.942ZM153.897 151.833C153.13 149.899 154.773 148.074 155.612 146.395C157.401 142.782 158.751 139.606 160.759 136.467C161.744 134.898 162.985 133.109 164.774 133.109C164.956 133.109 165.138 133.109 165.357 133.109C166.197 133.109 164.117 135.993 162.766 138.183C160.576 141.833 159.226 144.752 157.62 148.147C156.853 149.789 156.379 152.344 153.897 151.833ZM157.036 159.535C155.247 157.527 157.328 154.388 158.167 152.454C161.197 145.701 163.971 140.373 168.205 133.073C168.497 133.073 168.788 133.073 169.08 133.073C169.08 133.073 169.847 133.949 169.664 134.715C168.788 138.037 166.014 141.176 164.226 144.679C162.438 148.256 160.868 152.381 159.372 155.958C158.788 157.272 159.153 159.316 157.036 159.535ZM160.759 167.272C159.737 165.995 160.649 164.243 161.051 162.965C163.825 153.768 166.781 146.03 171.635 139.387C172.402 138.329 173.205 136.723 174.774 136.723C174.957 136.723 175.139 136.723 175.358 136.723C175.285 136.723 175.687 137.161 175.65 137.672C172.913 141.979 169.555 146.322 167.365 151.906C166.38 154.388 165.285 157.381 164.518 160.155C163.715 162.893 163.496 167.455 160.759 167.272ZM166.197 175.01C164.628 173.842 165.577 171.835 165.905 170.448C166.307 168.878 166.854 167.09 167.328 165.593C170.248 156.25 172.767 145.738 177.074 137.854C177.986 137.708 178.205 138.256 178.789 138.438C178.716 141.249 176.964 143.512 175.942 146.176C174.92 148.804 174.117 151.651 173.351 154.461C171.854 160.228 169.664 165.666 168.205 171.068C167.84 172.309 168.387 174.682 166.197 175.01ZM170.212 180.449C168.606 179.281 169.628 176.945 169.92 175.594C172.584 163.404 176.052 150.665 182.22 142.417C182.585 142.417 182.622 142.052 183.06 142.125C183.133 142.526 183.68 142.453 183.936 142.709C183.68 145.993 181.052 148.366 179.629 151.286C176.161 158.513 174.446 167.856 172.475 176.178C172.183 177.456 172.219 180.157 170.212 180.449ZM174.519 188.734C173.095 187.274 173.716 184.682 173.935 183.004C175.65 171.068 179.921 160.447 184.228 151.322C184.921 149.899 185.724 147.672 187.367 147.672C187.549 147.672 187.731 147.672 187.95 147.672C187.95 147.672 188.315 147.709 188.242 148.183C187.221 151.286 185.724 154.352 184.228 157.746C180.797 165.63 177.84 174.244 176.49 183.989C176.307 185.412 176.855 188.223 174.519 188.734ZM177.074 194.756C175.541 193.333 176.636 190.668 177.074 189.026C178.607 183.04 180.213 177.638 182.22 171.871C183.972 166.871 186.636 161.25 189.082 156.432C190.177 154.242 190.797 151.432 192.805 151.87C192.878 152.271 193.279 152.344 193.389 152.709C192.148 156.104 190.469 159.243 188.826 162.71C187.294 165.995 185.432 169.28 184.264 172.711C182.293 178.332 181.162 184.244 179.702 189.865C179.264 191.435 179.154 194.172 177.074 194.756ZM184.228 195.012C182.658 194.026 183.461 192.019 183.644 190.705C183.863 189.135 184.41 187.566 184.775 186.142C186.417 180.011 187.695 174.39 189.629 168.915C190.578 166.25 191.819 162.272 194.192 162.272C194.374 162.272 194.557 162.272 194.776 162.272C194.776 162.272 195.141 162.455 195.068 162.893C194.009 165.447 192.914 167.601 191.929 170.521C189.775 176.872 187.403 184.573 185.906 191.362C185.687 192.493 186.199 194.829 184.228 195.012ZM189.082 203.625C187.33 202.348 188.607 200.012 188.79 198.479C190.213 188.15 192.476 179.098 195.944 171.36C197.331 168.294 198.535 165.922 200.798 162.272C200.981 162.272 201.163 162.272 201.382 162.272C201.382 162.272 202.149 163.112 201.966 163.915C199.302 169.645 196.674 175.886 194.52 182.748C192.951 187.785 191.892 193.333 191.089 198.881C190.907 200.304 191.308 203.224 189.082 203.625ZM194.52 203.625C194.703 204.684 195.031 205.596 194.228 206.217C191.308 206.764 192.002 204.428 192.221 202.786C192.44 201.107 193.097 198.844 193.352 197.64C194.995 190.449 196.09 184.39 198.791 178.186C200.178 174.974 201.638 169.353 204.521 170.74C204.521 171.105 204.886 171.141 204.813 171.616C198.973 179.792 197.331 192.274 194.52 203.625ZM199.119 215.05C196.455 212.75 198.353 208.626 198.827 205.596C200.287 196.435 202.842 189.172 205.689 182.128C206.31 180.631 206.419 178.697 207.988 178.113C209.047 178.368 209.01 178.551 209.12 179.244C209.485 181.252 206.857 185.084 205.981 187.529C203.244 195.012 201.382 202.275 200.543 210.706C200.433 211.947 200.835 214.393 199.119 215.05ZM207.112 215.342C204.01 214.356 205.762 210.305 206.236 207.604C207.368 201.363 208.536 196.654 210.543 191.289C211.638 188.296 212.806 183.551 215.398 185.011C215.398 185.376 215.763 185.412 215.69 185.85C212.076 192.749 209.156 201.801 207.952 211.035C207.806 212.422 208.536 214.429 207.112 215.342ZM213.135 220.196C212.989 221.109 213.208 223.445 211.419 223.335C210.032 222.496 210.507 220.525 210.543 219.32C210.908 211.874 213.5 205.195 215.69 199.574C216.639 197.165 217.004 194.245 219.121 193.004C221.566 194.026 218.683 198.333 217.697 201.034C216.785 203.589 215.982 206.144 215.398 208.188C214.157 212.641 213.901 215.926 213.135 220.196ZM216.858 224.795C214.558 223.408 216.201 220.05 216.566 217.349C217.405 211.4 218.099 206.363 219.997 201.618C221.274 198.443 222.333 194.026 225.143 195.888C225.325 197.129 224.231 198.078 223.72 199.027C220.471 205.122 219.486 213.626 218.281 221.328C218.135 222.386 218.792 224.758 216.858 224.795ZM222.88 230.781C221.493 230.051 222.041 228.153 222.041 226.766C221.822 216.51 224.669 209.721 227.771 202.421C228.063 202.421 228.355 202.421 228.647 202.421C229.961 206.071 227.442 208.918 226.348 212.75C225.399 216.072 224.559 219.722 224.34 222.934C224.085 225.926 225.508 229.868 222.88 230.781ZM229.742 233.664C226.968 234.139 227.625 228.627 227.735 226.62C228.136 219.503 229.997 209.757 232.041 206.107C232.333 206.107 232.625 206.107 232.917 206.107C233.209 206.107 233.392 206.874 233.793 207.166C232.005 214.064 230.326 221.766 230.362 230.306C230.289 231.328 231.275 233.372 229.742 233.664ZM235.728 218.189C234.45 222.678 234.304 227.313 234.304 232.788C234.304 233.92 235.29 236.11 233.465 236.219C231.202 235.197 231.567 231.219 231.749 228.226C232.114 221.656 234.085 214.393 236.056 210.195C236.896 209.867 237.042 210.122 237.772 210.487C237.954 212.86 236.531 215.415 235.728 218.189ZM240.874 239.103C236.859 239.066 237.845 233.007 238.027 229.832C238.356 224.539 239.56 217.057 240.874 213.407C241.458 213.407 242.006 213.407 242.59 213.407C242.59 213.407 242.736 214.721 242.882 214.94C241.166 221.51 239.998 231.73 240.874 239.103ZM245.181 240.818C243.247 240.088 244.05 237.205 244.05 235.38C244.05 230.525 244.378 226.729 244.926 223.079C245.218 221.109 244.852 218.554 246.349 217.641C246.604 216.875 247.371 217.933 247.772 217.933C247.188 223.591 246.385 229.832 246.349 236.256C246.312 237.716 247.043 240.271 245.181 240.818ZM253.466 240.234C251.167 240.234 251.787 237.278 251.751 235.38C251.714 231.474 251.86 227.861 252.335 225.087C252.554 223.773 252.298 221.948 253.466 221.656C253.977 221.109 254.306 221.802 254.89 221.948C255.109 224.722 254.233 227.678 254.05 230.817C253.795 234.431 254.89 238.263 253.466 240.234ZM298.105 243.92C294.893 243.373 294.345 235.307 295.513 235.307C295.988 235.307 296.462 235.307 296.937 235.307C298.032 235.307 297.229 238.044 297.521 239.76C297.813 241.366 299.565 242.789 298.105 243.92ZM302.959 241.366C299.93 241.183 299.601 236.438 300.368 234.212C300.842 234.212 301.317 234.212 301.791 234.212C302.521 234.723 302.375 236.11 302.375 237.351C302.85 238.482 304.2 240.307 302.959 241.366ZM307.266 239.942C304.492 240.307 303.799 236.256 304.966 234.504C307.375 234.54 307.631 238.117 307.266 239.942Z" fill="white"/>
<path d="M97.8347 104.897C95.6083 102.78 94.0389 100.225 92.1045 98.0348C90.316 95.9908 88.199 93.8374 86.3741 91.4649C82.2862 86.0631 79.1473 79.9677 76.9208 72.8504C75.7529 69.0545 75.2783 65.2951 74.9133 60.8422C74.5848 56.7543 74.8039 52.2649 74.3294 47.4105C74.1104 45.1476 73.3804 42.7386 72.9059 40.2567C72.4679 37.9208 72.2124 35.3658 71.7745 33.1029C71.227 30.475 70.2415 27.847 69.1831 25.3651C66.2996 18.3938 63.5987 13.8679 58.0143 9.63398C55.4594 7.66303 53.0504 5.87459 49.729 4.19563C45.8236 2.26118 41.2612 0.837717 35.7133 0.180734C26.7711 -0.841241 19.2522 2.62615 13.6679 6.45855C9.06899 9.63397 6.69656 13.3569 4.21462 18.7588C1.87868 23.8686 0.418771 30.621 1.07575 39.3442C1.22175 41.3517 1.84223 43.3591 2.20722 45.3666C3.77668 53.2504 6.07608 58.1048 10.4925 63.3971C13.5219 67.0471 16.1134 71.2444 18.7778 73.9819C21.7343 77.0113 24.4351 78.6173 27.355 80.8437C33.0124 85.1871 39.1442 89.421 45.3856 93.4359C48.488 95.4433 51.9554 96.8303 55.4228 98.5823C58.6347 100.188 62.1022 101.94 66.2996 103.145C74.5119 105.554 82.3592 107.196 90.608 109.422C92.8709 110.043 101.339 113.218 102.324 110.006C103.273 107.233 99.2217 106.211 97.8347 104.897ZM91.8124 105.481C85.2061 103.072 78.0158 101.904 70.9349 100.042C57.4668 96.5383 46.4806 89.2385 36.2973 82.0117C31.4065 78.5443 25.1652 74.4929 21.4058 70.2955C19.7268 68.3975 17.9018 65.7696 15.9673 63.4336C14.0694 61.1707 11.8065 58.9077 10.529 56.5718C9.98152 55.5498 9.90853 54.2724 9.39754 53.1409C8.88655 52.0094 8.04707 51.0604 7.68208 50.002C5.05414 42.3372 4.43365 30.5115 7.09808 23.1022C10.3465 14.0869 15.9309 9.04999 24.5446 5.94757C25.8951 5.43658 27.1725 4.7431 28.2675 4.52411C36.1148 2.99114 43.1592 5.91107 48.3056 8.539C52.43 10.6559 56.6273 13.2474 59.1822 16.2768C64.2556 22.2627 66.847 31.0955 68.6355 40.0377C69.0735 42.1912 69.5481 44.6001 69.7671 46.6075C70.716 55.5498 69.8765 64.3096 71.7745 72.0839C72.2489 74.0184 73.3074 75.9163 74.0739 77.8143C76.3369 83.4351 79.5488 89.9685 82.6512 94.1294C84.9872 97.2683 88.0531 99.9692 90.389 102.707C90.9365 103.254 92.7614 105.006 91.8124 105.481Z" fill="white"/>
<path d="M33.4495 23.6503C33.194 23.5043 32.0626 22.4823 31.4421 23.3583C29.9821 24.3803 30.6756 26.3877 30.6026 27.9207C30.3471 32.1911 29.3981 37.3374 29.1791 42.2283C29.0331 45.4402 29.1792 48.5426 28.5952 51.3896C25.0913 51.1341 21.5508 50.7691 19.7258 52.813C18.4484 59.5654 25.8942 59.2004 30.6026 58.2514C31.7706 50.0391 31.3325 40.2939 32.61 32.2276C39.3623 34.819 43.9977 39.5274 48.9251 43.9438C48.1951 50.0756 47.4652 56.2439 46.3337 61.9743C44.3992 61.1713 38.4499 60.1493 36.8804 62.5583C33.8145 67.2667 41.0413 70.6246 46.3337 69.4201C47.9396 69.3106 47.1731 66.8287 48.3411 66.2812C49.9835 56.2804 50.7866 45.4402 53.1955 36.2424C49.1441 30.6946 39.3989 27.1907 33.4495 23.6503ZM49.7646 40.5128C48.3776 40.4398 47.3557 39.0164 46.3337 38.2134C42.2458 34.965 38.2309 31.3516 32.8655 29.6361C33.3035 28.7236 32.8655 26.9717 33.4495 26.2052C38.8879 29.8186 45.7862 32.0086 50.3121 36.4979C50.0566 37.7754 49.8376 39.0894 49.7646 40.5128Z" fill="white"/>
<path d="M349.313 222.497C350.444 218.811 355.773 213.92 353.583 207.898C354.897 206.511 354.605 204.576 353.291 203.883C351.247 202.788 348.108 206.401 346.721 207.605C344.276 209.722 342.597 211.292 340.991 212.46C339.239 213.737 336.794 215.015 334.421 216.475C332.122 217.898 329.713 220.088 327.851 220.49C321.72 221.767 313.945 217.643 310.405 215.343C304.82 211.693 300.404 205.306 295.805 200.16C300.514 199.685 305.915 196.291 309.237 193.298C310.952 191.765 312.814 190.305 312.376 188.443C311.828 185.998 308.251 186.108 304.638 186.144C306.755 183.845 310.551 182.166 313.215 179.282C315.15 177.238 316.61 173.953 318.07 170.997C318.654 169.829 319.42 169.026 319.493 168.15C319.676 166.179 318.435 163.186 317.486 162.712C315.551 161.763 312.12 164.938 310.04 165.851C303.944 168.515 296.316 169.172 287.447 169.281C284.892 165.048 282.848 160.084 281.425 154.974C279.965 149.645 278.724 143.988 277.702 138.367C275.694 127.089 273.942 115.299 269.964 105.445C262.007 85.6986 248.794 73.0699 227.917 66.2445C229.012 63.1056 230.727 60.6967 233.355 58.5067C234.633 57.4483 235.91 57.1198 235.947 55.6598C235.947 52.5574 232.297 53.5064 230.8 54.5283C227.844 56.4993 226.384 59.8937 224.523 62.8136C223.72 64.0911 223.391 66.0256 220.8 64.8211C221.128 62.1566 221.712 59.0542 222.807 56.2438C223.391 54.7108 225.252 53.1779 224.23 51.3894C217.77 48.433 218.208 60.2587 215.945 64.2736C212.332 64.5656 208.755 63.7261 205.36 63.6896C200.579 63.6896 195.652 65.2226 190.761 65.9891C185.724 66.792 181.417 67.5585 177.329 69.128C173.278 70.6974 169.737 72.6684 166.16 74.8583C162.474 77.0848 158.824 78.9827 156.16 81.4282C154.444 82.9976 153.203 85.1511 151.597 87.1585C150.101 88.9835 148.203 90.6989 147.035 92.5969C142.655 99.6412 142.144 108.948 139.589 118.329C136.085 117.453 134.26 114.095 132.143 110.883C129.552 106.941 127.508 100.517 128.42 93.1444C128.676 90.9909 131.121 86.903 127.836 86.5745C123.529 86.1365 123.749 96.4293 124.113 101.174C124.77 109.861 130.099 116.321 134.406 120.92C126.121 125.191 118.055 130.118 115.792 140.958C115.135 144.097 114.405 149.681 117.215 149.827C119.807 149.973 119.588 145.557 120.062 142.966C122.07 132.381 129.442 127.089 139.224 124.351C139.261 135.191 140.027 146.908 142.947 155.813C145.064 162.274 148.933 167.785 151.816 174.136C154.663 180.414 157.51 186.144 162.109 190.998C164.372 193.407 166.525 195.853 168.679 198.152C170.942 200.561 172.511 203.335 174.701 205.598C176.599 207.569 179.045 209.248 181.271 211.036C187.622 216.073 193.79 221.95 200.141 227.351C209.047 234.907 220.727 238.228 231.603 243.083C232.114 258.12 233.136 275.786 230.472 289.144C225.8 288.852 223.136 290.349 219.011 291.991C216.675 292.904 212.587 294.729 214.996 297.138C217.442 299.583 221.238 294.218 224.449 294.546C224.668 294.473 224.741 294.254 225.033 294.254C223.865 295.751 222.369 296.846 221.311 299.109C220.508 300.861 219.887 304.438 223.026 303.963C224.23 303.781 224.668 301.664 225.873 299.948C227.187 298.087 229.596 295.787 232.443 295.386C234.888 295.021 236.567 296.408 239.305 295.386C241.02 292.429 237.735 290.823 234.742 290.823C237.297 277.027 237.042 259.69 235.874 244.47C240.619 245.455 244.962 246.806 250.473 247.061C249.962 262.099 250.108 277.757 248.174 291.407C244.487 292.393 240.546 294.473 237.881 297.138C236.604 298.452 234.633 299.656 235.034 301.445C235.18 302.065 236.567 303.124 236.75 303.16C238.611 303.562 239.925 301.08 241.057 300.021C242.626 298.525 243.684 297.904 245.363 297.174C244.743 298.269 243.794 300.094 242.517 302.321C241.677 303.744 239.341 306.846 242.225 307.759C245.144 308.671 245.655 305.095 246.787 303.197C248.502 300.277 250.838 297.065 252.809 294.911C256.386 294.145 259.562 299.291 261.679 297.211C265.219 293.743 256.021 290.093 253.101 290.641C254.16 276.625 254.488 261.88 254.817 247.134C258.576 247.463 262.007 247.499 266.533 247.718C272.665 247.973 279.636 249.433 285.987 249.141C294.309 248.776 303.616 247.535 310.879 246.003C313.726 245.382 316.464 244.36 318.909 244.579C320.223 244.689 321.209 245.601 322.632 246.003C330.041 248.192 345.699 247.499 343.217 238.009C345.882 235.381 356.905 232.352 356.102 226.293C355.81 223.483 353.145 222.388 349.313 222.497ZM314.128 168.697C313.361 170.887 312.741 173.041 310.989 175.267C309.492 177.165 304.93 180.961 302.996 181.837C300.842 182.859 298.032 182.567 297.557 184.684C296.718 188.334 301.499 190.122 305.587 190.414C304.017 192.385 300.66 194.977 296.426 195.561C292.666 196.108 288.396 195.013 284.418 194.977C280.476 198.627 287.045 201.62 288.14 204.722C279.016 208.226 264.671 206.182 256.97 203.007C258.43 203.116 259.197 202.569 260.109 202.167C262.263 204.978 269.599 206.73 272.701 203.591C273.431 203.372 272.847 201.839 273.833 201.875C277.702 200.89 280.585 198.919 280.147 193.59C285.695 193.663 291.389 193.663 291.316 189.283C291.279 186.473 287.921 185.487 287.593 183.261C290.367 182.093 293.542 181.399 294.455 178.406C293.907 178.37 294.236 177.457 293.579 177.53C291.571 177.968 289.637 180.122 287.556 180.961C286.133 181.545 284.198 181.217 283.834 182.677C283.177 185.451 289.454 186.947 288.688 189.83C286.607 192.422 278.906 189.392 276.972 192.13C278.505 194.831 277.592 198.043 275.256 198.992C273.577 199.685 271.241 198.554 269.818 200.123C269.489 201.401 271.314 201.401 270.402 202.423C265.037 203.846 261.934 200.634 259.233 198.408C258.211 198.809 258.321 200.379 257.226 200.707C254.963 200.744 254.014 198.371 252.079 198.992C250.729 200.014 253.357 201.547 252.079 201.583C246.86 198.882 239.852 194.831 235.217 191.29C233.1 189.684 232.625 188.626 230.91 186.728C230.107 185.816 228.902 185.049 228.318 184.137C224.924 178.917 224.705 170.96 228.026 165.814C230.8 161.544 236.166 161.398 244.05 162.091C251.13 162.712 256.24 166.653 262.628 169.245C276.862 175.012 300.331 175.632 314.128 168.697ZM290.951 201.036C290.987 200.671 289.783 200.16 290.659 199.904C290.622 200.269 291.827 200.744 290.951 201.036ZM345.626 231.366C343.144 232.899 340.48 234.542 338.473 235.381C336.1 236.33 333.509 236.148 333.618 238.52C333.728 240.929 336.392 240.674 339.057 240.236C338.363 241.623 335.918 242.061 333.91 242.243C330.917 242.535 327.048 242.353 324.457 241.951C322.158 241.623 320.771 239.141 319.019 239.104C317.96 239.542 317.048 240.236 315.88 240.528C314.748 240.82 313.69 240.564 312.449 240.82C309.018 241.477 305.441 242.9 301.572 243.411C298.908 243.74 296.207 243.63 293.542 244.287C292.812 242.645 292.192 240.491 291.827 238.009C291.498 235.746 292.228 232.279 289.819 231.731C288.14 233.045 289.235 235.965 289.527 238.009C289.892 240.382 290.075 242.827 290.951 244.287C289.418 244.068 288.651 244.652 287.228 244.579C286.753 242.9 285.987 240.893 285.804 238.265C285.585 235.454 286.899 231.476 284.381 230.527C282.556 231.731 283.031 236.111 283.25 238.52C283.468 241.185 284.235 242.608 284.673 246.258C283.432 246.258 282.191 246.258 280.95 246.258C281.06 242.608 280.293 242.353 280.111 240.236C279.855 237.206 281.315 231.914 278.687 231.22C277.337 231.804 277.848 233.848 277.811 235.6C277.775 238.995 277.775 242.535 278.687 244.36C276.935 244.397 275.256 244.287 274.125 243.74C274.344 241.623 273.176 238.338 272.957 235.126C272.774 232.607 273.723 228.957 271.241 228.227C269.599 229.14 270.584 231.512 270.657 233.374C270.84 237.498 270.949 241.185 272.081 243.667C270.438 243.703 268.759 243.74 267.518 243.375C266.642 240.528 265.73 236.33 265.511 232.206C265.365 229.505 266.569 225.527 264.087 225.052C262.701 225.855 263.248 227.826 263.248 229.359C263.138 234.87 263.868 239.871 264.963 243.375C263.321 243.521 262.044 243.265 260.657 243.083C259.562 239.652 259.306 234.177 259.525 229.359C259.635 227.278 260.876 224.03 258.394 223.337C256.459 224.14 257.335 226.986 257.262 228.775C257.043 233.447 256.751 239.287 258.102 242.791C251.678 242.937 245.619 242.28 239.779 240.783C233.611 239.214 228.866 236.805 223.756 234.761C218.427 232.644 213.536 230.782 208.864 227.899C204.229 225.052 200.616 221.402 196.272 218.446C195.944 217.533 195.396 216.84 194.849 216.146C191.71 214.248 188.899 211.62 185.979 209.284C183.06 206.948 179.702 204.576 177.402 201.839C176.271 200.488 175.431 198.882 174.263 197.532C171.854 194.794 169.482 192.385 167.109 189.794C162.73 185.013 159.773 180.706 156.817 174.063C153.13 165.778 147.473 157.784 145.648 148.039C144.005 139.243 143.056 129.388 143.932 119.424C144.37 114.533 146.305 108.656 147.363 104.824C148.787 99.6412 149.59 96.6848 152.51 92.8159C157.218 86.538 160.649 82.8151 167.693 78.8002C171.124 76.8293 174.701 74.7488 178.278 73.3619C182.22 71.8289 186.381 70.9164 191.162 70.2229C195.871 69.5294 200.762 68.033 205.178 67.9235C208.061 67.8505 210.762 68.6535 213.463 68.763C229.194 69.4564 239.305 74.7123 248.356 81.9391C252.189 84.9686 256.058 88.801 258.941 93.1079C264.562 101.43 267.555 111.321 270.402 122.563C274.526 139.024 275.439 155.01 282.118 169.208C274.344 168.405 268.139 166.982 262.08 164.062C256.313 161.252 250.108 158.04 243.21 157.492C239.487 157.2 236.604 157.054 234.341 157.492C231.384 158.076 229.778 158.332 227.771 159.5C223.792 163.734 220.179 169.865 221.201 177.53C221.493 179.866 223.136 184.1 224.632 186.399C225.252 187.348 226.493 188.37 227.479 189.538C230.618 193.225 233.538 195.305 237.772 198.116C240.29 199.795 242.772 201.51 245.509 202.97C249.853 205.306 254.014 206.73 259.233 208.116C261.022 208.591 262.555 209.467 264.087 209.832C274.818 212.277 286.315 210.963 292.411 206.985C292.849 206.073 292.411 204.321 292.995 203.554C297.156 208.153 301.463 214.759 308.142 218.993C310.514 220.49 313.945 222.023 317.303 223.3C320.771 224.614 325.442 225.746 329.019 225.016C330.078 224.797 331.647 223.665 333.326 223.008C337.597 221.293 345.042 219.285 347.05 217.57C345.371 219.65 343.728 222.534 341.32 224.432C339.568 225.819 336.575 226.293 337.013 228.738C337.743 232.534 342.268 229.03 344.458 228.154C346.94 227.169 348.911 226.95 351.32 226.731C351.393 228.592 348.145 229.797 345.626 231.366Z" fill="#36D9FF"/>
<path d="M217.441 86.5743C222.259 87.1582 226.566 89.1292 230.034 91.7206C231.786 93.0346 233.83 94.531 234.888 95.7355C236.567 97.597 239.925 103.765 240.618 105.481C241.312 107.16 241.129 109.569 242.918 109.788C245.144 110.043 245.582 108.036 245.217 105.773C244.889 103.765 243.721 102.743 242.918 101.21C242.005 99.4949 241.458 97.962 240.618 96.648C239.706 95.2245 239.122 93.8011 238.027 92.6331C237.041 91.5746 235.143 90.6256 233.757 89.4942C229.742 86.2822 225.362 83.3988 218.865 82.6323C216.675 82.3769 212.733 81.5374 212.551 84.3478C212.405 87.0852 214.339 86.2093 217.441 86.5743Z" fill="#36D9FF"/>
<path d="M201.419 140.665C205.325 142.271 213.208 143.694 219.45 142.672C220.764 142.453 222.37 141.358 224.012 140.665C225.655 139.971 227.516 139.606 228.575 138.949C233.465 135.956 238.356 128.62 238.32 120.627C238.283 115.845 236.385 111.429 234.597 107.451C231.129 99.7858 225.691 93.2525 215.69 92.0115C201.93 90.2595 191.309 97.6323 188.243 108.035C186.783 112.925 186.455 121.174 188.243 126.613C189.849 131.54 196.127 138.511 201.419 140.665ZM197.952 100.589C201.456 97.8148 208.756 95.4424 214.559 96.0264C223.757 96.9389 228.137 103.874 231.166 110.918C232.261 113.473 233.502 116.174 233.757 118.072C234.779 125.846 231.458 130.336 227.735 133.803C225.728 135.701 224.742 136.212 221.165 136.394C220.362 137.161 219.705 138.073 218.318 138.402C214.449 139.278 206.566 138.037 203.719 136.978C199.339 135.372 194.813 130.518 193.134 126.978C189.046 118.291 192.733 104.713 197.952 100.589Z" fill="#36D9FF"/>
<path d="M203.426 131.504C205.944 132.599 210.616 133.183 213.171 132.635C215.872 132.051 219.814 128.365 221.164 124.605C223.354 118.62 222.114 109.166 218.026 105.991C216.383 104.713 214.412 104.312 212.295 103.983C203.791 102.633 196.528 107.524 195.433 114.276C194.338 120.81 198.426 129.314 203.426 131.504ZM208.572 108.619C212.149 108.254 213.792 109.86 215.142 112.05C217.734 116.138 218.208 122.525 214.558 125.773C214.887 117.16 211.127 112.634 205.105 110.334C206.017 109.02 207.404 108.728 208.572 108.619Z" fill="white"/>
<path d="M151.635 128.657C151.891 128.146 152.438 127.927 152.219 126.942C150.467 124.825 148.496 129.022 151.635 128.657Z" fill="#36D9FF"/>
<path d="M157.912 128.367C157.437 128.367 156.963 128.367 156.488 128.367C155.43 130.849 153.641 132.6 153.057 135.52C155.868 137.053 158.678 130.593 157.912 128.367Z" fill="#36D9FF"/>
<path d="M156.197 141.542C156.891 140.119 157.876 138.184 158.789 136.396C159.957 134.133 162.913 130.957 159.628 130.081C158.278 132.198 156.818 134.534 155.613 136.943C154.482 139.243 152.839 141.798 153.314 144.681C155.248 145.375 155.504 142.929 156.197 141.542Z" fill="#36D9FF"/>
<path d="M162.767 138.149C164.081 135.959 166.161 133.076 165.358 133.076C165.176 133.076 164.993 133.076 164.774 133.076C163.022 133.076 161.745 134.864 160.759 136.434C158.752 139.573 157.365 143.077 155.613 146.69C154.774 148.369 153.131 150.011 153.898 151.982C156.38 152.493 156.817 149.865 157.62 148.223C159.226 144.829 160.577 141.799 162.767 138.149Z" fill="#36D9FF"/>
<path d="M169.666 134.718C169.885 133.952 169.082 133.076 169.082 133.076C168.79 133.076 168.498 133.076 168.206 133.076C164.009 140.376 161.235 145.705 158.169 152.457C157.293 154.391 155.249 157.275 157.037 159.282C159.118 159.027 158.789 157.275 159.337 155.961C160.833 152.384 162.403 148.186 164.191 144.61C165.979 141.106 168.753 138.076 169.666 134.718Z" fill="#36D9FF"/>
<path d="M175.65 137.709C175.687 137.198 175.286 136.76 175.359 136.76C175.176 136.76 174.994 136.76 174.775 136.76C173.205 136.76 172.402 138.366 171.636 139.425C166.781 146.068 163.825 153.879 161.051 163.076C160.649 164.354 159.737 166.069 160.759 167.31C163.46 167.493 163.715 162.857 164.482 160.12C165.248 157.346 166.343 154.39 167.329 151.908C169.555 146.36 172.913 142.016 175.65 137.709Z" fill="#36D9FF"/>
<path d="M175.943 146.102C177.002 143.474 178.754 141.175 178.79 138.364C178.206 138.182 177.987 137.671 177.075 137.78C172.804 145.701 170.286 156.213 167.329 165.52C166.855 167.016 166.308 168.805 165.906 170.374C165.578 171.761 164.629 173.769 166.198 174.937C168.388 174.645 167.841 172.272 168.206 170.922C169.665 165.52 171.855 160.081 173.352 154.315C174.082 151.577 174.921 148.73 175.943 146.102Z" fill="#36D9FF"/>
<path d="M183.936 142.674C183.717 142.418 183.169 142.491 183.06 142.09C182.585 142.017 182.585 142.345 182.22 142.382C176.052 150.667 172.584 163.369 169.92 175.559C169.628 176.946 168.606 179.246 170.212 180.414C172.183 180.122 172.183 177.421 172.511 176.107C174.482 167.785 176.198 158.441 179.665 151.214C181.052 148.331 183.717 145.958 183.936 142.674Z" fill="#36D9FF"/>
<path d="M184.227 157.529C185.724 154.135 187.22 151.288 188.242 148.186C188.315 147.711 187.987 147.675 187.95 147.675C187.768 147.675 187.585 147.675 187.366 147.675C185.687 147.675 184.884 149.901 184.227 151.324C179.921 160.449 175.65 171.253 173.935 183.188C173.716 184.867 173.059 187.349 174.519 188.809C176.855 188.298 176.344 185.378 176.526 183.918C177.84 174.173 180.797 165.45 184.227 157.529Z" fill="#36D9FF"/>
<path d="M188.827 162.71C190.469 159.242 192.148 156.103 193.389 152.709C193.28 152.344 192.878 152.271 192.805 151.869C190.798 151.431 190.214 154.242 189.082 156.432C186.637 161.25 183.972 166.871 182.221 171.871C180.213 177.638 178.607 183.076 177.074 189.025C176.636 190.668 175.541 193.332 177.074 194.756C179.118 194.172 179.228 191.434 179.666 189.901C181.162 184.281 182.293 178.368 184.228 172.747C185.432 169.279 187.257 165.958 188.827 162.71Z" fill="#36D9FF"/>
<path d="M195.105 162.931C195.178 162.493 194.85 162.31 194.813 162.31C194.631 162.31 194.412 162.31 194.229 162.31C191.821 162.31 190.616 166.289 189.667 168.953C187.696 174.428 186.419 180.158 184.813 186.29C184.448 187.714 183.9 189.247 183.681 190.816C183.499 192.13 182.659 194.101 184.265 195.086C186.236 194.867 185.725 192.495 185.981 191.364C187.477 184.575 189.813 176.91 192.003 170.596C192.952 167.639 194.047 165.449 195.105 162.931Z" fill="#36D9FF"/>
<path d="M201.966 163.917C202.185 163.151 201.382 162.275 201.382 162.275C201.2 162.275 201.017 162.275 200.798 162.275C198.535 165.925 197.294 168.261 195.944 171.363C192.476 179.101 190.213 187.897 188.79 198.227C188.571 199.76 187.33 202.205 189.082 203.482C191.272 203.117 190.907 200.344 191.089 198.957C191.892 193.409 192.951 187.751 194.52 182.714C196.674 175.853 199.338 169.648 201.966 163.917Z" fill="#36D9FF"/>
<path d="M204.558 170.703C201.674 169.316 200.214 174.937 198.828 178.149C196.127 184.353 195.032 190.412 193.389 197.603C193.134 198.807 192.477 201.07 192.258 202.749C192.039 204.391 191.345 206.727 194.265 206.18C195.068 205.559 194.74 204.647 194.557 203.588C197.331 192.274 198.973 179.791 204.85 171.542C204.923 171.104 204.558 171.068 204.558 170.703Z" fill="#36D9FF"/>
<path d="M209.121 179.281C208.975 178.552 209.048 178.369 207.989 178.15C206.42 178.698 206.31 180.668 205.69 182.165C202.843 189.173 200.288 196.473 198.828 205.634C198.354 208.627 196.456 212.788 199.12 215.087C200.836 214.43 200.434 211.985 200.544 210.78C201.383 202.349 203.245 195.086 205.982 187.603C206.858 185.158 209.486 181.289 209.121 179.281Z" fill="#36D9FF"/>
<path d="M260.912 190.741C258.978 190.267 258.649 188.077 257.189 188.442C255.912 188.916 256.751 190.522 256.313 191.289C253.685 190.997 251.24 191.69 249.159 191.289C247.334 190.924 246.386 189.026 244.853 189.865C243.575 195.048 255.802 194.866 258.576 192.457C263.54 194.099 272.373 193.406 272.008 187.018C277.337 187.931 282.082 183.003 278.286 179.281C277.3 179.062 277.081 179.609 276.57 179.865C276.205 181.288 277.264 181.252 277.154 182.419C276.534 185.595 271.059 183.843 268.577 184.427C268.358 186.507 269.781 186.617 269.453 188.15C269.088 190.084 264.27 191.544 260.912 190.741Z" fill="#36D9FF"/>
<path d="M234.304 184.175C233.1 183.919 232.698 184.467 232.297 185.014C232.735 186.584 234.778 187.788 236.311 188.737C237.735 189.613 239.742 191.037 241.166 190.161C241.166 186.985 236.165 186.438 234.304 184.175Z" fill="#36D9FF"/>
<path d="M215.691 185.888C215.764 185.413 215.435 185.413 215.399 185.048C212.771 183.588 211.639 188.333 210.544 191.326C208.573 196.692 207.369 201.4 206.237 207.641C205.763 210.342 203.974 214.357 207.113 215.379C208.537 214.467 207.807 212.459 207.953 211.072C209.157 201.838 212.077 192.786 215.691 185.888Z" fill="#36D9FF"/>
<path d="M219.158 193.042C217.041 194.283 216.676 197.203 215.727 199.612C213.537 205.232 210.946 211.912 210.581 219.358C210.508 220.562 210.07 222.496 211.457 223.372C213.282 223.482 213.026 221.11 213.172 220.234C213.939 215.927 214.194 212.678 215.472 208.225C216.056 206.181 216.822 203.626 217.771 201.072C218.684 198.371 221.567 194.064 219.158 193.042Z" fill="#36D9FF"/>
<path d="M223.721 199.028C224.232 198.079 225.327 197.13 225.144 195.889C222.334 193.991 221.239 198.444 219.998 201.62C218.1 206.364 217.407 211.401 216.567 217.351C216.166 220.052 214.523 223.373 216.859 224.796C218.83 224.796 218.137 222.424 218.283 221.365C219.487 213.664 220.473 205.123 223.721 199.028Z" fill="#36D9FF"/>
<path d="M226.312 212.753C227.407 208.92 229.889 206.073 228.612 202.423C228.32 202.423 228.028 202.423 227.736 202.423C224.633 209.723 221.823 216.512 222.006 226.768C222.042 228.155 221.458 230.199 222.845 230.929C225.509 230.017 224.049 226.002 224.268 222.972C224.524 219.797 225.363 216.074 226.312 212.753Z" fill="#36D9FF"/>
<path d="M233.721 207.131C233.32 206.839 233.137 206.073 232.845 206.073C232.553 206.073 232.261 206.073 231.969 206.073C229.925 209.723 228.101 219.468 227.663 226.585C227.553 228.593 226.896 234.141 229.67 233.703C231.203 233.411 230.254 231.367 230.254 230.308C230.254 221.767 231.969 214.03 233.721 207.131Z" fill="#36D9FF"/>
<path d="M236.021 210.195C234.05 214.392 232.116 221.656 231.714 228.226C231.532 231.218 231.167 235.197 233.43 236.219C235.255 236.109 234.269 233.919 234.269 232.788C234.306 227.35 234.415 222.678 235.693 218.188C236.496 215.378 237.919 212.859 237.7 210.451C237.007 210.122 236.897 209.83 236.021 210.195Z" fill="#36D9FF"/>
<path d="M242.59 213.374C242.006 213.374 241.459 213.374 240.875 213.374C239.524 217.024 238.32 224.506 238.028 229.798C237.846 232.974 236.86 238.704 240.875 238.741C239.999 231.368 241.167 221.367 242.882 214.761C242.736 214.542 242.59 213.374 242.59 213.374Z" fill="#36D9FF"/>
<path d="M246.314 217.641C244.818 218.554 245.182 221.109 244.89 223.08C244.343 226.73 244.015 230.525 244.015 235.38C244.015 237.205 243.248 240.088 245.146 240.818C247.007 240.271 246.277 237.752 246.277 236.256C246.35 229.832 247.117 223.591 247.701 217.933C247.336 217.933 246.569 216.838 246.314 217.641Z" fill="#36D9FF"/>
<path d="M254.89 221.912C254.306 221.766 253.978 221.109 253.467 221.62C252.262 221.912 252.518 223.737 252.335 225.051C251.897 227.825 251.715 231.438 251.751 235.344C251.751 237.242 251.167 240.198 253.467 240.198C254.854 238.227 253.795 234.395 254.051 230.745C254.27 227.679 255.146 224.686 254.89 221.912Z" fill="#36D9FF"/>
<path d="M296.974 235.272C296.499 235.272 296.025 235.272 295.55 235.272C294.382 235.272 294.93 243.338 298.142 243.886C299.602 242.754 297.85 241.331 297.558 239.725C297.266 238.046 298.032 235.272 296.974 235.272Z" fill="#36D9FF"/>
<path d="M301.828 234.214C301.353 234.214 300.879 234.214 300.404 234.214C299.638 236.441 299.93 241.186 302.996 241.368C304.237 240.31 302.886 238.485 302.412 237.353C302.412 236.112 302.594 234.725 301.828 234.214Z" fill="#36D9FF"/>
<path d="M304.966 234.506C303.798 236.258 304.492 240.31 307.266 239.945C307.631 238.12 307.375 234.543 304.966 234.506Z" fill="#36D9FF"/>
<path fill-rule="evenodd" clip-rule="evenodd" d="M277.337 70.3317C273.468 67.6307 269.818 73.9816 273.65 76.646C286.534 85.5518 291.024 102.378 291.316 117.306C291.389 122.014 298.689 122.014 298.616 117.306C298.287 99.5674 292.447 80.8069 277.337 70.3317Z" fill="white"/>
<path fill-rule="evenodd" clip-rule="evenodd" d="M288.287 36.2397C284.491 33.4658 280.841 39.8166 284.601 42.554C311.646 62.227 316.537 97.2296 319.275 128.217C319.676 132.853 327.013 132.926 326.575 128.217C323.545 94.2002 317.705 57.6646 288.287 36.2397Z" fill="white"/>
</svg>
