<svg xmlns="http://www.w3.org/2000/svg" width="51" height="50" viewBox="0 0 51 50" fill="none">
    <path d="M5.89795 5.49219H46.0011V44.5016H5.89795V5.49219Z" fill="#0C0824"/>
    <path fill-rule="evenodd" clip-rule="evenodd" d="M27.6664 33.0829L21.5173 13.0938H17.2673C17.2673 13.5369 17.2378 14.0204 17.1812 14.2135C17.1235 14.4079 17.0952 14.5868 17.0952 14.7526L11.6636 33.0829H14.8772L16.407 27.4429H22.4286L24.1125 33.0829H27.6664ZM21.7404 24.4569H17.2673C17.5596 23.308 17.8747 22.1623 18.1734 21.0762C18.7291 19.0556 19.2281 17.2413 19.4178 15.9967L21.7404 24.4569Z" fill="#AC73D1"/>
    <path fill-rule="evenodd" clip-rule="evenodd" d="M40.2351 24.0422C40.2351 22.7151 39.8332 21.3881 39.0308 20.061C38.2271 18.7339 36.7942 18.0703 34.7297 18.0703C32.7217 18.0703 31.1598 18.8311 30.0416 20.3513C27.9321 23.0335 27.7121 28.1001 29.9556 31.0508C31.016 32.5723 32.7795 33.3318 35.2459 33.3318C36.5965 33.3285 37.8844 33.1715 39.0308 32.6682C39.1646 32.5354 39.1991 32.4723 39.2028 32.2535V30.014C39.199 29.8587 39.1107 29.8523 38.9448 29.8483C37.2663 30.6392 34.8265 30.611 33.5922 29.9248C32.4437 29.2863 31.7685 27.9518 31.805 26.3647H36.7082C37.5684 26.3647 38.2566 26.3516 38.7727 26.3232C39.2889 26.2959 39.6611 26.2545 39.8909 26.1987C39.9475 26.1987 39.9905 26.1857 40.02 26.1573L40.1491 26.0328C40.1491 25.867 40.1625 25.6051 40.1921 25.2448C40.2203 24.8859 40.2351 24.4854 40.2351 24.0422ZM37.0534 23.8763C37.0643 23.1402 36.9425 22.4285 36.5792 21.7613C36.2633 21.0705 35.6181 20.7245 34.6436 20.7245C32.9682 20.6881 32.1237 21.896 31.805 23.8763H37.0534Z" fill="#AC73D1"/>
    <path d="M5.89815 5.4953H46.0013V44.5047H5.89815V5.4953ZM4.07471 46.3281H47.8247V3.67188H4.07471V46.3281Z" fill="#AC73D1"/>
</svg>