<svg xmlns="http://www.w3.org/2000/svg" width="50" height="50" viewBox="0 0 50 50" fill="none">
    <g clip-path="url(#clip0_604_18381)">
        <mask id="mask0_604_18381" style="mask-type:luminance" maskUnits="userSpaceOnUse" x="0" y="0" width="50" height="50">
            <path d="M50 0H0V50H50V0Z" fill="white"/>
        </mask>
        <g mask="url(#mask0_604_18381)">
            <path d="M33.3333 33.3307C37.9357 33.3307 41.6667 29.5998 41.6667 24.9974C41.6667 20.395 37.9357 16.6641 33.3333 16.6641C28.731 16.6641 25 20.395 25 24.9974C25 29.5998 28.731 33.3307 33.3333 33.3307Z" fill="#19BCFE"/>
            <path fill-rule="evenodd" clip-rule="evenodd" d="M16.6663 50.0026C18.8765 50.0026 20.9961 49.1246 22.5589 47.5618C24.1217 45.999 24.9997 43.8794 24.9997 41.6693V33.3359H16.6663C14.4562 33.3359 12.3366 34.2139 10.7738 35.7767C9.21098 37.3395 8.33301 39.4591 8.33301 41.6693C8.33301 43.8794 9.21098 45.999 10.7738 47.5618C12.3366 49.1246 14.4562 50.0026 16.6663 50.0026Z" fill="#09CF83"/>
            <path fill-rule="evenodd" clip-rule="evenodd" d="M16.6663 33.3307H24.9997V16.6641H16.6663C14.4562 16.6641 12.3366 17.542 10.7738 19.1048C9.21098 20.6676 8.33301 22.7873 8.33301 24.9974C8.33301 27.2075 9.21098 29.3272 10.7738 30.89C12.3366 32.4528 14.4562 33.3307 16.6663 33.3307Z" fill="#A259FF"/>
            <path fill-rule="evenodd" clip-rule="evenodd" d="M16.6663 16.6667H24.9997V0H16.6663C14.4562 0 12.3366 0.877974 10.7738 2.44078C9.21098 4.00358 8.33301 6.1232 8.33301 8.33333C8.33301 10.5435 9.21098 12.6631 10.7738 14.2259C12.3366 15.7887 14.4562 16.6667 16.6663 16.6667Z" fill="#F24E1E"/>
            <path fill-rule="evenodd" clip-rule="evenodd" d="M33.3333 16.6667H25V0H33.3333C35.5435 0 37.6631 0.877974 39.2259 2.44078C40.7887 4.00358 41.6667 6.1232 41.6667 8.33333C41.6667 10.5435 40.7887 12.6631 39.2259 14.2259C37.6631 15.7887 35.5435 16.6667 33.3333 16.6667Z" fill="#FF7262"/>
        </g>
    </g>
    <defs>
        <clipPath id="clip0_604_18381">
            <rect width="50" height="50" fill="white"/>
        </clipPath>
    </defs>
</svg>