<svg xmlns="http://www.w3.org/2000/svg" width="50" height="50" viewBox="0 0 50 50" fill="none">
    <path d="M4.95117 5.49219H45.0543V44.5016H4.95117V5.49219Z" fill="#1C0A00"/>
    <path d="M4.95156 5.4953H45.0547V44.5047H4.95156V5.4953ZM3.125 46.3281H46.875V3.67188H3.125V46.3281ZM31.7813 18.875C31.7813 18.7297 31.8359 18.6563 32 18.6563H34.8625C35.0078 18.6563 35.0812 18.7109 35.0812 18.875V33.2578C35.0812 33.4031 35.0453 33.4766 34.8625 33.4766H32.0391C31.8562 33.4766 31.8016 33.3859 31.8016 33.2391V18.875H31.7828H31.7813ZM31.5812 14.7375C31.5812 14.2444 31.7771 13.7714 32.1258 13.4227C32.4745 13.074 32.9475 12.8781 33.4406 12.8781C33.9338 12.8781 34.4067 13.074 34.7554 13.4227C35.1041 13.7714 35.3 14.2444 35.3 14.7375C35.318 14.9894 35.2811 15.2422 35.1917 15.4784C35.1023 15.7147 34.9626 15.9286 34.7823 16.1055C34.602 16.2823 34.3854 16.4179 34.1476 16.5028C33.9097 16.5876 33.6562 16.6197 33.4047 16.5969C33.1583 16.6123 32.9114 16.5745 32.6809 16.486C32.4504 16.3975 32.2416 16.2603 32.0689 16.0839C31.8962 15.9074 31.7635 15.6958 31.6799 15.4635C31.5963 15.2312 31.5637 14.9836 31.5844 14.7375H31.5812ZM23.3781 24.8734C22.8672 22.8422 21.6594 18.4391 21.2094 16.3063H21.1734C20.7906 18.4391 19.825 22.0484 19.0594 24.8734H23.3781ZM18.3109 27.8266L16.8703 33.2953C16.8344 33.4406 16.7797 33.4781 16.5969 33.4781H13.9203C13.7375 33.4781 13.7016 33.4234 13.7375 33.2047L18.9141 15.0797C19.0401 14.5855 19.1015 14.0771 19.0969 13.5672C19.0969 13.4391 19.1516 13.3844 19.2422 13.3844H23.0703C23.1984 13.3844 23.2531 13.4203 23.2891 13.5672L29.0859 33.2359C29.1219 33.3813 29.0859 33.4734 28.9406 33.4734H25.9141C25.7687 33.4734 25.6766 33.4375 25.6406 33.3172L24.1453 27.8297H18.3125L18.3109 27.8266Z" fill="#FF7F18"/>
</svg>