<svg xmlns="http://www.w3.org/2000/svg" width="50" height="50" viewBox="0 0 50 50" fill="none">
    <g clip-path="url(#clip0_604_18341)">
        <mask id="mask0_604_18341" style="mask-type:luminance" maskUnits="userSpaceOnUse" x="0" y="0" width="50" height="50">
            <path d="M50 0H0V50H50V0Z" fill="white"/>
        </mask>
        <g mask="url(#mask0_604_18341)">
            <path d="M38.3721 50H13.757C12.5812 50 11.6279 48.9753 11.6279 47.7112V2.28875C11.6279 1.0247 12.5812 0 13.757 0H47.871C49.0468 0 50 1.0247 50 2.28875V12.5L38.3721 50Z" fill="#CA64EA"/>
            <path d="M50 24.9999L44.186 28.7499L38.3721 24.9999V12.5H50V24.9999Z" fill="#AE4BD5"/>
            <path d="M50 37.5L44.186 41.25L38.3721 37.5V25H50V37.5Z" fill="#9332BF"/>
            <path d="M38.3721 37.5H50V47.6563C50 48.9507 49.0238 50 47.8197 50H38.3721V37.5Z" fill="#7719AA"/>
            <path opacity="0.2" d="M25.7756 10H11.6279V41.25H25.7756C26.9512 41.2459 27.9032 40.2225 27.907 38.9588V12.2912C27.9032 11.0275 26.9511 10.0041 25.7756 10Z" fill="black"/>
            <path opacity="0.2" d="M24.6128 11.25H11.6279V42.5H24.6128C25.7884 42.4959 26.7404 41.4725 26.7442 40.2088V13.5413C26.7404 12.2775 25.7884 11.2541 24.6128 11.25Z" fill="black"/>
            <path opacity="0.5" d="M24.6128 11.25H11.6279V40H24.6128C25.7884 39.9959 26.7404 38.9725 26.7442 37.7088V13.5413C26.7404 12.2775 25.7884 11.2541 24.6128 11.25Z" fill="black"/>
            <path opacity="0.5" d="M23.45 11.25H11.6279V40H23.45C24.6256 39.9959 25.5776 38.9725 25.5814 37.7088V13.5413C25.5776 12.2775 24.6256 11.2541 23.45 11.25Z" fill="black"/>
            <path d="M2.1314 11.25H23.45C24.6271 11.25 25.5814 12.2758 25.5814 13.5413V36.4588C25.5814 37.7242 24.6271 38.75 23.45 38.75H2.1314C0.954266 38.75 0 37.7242 0 36.4588V13.5413C0 12.2758 0.954266 11.25 2.1314 11.25Z" fill="url(#paint0_linear_604_18341)"/>
            <path d="M7.00684 17.5547H9.89638L15.5743 27.4297C15.8324 27.8722 16.0262 28.2285 16.1557 28.4985H16.1929C16.1227 27.8263 16.0947 27.1497 16.1092 26.4735V17.5547H18.5743V32.4498H15.8696L9.97892 22.301C9.7794 21.9661 9.60371 21.6155 9.45333 21.2522H9.40683C9.46621 21.9912 9.49066 22.733 9.48007 23.4747V32.4498H7.00684V17.5547Z" fill="white"/>
        </g>
    </g>
    <defs>
        <linearGradient id="paint0_linear_604_18341" x1="4.44401" y1="9.45966" x2="23.0128" y2="39.3763" gradientUnits="userSpaceOnUse">
            <stop stop-color="#8324B3"/>
            <stop offset="0.5" stop-color="#7A1BAC"/>
            <stop offset="1" stop-color="#621197"/>
        </linearGradient>
        <clipPath id="clip0_604_18341">
            <rect width="50" height="50" fill="white"/>
        </clipPath>
    </defs>
</svg>