<svg xmlns="http://www.w3.org/2000/svg" width="50" height="50" viewBox="0 0 50 50" fill="none">
    <g clip-path="url(#clip0_604_18363)">
        <path d="M25 50C38.8071 50 50 38.8071 50 25C50 11.1929 38.8071 0 25 0C11.1929 0 0 11.1929 0 25C0 38.8071 11.1929 50 25 50Z" fill="#4353FF"/>
        <path d="M32.3438 22.0312L30.0781 29.1719C30.0781 28.625 28.5156 16.7812 28.5156 16.7812C24.9219 16.7812 23.0156 19.3282 22.0156 22.0312L19.25 29.1875C19.25 28.6719 18.8594 22.0938 18.8594 22.0938C18.726 20.6697 18.075 19.3442 17.0297 18.368C15.9843 17.3918 14.6173 16.8327 13.1875 16.7969L16.125 34.7345C19.875 34.7345 21.9063 32.1875 22.9531 29.4844L25.2969 23.3906C25.2969 23.6406 26.8594 34.7345 26.8594 34.7345C28.3928 34.7325 29.8858 34.2423 31.1219 33.3349C32.358 32.4274 33.273 31.15 33.7344 29.6875L39.0469 16.7812C35.2969 16.7812 33.3281 19.3282 32.3281 22.0312H32.3438Z" fill="white"/>
    </g>
    <defs>
        <clipPath id="clip0_604_18363">
            <rect width="50" height="50" fill="white"/>
        </clipPath>
    </defs>
</svg>