<svg width="82" height="28" viewBox="0 0 82 28" fill="none" xmlns="http://www.w3.org/2000/svg">
<path d="M0.443817 7.76791C0.443817 5.5929 1.01994 3.87101 2.17218 2.60225C3.33736 1.32055 4.99452 0.679693 7.14364 0.679693C8.2182 0.679693 9.30571 0.91273 10.4062 1.3788L9.64879 4.29177C8.57423 3.90338 7.75213 3.70918 7.18248 3.70918C6.08203 3.70918 5.27287 4.04579 4.75501 4.71901C4.25009 5.39223 3.99764 6.40205 3.99764 7.74849C3.99764 9.08198 4.24362 10.0789 4.73559 10.7391C5.2405 11.3865 6.03024 11.7101 7.1048 11.7101C8.01106 11.7101 8.93674 11.4512 9.88183 10.9333L10.5421 13.8851C9.50638 14.4548 8.30883 14.7396 6.94944 14.7396C4.89095 14.7396 3.29205 14.1117 2.15276 12.8559C1.01346 11.6001 0.443817 9.90409 0.443817 7.76791Z" fill="#073742"/>
<path d="M20.0467 13.322C19.1405 14.2671 17.917 14.7396 16.3764 14.7396C14.8357 14.7396 13.6058 14.2671 12.6866 13.322C11.7804 12.3639 11.3272 11.0887 11.3272 9.49627C11.3272 7.9168 11.7804 6.65451 12.6866 5.70942C13.6058 4.75137 14.8357 4.27235 16.3764 4.27235C17.917 4.27235 19.1405 4.75137 20.0467 5.70942C20.953 6.65451 21.4061 7.9168 21.4061 9.49627C21.4061 11.0887 20.953 12.3639 20.0467 13.322ZM15.1335 11.3606C15.4313 11.8008 15.8456 12.0208 16.3764 12.0208C16.9072 12.0208 17.315 11.8008 17.5998 11.3606C17.8976 10.9074 18.0465 10.286 18.0465 9.49627C18.0465 8.70654 17.8976 8.09158 17.5998 7.65139C17.3021 7.21121 16.8942 6.99112 16.3764 6.99112C15.8456 6.99112 15.4313 7.21121 15.1335 7.65139C14.8357 8.09158 14.6869 8.70654 14.6869 9.49627C14.6869 10.286 14.8357 10.9074 15.1335 11.3606Z" fill="#073742"/>
<path d="M33.3707 4.27235C34.8077 4.27235 35.9211 4.63485 36.7109 5.35986C37.5136 6.07192 37.9149 7.10764 37.9149 8.46702V14.5066H34.6135V8.70006C34.6135 8.07863 34.5035 7.63845 34.2834 7.37952C34.0633 7.12059 33.7008 6.99112 33.1959 6.99112C32.7039 6.99112 32.2637 7.08822 31.8753 7.28242C32.0178 7.85207 32.089 8.47997 32.089 9.16614V14.5066H28.8847V8.70006C28.8847 8.09158 28.7682 7.65787 28.5351 7.39894C28.315 7.12706 27.9525 6.99112 27.4476 6.99112C27.111 6.99112 26.7485 7.05585 26.3601 7.18532V14.5066H23.0588V5.06856C24.4311 4.53776 25.9523 4.27235 27.6224 4.27235C28.7488 4.27235 29.655 4.51186 30.3412 4.99088C31.3898 4.51186 32.3997 4.27235 33.3707 4.27235Z" fill="#073742"/>
<path d="M50.2682 4.27235C51.7052 4.27235 52.8186 4.63485 53.6084 5.35986C54.411 6.07192 54.8124 7.10764 54.8124 8.46702V14.5066H51.511V8.70006C51.511 8.07863 51.401 7.63845 51.1809 7.37952C50.9608 7.12059 50.5983 6.99112 50.0934 6.99112C49.6014 6.99112 49.1612 7.08822 48.7728 7.28242C48.9152 7.85207 48.9864 8.47997 48.9864 9.16614V14.5066H45.7822V8.70006C45.7822 8.09158 45.6657 7.65787 45.4326 7.39894C45.2125 7.12706 44.85 6.99112 44.3451 6.99112C44.0085 6.99112 43.646 7.05585 43.2576 7.18532V14.5066H39.9562V5.06856C41.3286 4.53776 42.8498 4.27235 44.5199 4.27235C45.6462 4.27235 46.5525 4.51186 47.2387 4.99088C48.2873 4.51186 49.2972 4.27235 50.2682 4.27235Z" fill="#073742"/>
<path d="M64.6605 14.5066L61.4951 9.55453C61.1455 9.77462 60.7765 9.98824 60.3881 10.1954V14.5066H56.9508V0.91273H60.3881V6.73866C62.5243 5.27571 63.8513 3.33373 64.3692 0.91273H67.8065C67.2239 3.52793 65.9551 5.76768 64.0002 7.63198L68.5639 14.5066H64.6605Z" fill="#073742"/>
<path d="M69.8888 3.06833C69.5651 2.74466 69.4033 2.31095 69.4033 1.7672C69.4033 1.22345 69.5651 0.796211 69.8888 0.485494C70.2254 0.161831 70.685 0 71.2676 0C71.8502 0 72.3033 0.161831 72.627 0.485494C72.9507 0.796211 73.1125 1.22345 73.1125 1.7672C73.1125 2.31095 72.9507 2.74466 72.627 3.06833C72.3033 3.39199 71.8502 3.55382 71.2676 3.55382C70.685 3.55382 70.2254 3.39199 69.8888 3.06833ZM72.9183 14.5066H69.6169V4.50539H72.9183V14.5066Z" fill="#073742"/>
<path d="M80.8857 11.9432L81.0605 14.5843C80.5426 14.6878 79.9341 14.7396 79.235 14.7396C76.7105 14.7396 75.4482 13.3479 75.4482 10.5644V7.12706H74.1859V4.50539H75.4482V2.42747L78.7495 2.27211V4.50539H80.6721V7.12706H78.7495V10.5255C78.7495 11.5224 79.1444 12.0208 79.9341 12.0208C80.3096 12.0208 80.6268 11.995 80.8857 11.9432Z" fill="#073742"/>
<path d="M76.9249 28.0002L70.1153 21.0245H57.8637V15.6301H59.2789V19.6093H70.7101L75.506 24.5236V19.6093H77.9596V15.6301H79.3748V21.0245H76.9265L76.9249 28.0002Z" fill="#073742"/>
</svg>
