<svg width="80" height="24" viewBox="0 0 80 24" fill="none" xmlns="http://www.w3.org/2000/svg">
<path d="M24.1701 8.22895C24.1685 8.05382 24.2018 7.88014 24.2681 7.71804C24.3344 7.55594 24.4323 7.40867 24.5561 7.28483C24.68 7.161 24.8272 7.06307 24.9893 6.99679C25.1514 6.9305 25.3251 6.89718 25.5003 6.89876H25.7924C26.0377 6.89501 26.2795 6.95717 26.4926 7.07875C26.7057 7.20034 26.8823 7.37689 27.0038 7.58998L30.2153 12.8157L33.4481 7.56385C33.5641 7.35242 33.7366 7.17738 33.9463 7.05827C34.1561 6.93915 34.3947 6.88064 34.6358 6.88926H34.9279C35.1031 6.88768 35.2767 6.921 35.4388 6.98729C35.6009 7.05357 35.7482 7.15149 35.872 7.27533C35.9959 7.39917 36.0938 7.54643 36.1601 7.70854C36.2264 7.87064 36.2597 8.04432 36.2581 8.21945V17.8395C36.2657 18.0178 36.2371 18.1958 36.1741 18.3628C36.111 18.5298 36.0149 18.6823 35.8914 18.8111C35.7679 18.9399 35.6196 19.0425 35.4555 19.1125C35.2913 19.1825 35.1147 19.2186 34.9362 19.2186C34.7578 19.2186 34.5812 19.1825 34.417 19.1125C34.2529 19.0425 34.1046 18.9399 33.9811 18.8111C33.8576 18.6823 33.7615 18.5298 33.6984 18.3628C33.6354 18.1958 33.6068 18.0178 33.6144 17.8395V11.8062L31.2818 15.4001C31.1776 15.6036 31.0192 15.7744 30.8241 15.8937C30.629 16.013 30.4048 16.0761 30.1761 16.0761C29.9474 16.0761 29.7232 16.013 29.5281 15.8937C29.333 15.7744 29.1746 15.6036 29.0704 15.4001L26.7734 11.8585V17.8704C26.7734 18.2144 26.6368 18.5443 26.3936 18.7875C26.1503 19.0307 25.8205 19.1673 25.4765 19.1673C25.3059 19.1689 25.1366 19.1365 24.9787 19.0718C24.8207 19.0072 24.6773 18.9117 24.5567 18.7909C24.4362 18.6701 24.3409 18.5265 24.2766 18.3684C24.2122 18.2104 24.18 18.0411 24.1819 17.8704L24.1701 8.22895Z" fill="#073742"/>
<path d="M42.2416 19.2648C39.46 19.2648 37.403 17.3122 37.403 14.4785V14.4452C37.403 11.8015 39.2867 9.62329 41.9826 9.62329C45.0706 9.62329 46.4411 12.1649 46.4411 14.0818C46.4515 14.2473 46.4271 14.4131 46.3696 14.5686C46.312 14.7242 46.2224 14.8659 46.1068 14.9847C45.9911 15.1035 45.8518 15.1968 45.6979 15.2585C45.544 15.3202 45.3788 15.349 45.2131 15.3431H40.0135C40.2724 16.5307 41.1014 17.1578 42.2772 17.1578C42.9506 17.1633 43.6067 16.9443 44.1418 16.5355C44.324 16.3938 44.5501 16.3206 44.7808 16.3288C44.9167 16.3265 45.0516 16.3518 45.1774 16.4033C45.3032 16.4547 45.4172 16.5312 45.5125 16.6281C45.6078 16.7249 45.6824 16.8401 45.7318 16.9667C45.7812 17.0933 45.8043 17.2287 45.7998 17.3645C45.8013 17.5111 45.7714 17.6563 45.712 17.7903C45.6526 17.9243 45.5651 18.044 45.4554 18.1412C44.5573 18.8958 43.4141 19.2955 42.2416 19.2648ZM43.9352 13.7017C43.7784 12.5141 43.0872 11.7326 41.9826 11.7326C40.8781 11.7326 40.1845 12.5093 39.9779 13.7017H43.9352Z" fill="#073742"/>
<path d="M47.6834 8.22909C47.6818 8.05397 47.7152 7.88028 47.7815 7.71818C47.8477 7.55608 47.9457 7.40881 48.0695 7.28498C48.1933 7.16114 48.3406 7.06322 48.5027 6.99693C48.6648 6.93065 48.8385 6.89732 49.0136 6.89891H49.3082C49.5531 6.89533 49.7945 6.95758 50.0072 7.07917C50.2199 7.20076 50.396 7.37722 50.5172 7.59013L53.731 12.8159L56.9615 7.564C57.0779 7.35293 57.2505 7.17819 57.4601 7.05913C57.6697 6.94007 57.9082 6.88133 58.1491 6.88941H58.4437C58.6187 6.88814 58.7922 6.92169 58.9542 6.98809C59.1162 7.05449 59.2633 7.15242 59.3871 7.27619C59.5108 7.39996 59.6088 7.5471 59.6752 7.70906C59.7416 7.87102 59.7751 8.04456 59.7739 8.21959V17.8397C59.7814 18.018 59.7528 18.196 59.6898 18.3629C59.6268 18.5299 59.5306 18.6824 59.4071 18.8112C59.2836 18.9401 59.1354 19.0426 58.9712 19.1126C58.8071 19.1827 58.6304 19.2188 58.452 19.2188C58.2735 19.2188 58.0969 19.1827 57.9327 19.1126C57.7686 19.0426 57.6203 18.9401 57.4968 18.8112C57.3733 18.6824 57.2772 18.5299 57.2142 18.3629C57.1511 18.196 57.1226 18.018 57.1301 17.8397V11.8063L54.7975 15.4002C54.6933 15.6037 54.5349 15.7745 54.3398 15.8938C54.1447 16.0131 53.9205 16.0762 53.6918 16.0762C53.4632 16.0762 53.2389 16.0131 53.0438 15.8938C52.8487 15.7745 52.6903 15.6037 52.5861 15.4002L50.2868 11.8586V17.8706C50.2868 18.2141 50.1505 18.5436 49.9078 18.7868C49.6651 19.0299 49.3358 19.1669 48.9922 19.1675C48.8214 19.1694 48.6519 19.1371 48.4937 19.0726C48.3355 19.0081 48.1917 18.9127 48.0709 18.7919C47.9501 18.6711 47.8546 18.5273 47.7901 18.3691C47.7256 18.2109 47.6934 18.0414 47.6953 17.8706L47.6834 8.22909Z" fill="#073742"/>
<path d="M65.7549 19.2648C62.9734 19.2648 60.9188 17.3122 60.9188 14.4785V14.4452C60.9188 11.8015 62.8024 9.62329 65.496 9.62329C68.584 9.62329 69.9545 12.1649 69.9545 14.0818C69.9649 14.2473 69.9405 14.4131 69.8829 14.5686C69.8253 14.7242 69.7358 14.8659 69.6201 14.9847C69.5044 15.1035 69.3652 15.1968 69.2112 15.2585C69.0573 15.3202 68.8922 15.3491 68.7265 15.3431H63.5269C63.7858 16.5308 64.6148 17.1578 65.7906 17.1578C66.4647 17.1629 67.1214 16.944 67.6576 16.5355C67.8395 16.3934 68.0658 16.3202 68.2965 16.3288C68.4323 16.3269 68.5671 16.3524 68.6927 16.404C68.8184 16.4555 68.9322 16.532 69.0275 16.6288C69.1227 16.7256 69.1973 16.8407 69.2469 16.9671C69.2964 17.0936 69.3197 17.2288 69.3156 17.3645C69.3168 17.5113 69.2865 17.6566 69.2266 17.7906C69.1668 17.9246 69.0789 18.0442 68.9688 18.1412C68.0709 18.8962 66.9276 19.2959 65.7549 19.2648ZM67.4485 13.7065C67.2942 12.5188 66.6029 11.7373 65.496 11.7373C64.3891 11.7373 63.7003 12.5141 63.4936 13.7065H67.4485Z" fill="#073742"/>
<path d="M75.3109 19.2648C72.5294 19.2648 70.4724 17.3122 70.4724 14.4785V14.4452C70.4724 11.8015 72.356 9.62329 75.052 9.62329C78.1399 9.62329 79.5081 12.1649 79.5081 14.0818C79.5185 14.2471 79.4942 14.4127 79.4367 14.5681C79.3793 14.7234 79.29 14.865 79.1745 14.9838C79.0591 15.1026 78.9201 15.1959 78.7665 15.2578C78.6128 15.3196 78.448 15.3487 78.2824 15.3431H73.0805C73.3394 16.5307 74.1707 17.1578 75.3442 17.1578C76.0183 17.1633 76.6751 16.9444 77.2112 16.5355C77.3933 16.3938 77.6195 16.3206 77.8501 16.3288C77.9859 16.3269 78.1207 16.3524 78.2463 16.404C78.372 16.4555 78.4858 16.532 78.5811 16.6288C78.6763 16.7256 78.7509 16.8407 78.8005 16.9671C78.85 17.0936 78.8733 17.2288 78.8692 17.3645C78.8707 17.5111 78.8407 17.6563 78.7813 17.7903C78.7219 17.9243 78.6344 18.044 78.5247 18.1412C77.6267 18.8958 76.4835 19.2955 75.3109 19.2648ZM77.0021 13.7017C76.8478 12.5141 76.1565 11.7326 75.052 11.7326C73.9475 11.7326 73.2539 12.5093 73.0472 13.7017H77.0021Z" fill="#073742"/>
<path d="M17.3719 12.4026V22.8279L17.0916 23.0203L15.2839 21.7685L14.8683 21.4811V14.3219L17.3719 12.4026Z" fill="#073742"/>
<path d="M17.664 9.05559L17.2483 9.33588V9.34301L15.8208 10.3288L12.0606 12.9298V12.9416L12.0535 12.9345L9.82307 14.4785H9.82069L9.65442 14.3645V17.7018L9.82069 17.8158L17.0916 12.7872V23.0249L17.2483 22.9156L17.664 22.6306L19.5833 21.3028V7.72778L17.664 9.05559Z" fill="#073742"/>
<path d="M2.26715 12.4026V22.8279L2.54744 23.0203L4.35507 21.7685L4.77075 21.4811V14.3219L2.26715 12.4026Z" fill="#073742"/>
<path d="M12.061 12.9299V12.9424L12.0535 12.9349L12.061 12.9299Z" fill="#073742"/>
<path d="M7.4884 12.8633H7.48572" stroke="#073742" stroke-miterlimit="10"/>
<path d="M19.5833 7.72792L17.664 9.05573L15.8208 10.3289L12.0606 12.9299L12.0535 12.9346L9.82306 14.4786H9.82068L7.48811 12.8634L6.06054 11.8776L3.72796 10.2624H3.72559L2.30039 9.27663H2.29802L1.97972 9.05573L0.0604553 7.72792L2.29089 6.18395L9.82068 0.974854L12.0606 2.52357L4.53083 7.73267L5.9584 8.71843L12.0606 4.49747L13.4882 3.51171L15.8208 5.12456V5.12693L12.0606 7.72792L8.29097 10.3337L9.71854 11.3194L12.0606 9.69944L15.8208 7.09846L17.2483 6.11269L19.5833 7.72792Z" fill="#073742"/>
<path d="M12.0606 2.52368V4.49758L5.9584 8.71854L4.53082 7.73278L12.0606 2.52368Z" fill="#073742"/>
<path d="M15.8207 5.12695V7.09848L12.0606 9.69946L9.71853 11.3194L8.29095 10.3337L12.0606 7.72794L15.8207 5.12695Z" fill="#073742"/>
<path d="M9.82068 14.4785L7.48574 12.8632L6.06054 11.8775L3.72796 10.2623H3.72559L2.39303 9.34063V9.33588L1.97972 9.05559L0.0604553 7.72778V21.3028L1.97972 22.6306L2.39303 22.9156L2.55218 23.0249V12.7872L9.82068 17.8158V14.4785Z" fill="#073742"/>
</svg>
