<svg width="125" height="20" viewBox="0 0 125 20" fill="none" xmlns="http://www.w3.org/2000/svg">
<path d="M18.8314 13.5505C18.8314 17.4747 17.5637 19.3429 10.2251 19.3429C1.36904 19.3429 0.980258 16.2867 0.959999 12.9201C0.959999 12.7948 1.01011 12.6747 1.0993 12.5861C1.18849 12.4975 1.30947 12.4478 1.4356 12.4478H4.69345C4.817 12.4487 4.93542 12.4969 5.02402 12.5824C5.11263 12.6679 5.16459 12.7841 5.16906 12.9067C5.29254 15.3123 6.47625 15.7051 10.0959 15.7051C13.839 15.7051 14.4207 15.5135 14.4738 13.5495C14.5509 11.5338 12.9437 11.4112 8.85525 11.4744C3.17692 11.5597 1.35939 9.54296 1.35939 6.13038C1.35939 1.63616 3.32645 0.45584 9.46109 0.45584C17.0486 0.45584 18.1464 2.51278 18.213 6.86904C18.214 6.9318 18.2025 6.99413 18.1791 7.05243C18.1557 7.11073 18.1208 7.16383 18.0766 7.20866C18.0323 7.25348 17.9796 7.28914 17.9213 7.31356C17.8631 7.33799 17.8006 7.35069 17.7374 7.35094H14.4111C14.2865 7.34998 14.1673 7.30095 14.0785 7.21423C13.9898 7.12751 13.9384 7.0099 13.9354 6.88628C13.8679 4.35703 13.1502 4.13284 9.47363 4.13284C6.30743 4.13284 5.58871 4.38385 5.58871 6.16966C5.58871 8.21318 6.65665 7.94493 9.84022 8.03403C14.0377 8.15283 18.8314 8.12025 18.8314 13.5505ZM37.1745 0.571764H40.3147C40.4403 0.571761 40.5609 0.621129 40.65 0.709085C40.7391 0.797042 40.7895 0.916441 40.7903 1.04121V18.746C40.7905 18.8079 40.7784 18.8693 40.7545 18.9265C40.7307 18.9837 40.6956 19.0356 40.6513 19.0792C40.6071 19.1228 40.5545 19.1572 40.4967 19.1805C40.4389 19.2037 40.377 19.2153 40.3147 19.2145H37.1755C37.0501 19.2145 36.9299 19.165 36.8412 19.077C36.7526 18.989 36.7028 18.8695 36.7028 18.745V11.7321H26.8627V18.745C26.8628 18.807 26.8506 18.8683 26.8267 18.9255C26.8028 18.9827 26.7677 19.0346 26.7235 19.0783C26.6792 19.122 26.6267 19.1565 26.569 19.1798C26.5112 19.2032 26.4494 19.215 26.3871 19.2145H23.245C23.1826 19.2149 23.1209 19.203 23.0632 19.1796C23.0055 19.1562 22.953 19.1216 22.9088 19.078C22.8646 19.0344 22.8296 18.9825 22.8056 18.9254C22.7817 18.8682 22.7694 18.8069 22.7694 18.745V1.04121C22.7696 0.979309 22.7821 0.918064 22.8062 0.860972C22.8303 0.80388 22.8655 0.752058 22.9097 0.708466C22.954 0.664874 23.0065 0.630365 23.0641 0.60691C23.1218 0.583454 23.1836 0.571512 23.2459 0.571764H26.3861C26.5117 0.571761 26.6323 0.621129 26.7214 0.709085C26.8105 0.797042 26.8609 0.916441 26.8617 1.04121V8.06852H36.6854V1.04025C36.6854 0.977208 36.6981 0.914803 36.7229 0.856759C36.7477 0.798715 36.784 0.746221 36.8296 0.702409C36.8753 0.658598 36.9293 0.624365 36.9886 0.601755C37.0478 0.579144 37.1111 0.568619 37.1745 0.570806V0.571764ZM63.4814 19.2212H60.2515C60.1533 19.2207 60.0577 19.1903 59.9775 19.1341C59.8972 19.0779 59.8363 18.9986 59.8029 18.907L58.8044 16.1449H49.2007L48.2022 18.907C48.1693 18.999 48.1085 19.0786 48.0282 19.1348C47.9478 19.1911 47.8519 19.2213 47.7536 19.2212H44.5266C44.4506 19.221 44.3758 19.2027 44.3084 19.1678C44.2409 19.1329 44.183 19.0825 44.1393 19.0207C44.0956 18.9589 44.0675 18.8876 44.0574 18.8128C44.0472 18.738 44.0553 18.6619 44.0809 18.5908L50.4809 0.891753C50.5104 0.796943 50.5695 0.713879 50.6496 0.654493C50.7297 0.595107 50.8266 0.562454 50.9266 0.561225H57.1075C57.2074 0.562454 57.3044 0.595107 57.3845 0.654493C57.4646 0.713879 57.5236 0.796943 57.5532 0.891753L63.9406 18.5908C63.9677 18.6629 63.9764 18.7406 63.9659 18.8169C63.9555 18.8931 63.9263 18.9657 63.8809 19.028C63.8354 19.0904 63.7752 19.1407 63.7055 19.1744C63.6358 19.2081 63.5588 19.2241 63.4814 19.2212ZM57.4674 12.4449L54.5134 4.25835H53.485L50.531 12.4449H57.4674ZM124.444 1.31042V4.03416C124.444 4.09623 124.432 4.1577 124.408 4.21523C124.358 4.32973 124.266 4.42091 124.151 4.47008C124.093 4.49396 124.031 4.50633 123.968 4.50648H113.08V8.33486H123.968C124.094 8.33536 124.215 8.38528 124.304 8.47375C124.393 8.56222 124.443 8.68206 124.444 8.80717V11.53C124.444 11.6551 124.393 11.7751 124.304 11.8637C124.215 11.9522 124.094 12.002 123.968 12.0023H113.08V15.7751H123.968C124.094 15.7756 124.215 15.8255 124.304 15.914C124.393 16.0024 124.443 16.1223 124.444 16.2474V19.02C124.444 19.0818 124.431 19.143 124.407 19.2C124.383 19.2571 124.348 19.3088 124.304 19.3524C124.26 19.3959 124.207 19.4303 124.15 19.4537C124.092 19.477 124.03 19.4889 123.968 19.4885H109.464C109.338 19.488 109.217 19.4381 109.128 19.3496C109.039 19.2611 108.989 19.1413 108.988 19.0162V1.31138C108.988 1.18619 109.039 1.0662 109.128 0.977679C109.217 0.889157 109.338 0.839313 109.464 0.83906H123.968C124.094 0.839565 124.215 0.889489 124.304 0.977957C124.393 1.06642 124.443 1.18627 124.444 1.31138V1.31042ZM85.1123 9.89935C85.1123 17.2696 82.7835 19.3821 75.4651 19.3821C68.3754 19.3821 65.8179 17.2696 65.8179 9.89935C65.8179 2.06249 68.3822 0.419434 75.4651 0.419434C82.5973 0.419434 85.1123 2.06345 85.1123 9.89935ZM81.1203 9.89935C81.1203 6.26834 81.1203 4.55534 75.4651 4.55534C69.8099 4.55534 69.8099 6.20607 69.8099 9.89935C69.8099 13.5926 69.8099 15.2434 75.4651 15.2434C81.1203 15.2434 81.1068 13.4873 81.1068 9.89935H81.1203ZM104.867 19.5805H101.047C100.976 19.5803 100.906 19.5642 100.842 19.5333C100.778 19.5024 100.722 19.4577 100.678 19.4023L94.8 12.0875H92.3689V19.1091C92.3689 19.1712 92.3565 19.2326 92.3326 19.2899C92.3086 19.3472 92.2735 19.3993 92.2292 19.4431C92.1849 19.4869 92.1324 19.5216 92.0745 19.5451C92.0167 19.5687 91.9548 19.5807 91.8923 19.5805H88.8978C88.8341 19.5825 88.7707 19.5719 88.7112 19.5491C88.6517 19.5264 88.5974 19.492 88.5515 19.448C88.5056 19.4041 88.4691 19.3515 88.4441 19.2932C88.4191 19.235 88.4061 19.1724 88.4058 19.1091V1.22707C88.4058 1.16509 88.4181 1.10372 88.4421 1.04647C88.466 0.989217 88.501 0.937212 88.5452 0.893429C88.5894 0.849647 88.6418 0.814946 88.6995 0.791315C88.7572 0.767683 88.819 0.755584 88.8814 0.75571H91.8759C92.0019 0.755709 92.1227 0.80534 92.2119 0.89371C92.301 0.98208 92.3513 1.10197 92.3515 1.22707V8.18253H94.7498L100.446 0.920495C100.49 0.864165 100.547 0.818561 100.612 0.787053C100.677 0.755545 100.748 0.73894 100.821 0.738465H104.607C104.697 0.737699 104.784 0.762069 104.86 0.808759C104.937 0.855448 104.998 0.922551 105.037 1.00231C105.076 1.08207 105.092 1.17123 105.082 1.25949C105.073 1.34775 105.038 1.43151 104.983 1.50107L98.4659 9.83229C98.3991 9.91469 98.3627 10.0173 98.3627 10.1231C98.3627 10.2288 98.3991 10.3314 98.4659 10.4138L105.235 18.8274C105.287 18.8965 105.319 18.9785 105.327 19.0644C105.335 19.1503 105.319 19.2368 105.281 19.3141C105.243 19.3921 105.185 19.4582 105.112 19.505C105.038 19.5519 104.954 19.5777 104.867 19.5795V19.5805Z" fill="#073742"/>
</svg>
