<svg width="200" height="38" viewBox="0 0 200 38" fill="none" xmlns="http://www.w3.org/2000/svg">
<g clip-path="url(#clip0_51_62025)">
<mask id="mask0_51_62025" style="mask-type:luminance" maskUnits="userSpaceOnUse" x="0" y="0" width="200" height="38">
<path d="M200 0.0976562H0V37.9025H200V0.0976562Z" fill="white"/>
</mask>
<g mask="url(#mask0_51_62025)">
<path d="M73.0005 12.6424C73.2982 12.6424 73.4467 12.7884 73.4457 13.0804V14.9759C73.4457 15.2697 73.2978 15.4153 73.0005 15.4153H62.8391C62.4471 15.4153 62.1698 15.5151 62.0071 15.7143C61.8329 15.9517 61.7472 16.2407 61.7644 16.5329V17.2111C61.7644 17.9562 62.116 18.3286 62.8191 18.3286H70.4191C71.5951 18.3286 72.4809 18.6247 73.0765 19.2167C73.672 19.8087 73.9694 20.6565 73.9684 21.7601V23.3564C73.9684 24.3272 73.6778 25.1141 73.0965 25.7175C72.5151 26.3209 71.6089 26.62 70.3778 26.6147H59.1471C58.8368 26.6147 58.6818 26.4687 58.6818 26.1767V24.2746C58.6818 23.9825 58.8368 23.8361 59.1471 23.8352H69.7951C70.1871 23.8352 70.4644 23.7356 70.6271 23.5362C70.8012 23.2989 70.887 23.0098 70.8698 22.7176V21.9004C70.8698 21.1554 70.5187 20.7829 69.8165 20.7829H62.2098C61.0338 20.7829 60.1484 20.4869 59.5538 19.8948C58.9591 19.3028 58.6613 18.4546 58.6605 17.3501V15.8941C58.6605 14.9235 58.9511 14.1364 59.5324 13.533C60.1138 12.9296 61.02 12.6306 62.2511 12.6358L73.0005 12.6424Z" fill="#E52628"/>
<path d="M86.6682 15.6483C87.4386 15.6345 88.2082 15.7116 88.9601 15.8778C89.5086 15.9956 90.0201 16.2423 90.4508 16.5966C90.8299 16.9351 91.1067 17.37 91.2508 17.8533C91.4242 18.4532 91.5061 19.0752 91.4934 19.6988V22.5728C91.5062 23.1965 91.4244 23.8184 91.2508 24.4184C91.1069 24.9018 90.8301 25.3367 90.4508 25.675C90.0214 26.0294 89.5091 26.2728 88.9601 26.3833C88.2073 26.5429 87.4382 26.6165 86.6682 26.6024H79.0682V30.5729C79.0682 30.8659 78.9192 31.0123 78.6214 31.0123H76.6295C76.3184 31.0123 76.1633 30.8659 76.1641 30.5729V19.6988C76.1491 19.0755 76.2291 18.4533 76.4014 17.8533C76.5456 17.37 76.8224 16.9351 77.2014 16.5966C77.6289 16.2435 78.1366 15.9969 78.6814 15.8778C79.4368 15.7105 80.21 15.6334 80.9841 15.6483H86.6682ZM79.0682 24.2085H86.3895C86.7571 24.2163 87.1243 24.1829 87.4841 24.1088C87.7414 24.0565 87.9777 23.9316 88.1641 23.7494C88.3427 23.5591 88.4652 23.3248 88.5188 23.0712C88.5935 22.7238 88.6275 22.369 88.6201 22.014V20.2379C88.6264 19.8855 88.5925 19.5335 88.5188 19.1885C88.4675 18.9343 88.3447 18.6993 88.1641 18.5104C87.9739 18.3334 87.7391 18.2094 87.4841 18.151C87.1251 18.0706 86.7575 18.0341 86.3895 18.0422H81.2747C80.9134 18.0348 80.5524 18.0712 80.2001 18.151C79.9451 18.2094 79.7103 18.3334 79.5201 18.5104C79.3391 18.6989 79.2161 18.934 79.1655 19.1885C79.0917 19.5335 79.0578 19.8855 79.0641 20.2379L79.0682 24.2085Z" fill="#E52628"/>
<path d="M104.268 15.6483C105.039 15.6345 105.809 15.7116 106.56 15.8778C107.109 15.9956 107.62 16.2423 108.051 16.5966C108.43 16.9351 108.707 17.37 108.851 17.8533C109.025 18.4532 109.106 19.0752 109.094 19.6988V22.5728C109.106 23.1965 109.025 23.8184 108.851 24.4184C108.707 24.9018 108.43 25.3367 108.051 25.675C107.622 26.0294 107.11 26.2728 106.56 26.3833C105.808 26.5429 105.039 26.6165 104.268 26.6024H98.5351C97.7619 26.6174 96.9896 26.544 96.2338 26.3833C95.6879 26.2717 95.1789 26.0283 94.7524 25.675C94.3726 25.3371 94.0956 24.9021 93.9524 24.4184C93.7777 23.8187 93.6955 23.1966 93.7084 22.5728V19.6988C93.6956 19.0751 93.7778 18.453 93.9524 17.8533C94.096 17.3698 94.3729 16.9348 94.7524 16.5966C95.1801 16.2432 95.6884 15.9965 96.2338 15.8778C96.9888 15.7105 97.7615 15.6334 98.5351 15.6483H104.268ZM96.6018 22.0756C96.5944 22.4312 96.6284 22.7863 96.7032 23.1343C96.7557 23.3849 96.8787 23.6162 97.0578 23.8018C97.2478 23.9793 97.4826 24.1034 97.7378 24.1613C98.0899 24.2421 98.451 24.2791 98.8124 24.2715H103.985C104.353 24.2799 104.72 24.2428 105.079 24.1613C105.334 24.1034 105.569 23.9793 105.759 23.8018C105.939 23.6165 106.062 23.3851 106.114 23.1343C106.189 22.7863 106.223 22.4312 106.215 22.0756V20.1776C106.222 19.829 106.188 19.481 106.114 19.14C106.06 18.8867 105.937 18.6523 105.759 18.4619C105.572 18.2801 105.336 18.1554 105.079 18.1024C104.719 18.029 104.352 17.9956 103.985 18.0028H98.8178C98.457 17.9962 98.0965 18.0296 97.7432 18.1024C97.4882 18.1556 97.2541 18.2794 97.0684 18.4593C96.8906 18.6499 96.768 18.8841 96.7138 19.1374C96.6398 19.4783 96.6057 19.8265 96.6124 20.175L96.6018 22.0756Z" fill="#E52628"/>
<path d="M112.547 15.6511V13.0185C112.547 12.7264 112.695 12.58 112.993 12.5791H115.001C115.299 12.5791 115.448 12.7256 115.447 13.0185V15.6511H118.996C119.046 15.6441 119.096 15.6485 119.144 15.6641C119.191 15.6797 119.235 15.7059 119.27 15.7408C119.305 15.7757 119.332 15.8182 119.348 15.8651C119.364 15.9119 119.368 15.9617 119.361 16.0106V17.6475C119.368 17.6963 119.363 17.7459 119.348 17.7925C119.332 17.8392 119.305 17.8815 119.269 17.9163C119.234 17.9511 119.191 17.9772 119.143 17.9926C119.096 18.0081 119.045 18.0126 118.996 18.0057H115.447V22.6347C115.447 23.1935 115.562 23.6028 115.792 23.8624C116.022 24.1222 116.475 24.2534 117.151 24.2559H119.117C119.167 24.2489 119.218 24.2534 119.265 24.269C119.313 24.2845 119.356 24.3108 119.391 24.3457C119.427 24.3806 119.453 24.4231 119.469 24.47C119.485 24.5167 119.49 24.5665 119.483 24.6153V26.2524C119.489 26.3011 119.485 26.3507 119.469 26.3974C119.453 26.444 119.426 26.4864 119.391 26.5211C119.355 26.5558 119.312 26.582 119.265 26.5975C119.217 26.613 119.167 26.6174 119.117 26.6104H116.667C115.99 26.6265 115.315 26.5529 114.659 26.3914C114.181 26.2726 113.743 26.0319 113.391 25.6936C113.059 25.3487 112.832 24.9207 112.732 24.4567C112.601 23.86 112.539 23.2503 112.549 22.64V18.0057H110.62C110.57 18.0126 110.52 18.0081 110.472 17.9926C110.425 17.9772 110.382 17.9511 110.346 17.9163C110.311 17.8815 110.284 17.8392 110.268 17.7925C110.252 17.7459 110.248 17.6963 110.255 17.6475V16.0106C110.248 15.9618 110.252 15.912 110.268 15.8653C110.284 15.8187 110.311 15.7763 110.346 15.7414C110.382 15.7067 110.425 15.6803 110.472 15.6647C110.52 15.649 110.57 15.6443 110.62 15.6511H112.547Z" fill="#E52628"/>
<path d="M142.077 12.636C142.374 12.636 142.523 12.7821 142.523 13.0741V14.9695C142.523 15.2634 142.374 15.409 142.077 15.409H131.916C131.523 15.409 131.249 15.5087 131.085 15.708C130.911 15.9451 130.824 16.2343 130.841 16.5266V17.2047C130.841 17.9497 131.193 18.3223 131.895 18.3223H139.495C140.673 18.3223 141.559 18.6183 142.152 19.2104C142.748 19.8023 143.045 20.6501 143.045 21.7538V23.3501C143.045 24.3207 142.755 25.1078 142.173 25.7112C141.591 26.3145 140.69 26.6115 139.468 26.6018H128.226C127.915 26.6018 127.76 26.4557 127.759 26.1637V24.2683C127.759 23.9762 127.913 23.8298 128.226 23.8289H138.873C139.265 23.8289 139.543 23.7291 139.705 23.5297C139.878 23.2922 139.965 23.0034 139.948 22.7113V21.8941C139.948 21.149 139.596 20.7765 138.893 20.7765H131.293C130.117 20.7765 129.232 20.4805 128.635 19.8885C128.04 19.2965 127.74 18.4482 127.734 17.3438V15.8878C127.734 14.9171 128.026 14.13 128.606 13.5267C129.188 12.9233 130.098 12.6263 131.334 12.636H142.077Z" fill="#E52628"/>
<path d="M147.028 15.6484C147.132 15.6388 147.235 15.6657 147.319 15.7244C147.405 15.7829 147.467 15.8695 147.493 15.9684L150.11 24.1693C150.124 24.2108 150.151 24.2468 150.188 24.2718C150.224 24.2969 150.268 24.3096 150.313 24.3083H150.394C150.516 24.3083 150.584 24.2623 150.598 24.1693L153.335 16.6072C153.423 16.3199 153.588 16.0611 153.813 15.8583C153.995 15.7191 154.269 15.6484 154.634 15.6484H157.048C157.413 15.6484 157.687 15.7191 157.869 15.8583C158.051 15.9973 158.21 16.2517 158.345 16.6072L161.069 24.1693C161.083 24.2623 161.15 24.3083 161.272 24.3083H161.352C161.398 24.3093 161.441 24.2963 161.477 24.2713C161.513 24.2463 161.541 24.2106 161.556 24.1693L164.185 15.9671C164.227 15.7546 164.38 15.6471 164.651 15.6471H166.944C167.119 15.6471 167.23 15.6916 167.278 15.7782C167.327 15.8895 167.33 16.0149 167.288 16.1284L164.205 25.3655C164.044 25.8718 163.85 26.2036 163.628 26.3638C163.405 26.5238 163.077 26.6024 162.644 26.6024H160.089C159.793 26.6219 159.501 26.5252 159.277 26.3335C159.088 26.1534 158.905 25.8307 158.729 25.3655L156.052 18.0829C156.041 18.0453 156.017 18.0129 155.983 17.9912C155.95 17.9694 155.91 17.9596 155.871 17.9635H155.748C155.64 17.9635 155.578 18.0029 155.566 18.0829L152.909 25.3655C152.732 25.8307 152.549 26.1534 152.361 26.3335C152.138 26.5251 151.846 26.6217 151.55 26.6024H148.994C148.561 26.6024 148.234 26.5238 148.01 26.3638C147.787 26.2036 147.595 25.8718 147.433 25.3655L144.39 16.1284C144.35 16.0151 144.35 15.8914 144.39 15.7782C144.432 15.6929 144.546 15.6471 144.735 15.6471L147.028 15.6484Z" fill="#E52628"/>
<path d="M177.732 15.6498C178.501 15.6359 179.271 15.7129 180.023 15.8793C180.572 15.9971 181.083 16.2437 181.513 16.5981C181.893 16.9366 182.169 17.3715 182.313 17.8546C182.488 18.4545 182.569 19.0766 182.556 19.7003V25.0074C182.562 25.2716 182.539 25.5355 182.485 25.7945C182.451 25.9762 182.368 26.1455 182.243 26.2838C182.118 26.4085 181.96 26.4951 181.785 26.5329C181.546 26.5849 181.301 26.6082 181.056 26.6026H171.401C170.9 26.6135 170.398 26.5566 169.911 26.4333C169.554 26.3427 169.223 26.1681 168.949 25.9244C168.696 25.6849 168.517 25.381 168.432 25.0468C168.323 24.6295 168.272 24.1999 168.279 23.7692V22.8117C168.274 22.4373 168.326 22.0642 168.432 21.7045C168.526 21.3885 168.705 21.1029 168.949 20.8768C169.223 20.6332 169.554 20.4585 169.911 20.3679C170.398 20.2446 170.9 20.1877 171.401 20.1988H179.656V19.8196C179.662 19.5434 179.628 19.2678 179.555 19.0011C179.496 18.7896 179.377 18.5993 179.211 18.4528C179.017 18.2982 178.789 18.192 178.544 18.1433C178.184 18.0692 177.817 18.0357 177.449 18.0435H168.971C168.922 18.0506 168.871 18.0461 168.823 18.0306C168.776 18.015 168.733 17.9888 168.698 17.9538C168.661 17.9189 168.635 17.8765 168.62 17.8296C168.604 17.7828 168.599 17.7331 168.606 17.6842V16.0092C168.599 15.9603 168.604 15.9105 168.62 15.8637C168.635 15.8168 168.661 15.7743 168.698 15.7394C168.733 15.7045 168.776 15.6783 168.823 15.6627C168.871 15.6471 168.922 15.6427 168.971 15.6498H177.732ZM179.065 24.4093C179.146 24.4179 179.23 24.409 179.309 24.3832C179.388 24.3574 179.46 24.3154 179.521 24.2598C179.609 24.1601 179.654 23.9843 179.654 23.7351V21.9748H172.232C171.812 21.9748 171.518 22.0583 171.349 22.2254C171.259 22.3237 171.19 22.4388 171.146 22.5639C171.102 22.689 171.085 22.8215 171.095 22.9533V23.3717C171.095 23.7312 171.179 23.9935 171.349 24.1588C171.517 24.324 171.812 24.4071 172.232 24.4081L179.065 24.4093Z" fill="#E52628"/>
<path d="M195.173 15.6483C195.944 15.6345 196.713 15.7116 197.466 15.8778C198.013 15.996 198.526 16.2426 198.956 16.5967C199.335 16.9351 199.612 17.37 199.756 17.8533C199.93 18.4531 200.013 19.0751 200 19.6989V22.5728C200.013 23.1966 199.93 23.8187 199.756 24.4184C199.612 24.9019 199.335 25.3369 198.956 25.675C198.527 26.0292 198.015 26.2726 197.466 26.3833C196.712 26.5429 195.944 26.6165 195.173 26.6025H187.573V30.573C187.573 30.8659 187.426 31.0123 187.128 31.0123H185.134C184.823 31.0123 184.668 30.8659 184.667 30.573V19.6989C184.654 19.0751 184.737 18.4531 184.911 17.8533C185.055 17.37 185.332 16.9353 185.711 16.5967C186.138 16.2436 186.646 15.9971 187.191 15.8778C187.946 15.7105 188.72 15.6333 189.494 15.6483H195.173ZM187.573 24.2086H194.896C195.263 24.2164 195.63 24.1828 195.991 24.1088C196.249 24.0565 196.484 23.9316 196.671 23.7494C196.849 23.5588 196.971 23.3245 197.026 23.0712C197.1 22.7238 197.134 22.369 197.127 22.014V20.2379C197.133 19.8856 197.099 19.5337 197.026 19.1886C196.974 18.9345 196.851 18.6997 196.671 18.5105C196.481 18.3334 196.246 18.2094 195.991 18.151C195.632 18.0708 195.265 18.0342 194.896 18.0422H189.785C189.423 18.0348 189.062 18.0714 188.71 18.151C188.455 18.2092 188.221 18.3333 188.03 18.5105C187.85 18.6989 187.727 18.9342 187.677 19.1886C187.602 19.5334 187.567 19.8855 187.573 20.2379V24.2086Z" fill="#E52628"/>
<path d="M47.636 0.0976562H1.6C0.716344 0.0976562 0 0.802386 0 1.67172V36.3285C0 37.1978 0.716344 37.9025 1.6 37.9025H47.636C48.5196 37.9025 49.236 37.1978 49.236 36.3285V1.67172C49.236 0.802386 48.5196 0.0976562 47.636 0.0976562Z" fill="#E52628"/>
<path d="M43.4419 9.86984L39.9753 7.9508C39.9147 7.91623 39.8468 7.89594 39.7768 7.89154C39.7069 7.88713 39.6369 7.89873 39.5723 7.92543C39.5077 7.95211 39.4503 7.99317 39.4045 8.04537C39.3587 8.09756 39.3259 8.15949 39.3086 8.22627L39.0992 9.01329H17.9926C16.4553 9.01329 15.0686 9.80033 14.3765 11.0727L12.0419 15.3462C11.7412 15.8928 11.5911 16.5073 11.6065 17.1286C11.622 17.7499 11.8024 18.3564 12.1299 18.8879C12.4981 19.4728 13.0126 19.955 13.6241 20.2886C14.2357 20.6223 14.924 20.7962 15.6232 20.7938H33.6965C33.8024 20.7855 33.9087 20.8039 34.0053 20.8473C34.1019 20.8907 34.1857 20.9575 34.2486 21.0417C34.2673 21.0663 34.2773 21.0962 34.2773 21.1269C34.2773 21.1577 34.2673 21.1875 34.2486 21.2122L31.9206 25.4936C31.8581 25.5799 31.7745 25.649 31.6775 25.6949C31.5806 25.7407 31.4734 25.7618 31.3659 25.756H10.9939L11.1859 25.0345C11.209 24.9485 11.2055 24.8575 11.1756 24.7735C11.1458 24.6895 11.0911 24.6162 11.0185 24.5629C10.9459 24.5097 10.8588 24.4791 10.7684 24.4751C10.678 24.471 10.5885 24.4936 10.5113 24.54L5.78192 27.3655C5.71426 27.406 5.65854 27.463 5.62032 27.5313C5.58209 27.5995 5.56269 27.6763 5.56403 27.7543C5.56538 27.8321 5.58743 27.9083 5.62801 27.9751C5.66857 28.0421 5.72624 28.0973 5.79526 28.1355L9.26192 30.0545C9.32259 30.0888 9.39048 30.1089 9.46031 30.1132C9.53015 30.1174 9.60004 30.1057 9.66455 30.0791C9.72907 30.0524 9.78646 30.0114 9.83225 29.9594C9.87804 29.9074 9.91102 29.8456 9.92859 29.779L10.0912 29.1678H31.3659C32.9032 29.1678 34.2899 28.3807 34.9819 27.1084L37.314 22.8296C37.6151 22.2832 37.7656 21.6688 37.7504 21.0474C37.7352 20.4261 37.5548 19.8194 37.2273 19.2879C36.8592 18.7028 36.3448 18.2204 35.7332 17.8864C35.1217 17.5525 34.4334 17.3784 33.734 17.3807H15.6592C15.5537 17.3893 15.4477 17.371 15.3515 17.3275C15.2553 17.2841 15.1721 17.2171 15.1099 17.1328C15.0914 17.1084 15.0814 17.0786 15.0814 17.0482C15.0814 17.0177 15.0914 16.988 15.1099 16.9636L17.4432 12.6822C17.506 12.596 17.5899 12.5268 17.6871 12.481C17.7843 12.4351 17.8917 12.414 17.9992 12.4199H38.1979L38.0499 12.9721C38.0268 13.0582 38.0304 13.149 38.0602 13.233C38.0901 13.3171 38.1448 13.3905 38.2174 13.4436C38.2899 13.4968 38.377 13.5274 38.4674 13.5316C38.5577 13.5356 38.6474 13.513 38.7246 13.4666L43.4553 10.6359C43.522 10.5952 43.5769 10.5382 43.6145 10.4704C43.652 10.4026 43.671 10.3264 43.6697 10.2491C43.6684 10.1719 43.6466 10.0964 43.6068 10.0299C43.5668 9.9634 43.5101 9.90826 43.4419 9.86984Z" fill="white"/>
</g>
</g>
<defs>
<clipPath id="clip0_51_62025">
<rect width="200" height="37.8049" fill="white" transform="translate(0 0.0976562)"/>
</clipPath>
</defs>
</svg>
