<svg width="30" height="31" viewBox="0 0 30 31" fill="none" xmlns="http://www.w3.org/2000/svg">
<g clip-path="url(#clip0_51_59449)">
<mask id="mask0_51_59449" style="mask-type:luminance" maskUnits="userSpaceOnUse" x="0" y="0" width="30" height="31">
<path d="M30 0.75H0V30.2541H30V0.75Z" fill="white"/>
</mask>
<g mask="url(#mask0_51_59449)">
<path d="M23.9987 8.20683C24.5895 8.2568 25.1129 8.2518 25.6163 8.35173C26.2764 8.47899 26.8727 8.82955 27.3049 9.34453C27.737 9.8595 27.9788 10.5075 27.9896 11.1797C28.0146 12.1166 27.9759 13.0534 28.0134 13.9902C28.0253 14.1095 28.0624 14.2248 28.1223 14.3286C28.1821 14.4324 28.2634 14.5223 28.3606 14.5923C29.4511 15.2281 29.997 16.1537 29.997 17.4091C29.997 18.6644 29.997 19.9073 29.997 21.1564C29.997 22.4055 29.4648 23.3286 28.3731 23.9045C28.0521 24.0718 27.9884 24.268 27.9984 24.5877C28.0146 25.4621 28.0134 26.3365 27.9984 27.2109C27.9759 28.9596 26.713 30.245 24.9518 30.2475C17.6644 30.2583 10.3779 30.2583 3.09226 30.2475C1.29353 30.2475 0.0194353 28.9696 0.016937 27.1771C0.00694415 21.9309 -0.0117957 16.6846 0.0294252 11.4383C0.0406672 10.0393 0.0394181 8.58282 0.40416 7.25251C2.13543 0.973211 9.84497 -1.32891 14.8015 2.89934C15.1525 3.20038 15.4135 3.25784 15.837 3.07672C17.0923 2.5396 18.3727 2.03995 19.6493 1.54031C21.9626 0.623457 23.995 2.00373 24 4.49446C24.0012 5.7136 23.9987 6.94023 23.9987 8.20683ZM17.9955 10.2616C17.5258 14.2201 15.5659 17.0456 11.7799 18.2785C7.99378 19.5113 4.76233 18.3609 2.01677 15.4255V16.0825C2.01677 19.6633 2.01468 23.2441 2.01052 26.8249C2.01052 27.9703 2.29158 28.2476 3.45325 28.2476H24.5633C24.7507 28.2476 24.983 28.3113 25.1154 28.2239C25.4252 28.024 25.9036 27.768 25.9273 27.5007C26.021 26.4377 25.9661 25.3622 25.9661 24.253C24.9455 24.253 23.99 24.2667 23.0356 24.253C21.2769 24.2242 20.0215 22.9589 20.0053 21.1989C19.9928 19.9922 20.0053 18.7843 20.0053 17.5764C20.0053 15.4729 21.2307 14.2625 23.3542 14.2588H25.996C25.996 13.1871 26.0198 12.1915 25.9873 11.1972C25.9686 10.6364 25.5426 10.2704 24.933 10.2666C22.6384 10.2541 20.3488 10.2616 17.9955 10.2616ZM9.01431 2.75195C7.16249 2.75259 5.3862 3.48619 4.07361 4.79247C2.76102 6.09874 2.01885 7.87146 2.00928 9.72326C1.99429 13.5718 5.13206 16.7345 8.9631 16.7395C9.8817 16.7429 10.792 16.5653 11.6419 16.2169C12.4919 15.8684 13.2649 15.356 13.9168 14.7088C14.5688 14.0617 15.0868 13.2924 15.4415 12.445C15.7961 11.5977 15.9804 10.6887 15.9838 9.7701C15.9871 8.8515 15.8095 7.94123 15.4611 7.09126C15.1127 6.2413 14.6002 5.46829 13.9531 4.81636C13.3059 4.16443 12.5366 3.64636 11.6892 3.29172C10.8419 2.93708 9.93291 2.75281 9.01431 2.74945V2.75195ZM24.938 22.2519C25.6038 22.2519 26.2696 22.2656 26.9366 22.2519C27.6036 22.2381 27.9834 21.8647 27.9909 21.2001C28.0067 19.9094 28.0067 18.6186 27.9909 17.3279C27.9821 16.6721 27.5937 16.2799 26.9304 16.2699C25.6404 16.2516 24.3497 16.2516 23.0581 16.2699C22.3998 16.2811 22.0126 16.6783 22.0051 17.3354C21.9901 18.6253 21.9901 19.916 22.0051 21.2076C22.0139 21.8722 22.3923 22.2369 23.0644 22.2531C23.6889 22.2644 24.3135 22.2531 24.938 22.2519ZM21.9926 8.22557C21.9926 6.85154 22.0201 5.5025 21.9814 4.1572C21.9614 3.46395 21.3094 3.07922 20.6286 3.30531C20.1951 3.44896 19.7767 3.63632 19.3532 3.80495C18.4414 4.17219 17.5295 4.54318 16.6939 4.88044C17.1336 6.03587 17.5433 7.11636 17.9655 8.22307L21.9926 8.22557Z" fill="#BDEDFC"/>
<path d="M10.0049 10.841C10.0049 11.3819 10.0049 11.9203 10.0049 12.4649C10.0049 13.293 9.63017 13.7652 8.98938 13.7552C8.34858 13.7452 8.00633 13.2805 8.00383 12.4349C8.00383 11.8978 8.00383 11.3619 8.00383 10.7598C7.35179 10.7598 6.75471 10.7673 6.15763 10.7598C5.44189 10.7486 4.98846 10.3351 5.00845 9.72931C5.02718 9.14347 5.46063 8.77248 6.15638 8.76124C6.73847 8.75375 7.32056 8.76124 8.00383 8.76124C8.00383 8.19165 8.00383 7.63704 8.00383 7.08743C8.00383 6.23553 8.34734 5.77835 8.98688 5.76586C9.62643 5.75337 10.0024 6.23178 10.0049 7.11616C10.0049 7.59457 10.0049 8.07298 10.0112 8.55264C10.0212 8.62314 10.0363 8.69285 10.0561 8.76124C10.6295 8.76124 11.224 8.76124 11.8186 8.76124C12.5519 8.76999 12.999 9.15222 13.0003 9.76054C13.0015 10.3689 12.5531 10.7498 11.8211 10.7598C11.259 10.7698 10.6969 10.7711 10.1361 10.7786C10.1186 10.7723 10.1011 10.7911 10.0049 10.841Z" fill="#BDEDFC"/>
</g>
</g>
<defs>
<clipPath id="clip0_51_59449">
<rect width="30" height="30" fill="white" transform="translate(0 0.5)"/>
</clipPath>
</defs>
</svg>
