<svg width="313" height="286" viewBox="0 0 313 286" fill="none" xmlns="http://www.w3.org/2000/svg">
<path fill-rule="evenodd" clip-rule="evenodd" d="M95.3083 81.668C89.0771 69.0849 75.0869 72.5423 66.725 80.462C55.1872 67.4769 35.0464 72.663 32.7549 92.5627C30.5438 111.9 58.8054 124.362 71.0668 133.689C72.8357 135.015 75.5292 133.97 76.5744 132.241C86.5444 115.638 106.002 103.296 95.3083 81.668ZM88.7554 102.492C85.1775 110.854 77.6196 117.166 72.1522 124.563C63.9511 118.694 55.2677 113.668 47.951 106.633C43.0867 101.97 39.7499 96.2611 41.4785 89.4671C44.6142 77.085 55.9511 80.0198 61.7401 87.1757C61.6999 87.2159 61.6596 87.2962 61.6596 87.3364C59.5289 91.8792 66.0014 95.819 68.3733 91.6782C70.0216 90.9948 71.2678 89.3063 70.9864 87.3364C73.5191 83.9193 76.9763 81.5877 81.7603 81.3867C91.8509 81.0249 91.2881 96.623 88.7554 102.492Z" fill="white"/>
<path fill-rule="evenodd" clip-rule="evenodd" d="M292.054 84.6435C289.722 72.9449 268.456 65.6283 260.375 75.2364C248.435 62.8544 231.631 74.7942 232.636 90.6737C233.641 106.594 251.008 108.001 260.134 117.046C260.094 119.418 262.064 122.031 265.119 121.388C278.144 118.654 294.788 98.312 292.054 84.6435ZM283.41 91.5582C281.32 98.6738 274.245 108.523 266.647 112.302C261.139 106.151 252.254 103.86 245.862 98.7541C241.32 95.0958 239.832 90.352 241.038 84.6836C242.807 76.4424 251.37 76.7238 255.832 82.1912C257.079 83.7188 258.646 83.8395 259.973 83.1561C261.742 84.5229 264.315 84.6033 265.481 82.0305C267.491 77.6083 274.365 79.2163 277.943 80.3419C283.692 82.0706 284.938 86.2918 283.41 91.5582Z" fill="white"/>
<path fill-rule="evenodd" clip-rule="evenodd" d="M280.234 52.8039C288.797 51.9596 295.43 55.9798 299.852 60.603C307.008 68.0402 310.747 83.9198 312.355 97.7893C313.079 104.141 312.355 111.016 312.355 117.729C312.355 124.523 311.752 130.955 311.35 136.986C310.948 142.734 311.27 148.966 311.028 154.594C310.867 158.735 311.631 162.795 311.028 166.091C310.224 170.393 305.802 174.695 303.269 175.901C299.852 177.509 294.827 177.589 290.405 177.589C289.802 190.976 288.998 207.298 289.721 221.208C290.164 229.449 291.852 237.73 292.415 246.575C292.777 251.761 292.455 257.63 292.093 263.138C291.812 267.279 290.365 272.103 288.716 276.002C286.264 281.711 282.525 287.54 273.842 284.806C271.832 284.163 270.264 282.073 268.415 280.424C266.686 278.856 264.676 277.409 263.671 275.681C261.621 272.143 260.616 266.877 259.932 262.173C259.209 257.067 258.445 251.721 257.922 246.937C256.716 253.53 256.153 258.876 253.862 264.866C253.379 266.153 252.616 267.278 252.173 268.605C250.967 272.022 249.721 275.962 247.791 278.414C246.304 280.264 242.887 283.359 240.676 283.841C234.525 285.128 228.696 278.495 226.806 274.716C223.228 267.52 224.394 256.665 224.113 246.293C223.992 241.429 222.867 235.921 222.424 230.414C221.258 216.102 222.545 194.353 221.419 180.363C215.309 179.599 207.751 180.966 204.495 175.981C203.61 174.574 203.168 171.68 202.806 169.227C201.801 161.951 202.404 154.353 201.801 145.91C200.354 125.93 196.776 107.558 197.057 86.7339C195.449 84.965 191.148 85.8896 191.992 81.6685C192.635 79.377 196.615 80.8644 197.741 80.6634C198.585 71.6181 203.891 65.8292 208.917 60.0402C213.379 54.8542 220.173 53.1657 229.218 51.9194C228.977 50.3918 227.61 48.9848 226.525 46.8541C225.64 45.1657 224.475 43.1153 224.153 41.1052C223.027 33.7082 224.394 26.673 226.163 21.4871C228.294 15.4166 229.58 12.6829 233.922 8.62255C235.932 6.73308 238.304 4.56216 239.992 3.55713C245.219 0.461617 254.425 -0.784543 260.294 0.501902C263.872 1.30593 272.515 5.64759 275.169 7.93907C279.269 11.4768 282.083 17.3462 283.973 24.1805C284.214 25.1453 284.938 26.3112 284.978 26.874C285.179 28.6027 284.535 30.8539 284.656 32.9444C284.736 34.9544 285.179 36.9244 284.978 38.6933C284.495 43.5174 282.083 48.0601 280.234 52.8039ZM260.616 56.5025C263.51 56.5427 266.445 54.2511 268.736 55.819C270.666 53.2863 272.877 53.2059 274.485 51.437C276.214 49.5074 278.023 44.8038 278.867 41.6279C279.953 37.6881 279.189 35.0751 278.867 31.4972C278.586 28.5625 278.747 25.7483 277.862 23.3764C277.38 22.1704 276.133 20.5221 275.169 18.9945C274.204 17.4266 273.359 15.497 272.475 14.2507C269.621 10.3914 264.153 7.37625 259.972 6.81343C256.354 6.33102 252.133 6.17028 248.475 6.13008C248.354 6.13008 248.234 6.13008 248.153 6.13008C243.61 6.7331 241.239 9.94924 238.344 12.5623C236.615 14.1302 234.646 15.296 233.6 16.9443C232.716 18.3915 231.952 20.9241 231.228 23.0146C230.545 25.1051 229.741 27.7183 229.54 29.7685C228.454 40.2611 231.389 46.8942 236.656 51.3968C237.822 52.4018 239.992 53.2461 241.721 54.4521C243.409 55.618 244.857 57.1858 246.465 57.829C250.163 59.3165 254.465 59.1155 258.967 59.1959C259.892 58.7537 259.369 56.7437 260.616 56.5025ZM242.364 267.841C242.284 267.359 241.801 267.279 241.681 266.836C243.048 263.459 245.701 261.409 248.113 259.077C249.44 258.635 248.917 260.042 249.801 260.082C250.284 257.63 252.013 254.615 250.807 251.64C247.992 254.575 246.304 258.635 242.686 260.766C240.796 260.042 242.002 257.469 243.007 256.706C245.822 252.846 249.198 249.63 252.133 245.891C252.133 244.082 252.133 242.273 252.133 240.464C250.324 240.947 249.198 243.841 247.389 245.891C245.822 247.66 243.369 250.715 240.957 249.268C241.721 246.253 244.696 244.605 246.706 242.153C247.51 241.188 248.394 239.62 249.399 238.414C250.485 237.127 252.093 235.962 252.455 234.675C252.857 233.148 252.133 231.419 252.455 229.61C249.52 229.61 249.319 237.047 245.018 235.68C244.696 230.896 251.369 227.841 252.455 223.861C252.977 221.972 252.535 219.278 252.455 216.745C249.842 220.002 247.992 223.982 244.656 226.554C243.45 226.796 244.012 228.806 241.962 228.243C241.882 227.761 241.399 227.68 241.279 227.238C240.796 225.389 242.887 226.112 242.967 224.866C245.661 221.369 248.274 217.791 250.726 214.052C251.289 213.489 252.857 213.931 252.776 212.685C252.575 210.876 253.219 208.182 252.455 206.936C250.204 209.79 248.877 213.529 244.656 214.373C244.575 213.891 244.093 213.811 243.972 213.368C246.827 207.78 253.058 205.529 253.098 197.127C250.043 198.333 249.56 205.368 245.661 203.559C245.339 201.388 247.47 199.579 248.716 197.81C250.003 195.961 251.289 193.871 253.098 192.745C252.696 190.856 254.224 189.167 253.42 188.001C252.334 189.609 252.053 192.021 249.359 192.062C247.631 190.212 250.244 188.403 251.048 186.634C251.57 185.509 251.41 184.062 252.053 182.896C252.696 181.73 253.781 181.81 254.063 180.524C253.822 177.107 254.666 174.413 257.761 175.097C261.058 175.86 259.45 181.85 259.45 185.227C259.45 190.494 260.173 196.524 260.455 202.795C260.776 209.75 260.214 217.147 260.777 224.102C261.259 229.972 262.143 235.117 262.787 241.349C263.189 245.208 263.591 249.268 264.153 253.168C265.279 261.248 265.641 269.851 269.581 274.475C271.47 276.686 273.963 277.691 275.651 279.54C277.018 279.54 278.345 279.54 279.711 279.54C282.204 276.284 285.139 271.66 285.139 267.037C284.817 268.284 284.334 269.409 282.767 269.409C280.998 267.681 282.726 263.54 286.144 263.982C286.304 262.776 286.988 260.324 286.144 259.238C284.455 260.484 284.415 263.379 282.083 263.982C281.239 264.022 281.038 263.459 280.716 262.977C280.998 257.59 288.234 257.389 286.144 250.796C284.536 252.203 285.38 256.102 282.767 256.545C280.435 255.017 281.762 252.685 282.767 250.796C284.455 247.62 288.314 246.293 285.822 241.67C283.37 243.117 282.566 249.59 278.706 247.419C279.631 241.63 286.425 240.504 285.46 233.871C282.686 234.796 283.41 239.298 279.711 239.298C277.822 234.112 285.5 233.027 284.777 226.796C281.641 227.841 282.043 232.424 278.023 232.545C277.46 228.243 281.52 225.71 284.093 223.419C283.892 221.851 284.535 219.358 283.772 218.353C281.681 220.323 281.44 224.142 278.023 224.786C276.214 218.836 284.897 217.75 283.772 210.233C280.636 210.594 281.4 214.856 277.701 214.615C277.621 214.132 277.138 214.052 277.018 213.61C278.264 208.544 285.581 207.74 283.45 200.424C281.681 202.152 281.038 205.006 277.701 205.167C277.621 204.685 277.138 204.604 277.018 204.162C279.309 199.016 285.46 197.73 284.455 189.288C281.52 189.609 279.591 197.127 275.651 195.358C275.611 193.107 277.822 191.258 279.39 189.609C281.118 187.8 283.289 186.313 284.455 184.182C284.254 181.931 284.897 178.795 284.134 177.066C283.33 178.835 281.922 180.202 280.757 181.81C279.711 183.217 279.028 185.83 276.375 185.549C274.887 183.82 277.299 181.931 278.385 180.484C280.435 177.71 282.003 174.453 284.817 173.046C284.656 171.519 284.294 170.192 284.495 168.303C280.435 171.559 279.832 178.313 274.003 179.8C273.922 179.318 273.44 179.237 273.319 178.795C273.239 176.986 275.128 176.142 276.013 175.097C279.189 171.318 280.877 166.735 284.134 163.277C284.134 162.152 284.134 161.026 284.134 159.901C282.525 160.343 281.078 162.875 279.39 164.966C277.983 166.735 276.294 170.353 273.963 168.021C273.561 166.293 275.45 165.73 276.334 164.644C277.219 163.559 277.741 162.152 278.706 160.906C281.52 157.247 285.822 155.237 283.45 149.408C282.726 151.016 281.36 153.388 280.073 155.157C278.907 156.765 277.179 159.699 274.646 157.85C274.525 155.76 276.656 155.116 277.701 153.79C279.912 150.976 280.837 147.237 283.45 144.664C283.49 142.252 283.45 139.92 282.767 138.232C282.123 139.961 280.515 140.684 279.39 142.292C277.621 144.785 277.018 149.126 272.958 149.408C271.912 146.634 275.048 144.664 276.334 142.654C276.696 142.051 276.616 141.207 277.018 140.644C277.38 140.162 277.983 139.8 278.385 139.277C279.832 137.348 281.118 135.579 282.445 134.212C282.445 131.599 281.681 129.79 281.762 127.096C280.395 128.342 278.787 130.433 277.38 132.523C276.254 134.131 275.128 138.071 272.314 135.9C273.038 132.363 275.932 130.352 277.741 127.78C278.867 126.171 279.269 124.041 280.797 122.714C280.676 121.267 280.636 119.699 280.113 118.654C279.35 120.463 278.465 122.393 277.42 124.081C276.455 125.568 275.53 128.021 273.038 127.78C272.958 127.297 272.475 127.217 272.354 126.774C274.204 122.795 277.179 119.86 278.425 115.277C278.666 114.593 280.435 115.478 280.113 114.272C280.154 111.86 280.033 109.608 279.43 107.84C278.465 110.694 278.545 114.593 275.37 115.277C273.56 111.9 277.42 108.644 277.058 104.463C278.425 103.739 279.43 105.99 279.43 104.463C279.912 100.684 275.169 88.8646 281.44 90.2716C283.45 90.7139 283.651 94.131 284.134 97.7089C285.219 105.629 285.661 110.533 286.144 117.327C286.907 127.418 288.636 139.197 289.199 150.815C289.561 158.292 289.48 165.649 290.204 172.122C298.566 172.363 304.837 170.554 305.44 162.996C304.395 162.514 303.31 166.373 301.058 164.685C301.3 160.061 306.526 158.654 305.119 153.509C303.993 155.318 302.867 157.127 300.375 157.569C300.214 156.926 299.048 157.287 299.37 156.202C299.571 154.473 301.46 153.91 302.425 152.825C303.792 151.297 304.475 149.368 305.802 147.76C305.802 146.393 305.802 145.066 305.802 143.699C303.752 143.82 303.269 148.363 299.732 148.081C298.244 145.91 300.737 144.544 302.104 143.016C304.556 140.202 306.888 137.79 305.842 132.885C303.671 135.217 302.385 138.433 298.727 139.317C298.606 138.674 297.4 139.036 297.722 137.95C298.526 135.94 300.898 134.654 302.465 132.885C305.119 129.83 307.531 127.056 306.526 122.071C303.872 125.649 301.34 129.267 297.038 131.197C296.958 130.714 296.475 130.634 296.355 130.192C297.239 126.654 300.777 125.247 302.787 122.754C303.671 121.669 304.154 120.342 304.837 119.016C305.36 118.171 306.566 118.051 306.847 117.006C306.646 116.081 307.289 114.312 306.526 113.95C304.837 116.644 302.867 119.096 299.41 120.021C299.33 119.538 298.847 119.458 298.727 119.016C298.767 116.805 301.42 116.242 302.787 114.634C303.43 113.87 303.712 112.463 304.475 111.257C306.164 108.563 308.536 106.433 306.486 102.131C305.4 104.141 303.229 106.352 301.742 107.88C300.415 109.247 298.727 112.382 296.676 110.573C296.315 107.88 299.611 106.593 301.42 104.503C302.465 103.297 304.998 99.9601 305.48 98.7541C306.043 97.347 306.687 94.4928 305.48 92.6837C304.717 94.935 302.908 96.3823 301.42 98.111C300.093 99.6788 298.928 102.533 295.993 102.493C294.586 99.8396 298.043 98.0707 299.732 96.0606C302.546 92.6837 305.722 88.945 304.114 83.8796C301.38 85.5681 301.541 91.8395 296.998 90.6334C297.762 85.9701 302.827 82.5932 302.425 77.4474C302.345 76.2815 301.259 74.794 300.737 73.387C298.887 76.4825 298.928 81.4675 294.666 82.1911C294.586 81.7087 294.103 81.6283 293.983 81.1861C293.742 79.176 295.43 79.0152 295.993 77.8092C296.234 75.7991 297.078 74.3921 298.003 73.0654C297.882 71.0554 298.124 69.3669 299.008 68.3217C295.631 63.7789 291.41 59.397 285.822 58.5125C282.606 58.0301 278.867 57.6682 275.691 58.1908C272.153 58.7537 269.902 61.005 266.887 62.2512C262.827 63.9397 257.118 65.5477 251.007 64.6231C246.706 63.9799 243.972 60.8843 240.193 59.5577C237.58 58.633 235.61 58.9949 232.756 58.5526C231.63 58.3918 230.666 57.5878 229.701 57.5476C227.49 57.3868 224.354 58.03 221.942 58.5526C217.037 59.6381 215.309 61.005 212.816 63.9799C210.806 66.392 209.158 67.6784 207.389 70.0503C201.922 77.568 201.801 89.2666 202.645 101.85C203.329 111.98 205.298 123.438 206.022 133.971C206.223 136.704 206.464 138.714 206.706 140.403C208.072 150.936 205.781 165.328 209.761 173.529C212.414 174.735 217.801 174.896 221.258 174.212C221.017 172.162 221.701 169.267 220.937 167.78C220.133 169.267 217.962 172.524 215.871 170.474C217.078 166.172 222.907 164.644 220.937 158.292C219.088 160.463 216.796 165.569 213.178 163.72C213.218 161.348 215.711 160.704 216.917 159.338C218.645 157.368 219.449 154.795 221.299 152.905C221.098 151.338 221.741 148.845 220.977 147.84C218.806 149.971 218.042 153.468 214.223 153.91C213.258 151.378 215.711 149.649 216.917 148.162C218.324 146.433 220.294 144.905 221.299 143.096C221.741 142.292 221.942 139.478 221.299 138.714C220.374 141.126 218.243 143.74 215.871 144.785C214.947 145.227 213.339 147.157 212.816 144.463C215.188 142.132 217.238 139.961 219.248 137.026C220.977 134.453 222.465 133.126 221.299 129.589C219.248 131.438 217.118 137.669 213.5 135.659C213.902 132.885 216.555 131.317 218.243 129.227C219.811 127.297 222.143 124.966 220.937 122.111C219.449 124.081 217.319 128.744 214.183 126.855C214.304 124.403 216.997 123.277 218.243 121.428C220.253 118.493 221.942 114.875 220.937 110.614C219.851 113.387 216.676 120.262 213.5 117.729C214.022 114.915 216.716 113.589 217.882 111.297C218.686 109.769 218.806 107.96 219.57 106.232C220.052 105.709 221.339 105.95 221.258 104.865C221.299 100.965 220.897 96.9853 224.314 97.1059C226.766 97.1863 226.887 100.242 226.686 103.176C226.284 109.086 226.846 113.95 227.007 118.051C227.691 133.528 225.841 148.202 226.686 165.73C227.651 186.795 226.766 207.941 227.691 228.283C228.053 235.761 229.821 242.756 229.379 251.962C228.977 260.565 229.821 271.258 234.123 275.64C237.862 279.459 240.917 278.213 243.61 274.635C245.982 271.459 247.309 265.952 248.354 262.454C246.706 264.545 245.42 267.118 242.364 267.841Z" fill="#073742"/>
<path fill-rule="evenodd" clip-rule="evenodd" d="M82.0819 51.4372C94.5041 55.0152 105.117 60.4021 111.148 70.3721C113.158 70.7339 114.605 69.93 115.529 71.739C116.535 73.6285 115.087 74.0707 114.524 76.121C120.394 91.4377 120.675 122.152 118.263 143.74C117.66 149.046 118.223 154.313 117.58 158.614C116.052 168.584 104.554 176.222 93.9011 170.433C93.9011 180.564 94.2227 191.499 94.2227 202.876C94.2227 213.529 93.3785 224.786 94.9061 234.997C95.7102 240.344 96.5544 245.771 96.9162 251.56C97.4388 259.52 98.8057 268.686 95.9112 274.234C94.4237 277.048 91.7301 278.776 88.7954 280.666C83.5693 281.43 81.2377 279.701 77.9814 277.611C75.9311 276.324 73.8004 275.239 72.5542 273.912C66.0817 266.756 65.2776 252.364 63.4284 241.429C61.0967 248.786 62.7047 259.198 62.0615 267.801C61.4585 276.123 59.4082 283.882 49.8805 283.359C43.6091 283.038 36.8151 277.731 34.001 272.545C31.1869 267.359 30.3025 258.354 29.6191 250.555C27.609 228.726 24.3526 197.73 24.8752 176.182C15.9505 178.715 8.07106 176.343 4.57353 168.745C2.48306 164.202 2.60368 157.891 2.20166 151.82C1.43784 139.961 1.71926 126.011 0.834829 114.634C0.0308006 104.182 -0.813498 95.4176 1.51818 86.5732C2.16141 84.1612 3.6087 81.9903 4.57353 79.8194C6.98562 74.1912 8.03081 71.94 11.6891 67.6384C16.9957 61.4072 25.1566 56.5428 35.6894 55.8192C33.1969 49.5478 29.2572 41.4673 30.6241 33.5074C31.4281 28.8843 33.4381 23.3364 36.0512 19.9997C37.4984 18.1102 39.7498 16.7032 41.8001 15.256C46.1418 12.2007 51.8504 8.94431 59.7299 9.82874C67.0466 10.673 76.8557 16.5424 80.6748 23.3365C82.3231 26.2712 84.2126 31.0953 84.7352 33.829C86.102 40.7838 84.7754 46.7337 82.0819 51.4372ZM79.71 35.1958C79.3884 33.1858 78.1019 30.4119 77.0165 28.0802C73.8405 21.3264 66.524 15.6982 58.7651 14.8942C56.755 14.6932 53.4182 14.8138 51.0061 15.5776C48.2322 16.4219 42.1619 20.7234 40.5136 22.6932C38.5035 25.1053 36.2925 30.4522 35.7699 34.5527C34.8452 42.1106 38.5839 52.2413 42.8855 55.8594C46.0212 58.5127 49.4785 58.1911 54.0615 57.8695C52.0112 57.3469 50.765 55.98 50.6846 53.4876C51.368 53.4876 51.1268 52.5629 52.0514 52.8041C53.7399 53.4875 54.5439 55.0553 55.4283 56.5428C55.9911 58.0704 53.7801 57.6282 54.745 58.5529C57.3178 58.5529 59.7701 58.392 61.4988 57.5478C58.6043 55.4573 55.8705 53.2464 55.0665 49.1056C55.6695 48.784 56.0716 48.3016 56.755 48.1006C58.2827 49.1056 58.363 50.794 59.4485 52.1608C60.7751 53.8493 63.6696 54.5328 63.8304 57.2263C64.9962 56.8242 66.4435 56.7037 67.2073 55.8594C64.1118 53.5277 60.6144 51.6383 59.7701 47.0553C62.5038 45.5276 63.3882 48.9046 64.5139 50.1107C66.3229 52.0403 68.6947 53.3669 70.5842 54.8544C77.2174 50.6734 81.2779 45.2462 79.71 35.1958ZM20.5335 136.664C19.5687 134.574 21.0963 132.323 22.2219 130.232C23.7093 127.498 26.5235 124.644 25.2772 121.106C24.7546 122.473 24.4732 124.162 22.2219 123.8C22.1415 123.317 21.6591 123.237 21.5385 122.795C22.2622 120.021 23.9908 118.252 25.2772 116.041C25.6793 112.262 24.3124 108.805 25.2772 105.548C30.3024 102.051 30.1015 108.322 30.3427 112.986C30.8251 122.554 31.2672 136.865 30.6642 149.489C30.3024 157.368 29.7397 165.69 30.9859 170.433C29.7397 177.951 30.2622 190.936 30.6642 199.861C31.2672 213.57 32.2723 225.308 33.7196 238.414C35.2472 252.364 35.1266 268.927 42.8452 274.917C44.3327 276.083 46.0211 277.168 47.2272 277.611C55.3881 280.786 56.5941 273.229 57.0363 266.435C57.559 258.635 56.6746 248.706 57.358 242.756C56.2726 244.123 55.2675 247.098 52.6142 245.811C52.7348 241.711 57.4384 239.861 58.3631 236.002C58.8053 234.153 58.363 231.218 58.0414 228.565C55.4685 231.057 54.9459 235.6 50.9258 236.685C48.9157 233.751 53.378 232.143 53.6192 229.248C55.1469 228.324 55.9912 226.555 56.9962 225.55C57.4786 225.067 58.1621 225.027 58.3631 224.183C57.961 222.334 59.4083 220.524 58.3631 219.117C57.4786 220.323 56.2726 222.615 54.9862 224.183C53.7801 225.67 51.971 228.324 50.2423 226.193C52.1318 219.519 60.4937 217.509 58.6846 208.263C57.8002 209.509 56.353 211.359 54.9862 213.007C53.8605 214.333 52.2926 217.349 50.2423 214.695C53.4584 208.464 61.5389 205.248 58.6846 194.393C57.3982 195.439 56.4334 198.213 54.9862 200.142C53.8203 201.67 51.2072 204.926 49.5589 201.831C53.2575 196.404 60.2525 191.419 58.0013 182.212C55.6294 185.589 55.2273 190.936 50.8855 192.343C49.3981 190.293 52.0514 187.318 53.5791 184.223C54.2223 182.936 54.9459 181.609 55.5892 180.162C56.2726 178.594 57.358 176.866 57.5992 175.78C58.2424 172.846 57.0363 169.629 60.2926 169.71C60.8957 169.71 61.8605 170.313 62.3027 170.393C63.5088 172.323 62.745 175.7 62.9862 179.197C63.7098 189.208 65.8003 199.861 66.3631 212.323C66.5239 216.384 66.0817 220.565 66.3631 224.826C66.8857 232.705 68.0918 241.108 69.4184 248.505C70.9059 256.625 72.4737 265.55 75.4888 269.45C77.2978 271.781 83.2075 276.324 86.9865 275.52C91.288 274.636 93.4991 266.595 92.0519 260.645C91.4086 260.042 90.082 260.123 90.0016 258.957C90.7654 257.269 92.1724 256.143 91.6899 253.208C90.6447 252.846 90.2829 256.103 87.9512 255.58C85.7804 251.439 93.9815 249.429 90.6448 244.083C89.3181 245.932 88.8358 248.585 85.9011 248.826C83.9714 245.047 89.8006 243.198 90.283 239.339C90.5644 237.208 89.1976 235.319 88.9162 232.585C86.6247 235.278 86.504 240.103 82.1622 240.706C80.514 238.776 83.2477 237.208 84.1723 235.64C84.8155 234.555 85.097 233.148 85.8608 231.942C87.3483 229.53 90.0819 227.399 88.5542 223.499C86.2226 225.63 85.7402 233.027 81.4386 230.937C83.3281 225.871 86.1422 221.65 88.8759 217.429C88.6749 216.183 89.3181 214.052 88.5542 213.369C87.911 215.218 86.5845 216.947 85.499 218.796C84.5342 220.444 84.092 223.459 81.1171 223.178C80.5141 220.484 82.6849 218.153 83.8105 216.062C85.1372 213.65 86.504 211.439 87.5492 208.946C87.6296 207.982 89.1574 208.544 88.9162 207.258C88.7152 204.645 89.3583 201.188 88.5945 199.137C86.4236 202.916 85.5392 208.022 81.4789 209.951C81.3985 209.67 81.1974 209.549 80.7954 209.63C80.3934 206.856 82.6045 204.846 83.8507 202.514C85.0568 200.223 86.4237 197.69 86.9061 194.755C87.3483 193.951 89.0368 194.434 88.9162 193.067C88.9564 189.891 88.8357 186.836 88.2327 184.263C87.1472 186.474 85.4989 188.564 84.1723 190.695C82.8859 192.786 81.921 195.881 78.7451 196.122C77.4586 194.594 79.1471 193.469 79.7501 192.383C81.8004 188.846 84.0517 185.63 86.1824 182.574C86.705 181.489 88.5141 183.298 88.1924 181.891C87.9914 178.956 88.6347 175.137 87.8709 172.765C87.4689 174.574 86.102 176.022 85.1773 177.509C84.2929 178.876 83.6498 181.529 81.1171 181.248C79.71 179.72 81.5593 177.911 82.4839 176.504C84.0518 174.052 85.4989 171.599 86.5442 169.388C86.7854 168.705 88.5543 169.589 88.2327 168.383C87.7503 162.835 89.0769 157.288 88.2327 152.504C86.0216 155.921 85.2578 160.825 81.4789 162.634C79.3884 161.509 81.4789 158.654 82.4839 156.886C84.1724 153.871 85.5794 150.172 88.2327 149.127C87.6297 148.403 88.313 146.353 87.5492 145.75C85.9814 147.921 85.7402 151.378 82.1221 151.499C80.7955 149.609 83.1272 147.76 84.1322 146.071C85.298 144.142 86.1422 142.011 87.5091 140.644C87.5493 138.715 87.5894 136.745 87.1874 135.217C87.0668 134.815 85.3382 137.388 84.1322 135.9C83.4086 133.328 86.303 131.559 87.1874 129.468C86.7452 127.659 86.8256 125.287 86.1824 123.719C85.6196 125.086 84.6547 127.016 82.8055 126.091C82.7653 123.679 83.6497 119.619 85.499 117.971C84.9764 112.383 82.6447 106.875 83.4889 101.046C89.1573 97.1864 89.278 109.448 89.9212 113.227C90.886 118.855 91.9715 123.88 92.2931 128.463C93.2579 141.77 93.2578 155.036 93.9815 166.011C96.9564 164.805 98.7253 167.258 101.419 167.378C106.766 167.579 110.223 163.077 111.911 158.574C110.585 158.896 109.137 159.097 109.218 157.207C109.178 155.358 111.871 156.283 112.273 154.835C112.112 150.413 112.434 146.393 112.957 142.654C109.74 143.82 109.178 147.679 105.519 148.403C103.831 144.544 109.379 142.453 111.268 139.961C112.514 139.921 112.233 139.599 113.278 139.961C113.077 137.388 113.479 135.458 113.6 133.207C111.188 133.488 110.544 138.513 107.168 138.956C105.64 136.704 107.931 134.333 109.178 132.885C110.705 131.157 112.755 129.669 113.921 128.142C113.72 127.458 114.323 125.93 113.6 125.77C111.911 127.619 109.539 133.287 106.484 130.513C108.534 127.016 111.308 124.322 113.921 121.388C113.72 120.141 114.364 118.011 113.6 117.327C111.389 119.498 110.786 123.277 107.168 124.081C105.64 121.549 108.213 119.82 109.539 118.011C110.665 116.443 113.56 113.749 113.921 112.262C114.283 110.855 113.64 109.408 113.921 107.518C112.434 108.483 109.941 110.051 108.494 112.262C107.57 113.709 107.69 116.322 105.439 116.322C103.067 114.232 105.921 111.538 107.127 109.89C108.575 107.92 110.424 105.709 112.554 105.146C113.238 105.267 113.439 105.83 113.921 106.151C113.841 102.654 113.761 99.0759 113.238 96.0206C110.464 99.1965 109.66 104.383 105.439 106.151C103.429 104.101 106.283 101.89 107.489 100.081C108.896 97.8699 109.982 95.498 111.188 93.6487C112.072 93.2065 112.193 92.9252 113.198 93.3272C112.756 91.5181 112.756 89.2668 111.831 87.9C110.705 90.2316 108.977 92.2015 107.449 94.3322C105.962 96.3825 104.997 99.4377 102.384 100.403C100.414 97.9503 103.308 95.0559 104.755 92.9654C106.444 90.5533 108.735 88.4225 109.499 85.8497C110.102 85.528 110.344 84.8849 111.509 85.1663C110.866 80.3421 109.097 76.322 106.444 72.9853C101.419 66.7541 97.6398 62.6534 89.881 59.4775C87.2277 58.3921 83.5291 57.0253 81.0768 56.7841C76.5743 56.3017 74.5642 58.3519 72.2727 59.4775C67.8908 61.6484 63.3078 63.1359 57.7198 63.5379C55.1067 63.7389 52.8956 62.9348 50.2825 62.8544C49.2373 62.8142 47.9107 63.3771 46.5438 63.1761C44.373 62.8947 42.5237 61.1661 40.4734 60.8042C38.9457 60.563 36.6542 60.6836 35.0462 60.8042C26.6441 61.4073 19.0862 66.1108 15.1063 70.935C12.2118 74.4727 10.6037 77.4074 8.67403 81.7492C6.70416 86.2517 5.41775 89.307 4.93533 95.2568C4.2117 104.945 5.90015 112.101 6.30216 120.946C6.82478 132.282 6.34242 145.629 6.98564 154.433C7.42786 160.222 8.55341 168.383 12.0509 170.675C14.865 172.524 20.4129 171.76 22.5436 170.996C21.2169 168.665 24.7145 166.775 24.5939 163.559C23.428 163.599 20.2119 169.951 18.1616 165.931C20.1315 163.278 22.7044 161.227 24.5939 158.494C24.1517 155.8 25.3577 152.986 24.5939 151.056C22.624 153.026 22.7043 157.046 18.845 157.127C18.242 154.755 20.0912 152.504 21.2169 150.695C22.4631 148.725 24.1516 146.875 25.2772 144.946C25.0762 142.815 25.7195 139.76 24.9557 138.192C24.5939 140.081 23.0662 141.89 21.9003 143.619C20.8953 145.147 19.9707 148.363 17.1566 146.996C17.438 143.82 20.1315 141.77 21.5385 139.237C22.6642 137.227 23.7095 135.016 24.5939 133.167C24.9155 132.443 26.0009 131.478 24.9154 130.795C23.9104 133.046 23.9506 136.584 20.5335 136.664Z" fill="#073742"/>
<path fill-rule="evenodd" clip-rule="evenodd" d="M263.631 15.2559C266.043 15.5373 266.083 21.246 262.626 20.3213C262.264 19.1555 261.46 14.9745 263.631 15.2559Z" fill="#073742"/>
<path fill-rule="evenodd" clip-rule="evenodd" d="M268.374 17.6285C269.178 20.4024 267.61 23.2969 265.681 24.3823C262.585 23.1361 266.123 19.1562 266.686 17.2667C267.651 17.0255 267.57 17.7491 268.374 17.6285Z" fill="#073742"/>
<path fill-rule="evenodd" clip-rule="evenodd" d="M272.437 22.009C271.833 25.7075 269.421 30.773 265.683 29.1247C266.286 25.9086 269.462 25.2653 269.743 21.6874C270.024 21.406 270.668 21.4863 270.748 21.0039C271.753 20.9235 271.914 21.6471 272.437 22.009Z" fill="#073742"/>
<path fill-rule="evenodd" clip-rule="evenodd" d="M71.9101 25.748C71.9101 26.3108 71.9101 26.8736 71.9101 27.4364C69.1362 30.0495 68.2517 23.7379 71.9101 25.748Z" fill="#073742"/>
<path fill-rule="evenodd" clip-rule="evenodd" d="M276.174 26.7535C276.576 29.7284 274.405 30.1705 273.802 32.1806C270.224 34.0299 269.139 40.1003 264.315 39.6179C263.109 37.6078 265.32 36.4421 266.687 35.9194C268.697 32.1807 272.315 30.05 274.124 26.1103C275.29 25.8289 275.571 26.4721 276.174 26.7535Z" fill="#073742"/>
<path fill-rule="evenodd" clip-rule="evenodd" d="M75.9715 32.8236C75.6499 32.8236 75.69 33.2256 75.6498 33.507C73.5593 34.6729 70.705 32.6627 71.5894 30.8135C72.8759 29.7682 75.7303 30.8537 75.9715 32.8236Z" fill="#073742"/>
<path fill-rule="evenodd" clip-rule="evenodd" d="M276.174 34.553C277.34 38.6133 272.837 41.1459 270.425 42.9952C267.732 45.0857 264.154 47.8194 260.616 47.3771C260.817 43.6786 265.119 43.4777 267.37 41.95C269.903 40.2616 271.511 37.8896 273.802 36.2011C273.521 35.1157 274.325 35.156 274.486 34.5128C275.048 34.553 275.611 34.553 276.174 34.553Z" fill="#073742"/>
<path fill-rule="evenodd" clip-rule="evenodd" d="M77.3375 40.3015C74.4832 41.4271 72.7143 38.6532 71.2671 37.2461C72.3525 34.0702 77.3375 37.2059 77.3375 40.3015Z" fill="#073742"/>
<path fill-rule="evenodd" clip-rule="evenodd" d="M77.6598 47.7382C74.3231 48.1 69.2979 45.5673 70.2226 41.6677C70.4638 41.6677 70.6648 41.6677 70.906 41.6677C72.5945 41.7883 73.3583 43.4365 74.6045 44.3612C75.6497 45.0848 78.3031 45.2457 77.6598 47.7382Z" fill="#073742"/>
<path fill-rule="evenodd" clip-rule="evenodd" d="M73.2771 52.442C69.4579 51.839 68.6138 48.3415 66.1615 46.3716C65.277 45.9294 63.9504 45.8892 63.7896 44.6832C63.6288 43.5174 64.7946 43.6781 65.1564 42.9947C69.458 44.2007 71.1465 48.0601 73.9606 50.7938C73.9606 51.236 73.9606 51.6782 73.9606 52.1606C73.5585 52.0802 73.3575 52.2008 73.2771 52.442Z" fill="#073742"/>
<path fill-rule="evenodd" clip-rule="evenodd" d="M274.807 44.3218C274.928 46.5731 272.314 47.4977 270.747 48.7037C267.611 51.156 265.038 53.4877 260.937 55.4575C259.289 56.2616 256.998 57.749 255.189 56.4626C255.43 53.3671 259.571 53.0053 261.942 51.7188C265.4 49.8294 269.42 46.1711 272.435 43.5982C273.561 43.558 274.526 43.5982 274.807 44.3218Z" fill="#073742"/>
<path fill-rule="evenodd" clip-rule="evenodd" d="M289.36 67.316C287.511 67.1552 287.229 63.2958 288.355 62.2506C291.249 61.326 291.651 67.1552 289.36 67.316Z" fill="#073742"/>
<path fill-rule="evenodd" clip-rule="evenodd" d="M294.425 64.9857C295.551 67.7998 295.47 74.0311 291.731 74.1116C290.324 72.9859 291.611 70.9357 292.053 69.7296C292.174 68.0411 291.651 65.7094 292.736 64.9857C293.299 64.9857 293.862 64.9857 294.425 64.9857Z" fill="#073742"/>
<path fill-rule="evenodd" clip-rule="evenodd" d="M97.2787 65.3069C98.2034 66.3119 98.3642 69.4878 96.9572 70.0506C94.2637 70.4526 93.9822 64.4626 97.2787 65.3069Z" fill="#073742"/>
<path fill-rule="evenodd" clip-rule="evenodd" d="M131.771 68.6845C132.053 69.5287 132.213 70.4936 132.093 71.7398C130.404 74.0313 126.384 73.0665 126.022 70.7348C125.58 67.8001 129.118 66.6342 131.771 68.6845Z" fill="#073742"/>
<path fill-rule="evenodd" clip-rule="evenodd" d="M119.952 68.3627C125.901 67.1566 122.926 74.6341 118.947 73.4281C118.665 73.3477 117.339 72.5437 117.258 71.0562C117.097 68.7647 117.982 68.7647 119.952 68.3627Z" fill="#073742"/>
<path fill-rule="evenodd" clip-rule="evenodd" d="M101.659 69.3671C103.428 71.8194 101.619 75.6386 99.649 76.4828C96.6339 75.317 100.011 71.1761 100.654 69.3671C101.016 69.3671 101.337 69.3671 101.659 69.3671Z" fill="#073742"/>
<path fill-rule="evenodd" clip-rule="evenodd" d="M136.836 70.0501C139.77 68.6029 145.559 70.2511 144.956 73.7888C144.876 74.3114 144.032 75.5979 143.268 75.7989C141.941 76.1607 141.419 75.1557 139.891 74.7938C138.122 74.3516 135.75 75.1959 135.147 73.1055C134.585 70.9748 135.992 70.4521 136.836 70.0501Z" fill="#073742"/>
<path fill-rule="evenodd" clip-rule="evenodd" d="M103.388 90.6733C103.388 90.3517 102.986 90.3918 102.705 90.3516C102.222 86.9345 105.358 84.4823 105.76 80.9044C103.71 80.4622 103.629 81.9094 103.067 82.9144C101.258 83.0351 100.815 85.4069 99.0062 85.2863C96.6745 85.1255 95.5891 82.2712 97.6394 80.2209C98.6846 80.3013 100.132 79.9796 100.695 80.5425C102.584 78.7334 103.107 75.5173 103.75 72.4218C104.152 72.0198 104.956 72.0199 105.76 72.1003C106.041 72.9043 106.846 74.0299 106.122 74.7937C108.011 75.4771 107.81 78.2912 109.177 79.5374C107.971 83.9596 107.127 88.7838 103.388 90.6733Z" fill="#073742"/>
<path fill-rule="evenodd" clip-rule="evenodd" d="M258.245 76.1215C256.798 78.011 254.104 76.7647 252.175 77.1265C248.597 77.7697 246.908 80.3425 245.059 82.5536C241.079 80.4631 245.34 76.8853 248.114 75.438C250.808 74.031 257.079 72.4632 258.245 76.1215Z" fill="#073742"/>
<path fill-rule="evenodd" clip-rule="evenodd" d="M150.385 82.2312C150.747 83.3568 152.194 83.3568 153.44 83.598C157.782 86.6935 151.752 92.7237 149.742 87.3367C148.696 87.7789 148.053 88.5829 146.686 88.7035C143.068 87.7789 144.475 82.9548 147.691 82.6332C147.129 80.5829 145.32 80.9849 145.681 78.5728C146.325 73.5878 154.244 77.9296 150.385 82.2312Z" fill="#073742"/>
<path fill-rule="evenodd" clip-rule="evenodd" d="M172.012 82.231C169.801 84.0802 167.067 82.5928 167.268 80.1807C167.59 76.6429 173.982 77.3264 172.012 82.231Z" fill="#073742"/>
<path fill-rule="evenodd" clip-rule="evenodd" d="M179.45 79.1758C180.455 81.5477 179.369 83.3568 177.761 83.5578C173.339 84.201 174.223 75.9195 179.45 79.1758Z" fill="#073742"/>
<path fill-rule="evenodd" clip-rule="evenodd" d="M184.194 79.1767C186.084 78.3727 187.491 79.0159 187.893 80.5436C189.782 87.2572 177.48 81.9506 184.194 79.1767Z" fill="#073742"/>
<path fill-rule="evenodd" clip-rule="evenodd" d="M157.137 80.1805C159.067 79.6579 161.439 80.1403 161.198 82.874C160.675 88.8641 149.66 82.271 157.137 80.1805Z" fill="#073742"/>
<path fill-rule="evenodd" clip-rule="evenodd" d="M249.118 94.0511C247.912 94.0913 247.872 95.2974 246.425 95.0561C245.018 94.6943 243.892 94.0109 243.37 92.6843C241.52 93.2873 238.505 92.7647 237.299 91.6792C236.375 89.9908 237.339 88.4229 238.304 87.6189C242.807 87.1364 243.812 89.4279 247.792 89.9907C246.586 81.066 256.676 79.5785 261.983 84.5635C264.154 82.9153 265.279 80.2218 269.742 80.8651C272.315 82.4731 274.486 84.4832 275.812 87.2973C277.058 95.6994 270.465 98.7949 267.008 103.86C265.802 105.629 265.641 108.323 263.631 108.242C261.702 108.202 258.445 105.308 256.515 103.498C253.259 100.443 250.927 97.7496 249.118 94.0511ZM256.877 96.0612C256.355 93.5285 256.596 90.2722 256.556 87.2571C249.922 85.9304 254.385 94.8149 256.877 96.0612Z" fill="#073742"/>
<path fill-rule="evenodd" clip-rule="evenodd" d="M208.515 89.6292C206.223 88.9056 203.49 88.5437 203.088 86.5739C201.801 79.6592 215.791 85.8101 208.515 89.6292Z" fill="#073742"/>
<path fill-rule="evenodd" clip-rule="evenodd" d="M82.0815 87.9408C80.9156 89.0665 79.991 88.0614 78.3428 87.9408C76.4533 88.5037 74.2421 88.785 71.5888 88.6242C70.3024 88.986 68.7346 90.4735 67.5286 88.9459C67.2472 85.2473 72.5538 85.8503 75.9709 85.5688C77.579 85.4482 82.6443 84.0413 82.0815 87.9408Z" fill="#073742"/>
<path fill-rule="evenodd" clip-rule="evenodd" d="M91.2081 86.2513C93.0172 85.3266 94.6253 86.2513 94.9067 87.9398C95.9921 94.4122 85.9819 88.9448 91.2081 86.2513Z" fill="#073742"/>
<path fill-rule="evenodd" clip-rule="evenodd" d="M143.952 86.6125C145.881 90.2709 142.102 92.7634 139.57 94.0498C140.937 98.3514 134.263 100.201 133.821 96.0599C133.66 94.6528 135.148 92.8437 136.876 92.3613C137.117 88.502 139.931 85.6075 143.952 86.6125Z" fill="#073742"/>
<path fill-rule="evenodd" clip-rule="evenodd" d="M223.39 88.9855C225.319 95.0961 214.103 91.7595 213.581 89.669C212.254 84.3624 222.103 86.292 223.39 88.9855Z" fill="#073742"/>
<path fill-rule="evenodd" clip-rule="evenodd" d="M235.57 88.6236C237.782 93.287 229.46 93.689 227.128 91.679C224.676 86.8146 233.319 86.7342 235.57 88.6236Z" fill="#073742"/>
<path fill-rule="evenodd" clip-rule="evenodd" d="M88.4744 90.3111C89.0372 92.4417 88.0724 94.2105 86.4644 94.3713C81.5598 94.8939 83.7307 86.2507 88.4744 90.3111Z" fill="#073742"/>
<path fill-rule="evenodd" clip-rule="evenodd" d="M76.6542 90.6734C79.3879 93.4071 82.3629 95.0553 81.7196 100.804C80.9156 107.96 73.9607 113.427 70.222 117.046C65.6792 115.598 55.7897 109.447 53.2972 104.865C49.6791 98.1509 55.0258 89.3065 63.4279 92C65.036 92.5226 65.7194 94.0101 67.4883 95.0553C69.5788 92.6031 71.629 90.1508 76.6542 90.6734ZM62.1013 105.87C60.4933 104.221 59.2068 102.211 57.7194 100.442C57.4782 103.739 61.0159 105.066 62.1013 105.87Z" fill="#073742"/>
<path fill-rule="evenodd" clip-rule="evenodd" d="M155.771 92.6841C156.655 95.458 156.012 97.9505 153.761 98.1113C148.856 98.3927 151.067 88.4227 155.771 92.6841Z" fill="#073742"/>
<path fill-rule="evenodd" clip-rule="evenodd" d="M154.082 105.186C152.916 105.507 151.992 106.231 150.705 105.507C151.549 108 150.786 109.286 149.017 109.889C147.208 110.532 144.635 108.603 143.589 110.211C141.579 109.728 139.77 109.045 139.851 106.512C139.087 106.271 137.76 106.311 136.795 105.507C134.424 100.924 142.142 99.4368 141.539 104.502C143.871 105.547 146.765 104.784 149.66 104.824C148.775 101.768 151.469 95.9392 155.087 99.3965C155.851 101.567 154.524 103.296 154.082 105.186Z" fill="#073742"/>
<path fill-rule="evenodd" clip-rule="evenodd" d="M111.831 150.856C111.389 153.67 108.816 157.288 106.082 155.6C106.766 153.027 109.218 149.288 111.831 150.856Z" fill="#073742"/>
<path fill-rule="evenodd" clip-rule="evenodd" d="M87.4685 163.037C87.5489 165.529 85.579 167.057 84.4132 168.786C83.4483 170.193 82.8453 173.208 80.0312 172.846C78.8654 170.836 81.0765 169.228 82.0413 167.781C83.2071 166.052 84.0112 163.841 85.4182 162.353C86.6242 162.072 86.8655 162.715 87.4685 163.037Z" fill="#073742"/>
</svg>
