<svg width="318" height="327" viewBox="0 0 318 327" fill="none" xmlns="http://www.w3.org/2000/svg">
<path d="M149.054 176.891C149.519 177.357 151.273 177.392 151.775 176.963C151.703 176.247 151.452 175.71 151.238 175.137C149.877 175.065 149.233 175.71 149.054 176.891Z" fill="#36D9FF"/>
<path d="M96.5653 210.619C96.5295 210.798 96.4937 211.048 96.4579 211.227L98.069 210.655C97.5678 210.655 97.0665 210.655 96.5653 210.619Z" fill="#36D9FF"/>
<path d="M215.041 29.3422C211.496 29.5212 208.202 30.0583 204.478 29.9509C200.755 29.8435 196.852 29.4496 193.021 29.6287C189.333 29.8077 185.538 30.3805 181.85 30.5237C169.892 30.9534 157.683 29.5212 146.011 29.8077C140.354 29.9509 134.84 30.2373 129.398 30.846C123.955 31.4546 118.621 32.5646 113.358 32.8152C97.8545 33.4597 83.712 32.5287 70.4288 37.6129C75.6561 40.6204 81.0267 44.5231 85.5022 48.2825C86.8627 49.4282 89.548 50.7171 88.6887 53.1876C86.3615 52.9728 84.7145 51.0394 83.0675 49.7146C77.876 45.5256 72.8276 41.5513 66.5261 38.4006C62.3729 40.6204 57.969 40.8711 54.9257 44.0934C51.8466 47.3158 51.6317 52.3999 50.0205 57.8063C49.4119 59.8113 48.302 61.3509 48.0514 62.8904C47.6217 65.8622 48.6242 69.8722 48.6242 73.739C48.66 77.7848 48.0872 82.1171 48.2662 85.7691C48.6958 93.4311 50.486 100.663 50.7008 106.321C50.7366 107.18 52.2404 106.571 52.7774 107.609C58.0048 112.515 64.4137 116.381 69.5337 121.645C73.3647 125.547 77.3389 129.378 80.9551 133.138C82.0292 134.248 84.3206 135.715 83.5329 137.721C81.6353 138.293 80.1674 136.288 79.0933 135.178C75.1907 131.204 71.5387 127.266 67.6719 123.399C63.1606 118.888 57.5752 114.913 52.67 111.226C52.2046 110.868 51.0947 109.077 50.8798 110.259C52.2046 120.141 52.849 131.168 56.0714 139.618C57.2171 142.626 57.8616 146.313 59.7592 147.853C60.5111 148.462 61.9432 148.533 63.3396 149.178C64.7359 149.822 65.4162 150.574 66.5977 150.789C69.1756 151.219 72.4696 150.574 75.6561 150.753C84.9293 151.29 94.8828 150.861 104.263 151.863C111.424 152.651 120.268 153.546 127.429 153.116C131.797 152.866 136.308 151.648 141.034 151.111C145.653 150.574 150.379 150.144 154.962 149.393C164.486 147.853 174.26 147.352 183.641 146.922C186.755 146.779 190.479 147.388 193.558 147.209C197.604 146.958 202.08 145.526 206.877 145.168C208.345 145.06 209.849 145.383 211.389 145.311C213.107 145.203 214.826 144.631 216.508 144.559C218.836 144.452 221.127 144.881 223.419 144.774C225.997 144.631 228.574 143.879 231.295 143.485C234.196 143.091 237.275 143.449 239.745 142.84C243.97 141.802 249.341 136.718 249.985 132.887C250.558 129.414 249.341 122.969 249.126 120.212C248.553 112.443 249.126 101.487 248.66 94.004C248.302 87.9531 249.197 81.9739 248.875 76.2453C248.374 67.1869 247.908 62.3892 246.19 54.1901C245.187 49.3924 245.581 44.3082 244.149 40.8711C240.64 31.9917 228.36 28.5903 215.041 29.3422ZM78.1982 147.137C76.4796 147.781 75.4413 145.848 74.6536 144.917C71.8967 141.623 69.4262 138.186 66.2039 135.035C64.1273 132.994 62.1939 130.846 60.0456 128.841C58.0048 126.908 55.1763 125.619 53.6009 123.22C53.6009 122.934 53.601 122.611 53.6368 122.325C56.0356 121.143 59.5802 125.118 61.9074 127.373C67.6361 132.887 72.3622 137.255 77.1241 143.485C77.8402 144.452 79.2723 145.92 78.1982 147.137ZM97.3891 139.546C95.9569 140.012 94.7038 138.723 93.8087 137.935C83.4614 129.02 73.8301 117.993 63.626 108.433C59.8666 104.924 55.2479 102.239 52.491 97.8708C52.4194 97.3695 52.7774 97.3695 52.8132 96.9757C53.0639 96.9399 53.1355 96.6893 53.4219 96.6893C53.5294 96.7251 53.6367 96.6535 53.7083 96.6893C55.3553 97.2621 57.79 99.8042 59.9024 101.666C69.6053 110.259 78.5562 119.317 87.4356 128.376C89.19 130.166 91.0876 131.992 93.021 133.639C94.668 135.071 98.0694 136.575 97.3891 139.546ZM101.399 136.646C98.3558 133.71 95.7421 130.918 92.5913 127.946C91.1592 126.55 88.5455 125.69 88.7961 123.327C91.2308 122.361 92.7704 124.903 94.1309 126.192C97.0668 128.984 99.9311 131.383 102.939 134.283C104.299 135.608 106.447 136.79 106.734 138.902C104.765 140.298 102.652 137.864 101.399 136.646ZM89.6912 61.8879C86.6121 62.3176 84.4281 59.5607 82.2798 58.0569C77.7328 54.9062 73.5795 51.0394 68.7102 48.0318C66.3829 46.5997 63.4828 45.9194 61.2988 43.9144C61.5494 43.1625 62.0506 42.6613 62.8383 42.4464C71.2522 45.3824 77.0166 51.469 83.8194 56.3025C85.8602 57.7705 89.4764 58.7014 89.6912 61.8879ZM152.921 136.038C150.773 137.685 149.126 135.107 147.837 134.069C146.226 132.78 144.722 131.634 143.433 130.345C140.64 127.552 137.024 125.476 135.234 122.289C135.663 122.146 135.986 121.824 136.165 121.43C136.451 121.43 136.773 121.43 137.06 121.466C141.714 124.867 145.223 129.092 149.985 132.672C151.059 133.424 153.1 134.176 152.921 136.038ZM151.775 123.65C149.842 124.545 148.839 122.683 148.231 121.43C149.018 118.888 152.599 121.108 151.775 123.65ZM177.303 137.649C175.692 138.222 174.69 136.646 173.759 135.751C168.997 131.133 163.59 126.478 158.506 121.752C156.537 119.926 154.926 117.635 152.957 115.88C151.381 114.448 149.269 113.481 147.658 112.121C146.047 110.796 144.758 109.149 143.254 107.788C137.096 102.167 130.722 96.9757 124.135 91.5693C120.984 88.9556 117.511 86.4852 114.718 83.4777C114.682 82.7258 115.219 82.5468 115.649 82.2961C120.697 84.8024 128.145 91.3903 132.763 95.1497C138.528 99.8042 143.683 104.709 148.338 108.863C157.611 117.097 166.204 124.724 175.048 133.424C176.014 134.355 178.234 135.572 177.303 137.649ZM175.943 121.322C174.117 122.11 173.329 119.962 172.398 119.102C169.319 116.274 166.132 113.553 163.018 110.402C153.207 100.592 142.43 91.3903 130.687 82.3677C128.825 80.9356 124.636 78.0713 124.528 76.4601C124.493 75.8156 124.707 75.6724 124.851 75.2786C127.608 75.4934 129.684 78.4293 132.513 80.6133C144.077 89.4569 154.711 99.1597 164.844 108.97C166.849 110.903 168.925 113.016 171.002 114.878C172.899 116.525 176.551 117.957 175.943 121.322ZM169.104 97.9424C166.562 98.7659 165.202 96.3312 163.769 95.0781C156.286 88.526 149.305 82.4751 140.497 76.0304C139.28 75.1354 137.525 73.6316 135.807 72.271C133.73 70.6599 131.224 69.8006 131.439 67.3301C131.689 67.1869 131.94 67.0437 132.369 67.0437C136.021 68.8339 139.208 71.555 142.395 73.9538C148.839 78.8231 154.818 83.6925 160.941 89.2421C162.337 90.531 163.841 91.9632 165.345 93.2879C166.705 94.541 169.355 95.4361 169.104 97.9424ZM221.02 41.5871C223.526 41.8736 224.493 43.5921 224.815 45.9194C222.273 46.9219 219.981 43.9144 221.02 41.5871ZM205.159 38.7228C205.409 38.5796 205.66 38.4364 206.054 38.4364C211.389 41.3007 215.792 45.454 220.519 49.106C222.882 50.932 225.209 52.9012 227.608 54.7272C229.899 56.4816 233.086 57.4841 234.375 60.3484C233.05 61.8521 231.331 60.3484 230.186 59.6323C226.283 57.2334 223.061 54.0827 219.301 51.1826C217.26 49.6072 214.682 47.6738 211.926 45.5614C209.312 43.5921 205.23 41.5513 205.159 38.7228ZM225.352 111.297C223.383 111.942 222.022 109.758 220.912 108.755C211.926 100.699 201.721 92.8941 192.054 85.0172C182.531 77.2478 172.935 69.0487 161.979 62.4608C160.654 61.6731 158.435 60.8138 158.47 58.7372C158.9 58.594 159.222 58.3075 159.688 58.1643C159.903 58.1643 160.082 58.1643 160.296 58.1643C180.884 71.734 199.788 87.9889 218.943 103.528C220.16 104.53 221.736 105.748 223.061 106.965C224.063 107.896 226.319 109.507 225.352 111.297ZM233.157 101.881C231.224 102.812 230.042 100.628 229.004 99.661C225.495 96.4386 222.022 92.9299 218.155 89.7075C208.202 81.4368 197.64 73.381 187.83 64.7164C184.142 61.4583 180.561 58.3433 176.981 54.7629C176.05 53.832 174.117 52.8653 174.69 51.0752C174.654 50.7171 174.761 50.5381 175.012 50.4665C175.262 50.4307 175.334 50.1801 175.62 50.1801C175.871 50.1443 175.907 50.3233 175.907 50.5023C189.584 63.7497 205.338 75.6724 220.304 88.2396C224.027 91.3545 227.178 94.6843 230.866 98.193C231.725 99.0165 234.124 99.9116 233.157 101.881ZM238.958 99.0523C236.738 99.84 235.735 97.3337 234.518 96.2238C230.615 92.6076 226.211 89.1705 222.165 85.3394C219.48 82.7974 217.153 80.2195 214.253 77.8922C211.46 75.6366 208.632 73.3093 205.732 71.0179C199.931 66.5066 193.701 62.246 188.044 57.5556C185.252 55.2642 182.745 52.5789 179.81 50.3949C178.377 49.3208 176.802 48.175 175.37 46.9577C174.153 45.9194 171.718 45.1317 171.861 42.9477C172.327 42.8045 172.649 42.518 173.078 42.3748C173.293 42.3748 173.472 42.3748 173.687 42.3748C184.858 51.3258 196.315 60.7422 207.844 69.55C210.816 71.8414 213.931 73.7748 216.688 76.1379C222.058 80.6849 226.748 86.4494 232.226 91.3545C233.408 92.4286 235.019 93.5743 236.344 94.7917C237.454 95.7226 239.853 96.8325 238.958 99.0523ZM238.993 87.5951C235.699 87.6667 233.3 84.3011 231.009 82.2603C223.848 75.8156 217.583 68.7265 209.598 62.3534C204.944 58.6656 199.179 54.9062 193.666 50.7529C191.446 49.0702 188.617 46.7071 185.717 44.8095C182.71 42.8403 179.201 41.3007 178.055 38.5438C178.234 38.1142 178.556 37.8277 178.986 37.6845C181.385 37.6487 182.853 40.4414 184.894 41.7662C186.218 42.6255 187.758 43.0909 189.047 43.986C197.282 49.7504 206.197 56.4099 214.11 63.0694C216.437 65.0387 218.764 66.8647 220.877 68.9771C225.925 74.1686 231.295 79.2528 236.988 84.1937C237.919 85.0172 239.853 85.7333 238.993 87.5951ZM241.392 77.1046C239.745 78.0355 238.564 76.3527 237.525 75.4934C234.41 72.9513 231.474 70.0154 228.431 67.0795C224.564 63.3559 219.838 60.1335 215.47 56.4815C209.348 51.3258 202.796 46.4206 195.134 41.4439C193.164 40.155 186.755 36.7894 189.906 34.9634C190.121 34.9634 190.3 34.9634 190.515 34.9634C202.187 42.5538 213.286 51.1468 224.135 60.0261C228.36 63.4633 232.083 67.6165 236.487 71.2327C238.277 72.7365 241.428 74.1687 241.392 77.1046Z" fill="#073742"/>
<path d="M13.8934 46.4573C14.0725 40.3706 14.5737 36.9335 15.5046 32.637C17.617 22.7193 21.4839 15.9524 26.389 10.0448C28.036 9.00645 29.9694 7.61009 31.6163 6.28535C33.1559 5.03221 35.4832 3.60006 35.3757 1.55924C35.1251 1.09379 34.6239 0.878967 33.872 0.914771C33.514 1.05799 33.1917 1.20121 32.9411 1.48765C30.2558 4.02972 27.3199 6.24955 24.3124 8.46939C23.5247 10.9399 20.732 12.6943 19.2998 14.9499C18.7627 15.7734 18.548 17.1697 18.0109 18.2439C17.4739 19.2464 16.5787 19.9266 16.1491 20.8933C12.8193 28.0541 11.4588 37.4705 11.1724 46.9585C11.1366 48.7845 10.0982 52.1501 12.4971 53.0094C14.5737 51.9353 13.8576 48.7487 13.8934 46.4573Z" fill="black"/>
<path d="M268.137 26.6571C267.063 24.6879 265.165 22.7545 263.483 21.1075C259.616 17.2407 254.925 13.8035 249.161 12.264L251.094 17.8852C252.348 18.3506 253.565 18.9235 254.782 19.6396C256.358 20.5705 258.219 22.4681 259.795 24.0076C261.513 25.7262 263.447 27.3374 264.163 28.6621C264.485 29.1992 264.378 30.2375 264.7 31.0968C264.986 31.8845 265.667 32.3499 265.846 32.9228C268.03 39.4749 267.6 49.5 267.815 58.2719C267.886 60.8856 267.851 63.4277 267.779 66.0056L271.896 77.8924C272.183 74.2046 272.541 70.3736 272.684 66.5426C272.827 61.7091 272.254 56.983 272.183 52.3643C272.04 41.8738 271.61 33.066 268.137 26.6571Z" fill="black"/>
<path d="M258.112 155.623C257.575 155.623 257.037 155.623 256.5 155.659L242.358 160.564C247.872 160.206 253.529 159.955 259.186 160.457C260.618 166.758 263.124 172.809 264.986 179.289C266.776 185.555 267.958 192.179 270.142 198.409C271.252 201.595 272.397 204.531 273.185 207.825C275.369 217.062 278.699 227.338 280.167 237.256C280.561 239.834 280.668 242.412 281.133 245.133C282.673 253.726 284.392 264.288 283.926 274.134C282.494 274.921 281.671 271.305 279.451 272.809C278.878 275.924 283.21 275.852 282.601 278.036C282.172 279.576 279.737 277.249 278.735 276.425C277.482 275.387 276.479 273.346 274.581 273.597C272.254 278.251 283.819 279.111 279.415 283.98C277.302 282.834 275.656 281.295 273.794 279.898C272.111 278.609 270.321 276.891 267.886 276.425C266.776 278.036 268.101 278.86 268.996 279.755C269.676 280.435 271.18 281.366 271.968 281.939C273.937 283.443 276.336 284.481 277.553 286.307C277.195 287.56 276.157 288.133 275.083 288.634C273.579 288.312 272.218 286.952 270.965 285.806C268.387 283.514 266.132 280.865 263.339 278.359C262.229 277.356 260.654 275.387 258.899 276.139C257.861 278.144 260.439 279.182 261.477 280.149C264.879 283.192 269.068 287.345 271.717 290.389C270.643 290.389 268.853 291.141 267.779 290.89C266.525 290.604 264.377 288.133 263.088 287.131C259.615 284.481 256.751 282.548 253.672 279.612C252.276 278.287 250.843 275.996 248.624 276.748C247.872 278.86 250.414 279.97 251.524 281.044C255.283 284.624 260.081 288.205 264.485 291.355C260.546 292.251 256.572 292.573 252.097 293.11C250.629 293.289 248.803 293.826 247.872 293.575C246.332 293.217 243.253 289.709 241.678 288.276C237.417 284.338 234.087 281.116 229.934 277.392C228.036 275.709 226.389 272.952 223.74 272.988C222.988 275.638 226.139 277.356 227.786 278.824C232.906 283.407 239.35 288.742 243.325 293.719C233.944 294.757 225.208 293.074 215.326 293.217C210.671 293.289 205.766 293.933 200.861 294.005C189.834 294.184 180.739 293.289 170.464 293.432C159.042 293.611 147.514 292.394 135.269 291.499C129.397 291.069 123.453 290.818 117.51 290.389C111.781 289.959 106.088 288.813 100.396 288.384C94.309 287.954 88.2223 288.312 82.3504 287.847C79.4503 287.632 76.5144 286.916 73.6501 286.701C67.098 286.164 60.725 286.558 54.7099 285.842C47.0837 284.947 38.3475 282.261 31.688 279.755C29.2175 278.824 26.5323 278.251 24.8137 277.141C20.8394 274.599 19.4431 269.336 16.4356 265.469C16.0417 253.224 19.1566 244.488 22.4506 234.893C24.7779 228.162 26.4606 221.359 28.7163 215.487C33.5856 202.956 39.6007 191.427 44.2194 179.468C44.828 179.289 45.4367 179.719 46.117 180.256L43.2526 172.021C39.3142 179.576 35.6264 187.596 32.2967 195.401C30.6139 199.34 28.5373 203.242 26.8187 207.288C23.4889 215.236 21.4123 224.51 18.2258 233.246C15.8985 239.655 14.0725 246.099 12.5329 253.26C12.0317 255.659 10.8143 257.915 10.5279 260.135C9.77603 265.863 11.423 268.262 12.5688 272.558C13.2848 275.244 14.0009 278.108 14.7528 280.758C16.3282 286.379 17.1517 292.036 19.7295 296.547C23.4889 303.171 30.1484 304.424 39.9587 305.57C53.8864 307.217 69.4611 308.613 82.9233 309.83C92.3039 310.654 102.078 311.871 112.068 312.193C127.177 312.623 142.752 313.375 157.216 314.091C162.014 314.306 166.883 314.055 171.681 314.198C196.099 314.914 224.349 317.6 246.977 315.451C252.097 314.95 257.073 316.347 261.728 315.881C264.592 315.595 267.743 314.163 270.858 312.838C274.116 311.441 277.052 310.26 278.806 308.255C281.277 305.391 281.957 301.237 283.353 296.332C283.998 294.148 284.929 292.215 285.645 290.389C286.468 288.241 287.507 286.271 287.936 284.41C289.154 279.039 288.724 272.487 288.437 266.329C288.187 260.278 287.829 254.263 286.826 249.107C284.678 237.865 283.067 227.41 280.525 217.277C279.308 212.408 278.484 207.073 276.73 202.096C275.047 197.335 273.185 192.68 272.039 187.488C271.037 183.049 269.605 177.642 267.958 172.594C266.776 169.014 262.301 159.633 263.912 156.518C264.628 155.122 265.129 153.869 265.666 152.329L259.15 154.585C258.72 155.05 258.47 155.372 258.112 155.623ZM29.2175 299.376C27.2125 297.478 26.4606 294.363 25.5297 291.427C24.5988 288.563 24.1692 285.305 23.3815 282.333C23.4531 281.975 23.3457 281.796 23.0951 281.724C23.2741 281.116 24.205 282.19 24.8853 282.082C24.5273 288.384 28.7521 292.895 29.2175 299.376ZM33.1201 299.805C32.1892 300.092 31.9028 298.516 31.6522 297.943C30.6497 295.401 30.2201 292 29.1817 289.136C28.4657 287.131 27.4631 285.448 26.9261 283.658C27.5347 282.834 28.4656 284.123 29.3249 284.016C30.5065 289.35 31.6522 294.721 33.1201 299.805ZM38.2401 300.521C37.4166 300.485 36.629 300.485 35.8413 300.45C34.5881 295.473 33.3708 290.496 32.3683 285.305C33.3708 285.698 34.6597 285.913 35.6622 286.307C36.0561 291.463 37.3092 295.831 38.2401 300.521ZM40.3884 298.48C39.4933 295.545 39.2426 291.391 38.2759 288.169C38.2759 287.882 38.2759 287.56 38.3117 287.274C39.6723 287.059 40.1019 287.739 41.3193 287.668C40.9254 292.609 42.7872 297.012 42.1427 301.237C40.7106 301.416 40.6748 299.376 40.3884 298.48ZM50.2344 302.383C48.7307 298.731 49.6258 292.788 47.2627 289.959C43.8613 292.107 47.6923 297.943 47.2269 302.025C44.7206 302.705 45.1861 300.02 44.9354 298.337C44.47 295.366 43.9688 292.465 43.9688 289.279C43.9688 288.992 43.9687 288.67 44.0045 288.384C46.654 289.1 49.4467 289.708 52.4184 290.138C52.3468 290.89 51.2369 290.532 51.1653 291.32C51.2727 295.33 52.132 298.588 52.3468 302.49C51.6308 302.419 50.9505 302.419 50.2344 302.383ZM59.257 303.242C57.7174 303.135 56.2853 302.92 55.0679 302.526C54.4593 298.803 54.137 294.793 53.6 291.033C53.3493 290.854 53.1345 290.711 52.7049 290.711C53.9938 289.816 55.5334 291.141 57.2162 290.854C58.2545 294.614 59.0063 298.695 59.257 303.242ZM61.9423 303.314C61.4052 299.018 60.9756 294.685 59.9015 290.89C60.9398 291.391 62.6226 291.248 64.0905 291.32C64.2337 295.473 64.735 299.304 64.6275 303.672C64.1621 303.207 62.8732 303.421 61.9423 303.314ZM67.6709 304.102C66.74 300.485 67.5277 295.258 66.5251 291.714C66.9548 291.033 68.6018 291.678 69.5327 291.499C69.4253 295.903 69.7117 299.913 69.7833 304.173C69.0672 304.137 68.3512 304.137 67.6709 304.102ZM72.4686 304.531C72.1106 300.378 72.039 295.938 71.9316 291.57C72.8267 291.606 73.7217 291.606 74.6526 291.642C74.5452 296.332 75.0107 300.485 75.4761 304.639C74.7242 305.498 73.5069 304.316 72.4686 304.531ZM80.8825 305.391C79.701 305.426 78.6626 305.355 77.875 304.997C77.9108 300.45 77.0157 296.833 77.3379 292.036C78.1972 292.107 79.3071 291.928 79.7368 292.394C80.2738 296.583 80.7751 300.808 80.8825 305.391ZM83.2814 305.462C83.5678 300.593 82.6369 296.905 82.4579 292.465C83.2456 292.501 84.0691 292.501 84.8568 292.537C85.358 296.762 86.1815 300.664 85.6802 305.82C84.6419 305.928 83.9975 305.641 83.2814 305.462ZM88.3655 306.214C88.9742 300.879 87.8285 297.191 87.542 292.644C88.2581 292.68 88.9384 292.68 89.6545 292.716C89.1532 296.654 91.1582 302.204 90.4779 306.286C89.7977 306.25 89.0816 306.214 88.3655 306.214ZM93.1991 306.644C93.2707 301.488 92.5545 297.084 91.8027 292.752C92.8052 292.788 93.8077 292.823 94.8102 292.823C95.025 297.693 96.0992 301.739 96.2066 306.715C95.2041 306.68 94.2016 306.68 93.1991 306.644ZM98.9277 306.787C98.6054 301.989 97.5671 297.943 97.5313 292.895C99.1783 292.716 99.966 293.325 101.434 293.325C101.685 297.872 102.365 302.025 102.257 306.894C101.112 306.859 100.002 306.823 98.9277 306.787ZM104.728 303.063C104.585 300.199 104.155 296.583 104.083 294.291C104.083 294.005 104.083 293.683 104.119 293.396C104.477 293.826 105.408 293.719 106.232 293.754C106.267 298.373 106.411 302.956 106.733 307.324C103.761 308.004 104.835 304.674 104.728 303.063ZM109.024 301.381C108.917 299.877 108.81 296.833 108.595 295.043C108.595 294.757 108.631 294.435 108.631 294.148C109.347 294.184 110.027 294.184 110.743 294.22C110.313 298.91 112.211 303.028 110.958 307.503C108.272 307.968 109.168 303.958 109.024 301.381ZM113.965 307.539C114.18 302.849 113.428 299.089 113.142 294.864C114.216 294.077 115.397 295.115 116.758 294.972C116.149 298.767 117.259 303.242 117.009 307.646C115.97 307.575 114.968 307.575 113.965 307.539ZM119.98 307.718C118.835 306.859 119.551 305.068 119.479 303.779C119.372 301.237 119.014 298.409 119.085 295.938C119.085 295.652 119.085 295.33 119.121 295.043C119.945 295.079 120.732 295.079 121.52 295.115C121.162 299.376 122.2 303.851 121.162 307.754C120.768 307.718 120.374 307.718 119.98 307.718ZM123.883 307.825C124.134 303.386 124.026 299.304 123.955 295.186C124.957 295.222 125.96 295.222 126.962 295.258C127.607 300.879 127.571 304.173 127.177 308.219C126.103 308.076 124.527 308.398 123.883 307.825ZM129.898 308.291C130.149 303.779 130.113 299.483 129.647 295.616C130.757 295.652 131.867 295.688 132.977 295.724C134.051 299.304 133.872 304.066 134.123 308.398C132.727 308.398 131.294 308.327 129.898 308.291ZM136.808 308.506C136.593 304.316 136.235 300.235 135.949 296.117C137.309 296.296 139.279 295.903 140.138 296.547C139.708 301.058 140.675 304.245 140.389 308.613C139.243 308.577 138.025 308.541 136.808 308.506ZM143.145 308.685C143.253 304.496 142.429 301.166 142.573 296.905C143.933 296.153 145.867 297.048 147.406 297.048C147.478 300.879 147.299 304.961 147.692 308.506C146.726 309.186 144.542 308.506 143.145 308.685ZM150.056 308.864C150.091 304.46 149.984 302.705 149.769 297.406C150.664 297.442 151.595 297.442 152.49 297.478C150.664 299.841 152.705 304.961 152.168 308.899C151.488 308.935 150.772 308.899 150.056 308.864ZM158.505 309.114C157.968 305.605 159.83 299.877 156.679 298.803C154.173 299.984 156.715 306.572 155.784 309.007C154.603 309.222 154.746 307.575 154.638 306.859C154.388 304.854 154.746 301.739 154.531 299.626C154.137 299.232 154.459 298.158 153.672 298.087C155.39 297.442 158.398 298.122 160.618 297.979C160.51 301.882 161.012 305.212 160.904 309.15C160.116 309.186 159.293 309.15 158.505 309.114ZM163.339 308.971C163.41 305.391 163.41 301.882 163.017 298.731C163.446 298.051 165.129 298.659 166.024 298.516C165.773 302.562 166.848 305.355 166.633 309.365C165.523 309.222 163.947 309.544 163.339 308.971ZM169.103 307.324C168.781 304.746 169.067 301.488 168.423 299.161C168.602 298.91 168.745 298.695 168.745 298.266C169.354 298.266 169.963 298.301 170.535 298.301C170.249 301.918 169.891 305.498 169.927 309.436C169.103 309.257 169.175 307.933 169.103 307.324ZM172.648 309.544C172.791 305.749 172.719 301.774 173.256 298.409C173.973 298.445 174.653 298.445 175.369 298.48C175.082 301.524 176.157 305.426 175.655 309.651C174.653 309.58 173.65 309.544 172.648 309.544ZM178.376 309.687C178.09 305.856 178.412 301.452 177.517 298.23C178.949 298.516 179.486 297.8 180.847 298.015C181.67 301.237 181.133 305.749 181.098 309.759C180.167 309.759 179.272 309.723 178.376 309.687ZM183.783 309.866C184.069 305.677 183.819 302.025 183.819 298.122C184.929 298.266 186.504 297.943 187.113 298.516C187.005 302.347 186.898 306.142 186.79 309.973C185.788 309.902 184.785 309.866 183.783 309.866ZM189.189 310.296C189.476 306.393 189.046 301.667 189.834 298.266C190.335 298.266 190.836 298.301 191.337 298.301C191.695 302.061 191.695 306.142 191.588 310.367C190.8 310.367 190.013 310.332 189.189 310.296ZM194.918 310.475C194.094 309.723 194.166 307.861 194.13 306.536C194.023 304.066 194.094 302.061 194.023 299.304C194.023 299.089 194.023 298.91 194.023 298.695C194.667 298.158 196.243 298.552 197.352 298.48C196.601 301.273 197.138 305.928 196.457 308.685C196.314 309.329 196.278 311.012 194.918 310.475ZM199.214 307.288C199.286 304.782 199.572 301.309 200.038 299.483C200.038 299.197 200.038 298.874 200.074 298.588C200.682 298.588 201.291 298.624 201.9 298.624C201.255 302.49 201.721 307.539 200.36 310.618C197.925 311.012 199.178 308.47 199.214 307.288ZM203.332 310.725C203.869 306.751 203.797 302.132 204.585 298.409C205.086 298.409 205.587 298.445 206.089 298.445C205.981 302.562 205.838 306.68 205.731 310.797C204.943 310.761 204.155 310.725 203.332 310.725ZM208.774 310.869C207.7 309.973 208.273 307.145 208.344 305.14C208.416 303.063 208.487 300.915 208.523 299.125C208.523 298.839 208.523 298.516 208.559 298.23C209.347 298.266 210.17 298.266 210.958 298.301C209.383 301.273 210.815 307.467 209.705 310.904C209.347 310.869 209.06 310.869 208.774 310.869ZM212.677 310.976C212.175 308.004 214.252 300.414 211.853 298.301C212.283 297.621 213.965 298.266 214.861 298.087C214.503 302.705 215.111 306.465 214.789 311.048C214.073 311.012 213.357 311.012 212.677 310.976ZM218.405 311.155C216.722 310.654 217.653 308.255 217.617 306.93C217.546 304.388 217.295 301.309 217.546 298.803C217.546 298.48 217.546 298.194 217.582 297.908C218.584 297.943 219.587 297.979 220.589 297.979C220.339 301.488 220.339 305.247 219.694 308.792C219.551 309.401 219.622 311.37 218.405 311.155ZM221.699 311.262C222.379 307.217 222.988 303.099 222.988 298.337C223.597 298.373 224.205 298.373 224.778 298.409C224.814 303.028 224.277 307.002 224.098 311.334C223.31 311.298 222.523 311.262 221.699 311.262ZM227.105 311.406C225.745 310.833 226.855 309.222 226.891 308.076C227.034 305.426 226.998 301.989 227.141 299.34C227.07 298.839 227.428 298.839 227.464 298.445C228.072 298.445 228.681 298.48 229.29 298.48C228.967 300.843 228.824 303.994 228.43 306.894C228.251 308.506 228.394 310.582 227.105 311.406ZM231.044 311.513C230.041 310.761 230.686 308.72 230.865 307.288C231.151 304.961 231.581 301.989 231.975 299.483C231.975 299.197 231.975 298.874 232.011 298.588C232.619 298.588 233.228 298.624 233.837 298.624C233.693 302.168 233.12 305.856 232.333 309.114C232.118 309.902 232.44 311.692 231.044 311.513ZM234.66 311.62C235.161 307.109 236.307 303.242 236.558 298.409C237.059 298.445 237.56 298.445 238.061 298.445C237.596 301.846 237.596 306.286 236.522 309.544C236.128 310.725 236.522 312.014 234.66 311.62ZM239.243 308.434C239.422 305.641 240.568 302.311 240.711 299.447C240.711 299.161 240.747 298.838 240.747 298.552C241.033 298.552 241.355 298.552 241.642 298.588C241.427 303.314 241.391 308.255 239.78 311.477C238.706 311.012 239.171 309.365 239.243 308.434ZM243.11 311.262C243.36 306.787 244.47 303.207 244.399 298.337C245.544 298.588 245.867 298.015 246.833 298.087C246.762 300.378 246.368 303.386 246.01 305.892C245.652 307.933 245.867 311.764 243.11 311.262ZM247.943 310.797C248.015 306.25 249.304 302.92 249.197 298.194C249.769 297.764 251.201 298.23 251.631 297.657C252.132 301.918 250.951 307.038 250.056 310.869C249.34 310.833 248.624 310.797 247.943 310.797ZM252.741 310.94C253.6 306.715 254.388 302.347 254.639 297.442C254.925 297.442 255.247 297.442 255.534 297.478C255.283 301.237 254.782 304.925 254.03 308.291C253.851 309.078 253.851 310.761 252.741 310.94ZM258.255 296.941C258.613 296.905 258.792 297.012 258.828 297.263C258.505 301.703 257.754 305.641 256.679 309.257C256.429 305.534 258.398 301.524 258.255 296.941ZM259.043 311.406C260.009 306.644 261.119 302.025 261.585 296.726C261.943 296.69 262.122 296.798 262.193 297.048C261.585 300.808 261.227 304.71 260.367 308.434C260.117 309.365 259.794 310.869 259.043 311.406ZM263.339 308.828C263.124 309.544 263.411 310.761 262.372 310.904C263.482 306.107 264.091 300.736 265.201 295.938C265.487 295.938 265.809 295.938 266.096 295.974C265.595 300.485 264.485 305.14 263.339 308.828ZM271.86 306.357C272.183 306.429 272.039 306.966 272.433 306.966C272.29 307.789 271.502 306.966 271.86 306.357Z" fill="black"/>
<path d="M49.4822 181.26C49.876 178.359 46.7253 178.789 46.0092 176.927C46.1882 175.674 47.1191 175.209 47.2981 173.956C49.1599 173.812 49.1599 177.822 52.3106 177.393C53.4564 174.6 49.4822 172.702 48.8735 171.557C49.3748 169.158 50.8427 167.869 51.7378 165.9C56.643 169.946 61.2258 174.564 66.1309 178.968C67.5631 180.257 68.9953 182.728 71.4657 182.155C71.788 179.505 68.8879 178.252 67.3841 176.927C64.0901 173.956 61.2259 170.697 58.0035 167.618C56.4997 166.186 54.2083 165.398 53.9219 163.286C55.5688 162.319 57.18 164.145 58.3973 164.933C61.2975 166.795 63.6605 169.086 66.3458 171.485C67.4915 172.523 69.0311 174.528 70.7855 173.705C71.3225 170.089 66.2742 169.194 64.9852 166.294C69.0311 165.864 68.7447 169.587 72.4325 169.516C73.9362 169.337 72.3608 167.117 72.7905 167.117C91.2653 167.511 109.31 168.692 125.78 167.726C129.79 167.475 133.55 167.296 137.56 167.153C149.912 166.759 161.62 165.864 173.471 165.184C175.691 165.04 177.911 164.539 180.13 164.468C188.007 164.253 195.419 164.217 203.045 163.608C210.385 163.035 217.725 161.138 225.1 160.923C227.571 160.851 229.898 161.245 232.332 161.138C235.591 160.959 238.92 160.708 242.322 160.493L256.464 155.588C248.552 155.731 241.534 155.767 233.944 156.089C224.384 156.483 216.113 157.128 206.769 158.309C194.13 159.92 180.309 159.634 166.632 160.78C160.044 161.317 153.492 162.319 147.012 162.319C139.887 162.319 133.156 162.534 126.21 162.928C119.514 163.286 112.855 163.751 105.694 163.537C91.2653 163.143 74.8313 163.752 62.4074 160.78C60.5098 160.314 58.9702 159.383 56.4639 158.202C54.2799 157.164 51.4514 156.877 50.1982 155.91C48.05 154.263 47.0117 149.931 45.6511 146.422C45.2215 145.348 44.4696 144.238 44.219 143.379C43.5387 140.944 43.3597 138.367 42.6436 135.789C41.9991 133.533 41.5695 130.991 40.746 128.807C40.3164 127.697 39.3139 126.766 39.0274 125.764C38.6694 124.51 38.7768 123.15 38.5262 121.825C38.0607 119.283 37.1298 116.848 36.9508 114.557C36.4854 109.258 36.8792 102.24 36.557 96.476C36.2705 91.2487 35.5903 85.6274 35.5545 79.2902C35.5187 73.7406 35.9125 67.081 36.0915 60.6363C36.2705 54.5139 35.0174 47.5321 36.3063 42.8776C38.3829 35.2872 47.0475 29.7018 55.1392 26.8375C58.648 25.5844 62.3 24.4745 65.7729 23.2213C69.3533 21.9324 72.9337 20.6792 76.4067 19.8916C81.7057 18.71 87.7207 18.4236 93.6283 17.6717C99.6434 16.9198 105.945 16.5976 112.032 16.705C118.369 16.7766 124.849 16.4902 131.33 16.6692C137.739 16.8482 144.04 16.2396 150.306 16.3112C162.658 16.4902 175.404 15.6667 188.58 15.9173C194.738 16.0247 201.183 15.8099 207.556 15.5593C214.252 15.3087 220.983 16.4902 226.854 15.5235C229.504 15.0938 235.161 15.2013 238.92 15.5593C243.897 16.0248 247.657 16.5618 251.058 17.8507L249.124 12.2295C248.766 12.1221 248.444 11.9789 248.05 11.9073C242.465 10.7258 232.798 10.5826 226.389 10.9764C217.904 11.4777 209.024 11.3345 200.181 11.1196C195.92 11.0122 191.588 11.4777 187.22 11.3344C182.78 11.227 178.34 10.9764 173.972 11.2628C152.812 12.5876 129.79 11.7641 108.559 12.0863C104.334 12.1579 99.9298 12.1221 95.884 12.6234C88.0071 13.5901 79.808 14.0913 72.8979 16.168C62.7296 19.2471 51.702 22.1114 43.9684 27.3746C39.0275 30.7401 34.1939 34.6069 32.1531 40.2998C30.3271 45.3839 31.3654 51.757 31.6519 57.4498C31.9025 62.2475 31.3654 67.5107 31.2222 72.8097C30.9357 82.3693 31.4728 90.9264 31.6876 99.3403C31.7234 100.593 32.1173 101.739 32.1889 102.957C32.5111 108.255 32.1173 113.125 32.9766 117.744C33.8001 122.076 34.6236 126.086 36.2347 130.167C38.204 135.144 38.6694 141.052 40.3164 145.635C41.2831 148.356 42.3572 151.793 43.682 154.478C44.4696 156.125 45.2215 157.092 46.2956 158.166C47.4055 159.312 49.1599 160.064 49.2315 161.245C47.1549 164.647 45.1499 168.299 43.2165 172.022L46.0808 180.257C46.9759 181.116 48.05 182.011 49.4822 181.26Z" fill="black"/>
<path d="M266.454 85.0533C265.523 93.9684 265.631 103.277 265.38 111.835C265.094 121.215 265.523 130.488 264.628 138.616C264.27 142.017 263.196 145.311 262.229 148.211C261.442 150.61 260.726 153.081 259.007 154.763L265.523 152.508C265.595 152.293 265.667 152.15 265.738 151.935C266.454 149.751 267.528 147.495 268.03 145.383C270.5 135.286 268.96 121.967 269.927 110.188C270.715 100.485 271.073 90.9967 271.682 81.0075C271.753 80.0049 271.825 78.9666 271.932 77.9283L267.815 66.0414C267.636 72.4503 267.099 78.7876 266.454 85.0533Z" fill="black"/>
<path d="M6.37499 67.0448C5.80213 65.6842 5.26505 63.5002 4.72799 61.5668C4.72799 61.531 4.72801 61.4952 4.69221 61.4594L0.682137 49.8947C0.395706 55.695 1.57726 60.1705 2.83039 64.5027C3.22423 65.8633 3.6897 67.6893 4.19095 69.0498C4.72801 70.5536 5.40828 72.2006 7.09106 72.1647C7.59231 71.7709 7.87871 71.3413 7.95032 70.9474L6.98365 68.1905C6.80463 67.7967 6.55401 67.4028 6.37499 67.0448Z" fill="black"/>
<path d="M4.33453 43.7721C4.9432 38.4373 4.76416 32.9235 5.37282 28.1258C5.73086 25.1899 6.44696 21.8959 7.12723 19.139C7.70009 16.776 10.457 13.303 7.66427 11.3338C6.91239 11.2622 6.69758 11.7634 6.44695 12.1931C5.73087 16.7044 3.65428 21.3231 3.00981 26.8369C2.25793 33.21 1.61345 41.4448 0.933179 46.9586C0.825767 47.9611 0.754133 48.9279 0.682526 49.8588L4.6926 61.4234C3.18883 55.8022 3.54685 50.7538 4.33453 43.7721Z" fill="black"/>
<path d="M7.05486 68.19L8.02157 70.9469C8.2364 70.016 7.62772 69.0493 7.05486 68.19Z" fill="black"/>
<path d="M35.232 17.2419C33.6924 20.3568 30.8997 22.326 29.2886 25.1904C28.7157 26.1929 28.6441 27.4102 27.9996 28.4843C27.4268 29.4152 26.3526 30.1671 25.8156 31.1338C24.6341 33.3178 24.3476 36.2179 23.4884 38.9032C22.7007 41.4811 20.9463 43.9874 21.4475 47.2813C23.4167 48.1048 24.7057 46.1356 24.276 43.4503C26.3169 39.9773 26.1736 36.0031 27.8922 32.7092C28.7873 31.0264 30.0763 29.7016 31.043 27.983C32.0097 26.2645 33.1554 24.7607 33.9072 22.9347C35.3394 21.6816 37.058 20.7149 37.6309 18.5308C37.058 17.8506 36.7716 16.9555 35.232 17.2419Z" fill="black"/>
<path d="M213.966 25.1178C210.385 25.2969 207.199 25.5117 203.403 25.4043C192.626 25.082 183.854 25.7623 173.579 25.4401C166.848 25.2611 160.152 25.0462 153.421 24.8672C140.639 24.5092 128.036 26.5142 116.901 27.7315C110.6 28.4118 103.976 27.9822 97.8894 28.376C84.642 29.2711 74.6169 30.8107 64.2696 34.3552C59.257 36.0738 53.8506 38.2221 51.0937 41.516C48.6949 44.4161 47.4418 48.641 46.2602 53.1165C45.2935 56.7684 43.8614 60.0266 43.575 62.3897C43.1811 65.7552 44.0404 69.622 44.1478 73.8469C44.2552 77.9285 43.5749 82.404 43.7898 86.4856C44.0046 90.3883 44.7922 94.6489 45.2577 98.8738C46.1886 107.753 47.1195 116.346 48.1578 124.259C49.232 132.78 50.3418 137.721 52.7049 144.273C53.6716 146.887 55.1038 149.823 56.4285 151.004C60.546 154.728 67.9573 154.585 75.87 155.193C83.711 155.766 91.5879 155.909 99.3573 156.16C103.367 156.303 107.163 156.983 110.779 157.091C119.479 157.342 126.532 157.771 133.693 156.84C140.21 155.981 146.726 155.229 154.245 154.119C161.835 153.009 168.638 152.472 175.405 152.007C178.949 151.792 182.601 151.398 186.253 151.434C190.049 151.434 194.023 152.007 197.997 151.47C201.076 151.04 204.263 149.894 207.7 149.644C215.469 149.107 222.702 149.572 230.041 148.462C233.944 147.889 237.668 148.104 240.604 147.281C244.47 146.135 250.485 142.483 251.989 139.475C252.311 138.795 252.276 137.649 252.669 136.181C252.992 135.036 253.779 133.997 253.958 133.21C255.605 126.264 253.35 117.85 253.421 109.4C253.457 105.104 253.851 100.843 253.779 96.4749C253.708 92.5007 253.171 88.4549 253.207 84.409C253.314 76.0667 253.457 68.6553 252.347 61.4946C251.846 58.0932 251.094 54.298 250.557 50.6102C249.411 42.6975 248.23 36.3245 244.148 32.3502C237.775 26.0488 224.098 24.6166 213.966 25.1178ZM246.261 54.0474C247.979 62.2465 248.445 67.0442 248.946 76.1025C249.268 81.8311 248.373 87.8104 248.731 93.8613C249.197 101.344 248.588 112.3 249.197 120.07C249.411 122.827 250.629 129.271 250.056 132.744C249.411 136.539 244.041 141.659 239.816 142.698C237.345 143.306 234.23 142.948 231.366 143.342C228.645 143.7 226.067 144.488 223.489 144.631C221.162 144.739 218.906 144.309 216.579 144.416C214.896 144.488 213.142 145.061 211.459 145.168C209.92 145.24 208.416 144.918 206.948 145.025C202.15 145.383 197.711 146.815 193.629 147.066C190.55 147.245 186.826 146.636 183.711 146.779C174.331 147.209 164.556 147.746 155.032 149.25C150.449 150.002 145.723 150.431 141.105 150.968C136.379 151.541 131.867 152.723 127.499 152.973C120.338 153.403 111.495 152.472 104.334 151.72C94.9534 150.682 85 151.147 75.7268 150.61C72.5403 150.431 69.2821 151.076 66.6684 150.646C65.4511 150.431 64.8066 149.68 63.4103 149.035C62.0139 148.391 60.5818 148.319 59.8299 147.71C57.9681 146.171 57.2878 142.447 56.1421 139.475C52.9197 131.026 52.2753 119.998 50.9505 110.116C51.1654 108.935 52.2395 110.725 52.7407 111.083C57.6817 114.771 63.2671 118.745 67.7426 123.256C71.5736 127.123 75.2613 131.061 79.1639 135.036C80.2381 136.146 81.706 138.151 83.6036 137.578C84.3913 135.573 82.0999 134.105 81.0258 132.995C77.4096 129.235 73.4353 125.44 69.6043 121.502C64.4486 116.239 58.0755 112.372 52.8481 107.467C52.3469 106.464 50.8073 107.037 50.7715 106.178C50.5567 100.485 48.7665 93.2884 48.3368 85.6264C48.1578 81.9744 48.6949 77.6421 48.6949 73.5963C48.6591 69.7295 47.6924 65.7194 48.122 62.7477C48.3368 61.2439 49.4826 59.6686 50.0912 57.6636C51.7024 52.2572 51.9172 47.173 54.9963 43.9507C58.0397 40.7283 62.4436 40.4777 66.5968 38.2579C72.8983 41.4086 77.9466 45.3828 83.1382 49.5719C84.7852 50.8966 86.4322 52.83 88.7594 53.0449C89.6545 50.5744 86.9334 49.2854 85.5729 48.1397C81.0974 44.3803 75.7626 40.4777 70.4994 37.4702C83.7826 32.386 97.8894 33.3169 113.428 32.6725C118.656 32.4576 123.99 31.3477 129.468 30.7032C134.911 30.0946 140.389 29.8082 146.081 29.6649C157.753 29.4143 169.963 30.8465 181.921 30.381C185.609 30.2378 189.404 29.6649 193.092 29.4859C196.887 29.3069 200.825 29.7007 204.549 29.8081C208.237 29.9155 211.531 29.4143 215.111 29.1995C228.43 28.4476 240.711 31.8132 244.327 40.5851C245.652 44.1655 245.258 49.2496 246.261 54.0474Z" fill="black"/>
<path d="M224.099 60.0275C213.25 51.1482 202.151 42.5552 190.479 34.9648C190.264 34.9648 190.085 34.9648 189.87 34.9648C186.755 36.7908 193.128 40.1564 195.098 41.4453C202.76 46.4578 209.312 51.3272 215.434 56.4829C219.802 60.1707 224.528 63.3931 228.395 67.0809C231.438 70.0168 234.374 72.9527 237.489 75.4948C238.528 76.3541 239.709 78.0369 241.356 77.106C241.392 74.1701 238.241 72.7379 236.415 71.2341C232.047 67.6537 228.324 63.4647 224.099 60.0275Z" fill="#FFE8BC"/>
<path d="M220.84 68.978C218.727 66.8297 216.436 65.0395 214.073 63.0703C206.16 56.375 197.245 49.7513 189.01 43.9869C187.721 43.0918 186.182 42.6263 184.857 41.767C182.816 40.4423 181.348 37.6496 178.949 37.6854C178.52 37.8286 178.197 38.115 178.018 38.5447C179.164 41.3016 182.673 42.8411 185.68 44.8104C188.616 46.708 191.445 49.1068 193.629 50.7538C199.143 54.9071 204.907 58.6665 209.562 62.3543C217.582 68.7273 223.847 75.7807 230.972 82.2612C233.264 84.3378 235.627 87.7034 238.956 87.596C239.816 85.7342 237.882 85.0539 236.951 84.2304C231.259 79.2537 225.888 74.1695 220.84 68.978Z" fill="#FFE8BC"/>
<path d="M219.229 51.1833C223.024 54.0834 226.246 57.2341 230.113 59.633C231.259 60.349 232.977 61.8528 234.302 60.3491C233.013 57.4848 229.827 56.4822 227.535 54.7279C225.136 52.9019 222.845 50.9326 220.446 49.1067C215.72 45.4547 211.316 41.3014 205.981 38.4371C205.587 38.4013 205.301 38.5445 205.086 38.7235C205.194 41.552 209.275 43.5928 211.817 45.562C214.646 47.6387 217.188 49.6079 219.229 51.1833Z" fill="#FFE8BC"/>
<path d="M224.814 45.9194C224.492 43.5921 223.525 41.8736 221.019 41.5871C219.98 43.9144 222.272 46.9219 224.814 45.9194Z" fill="#FFE8BC"/>
<path d="M232.262 91.3203C226.784 86.4152 222.094 80.6507 216.723 76.1036C213.966 73.7406 210.851 71.8072 207.88 69.5158C196.315 60.6722 184.894 51.2558 173.723 42.3406C173.508 42.3406 173.329 42.3406 173.114 42.3406C172.649 42.4838 172.326 42.7703 171.897 42.9135C171.754 45.0975 174.152 45.8852 175.406 46.9235C176.838 48.1409 178.377 49.2866 179.845 50.3607C182.745 52.5447 185.288 55.23 188.08 57.5215C193.737 62.2118 199.967 66.4724 205.767 70.9837C208.703 73.2751 211.532 75.6024 214.289 77.8581C217.189 80.1853 219.516 82.7632 222.201 85.3052C226.247 89.1362 230.651 92.5734 234.554 96.1896C235.771 97.3353 236.738 99.8058 238.993 99.0181C239.888 96.8341 237.49 95.6884 236.415 94.7217C235.019 93.5401 233.444 92.3944 232.262 91.3203Z" fill="#FFE8BC"/>
<path d="M62.8369 42.4473C62.0492 42.6621 61.548 43.1633 61.2973 43.9152C63.4814 45.956 66.3815 46.6005 68.7087 48.0327C73.578 51.0402 77.7313 54.907 82.2784 58.0578C84.4266 59.5615 86.6465 62.2826 89.6898 61.8888C89.475 58.7022 85.8588 57.7355 83.818 56.3033C77.0152 51.4698 71.2508 45.3832 62.8369 42.4473Z" fill="#FFE8BC"/>
<path d="M220.303 88.2403C205.337 75.6732 189.583 63.7505 175.906 50.5031C175.906 50.324 175.87 50.145 175.62 50.1808C175.298 50.1808 175.262 50.4315 175.011 50.4673C174.761 50.5389 174.653 50.7179 174.689 51.0759C174.116 52.8303 176.049 53.8328 176.98 54.7637C180.597 58.3441 184.141 61.459 187.829 64.7172C197.639 73.3459 208.201 81.4376 218.155 89.7083C222.022 92.9306 225.53 96.4394 229.003 99.6618C230.042 100.628 231.223 102.813 233.157 101.882C234.123 99.9124 231.724 99.0531 230.865 98.1938C227.177 94.685 223.991 91.3552 220.303 88.2403Z" fill="#FFE8BC"/>
<path d="M218.943 103.564C199.788 87.9894 180.847 71.7703 160.296 58.2006C160.117 58.2006 159.902 58.2006 159.687 58.2006C159.222 58.3438 158.9 58.6303 158.47 58.7735C158.434 60.8501 160.654 61.7094 161.979 62.4971C172.935 69.085 182.53 77.2841 192.054 85.0535C201.721 92.9304 211.925 100.7 220.912 108.791C222.022 109.794 223.382 111.978 225.352 111.334C226.318 109.543 224.063 107.968 223.06 107.037C221.735 105.82 220.16 104.567 218.943 103.564Z" fill="#FFE8BC"/>
<path d="M160.905 89.2427C154.818 83.6931 148.803 78.788 142.358 73.9545C139.172 71.5556 135.985 68.8345 132.333 67.0443C131.903 67.0085 131.689 67.1875 131.402 67.3308C131.187 69.8012 133.694 70.6605 135.77 72.2717C137.525 73.6322 139.279 75.136 140.461 76.0311C149.233 82.4758 156.214 88.5266 163.733 95.0788C165.165 96.3319 166.562 98.7666 169.068 97.9431C169.319 95.4726 166.669 94.5417 165.273 93.3244C163.805 91.9638 162.301 90.5317 160.905 89.2427Z" fill="#FFE8BC"/>
<path d="M164.843 108.971C154.711 99.1961 144.077 89.4574 132.512 80.6139C129.648 78.4298 127.571 75.4939 124.85 75.2791C124.707 75.673 124.456 75.852 124.528 76.4606C124.635 78.036 128.789 80.9361 130.686 82.3683C142.43 91.4266 153.207 100.592 163.017 110.403C166.168 113.553 169.354 116.275 172.398 119.103C173.329 119.962 174.116 122.075 175.942 121.323C176.551 117.957 172.863 116.525 171.001 114.842C168.96 113.016 166.848 110.868 164.843 108.971Z" fill="#FFE8BC"/>
<path d="M148.301 108.791C143.647 104.638 138.491 99.7329 132.727 95.0784C128.108 91.319 120.661 84.7311 115.612 82.2249C115.147 82.4755 114.646 82.6545 114.682 83.4064C117.474 86.4497 120.911 88.9202 124.098 91.498C130.686 96.9044 137.059 102.096 143.217 107.717C144.721 109.078 146.01 110.725 147.621 112.049C149.232 113.41 151.345 114.413 152.92 115.809C154.889 117.563 156.5 119.891 158.47 121.681C163.554 126.407 168.96 131.061 173.722 135.68C174.653 136.575 175.655 138.186 177.267 137.578C178.233 135.501 176.014 134.284 174.975 133.281C166.167 124.652 157.575 116.99 148.301 108.791Z" fill="#FFE8BC"/>
<path d="M87.47 128.413C78.5906 119.355 69.6396 110.296 59.9368 101.703C57.8243 99.8416 55.3897 97.2995 53.7427 96.7267C53.6711 96.6909 53.5279 96.7267 53.4563 96.7267C53.1699 96.7267 53.0983 96.9415 52.8476 97.0131C52.8118 97.4069 52.4538 97.4069 52.5254 97.9082C55.2823 102.276 59.901 104.962 63.6604 108.47C73.8645 118.03 83.4957 129.058 93.843 137.973C94.7381 138.725 95.9913 140.049 97.4234 139.584C98.1037 136.612 94.7023 135.108 93.0553 133.712C91.0861 132.065 89.2243 130.203 87.47 128.413Z" fill="#FFE8BC"/>
<path d="M148.23 121.43C148.839 122.683 149.841 124.509 151.775 123.65C152.598 121.108 149.018 118.888 148.23 121.43Z" fill="#FFE8BC"/>
<path d="M137.095 121.395C136.808 121.395 136.486 121.395 136.2 121.359C136.021 121.789 135.698 122.075 135.269 122.218C137.095 125.405 140.711 127.482 143.468 130.274C144.757 131.563 146.26 132.709 147.872 133.998C149.125 135 150.808 137.578 152.956 135.967C153.135 134.105 151.094 133.353 150.056 132.566C145.222 129.021 141.713 124.832 137.095 121.395Z" fill="#FFE8BC"/>
<path d="M61.8714 127.374C59.5442 125.118 55.9995 121.144 53.6007 122.326C53.6007 122.612 53.6007 122.934 53.5649 123.221C55.1761 125.584 57.9688 126.909 60.0096 128.842C62.1578 130.847 64.0913 132.995 66.1679 135.036C69.3902 138.223 71.8607 141.66 74.6176 144.918C75.4053 145.849 76.4794 147.782 78.1621 147.138C79.2363 145.92 77.8041 144.452 77.0522 143.486C72.3261 137.256 67.6 132.888 61.8714 127.374Z" fill="#FFE8BC"/>
<path d="M94.1663 126.193C92.8058 124.904 91.2663 122.362 88.8316 123.329C88.581 125.692 91.1588 126.587 92.6268 127.947C95.7417 130.919 98.3912 133.712 101.435 136.648C102.688 137.865 104.8 140.3 106.805 138.903C106.554 136.791 104.406 135.609 103.01 134.285C99.9308 131.385 97.1022 128.986 94.1663 126.193Z" fill="#FFE8BC"/>
<path d="M149.519 170.589C146.87 171.161 144.435 173.274 144.22 176.174C143.719 183.585 154.89 184.015 156.215 178.322C157.253 173.918 154.281 169.55 149.519 170.589ZM151.739 176.962C151.238 177.391 149.519 177.355 149.018 176.89C149.197 175.744 149.841 175.064 151.166 175.136C151.417 175.708 151.667 176.246 151.739 176.962Z" fill="black"/>
<path d="M52.2748 169.265C52.2032 169.014 52.0242 168.906 51.6661 168.942C51.5945 169.372 50.9859 169.264 50.7353 169.515C50.5562 171.986 53.5279 173.382 55.1033 174.742C56.5712 176.031 58.5046 179.111 60.7603 177.607C60.5455 175.387 58.3972 174.17 56.9651 172.988C55.4613 171.771 53.9218 170.303 52.2748 169.265Z" fill="black"/>
<path d="M54.4601 208.219C54.6391 209.4 55.3194 209.866 56.3219 210.009L55.1045 206.572C54.6033 207.001 54.3527 207.538 54.4601 208.219Z" fill="black"/>
<path d="M246.332 187.811C245.795 186.307 244.542 186.128 243.361 186.235C237.417 186.737 231.366 186.593 225.28 186.916C213.321 187.56 201.578 188.348 189.977 189.529C184.249 190.102 178.305 190.961 172.469 191.141C170.5 191.176 167.206 190.854 164.628 190.926C161.406 190.962 158.076 191.033 154.71 191.033C137.453 191.176 118.656 190.961 101.398 189.708C91.3018 188.956 80.9902 188.67 72.5047 188.885C69.4614 188.956 61.2623 188.921 61.2623 192.179C61.2623 195.688 67.5996 193.862 70.2491 193.647C74.1875 193.36 78.4124 193.36 80.489 193.933C79.9878 197.728 79.3791 201.452 78.663 205.032C77.3382 205.068 74.5456 204.818 72.648 204.853C68.7453 204.925 57.8968 204.03 55.1399 206.572L56.3572 210.009C58.8993 210.367 63.3747 208.434 65.9168 209.759C65.7378 213.088 65.2365 216.06 64.7353 219.068C63.4822 219.39 61.5488 219.282 59.5437 219.139C55.5695 218.888 51.2373 218.53 50.8434 220.75C50.378 223.257 52.6694 223.4 54.9608 224.187C54.567 227.123 54.2806 231.921 54.6744 233.819C50.9866 234.32 46.7976 232.136 45.9025 234.785C43.8617 240.98 62.8735 237.757 65.6662 239.261C63.9118 241.517 65.6662 248.033 64.4131 251.577C60.045 251.327 53.4571 251.398 49.6619 251.148C47.6927 251.005 44.3629 249.823 43.8975 252.473C43.3604 255.587 48.3014 255.552 50.4496 255.659C53.851 255.874 57.6461 255.874 60.3672 255.945C78.5198 256.447 91.6598 257.736 108.81 258.237C114.717 258.416 122.344 259.49 120.375 254.657C118.871 253.296 115.971 253.905 113.178 253.833C110.385 253.761 107.306 253.654 104.764 253.582C104.621 249.143 105.373 244.524 106.017 241.875C134.087 242.125 163.16 243.486 190.622 243.092C190.908 247.102 192.448 249.966 192.412 254.299C189.691 255.015 179.881 252.831 181.169 257.879C181.671 259.812 184.034 259.06 186.576 258.953C201.792 258.309 210.815 259.06 228.789 257.449C234.625 256.912 239.136 256.805 245.974 256.447C249.805 256.232 260.618 256.017 260.547 252.329C260.475 248.427 253.815 251.112 251.238 251.47C246.798 252.079 243.611 252.329 239.494 251.756C239.888 247.782 238.205 245.741 237.954 242.376C241.821 242.483 245.831 242.197 250.307 242.125C253.672 242.089 259.365 243.199 258.828 239.368C258.291 235.502 247.836 238.724 243.504 237.721C247.013 236.003 243.074 230.919 243.79 228.377C247.335 228.412 251.166 229.057 251.094 225.87C250.951 221.252 234.911 224.546 230.65 223.758C231.08 222.899 231.08 221.645 230.722 220.75C228.61 218.674 230.185 209.078 226.247 209.15C223.883 209.221 224.098 211.405 224.313 213.625C224.671 217.743 226.247 221.431 226.712 223.937C221.485 224.617 215.505 224.474 209.526 224.331C208.022 219.676 205.337 214.664 204.8 210.045C214.36 208.792 230.615 209.078 241.893 208.398C245.115 208.219 249.447 208.326 249.197 205.283C248.875 201.452 242.501 204.316 238.993 204.066C237.99 199.769 236.594 195.795 236.057 191.033C240.246 190.89 245.509 191.678 246.332 187.811ZM175.011 195.401C180.883 195.294 185.752 194.148 191.624 194.076C191.23 197.621 192.591 201.917 192.77 205.856C187.185 205.534 182.1 205.748 176.801 205.713C176.121 202.383 176.837 197.693 175.011 195.401ZM204.621 224.581C188.796 225.763 171.968 224.76 156.071 225.584C145.079 226.157 134.374 224.223 123.883 223.436C113.393 222.648 104.334 223.4 94.7032 222.003C93.8797 221.645 95.3476 220.75 95.6698 219.318C96.1711 217.098 95.9563 213.59 96.4217 211.226C96.4575 211.012 96.4575 210.797 96.5291 210.618C97.0662 210.654 97.5316 210.654 98.0329 210.689C105.516 211.047 112.211 210.618 119.121 210.367C120.267 214.234 117.546 221.753 120.876 222.755C126.103 224.331 122.702 214.055 124.241 210.188C129.755 210.331 135.269 210.51 140.783 210.654C140.604 215.881 140.389 228.09 146.153 223.149C145.795 219.103 145.008 215.451 145.294 210.761C151.309 210.797 157.825 211.405 163.375 210.976C164.7 214.485 163.16 222.218 166.955 222.218C171.144 222.218 167.958 214.377 168.173 210.797C171.646 210.331 175.548 210.331 179.63 210.546C180.239 214.162 181.313 226.121 185.609 222.469C188.08 220.356 183.533 214.198 184.463 210.367C189.834 210.224 195.563 211.155 200.11 210.833C201.041 215.845 203.189 221.144 204.621 224.581ZM172.004 195.616C173.4 195.723 171.323 196.511 171.646 197.406C171.538 200.45 171.825 203.099 172.326 205.569C166.955 206.715 160.26 206.465 153.636 206.25C157.145 204.997 155.068 198.48 154.245 196.01C159.616 195.33 166.418 196.117 172.004 195.616ZM133.765 195.115C136.558 195.186 139.351 195.258 142.179 195.365C145.008 195.437 147.8 195.509 150.629 195.616C149.447 198.624 151.452 201.058 150.987 204.352C151.237 205.176 151.703 205.82 152.741 205.892C146.798 206.429 139.601 205.605 133.156 205.641C133.658 203.564 133.622 200.915 133.658 198.301C133.658 197.227 133.694 196.153 133.765 195.115ZM128.932 194.972C128.932 196.583 128.824 198.301 128.753 199.984C128.681 201.953 128.681 203.851 128.896 205.498C123.203 205.748 117.331 205.856 111.459 205.963C109.92 205.999 108.416 206.035 106.876 206.071C107.593 202.49 108.846 199.447 108.702 194.972C115.756 195.294 122.594 195.401 128.932 194.972ZM85.0003 193.718C91.4808 193.933 98.2119 193.933 104.263 194.578C104.549 199.304 102.544 201.631 102.723 206.286C96.1353 206.071 89.261 206.107 83.4965 205.14C83.6039 200.951 84.9645 198.051 85.0003 193.718ZM70.6787 209.579C77.6247 208.971 84.8571 210.081 91.7314 210.475C91.803 211.262 91.7314 212.086 91.624 212.909C91.2302 216.024 90.0845 219.211 91.7314 221.323C86.0744 221.144 79.773 219.712 73.1134 219.354C72.0035 219.282 70.9293 219.175 69.8194 219.211C69.6762 215.559 70.3565 212.766 70.6787 209.579ZM58.5412 233.926C59.5437 231.563 59.5079 226.479 59.4363 224.008C64.6637 223.471 71.18 224.259 76.9086 224.223C78.3408 224.331 76.3715 224.725 76.8728 225.727C76.5864 229.415 77.3741 232.1 77.5173 235.394C71.2516 235.967 65.1291 233.962 58.5412 233.926ZM99.8231 253.511C89.5116 253.117 80.2026 251.721 69.4614 251.721C69.2108 247.854 70.5713 242.447 68.8885 239.941C79.3433 239.726 90.3709 241.517 101.363 241.767C100.253 245.061 99.8947 249.107 99.8231 253.511ZM134.052 237.936C116.329 237.148 98.4984 237.972 81.9928 235.824C81.9212 231.885 81.3841 228.412 81.0977 224.653C89.9412 226.264 99.286 227.374 109.633 227.589C107.664 231.563 109.347 240.657 113.608 235.824C113.142 232.924 113.787 230.525 114.145 227.696C120.768 227.696 126.569 228.484 132.798 228.842C132.584 231.456 133.121 235.43 134.052 237.936ZM177.303 231.921C177.768 233.926 178.771 236.719 178.627 238.581C165.129 238.33 152.24 238.76 138.276 238.008C138.455 234.714 137.023 232.959 137.596 229.236C143.933 230.059 151.094 230.417 157.754 230.131C157.539 234.105 157.897 238.151 160.833 237.757C163.876 237.363 162.086 233.747 162.551 230.274C166.776 229.665 172.111 230.274 176.443 229.773C177.338 229.988 177.124 231.277 177.303 231.921ZM183.712 238.724C183.067 235.645 182.029 232.888 181.563 229.63C186.433 229.844 190.693 229.379 195.706 229.737C194.847 233.031 197.031 235.86 197.854 238.545C192.913 238.366 188.044 238.258 183.712 238.724ZM214.933 253.797C208.774 253.69 203.26 254.227 197.138 254.191C196.637 250.36 195.885 246.78 195.061 243.271C200.826 242.877 206.769 242.626 213.142 242.877C212.748 247.281 214.897 250.754 214.933 253.797ZM234.839 252.258C229.97 252.795 225.137 253.332 219.73 253.332C218.978 249.859 217.94 246.637 217.331 243.02C222.702 242.555 228.968 242.877 233.013 242.555C233.479 245.92 235.054 248.283 234.839 252.258ZM223.167 229.021C228.144 228.699 232.978 228.233 238.527 228.556C239.995 231.169 239.172 235.967 241.893 237.399C237.525 238.581 230.973 237.399 226.211 238.151C225.28 235.072 224.027 232.243 223.167 229.021ZM218.334 228.878C219.122 232.029 220.017 235.108 221.377 237.721C215.577 238.437 208.703 237.936 202.401 238.079C202.222 234.714 199.537 233.747 200.217 229.594C205.767 228.806 212.462 229.272 218.334 228.878ZM211.818 204.603C207.199 205.39 202.544 206.178 197.317 206.286C196.923 201.953 196.816 197.37 195.563 193.897C199.429 192.716 204.8 193.146 209.168 192.501C210.206 196.368 210.171 201.273 211.818 204.603ZM234.123 204.352C228.287 204.674 221.628 204.173 216.042 204.746C215.434 200.45 214.574 196.368 213.679 192.322C219.48 191.857 225.53 191.642 231.474 191.32C231.474 196.475 233.479 199.769 234.123 204.352Z" fill="black"/>
<path d="M168.173 255.767C166.705 255.373 163.805 255.445 161.55 255.266C158.578 255.051 155.248 255.122 153.709 255.337C143.397 256.769 129.362 253.475 126.426 261.782C124.6 266.938 127.858 271.413 126.892 277.464C129.971 282.548 133.623 283.085 141.213 282.691C147.837 282.333 153.709 281.188 160.547 280.829C164.199 280.65 168.245 280.794 170.214 279.899C173.83 278.287 174.905 270.769 174.26 264.933C173.866 261.639 171.825 256.805 168.173 255.767ZM146.763 277.75C141.643 278.287 134.303 278.932 131.725 276.426C131.761 271.699 130.579 268.119 130.902 263.142C133.229 260.421 137.74 260.242 142.144 260.135C149.126 259.992 157.038 259.419 164.45 260.171C162.588 265.326 161.442 271.27 159.473 276.282C155.749 276.068 151.417 277.249 146.763 277.75ZM162.767 276.103C161.55 275.351 163.161 274.098 163.447 273.096C164.271 270.482 164.772 266.83 165.81 264.431C166.097 264.467 166.025 264.825 166.097 265.04C165.846 267.045 165.488 269.336 165.023 271.341C164.593 273.096 164.486 275.566 162.767 276.103ZM168.496 275.674C167.78 275.745 167.35 276.103 166.383 275.924C167.565 272.237 168.603 268.334 168.567 263.321C168.567 262.605 167.028 261.889 166.491 262.641C165.918 262.211 166.383 260.779 165.954 260.206C170.859 261.639 169.964 270.804 168.496 275.674Z" fill="black"/>
<path d="M305.91 295.903C306.304 292.788 307.056 289.351 307.092 286.308C307.235 277.321 306.304 266.007 303.655 259.383C303.046 259.347 302.437 259.347 301.865 259.347C301.829 259.741 301.471 259.741 301.542 260.242C303.404 268.764 305.875 281.832 304.228 292.86C303.905 294.865 301.972 297.12 303.153 299.161C305.516 299.734 305.624 298.266 305.91 295.903Z" fill="black"/>
<path d="M158.649 261.531C158.434 266.078 155.426 270.553 155.534 275.315C157.574 275.852 158.362 272.952 158.971 271.198C160.081 268.083 161.37 264.503 160.152 261.602C159.651 261.567 159.15 261.531 158.649 261.531Z" fill="black"/>
<path d="M226.605 266.508C226.533 266.258 226.354 266.15 225.996 266.186C225.889 266.616 225.316 266.508 225.065 266.759C225.459 270.339 229.183 271.7 231.474 273.562C233.909 275.531 236.164 277.822 238.527 279.792C242.215 282.871 246.046 285.842 249.125 289.136C250.128 290.211 251.059 292.144 252.956 291.965C253.637 288.492 250.128 286.451 248.051 284.589C241.105 278.359 233.622 272.273 226.605 266.508Z" fill="black"/>
<path d="M313.894 269.908C313.464 270.052 313.142 270.374 312.963 270.804C312.82 274.312 314.467 276.711 314.825 279.898C314.932 280.936 314.682 282.118 314.718 283.192C314.825 284.946 315.434 286.557 315.469 288.025C315.935 297.979 314.503 309.651 312.82 317.492C312.426 319.246 309.49 326.479 311.638 326.801C313.679 327.123 314.574 321.18 315.183 318.458C316.186 314.055 317.009 310.904 317.295 308.29C318.584 295.866 318.047 282.547 316.15 274.814C315.684 272.988 315.863 270.517 314.181 269.944C314.073 269.908 313.966 269.908 313.894 269.908Z" fill="black"/>
<path d="M225.782 284.553C226.39 286.987 228.897 288.276 230.759 289.816C232.549 291.284 234.482 293.897 237.597 293.038C238.242 290.389 235.878 290.568 234.375 289.923C231.904 287.847 229.828 285.412 227.035 283.693C226.82 283.693 226.641 283.693 226.426 283.693C226.247 284.015 226.068 284.338 225.782 284.553Z" fill="black"/>
<path d="M166.705 285.27C160.833 285.628 153.207 285.162 147.729 285.341C140.354 285.592 130.364 282.584 131.94 289.387C133.443 290.533 135.09 289.638 137.06 289.53C143.504 289.244 154.066 289.709 160.869 289.602C163.59 289.566 170.679 290.748 170.572 287.167C170.5 284.912 168.352 285.162 166.705 285.27Z" fill="black"/>
<path d="M221.448 289.243C221.699 291.535 224.67 293.754 226.783 292.43C226.46 290.031 223.059 287.668 221.448 289.243Z" fill="black"/>
</svg>
