<svg width="556" height="344" viewBox="0 0 556 344" fill="none" xmlns="http://www.w3.org/2000/svg">
<path fill-rule="evenodd" clip-rule="evenodd" d="M481.28 130.267C452.824 67.4869 388.882 33.0523 322.503 62.3384C304.123 70.4765 291.114 83.3202 282.643 98.766C281.481 98.8214 280.263 99.3197 279.211 100.372C265.094 114.323 259.945 130.709 260.776 147.595C257.675 163.096 259.281 179.206 266.976 193.987C268.803 206.001 273.011 217.294 280.927 227.315C289.619 239.882 301.798 250.788 312.76 258.926C312.815 258.981 312.926 259.037 312.981 259.092C315.749 261.639 318.684 263.964 321.839 265.957C322.891 266.621 323.943 266.732 324.939 266.677C350.738 280.739 381.076 283.507 410.472 279.631C477.127 270.884 506.524 186.015 481.28 130.267ZM403.109 153.02C406.653 162.93 404.493 175.054 399.013 185.406C397.85 183.967 396.355 182.694 394.805 181.586C394.805 175.054 394.584 166.196 393.643 160.328C396.079 156.12 398.072 151.525 399.732 146.82C401.227 148.813 402.39 150.916 403.109 153.02ZM312.649 120.468C313.313 122.073 313.867 123.679 314.421 125.339C314.033 125.948 313.756 126.668 313.369 127.277C311.487 123.623 309.383 120.246 307.113 117.312C307.556 115.983 308.054 114.655 308.663 113.381C310.047 115.098 311.376 117.423 312.649 120.468ZM281.37 161.158C280.983 155.511 280.983 149.864 281.259 144.273C281.536 145.712 281.868 147.152 282.256 148.591C282.699 151.802 283.418 155.068 284.249 158.279C283.252 158.999 282.256 159.995 281.37 161.158ZM378.418 199.524C377.809 197.863 377.256 196.146 376.757 194.541C378.584 196.645 380.301 198.748 381.961 200.963C380.854 200.409 379.636 199.911 378.418 199.524ZM308.054 156.895C307.39 155.456 306.726 153.961 306.117 152.466C305.341 146.709 304.677 140.896 303.902 135.138C305.12 136.965 306.559 139.456 307.943 141.948C307.168 146.82 307.224 151.857 308.054 156.895ZM350.295 173.836C350.073 173.393 349.852 173.006 349.63 172.563C349.188 171.455 348.745 170.348 348.302 169.241C348.302 169.186 348.246 169.075 348.246 169.019C350.738 170.736 354.834 172.839 358.433 174.832C355.499 175.275 352.786 174.888 350.295 173.836ZM295.266 184.078C295.709 184.797 296.152 185.572 296.594 186.292C296.428 187.565 296.318 188.894 296.373 190.223C296.207 190.001 295.985 189.725 295.819 189.448C295.598 189.116 294.435 187.455 293.162 185.185C293.716 184.797 294.435 184.41 295.266 184.078ZM331.251 92.3441C327.265 96.9391 324.164 102.475 322.282 107.513C321.673 109.174 321.175 110.89 320.732 112.606C318.739 109.063 316.414 106.351 313.978 104.468C318.241 98.9875 323.887 94.7246 331.251 92.3441ZM331.306 126.945C331.306 126.834 331.306 126.668 331.251 126.557C331.195 124.952 331.306 123.402 331.417 121.852C334.129 118.918 337.23 116.26 340.717 113.88C340.385 114.323 340.108 114.765 339.721 115.264C336.621 119.139 333.853 123.014 331.306 126.945ZM416.009 205.89C413.96 206.056 411.857 206.111 409.808 206.167C408.59 204.451 407.428 202.79 406.265 201.295C411.026 201.683 414.182 203.399 416.009 205.89ZM386.723 148.647C383.622 146.211 380.079 145.048 376.37 144.771C374.82 142.446 371.553 141.173 368.952 142.889C366.959 144.218 365.076 145.546 363.139 146.82C356.606 149.089 350.184 152.799 344.814 156.397C344.039 150.916 344.427 145.436 346.862 140.121C355.443 121.409 376.647 126.613 390.709 137.519C389.712 141.339 388.383 145.048 386.723 148.647ZM427.634 244.643C427.634 242.152 427.081 239.328 426.14 236.283C428.908 237.501 431.787 238.442 434.831 239.107C432.894 241.155 430.624 242.982 428.077 244.532C427.911 244.588 427.745 244.643 427.634 244.643ZM440.644 214.194C440.644 214.194 440.644 214.139 440.7 214.139C442.194 214.748 443.689 215.246 445.184 215.634C444.741 217.737 444.298 219.786 443.745 221.889C442.914 219.177 441.862 216.686 440.644 214.194ZM427.136 192.548C426.583 191.994 425.974 191.441 425.475 190.887C423.206 189.116 420.05 189.392 417.946 190.832C417.503 190.555 417.06 190.223 416.562 190.001C414.625 188.95 412.465 188.396 410.251 188.119C416.839 169.628 415.123 147.041 404.327 133.533C403.94 133.09 403.552 132.647 403.165 132.204C404.327 124.066 404.161 115.873 402.556 108.399C420.936 116.26 435.108 132.315 436.16 154.238C436.769 166.916 433.392 180.479 427.136 192.548ZM392.535 123.457C377.311 114.876 357.602 116.315 345.257 126.391C350.516 119.914 356.385 112.219 359.928 105.133C369.616 102.586 379.802 102.42 389.491 104.358C391.484 109.617 392.591 115.928 392.535 123.457ZM362.973 94.0603C362.917 90.4618 361.422 87.417 357.879 85.3133C356.551 84.5382 355.222 83.9846 353.893 83.5417C365.187 83.2649 375.207 86.2544 382.238 93.2853C375.761 92.7871 369.284 93.0638 362.973 94.0603ZM364.523 252.227C366.294 253.335 368.066 254.331 369.948 255.217C367.512 255.051 365.132 254.719 362.751 254.331C363.581 253.778 364.135 253.058 364.523 252.227ZM423.095 106.627C415.4 101.59 406.819 98.0463 397.85 95.7765C390.875 82.6005 380.135 75.5144 367.844 72.9124C392.259 72.4142 414.459 86.7527 427.745 106.461C429.572 109.174 431.178 111.997 432.672 114.932C429.904 111.887 426.804 109.063 423.095 106.627ZM415.898 267.286C389.325 275.59 351.623 270.331 328.15 256.269C327.597 255.937 327.043 255.549 326.489 255.217C319.459 248.629 313.258 241.653 307.611 234.29C306.947 233.183 306.338 232.131 305.729 231.024C312.871 237.834 320.289 243.757 327.431 248.463C329.257 249.681 331.195 249.459 332.745 248.518C333.52 249.238 334.295 249.902 335.126 250.511C336.897 252.892 339.001 254.995 341.271 256.49C364.301 271.881 393.698 267.064 418.943 259.757C423.095 258.539 426.749 257.155 429.904 255.549C437.489 253.999 444.63 251.176 450.499 246.691C441.087 255.826 429.572 263.023 415.898 267.286ZM460.298 235.231C473.197 213.087 468.934 188.95 456.754 167.027C455.869 165.476 454.595 164.646 453.267 164.425C453.488 133.644 442.25 101.811 422.209 82.822C412.576 73.6873 401.283 67.8745 389.324 64.7743C420.05 71.5284 447.731 92.7316 465.003 122.073C485.708 157.338 483.217 203.565 460.298 235.231Z" fill="#073742"/>
<path fill-rule="evenodd" clip-rule="evenodd" d="M522.36 76.0669C518.595 75.2365 518.263 71.1952 516.602 68.8146C513.502 64.275 509.239 60.7319 505.917 56.4138C500.104 48.8293 493.848 41.6324 487.039 35.7087C482.223 31.5013 475.413 27.958 469.323 24.5256C464.286 21.7022 459.967 18.8789 454.265 16.3323C452.66 15.6126 451.054 15.0589 449.449 14.1731C442.473 10.4639 433.505 8.30491 425.09 6.47799C421.657 5.7583 418.17 5.25994 414.571 4.98313C411.969 4.76168 407.042 6.03504 405.603 2.43656C406.488 -0.719032 412.467 0.886498 415.568 1.10794C419.332 1.38475 423.208 1.99366 426.086 2.60264C429.02 3.43305 432.896 4.0421 436.494 5.09396C442.141 6.7548 445.85 7.80655 450.999 10.5193C457.421 13.9517 464.673 16.8304 471.316 20.7057C473.309 21.8683 475.247 23.197 477.24 24.415C481.282 26.9616 485.766 29.1761 489.032 31.8888C491.136 33.605 493.295 36.4838 495.675 38.8089C497.945 41.0234 500.547 42.9056 502.596 45.1754C505.973 48.94 508.242 53.7011 511.785 57.6317C513.945 60.0123 516.768 62.0052 519.37 65.7144C522.027 69.4236 525.46 73.2435 522.36 76.0669Z" fill="#073742"/>
<path fill-rule="evenodd" clip-rule="evenodd" d="M518.096 219.23C508.74 237.223 503.425 254.717 488.81 269.221C487.315 270.716 485.322 272.1 483.55 273.706C467.163 288.598 437.711 300.556 409.532 308.362C400.453 310.853 389.879 311.406 379.471 311.849C369.783 312.237 359.32 312.624 351.015 311.739C341.659 310.687 333.521 308.362 324.719 306.812C315.861 305.206 305.951 303.601 299.253 300.058C293.384 297.013 287.627 290.48 281.703 285.331C279.544 283.449 276.887 282.619 275.613 281.179C273.676 278.965 272.79 275.975 270.742 273.539C266.866 269.055 262.437 265.401 258.839 260.64C255.019 255.602 252.196 249.789 248.819 243.534C237.027 221.721 226.287 195.259 225.954 173.003C217.872 168.741 209.291 165.64 205.194 152.52C195.949 151.191 185.651 151.468 175.908 150.195C172.918 149.807 169.873 148.921 166.829 148.645C164.227 148.423 161.625 149.309 159.023 149.143C156.199 148.921 153.044 147.371 149.611 146.762C140.366 145.046 130.954 143.33 121.543 141.005C115.287 139.51 109.198 137.904 102.942 136.631C90.3747 134.029 78.8041 130.209 66.2925 126.666C51.1789 122.403 36.3421 117.144 22.9446 108.286C18.405 105.297 12.0938 101.809 8.32926 97.4353C4.62006 93.0618 3.7343 89.9062 2.29491 84.2593C1.68593 81.7681 0.578729 79.6643 0.412645 78.0035C-0.140967 72.3567 4.28793 62.0595 7.3328 56.9109C12.8136 47.6655 20.7302 40.3025 35.0688 36.8701C38.0029 36.1504 42.0996 36.3164 45.8089 36.2611C55.2756 36.1503 65.4621 38.9185 74.2645 40.3579C80.9079 41.4651 86.7208 42.4062 92.6998 44.2885C104.935 48.2192 115.343 52.6481 127.301 58.0182C138.594 63.1114 149.113 69.2565 160.407 74.2944C169.652 78.4465 177.845 81.3253 186.593 86.7507C192.405 90.3492 198.218 94.9994 204.751 97.7675C208.073 99.2069 211.505 100.148 214.107 102.695C217.429 100.535 219.975 96.6602 223.906 94.4458C232.21 89.9062 241.456 90.9581 247.988 92.2314C254.521 83.4843 263.379 74.5711 271.793 65.7133C283.696 53.2016 293.717 41.5205 317.633 34.3236C325.937 31.8323 335.293 29.4516 344.151 26.7389C352.953 24.0262 361.811 21.2029 369.672 20.4832C373.492 20.1511 377.921 21.2029 382.35 21.1476C386.723 21.0922 391.651 19.5973 395.858 19.9848C398.072 20.2063 400.73 21.0368 403.443 21.5904C415.456 23.9155 428.853 26.6837 440.092 31.5555C442.417 32.552 444.299 34.3236 446.569 35.5415C449.946 37.3131 452.769 37.9773 455.925 40.4686C456.479 40.9115 456.479 41.6312 457.032 42.0187C457.475 42.3508 458.306 42.1294 458.693 42.4062C463.62 45.894 468.547 51.3194 473.419 56.2466C476.63 59.5129 479.675 63.1113 482.831 66.5991C489.308 73.7407 494.401 80.5501 500.491 90.7919C503.204 95.3316 506.359 99.5944 508.574 104.134C511.175 109.615 513.224 115.815 515.826 121.794C523.466 139.51 526.289 155.731 526.178 171.177C528.614 173.834 532.49 174.443 535.534 176.104C543.119 180.256 559.284 188.283 555.409 203.397C554.247 207.881 546.33 215.41 539.354 217.459C535.922 218.51 532.157 218.4 528.338 218.676C524.573 219.064 520.808 220.67 518.096 219.23ZM539.078 210.206C542.842 208.601 547.991 203.175 548.544 201.127C550.759 192.933 541.79 187.84 536.974 185.128C533.043 182.913 528.891 180.09 525.736 180.422C526.068 192.269 521.75 201.957 519.59 212.642C525.403 210.981 532.932 212.808 539.078 210.206ZM498.166 100.203C493.903 93.2279 490.249 86.7506 485.875 80.9931C479.564 72.6335 471.924 64.7168 465.17 57.9627C462.734 55.5822 460.354 52.7589 457.918 50.7659C456.645 49.714 454.596 49.0496 452.769 47.7209C450.943 46.4476 449.503 44.676 447.732 43.6795C446.126 42.7383 443.967 42.1849 442.306 41.2437C440.313 40.1365 438.708 38.5309 436.991 37.8112C433.947 36.4825 429.905 36.0396 426.417 34.877C422.874 33.7144 419.497 32.1644 416.12 31.334C412.799 30.5036 408.813 30.2822 404.993 29.6178C401.228 28.8981 397.464 27.4033 394.142 27.2926C389.658 27.0711 385.616 28.6767 381.686 28.5659C377.201 28.4552 372.44 27.5141 369.008 27.9016C356.939 29.2857 341.77 34.9325 329.369 38.9739C322.117 41.3544 315.363 42.6276 309.273 45.1189C295.765 50.7104 288.347 58.6824 280.707 66.9312C273.288 74.9586 264.375 83.1521 258.175 91.4562C254.742 96.0512 251.531 99.9266 248.708 104.522C245.774 109.227 242.563 113.379 240.846 117.974C238.964 123.068 237.525 128.05 236.196 133.199C233.539 143.385 233.926 154.015 233.484 166.637C233.262 172.394 232.985 177.82 234.037 183.854C238.577 209.099 252.583 240.046 266.202 257.817C269.8 262.467 273.731 266.453 277.662 270.882C279.544 273.041 281.205 275.699 283.253 277.747C285.246 279.74 287.35 281.512 289.398 283.394C293.44 287.158 297.758 290.978 302.187 293.47C305.176 295.13 307.225 295.296 310.712 296.182C316.636 297.732 322.892 299.338 328.705 300.279C337.452 301.663 344.981 303.711 353.617 304.265C357.991 304.542 362.143 304.763 366.738 304.763C379.693 304.652 394.751 305.095 408.314 301.386C425.587 296.68 440.701 290.978 456.755 283.449C471.481 276.584 481.502 266.619 489.806 256.433C494.18 251.063 497.28 246.246 500.048 240.101C503.868 231.52 508.85 222.552 511.452 213.805C514.22 204.615 517.431 194.871 518.649 185.626C520.919 169.017 518.483 144.16 508.684 124.12C504.532 115.428 502.373 107.013 498.166 100.203ZM235.753 97.989C229.11 98.6533 225.401 102.086 222.079 105.186C216.709 110.224 215.38 113.822 213.72 119.857C212.668 123.621 211.062 127.275 212.059 129.932C212.889 127.995 214.993 126.002 216.82 124.12C218.481 122.348 220.474 119.026 223.297 120.189C224.293 124.064 219.865 126.666 217.373 129.434C213.443 133.808 208.46 138.126 211.173 143.274C215.159 137.96 219.2 132.645 226.619 128.936C227.892 128.825 228.446 130.264 229.331 130.873C232.487 119.414 237.193 108.674 243.448 98.5979C240.348 99.3176 238.023 97.7676 235.753 97.989ZM217.65 140.728C214.882 143.662 211.616 148.368 212.003 150.859C212.169 151.8 212.557 152.963 213.609 153.738C216.986 148.534 220.474 143.33 227.781 139.897C227.117 136.908 229.276 133.365 228.612 131.593C226.12 133.974 221.359 136.797 217.65 140.728ZM216.155 157.779C216.82 161.322 222.633 163.371 226.176 164.423C226.951 158.001 226.01 150.859 227.117 144.658C223.851 147.703 215.546 154.457 216.155 157.779ZM209.623 107.954C205.969 104.964 200.101 103.913 195.616 101.311C192.239 99.3729 189.028 96.5495 185.43 94.2243C176.904 88.6882 168.489 85.588 159.244 81.768C154.206 79.6643 149.445 76.7855 144.352 74.0175C134.664 68.8135 124.09 64.9382 114.125 60.1217C104.16 55.25 93.4195 51.7068 82.5687 49.2156C74.2092 47.2779 65.5728 45.285 57.324 44.3992C51.5111 43.7348 43.2069 42.6276 37.7262 43.9009C21.2285 47.6655 14.253 57.4092 10.2669 67.3188C7.66496 73.7961 6.44702 79.1661 10.7098 88.0793C14.253 95.4423 21.3945 98.3211 26.3217 101.587C28.4254 103.027 30.1416 104.854 31.9685 105.906C37.0064 108.784 43.2622 110.833 49.2412 113.269C50.6253 113.822 51.7879 115.206 53.1719 115.76C54.6667 116.369 56.5489 116.424 58.0991 116.867C73.2127 121.462 90.5408 126.445 104.326 129.656C104.769 119.58 113.959 111.331 121.709 104.632C123.425 103.137 125.861 98.8194 128.242 102.141C127.024 106.847 121.1 109.393 117.225 113.822C114.512 116.922 108.921 123.344 108.81 126.998C108.755 128.161 109.806 129.545 109.253 130.818C123.813 134.417 139.702 137.849 154.317 140.562C156.587 141.005 158.801 141.946 160.85 142.057C163.064 142.167 165.445 141.337 167.604 141.503C173.417 141.946 178.897 145.378 184.766 143.441C183.548 143.883 182.939 141.78 183.326 141.005C185.264 138.624 187.644 137.572 189.582 135.136C192.073 131.981 192.295 125.67 197.166 126.279C197.72 130.043 195.395 133.42 193.457 136.188C191.409 139.122 188.53 141.724 185.541 144.16C191.464 144.437 197.499 144.326 203.256 144.88C202.647 131.261 205.803 119.414 209.623 107.954Z" fill="#073742"/>
<path fill-rule="evenodd" clip-rule="evenodd" d="M487.26 64.9939C483.772 66.3779 483.993 62.0045 482.775 59.7347C478.623 52.1502 472.589 45.5068 467.385 40.1921C463.897 36.5937 459.856 33.8256 456.091 31.5558C450.5 28.1234 444.742 27.1268 438.929 23.1408C437.545 22.1996 434.168 21.2585 435.663 18.435C439.76 17.2171 442.362 21.3139 445.85 23.0301C449.78 24.9124 454.43 25.5767 458.14 27.8465C462.956 30.7807 468.492 35.8186 473.143 41.0779C478.014 46.5587 483.052 52.1501 486.097 58.0737C487.094 59.9006 489.862 62.2258 487.26 64.9939Z" fill="#073742"/>
<path fill-rule="evenodd" clip-rule="evenodd" d="M532.601 210.208C532.656 206.388 534.815 203.51 536.919 200.576C537.971 199.8 538.137 201.129 538.968 200.797C539.687 204.894 537.473 210.928 532.601 210.208Z" fill="#073742"/>
<path fill-rule="evenodd" clip-rule="evenodd" d="M523.466 211.148C522.026 207.383 525.016 205.612 526.345 203.065C526.732 200.851 526.898 198.47 528.448 196.809C529.113 196.422 529.334 196.92 529.943 196.754C532.988 200.574 528.393 210.926 523.466 211.148Z" fill="#073742"/>
<path fill-rule="evenodd" clip-rule="evenodd" d="M494.345 124.121C494.733 125.007 497.279 129.657 498.276 133.09C501.542 144.882 501.874 158.611 501.764 171.123C501.708 176.88 501.321 182.859 500.435 188.562C498.276 202.734 496.449 212.976 489.584 225.543C486.761 230.747 484.546 232.574 480.228 237.556C476.906 241.432 473.529 244.587 469.045 248.795C466.941 250.788 464.727 251.95 462.457 253.777C460.464 255.438 458.914 257.763 456.644 259.479C454.374 261.195 451.606 262.358 449.447 264.185C445.24 267.839 441.531 271.769 437.102 274.87C427.967 281.181 416.286 284.779 404.605 287.714C393.809 290.426 383.069 292.585 373.381 292.087C368.398 291.866 362.862 290.814 357.215 290.26C341.548 288.655 324.995 287.658 312.539 278.856C305.286 273.762 297.979 265.126 291.003 257.652C285.633 251.895 278.547 245.251 273.786 237.279C271.295 233.127 269.855 227.536 267.143 222.387C262.88 214.249 257.731 206.72 254.686 196.257C253.136 190.998 252.859 185.074 252.195 179.261C251.531 173.503 250.313 167.69 250.313 162.542C250.313 158.611 251.531 154.238 251.974 149.919C252.195 147.65 251.697 145.601 251.974 143.442C252.25 141.615 253.413 139.733 253.801 137.74C254.576 133.422 254.631 129.27 255.461 125.118C255.849 123.125 256.181 121.187 256.679 119.194C257.177 117.146 257.288 115.042 257.897 113.27C259.171 109.672 262.215 105.852 264.485 101.81C266.644 97.9905 269.08 94.2814 271.848 91.0151C277.938 83.9288 285.412 78.282 293.771 72.6905C310.767 61.3415 329.479 49.1067 353.063 42.6294C360.869 40.4703 369.284 40.2487 376.26 40.747C385.782 41.4667 394.307 41.9649 402.501 44.2348C405.712 45.1205 408.646 46.1171 412.078 47.0582C425.144 50.7121 437.434 56.3589 448.34 65.1613C454.264 69.9224 461.959 77.1194 467.661 83.2091C477.958 94.226 485.819 104.689 493.791 123.069C494.124 123.512 494.179 123.844 494.345 124.121ZM481.944 224.989C487.148 216.962 490.581 204.616 492.297 194.651C494.234 183.468 494.899 170.846 494.622 158.888C494.567 155.622 493.902 152.411 493.293 148.923C492.186 141.781 491.965 134.695 488.864 128.162C485.432 120.855 481.501 112.606 477.46 106.073C475.245 102.475 471.758 99.2085 469.045 95.8315C466.055 92.1223 463.232 88.7452 460.243 85.7557C447.454 73.1333 435.718 62.7808 420.438 57.0786C416.784 55.6946 412.743 55.1964 408.812 54.0338C404.771 52.8159 401.006 51.3764 397.02 50.546C392.979 49.7156 388.55 48.8852 384.232 48.4423C380.19 47.9994 375.318 47.3903 370.945 47.501C350.074 48.1654 324.22 61.8397 307.113 72.3029C294.768 79.8321 285.523 86.5307 278.27 94.7242C274.118 99.4299 271.737 103.914 269.136 108.675C266.367 113.658 265.094 115.761 263.765 120.689C262.326 126.059 261.828 129.934 260.997 135.692C260.555 138.792 259.89 141.781 259.447 144.771C257.731 156.784 257.676 165.199 259.06 177.821C259.558 182.472 259.779 187.62 260.997 192.049C264.042 203.122 269.08 211.038 273.343 219.232C277.052 226.373 280.097 233.958 283.917 239.106C288.014 244.698 290.782 247.078 295.045 251.341C297.314 253.611 299.197 256.268 301.411 258.87C303.349 261.14 306.061 263.022 308.331 265.237C311.265 268.116 313.923 271.161 316.193 272.711C324.054 278.302 330.863 279.631 339.832 281.126C348.025 282.51 356.772 282.62 364.689 283.617C368.841 284.115 372.827 285.554 376.869 285.444C384.176 285.278 392.979 283.34 401.172 281.181C409.975 278.856 419.109 276.863 427.358 272.711C433.891 269.389 439.593 264.185 444.797 259.59C447.62 257.099 450.333 255.272 453.212 252.891C455.648 250.843 457.308 247.577 460.741 246.525C468.491 239.439 476.574 233.183 481.944 224.989Z" fill="#073742"/>
<path fill-rule="evenodd" clip-rule="evenodd" d="M477.792 109.505C476.906 113.657 470.983 115.982 466.997 119.082C463.398 121.906 459.135 127.663 454.873 125.172C454.43 121.739 458.084 121.407 460.686 119.47C462.9 117.809 465.225 115.705 467.938 113.712C471.37 111.221 474.083 107.678 477.46 108.619C477.571 108.896 477.681 109.173 477.792 109.505Z" fill="#073742"/>
<path fill-rule="evenodd" clip-rule="evenodd" d="M482.387 124.176C479.729 126.888 475.799 128.881 472.256 131.539C469.322 133.698 465.889 138.182 462.125 136.41C460.907 133.698 464.45 132.701 466.166 131.373C469.875 128.549 474.692 124.785 479.453 121.851C480.505 121.076 480.671 122.404 481.501 122.072C481.833 122.736 482.11 123.456 482.387 124.176Z" fill="#073742"/>
<path fill-rule="evenodd" clip-rule="evenodd" d="M486.209 134.197C482.444 136.854 476.853 142.224 471.76 144.66C469.877 145.546 466.334 147.816 464.563 145.38C463.843 142.446 467.275 142.722 468.715 141.837C473.531 138.736 478.79 134.75 483.33 131.816C484.105 131.429 484.437 131.982 485.212 131.595C485.544 132.425 485.877 133.311 486.209 134.197Z" fill="#073742"/>
<path fill-rule="evenodd" clip-rule="evenodd" d="M471.703 101.312C471.038 105.519 465.779 107.346 462.07 109.948C458.471 112.495 454.984 116.591 450.887 117.2C448.174 113.879 454.153 110.723 457.862 108.066C459.634 106.792 461.959 105.685 463.897 104.301C467.052 102.031 468.381 99.3186 471.371 100.426C471.481 100.758 471.592 101.035 471.703 101.312Z" fill="#073742"/>
<path fill-rule="evenodd" clip-rule="evenodd" d="M487.591 145.601C484.989 148.535 480.781 150.03 477.294 152.521C474.027 154.791 470.982 158.445 467.495 158.223C465.446 155.455 468.934 153.905 470.816 152.466C474.526 149.587 479.619 146.154 484.712 143.165C485.764 142.39 485.93 143.719 486.76 143.386C487.037 144.162 487.314 144.881 487.591 145.601Z" fill="#073742"/>
<path fill-rule="evenodd" clip-rule="evenodd" d="M464.893 93.9487C465.502 96.4953 461.793 97.5471 459.8 98.8758C455.703 101.644 451.496 104.467 446.624 107.401C444.631 108.564 442.417 110.945 440.645 108.675C440.479 105.132 446.015 103.194 450.499 100.426C454.762 97.8239 459.302 93.2843 462.568 92.8414C463.288 92.7861 464.284 92.454 464.893 93.9487Z" fill="#073742"/>
<path fill-rule="evenodd" clip-rule="evenodd" d="M487.037 157.283C486.594 159.276 484.269 159.442 482.332 160.604C478.567 162.763 473.585 166.971 470.152 165.255C470.097 160.217 479.73 158.556 484.325 155.345C485.211 156.009 486.705 155.345 487.037 157.283Z" fill="#073742"/>
<path fill-rule="evenodd" clip-rule="evenodd" d="M455.537 87.5836C455.592 90.0195 452.824 90.5177 451.163 91.7357C447.288 94.6698 443.025 98.7111 438.818 99.929C438.707 99.3754 438.43 99.2095 438.042 99.2095C437.378 95.5556 441.475 94.2823 443.966 92.4554C447.122 90.1856 450.388 86.8639 454.263 85.5352C454.485 86.1996 456.533 86.6978 455.537 87.5836Z" fill="#073742"/>
<path fill-rule="evenodd" clip-rule="evenodd" d="M484.822 164.59C483.051 166.749 479.563 168.023 476.352 169.794C473.584 171.344 470.151 174.611 467.494 172.673C466.221 169.407 473.473 167.082 477.459 164.867C480.172 163.372 482.552 160.992 484.767 163.095C485.154 163.76 484.656 164.037 484.822 164.59Z" fill="#073742"/>
<path fill-rule="evenodd" clip-rule="evenodd" d="M488.422 176.659C486.595 177.601 485.1 177.656 484.546 175.663C484.989 175.497 484.657 174.999 484.657 174.611C486.982 172.784 489.086 174.445 488.422 176.659Z" fill="#073742"/>
<path fill-rule="evenodd" clip-rule="evenodd" d="M429.63 92.9533C428.024 89.687 432.398 87.3618 435.221 85.3688C439.207 82.49 443.193 79.1683 448.895 78.1718C449.56 79.7772 449.836 79.2236 449.892 80.7737C446.404 83.0989 442.307 85.0366 438.986 87.4172C435.83 89.6316 433.45 93.4515 429.63 92.9533Z" fill="#073742"/>
<path fill-rule="evenodd" clip-rule="evenodd" d="M479.84 174.999C477.404 176.493 469.764 183.137 468.325 177.379C470.871 175.995 478.013 169.13 479.84 174.999Z" fill="#073742"/>
<path fill-rule="evenodd" clip-rule="evenodd" d="M480.837 181.585C475.523 183.135 471.149 189.336 466.776 187.896C464.838 185.571 467.883 185.128 469.267 183.966C471.26 182.305 473.973 180.035 478.346 179.039C479.011 178.651 479.232 179.149 479.841 178.983C480.173 179.814 480.505 180.699 480.837 181.585Z" fill="#073742"/>
<path fill-rule="evenodd" clip-rule="evenodd" d="M437.932 72.8554C434.998 75.6234 431.067 77.4503 427.635 79.7755C424.202 82.0453 421.047 85.3116 417.005 85.8099C414.625 82.1007 420.327 79.9416 422.984 78.0593C426.86 75.2359 430.403 72.8 435.662 70.7516C436.326 70.3641 436.548 70.8623 437.101 70.6962C437.378 71.3605 437.655 72.1357 437.932 72.8554Z" fill="#073742"/>
<path fill-rule="evenodd" clip-rule="evenodd" d="M479.121 200.629C478.789 200.297 478.457 199.965 477.903 200.076C474.803 192.27 487.204 196.865 479.121 200.629Z" fill="#073742"/>
<path fill-rule="evenodd" clip-rule="evenodd" d="M476.187 190.332C475.301 191.826 473.806 193.1 472.201 194.318C472.699 195.37 473.087 196.366 472.755 197.086C471.149 197.916 469.986 197.916 469.211 196.92C468.99 194.428 470.374 194.262 469.322 191.882C470.706 190.553 471.481 189.003 473.862 188.172C474.748 188.671 475.855 188.671 476.187 190.332Z" fill="#073742"/>
<path fill-rule="evenodd" clip-rule="evenodd" d="M427.413 67.3752C424.589 69.645 421.157 70.6969 418.057 72.9114C413.849 75.9009 410.14 81.2154 405.379 80.2189C404.715 76.1222 410.583 74.1292 414.015 71.4719C417.392 68.8146 421.046 65.7696 425.807 64.4963C426.859 65.3268 427.523 65.8251 427.413 67.3752Z" fill="#073742"/>
<path fill-rule="evenodd" clip-rule="evenodd" d="M445.737 251.727C445.682 247.741 450.332 247.077 452.436 245.693C461.571 239.714 465.501 231.742 470.373 223.438C472.089 220.559 473.196 217.902 474.414 214.414C475.577 214.248 476.352 214.912 477.238 215.355C477.515 215.853 477.459 216.186 477.127 216.407C477.625 220.947 474.414 223.604 471.979 227.811C470.65 230.137 470.041 232.96 468.768 235.008C468.103 236.116 466.498 236.946 465.501 238.219C464.671 239.327 464.283 241.043 463.453 241.984C460.906 244.863 456.754 247.133 453.322 249.347C451.273 250.62 448.284 254.662 445.737 251.727Z" fill="#073742"/>
<path fill-rule="evenodd" clip-rule="evenodd" d="M464.672 207.162C462.79 203.674 466.167 202.566 467.053 200.297C472.589 199.909 469.046 207.715 464.672 207.162Z" fill="#073742"/>
<path fill-rule="evenodd" clip-rule="evenodd" d="M415.953 62.2816C411.579 65.4372 406.043 67.9285 401.448 71.3055C398.791 73.2432 395.912 77.2845 392.48 75.2361C391.926 72.2466 396.134 70.309 398.846 68.316C402.943 65.3818 407.316 62.3369 413.683 60.1779C414.347 60.1225 414.679 60.6761 415.344 60.5654C415.51 61.119 415.731 61.6726 415.953 62.2816Z" fill="#073742"/>
<path fill-rule="evenodd" clip-rule="evenodd" d="M403.001 58.2406C401.894 60.4551 399.181 60.4552 397.243 61.4517C391.596 64.3305 387.223 69.2023 381.853 70.8077C379.97 68.2611 383.292 65.7145 385.673 63.8876C389.437 61.0088 395.527 57.5763 400.676 56.1923C401.34 55.8048 401.561 56.303 402.17 56.1369C402.447 56.8012 402.724 57.5209 403.001 58.2406Z" fill="#073742"/>
<path fill-rule="evenodd" clip-rule="evenodd" d="M459.967 235.34C455.648 236.669 449.669 238.163 449.005 234.011C450.943 231.52 455.87 232.849 459.247 232.129C459.634 233.292 460.354 234.565 459.967 235.34Z" fill="#073742"/>
<path fill-rule="evenodd" clip-rule="evenodd" d="M386.115 59.6815C384.62 61.6745 382.295 62.1173 380.08 63.446C375.873 66.1033 372.607 70.8644 368.455 70.8644C366.904 67.7088 372.385 63.5015 376.15 60.9548C378.918 59.0726 383.015 56.9134 385.284 57.4671C385.561 58.2421 385.838 58.9618 386.115 59.6815Z" fill="#073742"/>
<path fill-rule="evenodd" clip-rule="evenodd" d="M452.216 241.264C449.227 244.42 438.708 244.254 439.705 238.551C443.857 238.109 447.123 239.659 451.386 239.105C451.718 239.825 451.94 240.544 452.216 241.264Z" fill="#073742"/>
<path fill-rule="evenodd" clip-rule="evenodd" d="M442.251 249.071C438.929 248.794 433.338 249.957 432.95 245.638C431.179 246.413 429.352 247.189 428.3 246.413C426.75 242.704 429.85 242.76 432.95 241.652C434.279 247.465 445.794 242.483 442.251 249.071Z" fill="#073742"/>
<path fill-rule="evenodd" clip-rule="evenodd" d="M356.495 70.973C354.723 67.5406 358.266 65.3261 360.149 63.6099C362.252 61.6169 364.633 59.2917 367.567 58.2952C368.065 58.5167 368.287 59.4024 368.951 59.2917C368.84 59.7346 368.785 60.1776 369.006 60.7866C365.076 63.9975 361.699 69.3675 356.495 70.973Z" fill="#073742"/>
<path fill-rule="evenodd" clip-rule="evenodd" d="M438.431 253.501C435.939 254.774 433.891 255.051 433.337 251.951C434.721 248.961 440.313 249.736 438.431 253.501Z" fill="#073742"/>
<path fill-rule="evenodd" clip-rule="evenodd" d="M430.791 252.947C429.795 253.943 427.968 254.552 426.141 255.216C425.753 256.158 427.248 257.209 426.418 258.593C421.767 260.254 420.162 263.244 416.508 265.347C416.176 265.015 415.844 264.683 415.29 264.794C414.017 260.254 418.722 258.427 422.432 256.102C423.262 255.715 421.38 254.829 421.435 253.5C423.262 251.12 431.4 247.743 430.791 252.947Z" fill="#073742"/>
<path fill-rule="evenodd" clip-rule="evenodd" d="M430.625 262.968C430.736 265.348 427.082 266.732 424.868 266.179C421.823 262.359 429.684 259.923 430.625 262.968Z" fill="#073742"/>
<path fill-rule="evenodd" clip-rule="evenodd" d="M420.826 251.727C420.106 252.004 419.387 252.281 418.667 252.558C417.56 251.783 416.729 250.842 416.895 249.236C413.075 252.115 411.415 257.817 406.1 258.814C404.162 255.271 408.038 253.278 409.754 251.451C411.636 249.402 413.131 246.302 415.843 245.139C417.227 245.527 417.947 247.409 417.172 248.627C420.106 246.69 421.712 249.79 420.826 251.727Z" fill="#073742"/>
<path fill-rule="evenodd" clip-rule="evenodd" d="M349.632 68.5924C349.244 70.1425 344.76 72.2463 344.096 69.6997C342.878 67.0977 349.466 64.7171 349.632 68.5924Z" fill="#073742"/>
<path fill-rule="evenodd" clip-rule="evenodd" d="M409.809 244.975C409.145 248.463 405.602 250.733 403.111 253.501C400.841 255.992 399.291 260.144 395.914 260.753C393.09 257.1 399.125 252.339 402.336 248.851C404.329 246.692 405.325 243.647 409.366 243.702C409.477 244.09 409.643 244.533 409.809 244.975Z" fill="#073742"/>
<path fill-rule="evenodd" clip-rule="evenodd" d="M335.458 74.4602C333.963 77.5051 325.88 80.2177 323.666 77.4496C323.5 73.8511 332.468 72.6332 334.96 73.1314C335.126 73.6297 335.292 74.0727 335.458 74.4602Z" fill="#073742"/>
<path fill-rule="evenodd" clip-rule="evenodd" d="M320.512 87.6384C316.415 90.6833 308.776 92.8978 302.298 96.0534C299.198 97.6035 296.541 101.202 293.607 99.3751C293.496 99.0983 293.385 98.7661 293.274 98.4893C294.216 95.3337 298.811 93.2299 303.018 91.2922C304.679 90.5172 306.949 89.9083 308.665 89.1332C309.385 88.4689 306.949 88.192 307.059 86.2544C308.167 83.8185 313.481 79.7772 316.748 81.5488C318.962 85.2026 312.983 85.1473 311.378 87.0849C314.201 87.8046 319.848 82.1576 320.512 87.6384Z" fill="#073742"/>
<path fill-rule="evenodd" clip-rule="evenodd" d="M314.975 96.717C315.307 99.8172 311.376 100.039 309.106 100.924C300.304 104.468 291.446 109.45 284.526 112.273C282.312 108.952 286.685 107.512 289.121 106.018C295.266 102.364 304.456 98.267 312.982 95.4436C313.591 95.3882 313.978 95.9419 314.643 95.8312C314.753 96.1633 314.864 96.4402 314.975 96.717Z" fill="#073742"/>
<path fill-rule="evenodd" clip-rule="evenodd" d="M277.219 120.578C273.344 117.92 278.492 110.557 281.094 115.097C280.541 117.256 280.264 119.526 277.219 120.578Z" fill="#073742"/>
<path fill-rule="evenodd" clip-rule="evenodd" d="M331.638 327.573C331.915 328.293 332.192 329.013 332.469 329.732C327.154 333.109 322.171 329.179 318.075 327.241C310.435 324.141 302.629 319.989 294.768 315.67C287.238 311.518 280.54 305.65 273.786 299.726C260.167 287.824 245.441 276.087 236.361 257.652C233.87 252.559 231.877 245.915 229.386 239.383C227.116 233.404 224.237 227.092 222.577 221.556C221.58 218.124 221.192 214.249 220.528 210.872C219.919 207.882 217.483 203.564 221.026 201.737C224.791 203.564 223.462 208.159 224.237 211.481C226.009 219.231 229.607 228.255 233.317 237.943C237.413 248.628 240.68 258.15 245.994 266.011C248.153 269.167 250.977 272.433 253.634 275.589C256.125 278.523 258.893 281.789 261.385 284.115C263.71 286.274 267.032 288.045 269.744 290.37C277.329 297.014 285.19 305.152 293.716 310.134C299.086 313.29 305.231 316.501 311.376 319.878C318.296 323.698 325.216 326.909 331.638 327.573Z" fill="#073742"/>
<path fill-rule="evenodd" clip-rule="evenodd" d="M276.444 214.026C275.725 214.303 275.005 214.58 274.285 214.857C273.289 214.192 272.126 211.203 272.458 210.04C275.503 207.604 277.496 212.089 276.444 214.026Z" fill="#073742"/>
<path fill-rule="evenodd" clip-rule="evenodd" d="M309.384 342.465C306.173 345.122 302.63 341.69 300.028 340.085C294.105 336.375 289.178 332.611 283.475 327.96C280.873 325.857 277.773 324.196 275.282 322.092C267.587 315.67 259.891 307.255 251.975 300.058C247.823 296.294 244.667 293.083 241.013 288.266C238.91 285.498 236.972 282.73 235.422 277.471C234.923 275.81 232.93 272.987 235.311 271.99C239.076 272.267 239.408 278.467 240.681 280.903C241.844 283.062 244.335 284.889 246.106 287.325C246.882 288.432 247.158 289.761 247.878 290.647C250.646 294.079 254.854 296.626 258.452 300.058C260.168 301.719 261.718 303.878 263.545 305.595C268.14 309.913 273.676 315.504 278.88 319.712C281.205 321.594 283.974 322.978 286.299 324.86C288.679 326.798 290.783 329.068 293.053 330.784C298.478 334.825 303.904 337.427 309.052 340.14C309.827 341.247 308.831 341.524 309.384 342.465Z" fill="#073742"/>
<path fill-rule="evenodd" clip-rule="evenodd" d="M225.732 154.126C223.573 155.787 221.137 161.489 217.705 159.164C217.539 155.51 220.75 153.295 224.182 151.247C224.957 151.579 225.289 152.963 225.732 154.126Z" fill="#073742"/>
<path fill-rule="evenodd" clip-rule="evenodd" d="M190.469 142.611C189.638 140.286 192.019 139.456 193.237 138.072C194.787 136.356 196.614 132.148 199.991 133.532C200.821 134.639 199.825 134.916 200.378 135.857C197.444 137.906 195.174 144.881 190.469 142.611Z" fill="#073742"/>
<path fill-rule="evenodd" clip-rule="evenodd" d="M271.573 333.495C268.75 334.104 266.646 331.226 264.21 329.842C259.449 327.129 255.297 324.859 250.425 321.15C248.543 319.711 244.612 317.939 246.882 314.507C249.207 313.676 250.148 315.835 251.422 317.275C258.01 321.87 264.819 326.022 271.684 330.008C272.57 331.502 272.57 332.72 271.573 333.495Z" fill="#073742"/>
<path fill-rule="evenodd" clip-rule="evenodd" d="M176.462 135.968C175.631 135.636 175.299 134.252 174.856 133.089C177.181 128.273 182.33 134.916 176.462 135.968Z" fill="#073742"/>
<path fill-rule="evenodd" clip-rule="evenodd" d="M169.706 132.592C168.876 132.26 168.156 130.377 168.544 129.547C170.703 126.779 174.744 131.817 169.706 132.592Z" fill="#073742"/>
<path fill-rule="evenodd" clip-rule="evenodd" d="M161.734 132.646C160.904 132.314 160.572 130.93 160.129 129.767C161.735 127.83 162.952 125.726 165.499 124.231C170.149 126.058 165.001 130.93 161.734 132.646Z" fill="#073742"/>
<path fill-rule="evenodd" clip-rule="evenodd" d="M159.356 125.061C156.422 127.275 155.37 132.147 150.664 132.369C149.059 128.438 154.539 124.231 157.75 122.182C158.581 122.514 158.913 123.898 159.356 125.061Z" fill="#073742"/>
<path fill-rule="evenodd" clip-rule="evenodd" d="M151.328 119.637C149.667 122.35 146.955 124.454 145.128 126.945C143.799 128.772 143.467 130.876 141.64 132.26C135.218 127.776 146.014 121.077 148.394 117.257C149.169 116.925 149.501 117.423 150.276 117.035C150.664 117.921 150.996 118.807 151.328 119.637Z" fill="#073742"/>
<path fill-rule="evenodd" clip-rule="evenodd" d="M144.796 114.21C142.027 117.255 138.872 119.414 136.436 122.348C134.055 125.227 132.893 128.936 129.903 131.317C126.194 128.936 130.014 124.064 132.395 120.909C135.273 117.089 139.592 112.494 143.965 112.051C144.242 112.715 144.463 113.435 144.796 114.21Z" fill="#073742"/>
<path fill-rule="evenodd" clip-rule="evenodd" d="M118.831 128.55C118.444 124.121 121.765 120.301 123.98 117.146C126.249 113.879 128.851 109.893 133.446 108.066C133.668 108.731 135.716 109.229 134.72 110.059C134.388 112.329 132.118 113.547 130.678 115.097C129.294 116.592 127.855 118.308 126.637 120.135C124.478 123.235 123.426 129.048 118.831 128.55Z" fill="#073742"/>
<path fill-rule="evenodd" clip-rule="evenodd" d="M118.167 95.3885C118.499 98.378 115.454 98.6548 113.959 99.9834C107.316 105.796 102.832 113.658 98.2922 120.412C98.7351 121.685 99.6209 123.18 99.178 124.066C97.0189 125.394 95.801 124.675 94.583 123.844C93.199 119.249 97.2958 114.211 100.617 109.561C103.662 105.298 107.427 100.094 110.859 97.2154C112.852 95.4992 115.731 93.7829 117.835 94.558C117.946 94.8348 118.056 95.1117 118.167 95.3885Z" fill="#073742"/>
<path fill-rule="evenodd" clip-rule="evenodd" d="M82.4587 117.976C79.746 115.484 82.2373 112.052 83.8982 109.948C87.4967 105.353 91.2059 101.699 95.4133 97.1045C97.351 95.0007 99.1778 91.9558 101.835 91.679C102.666 91.0147 104.271 92.6201 103.385 93.063C101.946 97.3258 97.9599 99.9832 94.8044 103.305C91.8148 106.516 89.4343 110.613 86.2233 113.547C84.784 114.986 85.6143 118.418 82.4587 117.976Z" fill="#073742"/>
<path fill-rule="evenodd" clip-rule="evenodd" d="M86 94.7243C86 98.1014 82.789 99.5963 80.8514 102.143C78.1387 105.741 77.0869 111.886 72.049 112.994C70.8864 108.842 74.2081 105.354 76.035 102.53C78.1387 99.264 80.63 96.1639 83.6195 93.6726C84.6713 92.8976 84.8374 94.2261 85.6678 93.8939C85.7785 94.1154 85.8893 94.3922 86 94.7243Z" fill="#073742"/>
<path fill-rule="evenodd" clip-rule="evenodd" d="M60.5901 110.336C58.3203 105.575 62.7493 100.869 65.628 97.4367C68.7283 93.7275 72.1053 89.1879 77.1432 87.0842C77.3646 87.7485 79.413 88.2467 78.4165 89.0771C77.6968 91.5683 75.1502 92.7309 73.4893 94.4471C70.3337 97.7135 67.2889 101.533 64.853 105.741C63.8565 107.457 63.2475 110.557 60.5901 110.336Z" fill="#073742"/>
<path fill-rule="evenodd" clip-rule="evenodd" d="M49.0738 106.296C46.804 103.361 50.5133 100.704 52.1187 98.6557C57.212 92.2338 63.5785 84.2616 70.2772 78.2826C76.8098 79.0023 69.779 84.1509 67.1217 86.9743C62.4713 91.7908 59.205 95.7214 55.3297 100.427C53.392 102.808 52.4509 106.628 49.0738 106.296Z" fill="#073742"/>
<path fill-rule="evenodd" clip-rule="evenodd" d="M64.4665 76.0114C63.3593 78.0597 60.8681 78.2258 59.318 79.4437C57.3803 80.9939 56.3284 83.319 54.5569 85.2566C52.8407 87.0835 50.6816 88.6337 49.0208 90.3499C45.7544 93.7269 43.5954 98.8202 38.8343 100.204C37.0074 97.3254 40.1076 95.1109 41.6577 93.1732C44.9794 88.9104 48.5225 86.0317 52.6746 81.4921C55.6641 78.2258 56.2731 75.2916 62.2521 73.8522C62.9164 73.4647 63.1379 73.9629 63.7469 73.7968C63.913 74.5718 64.1897 75.2917 64.4665 76.0114Z" fill="#073742"/>
<path fill-rule="evenodd" clip-rule="evenodd" d="M30.528 96.8832C29.5315 93.9491 31.7459 90.6827 33.2407 88.3575C36.6177 83.3197 41.0467 79.1123 45.3095 74.2959C47.4132 71.9707 48.7972 68.815 52.0081 68.2614C53.2261 67.7078 53.669 68.8705 54.1119 69.9223C48.5204 76.8425 41.3788 83.3751 36.2856 91.181C34.9569 93.3401 34.1265 97.8244 30.528 96.8832Z" fill="#073742"/>
<path fill-rule="evenodd" clip-rule="evenodd" d="M42.6546 69.8656C42.7653 72.5229 39.4989 73.3534 38.0042 74.6268C36.3434 76.0661 34.6825 77.8376 33.3539 79.3877C30.5858 82.5987 29.3125 87.3044 25.3265 88.4117C22.4477 86.3633 25.4372 84.2041 26.5445 82.4325C29.534 77.7822 34.3504 70.6406 40.7169 68.5922C41.8242 68.0386 42.1564 69.0905 42.6546 69.8656Z" fill="#073742"/>
<path fill-rule="evenodd" clip-rule="evenodd" d="M32.5213 66.7111C32.023 69.9774 28.2031 71.8598 25.9333 74.2403C23.7188 76.4548 22.1687 80.3301 18.847 80.4408C16.9648 78.7799 19.622 74.8493 22.1687 72.192C25.2135 68.9811 29.7532 63.6663 32.5213 66.7111Z" fill="#073742"/>
<path fill-rule="evenodd" clip-rule="evenodd" d="M268.526 165.752C272.069 165.531 274.838 161.822 278.491 160.437C275.834 157.669 272.07 161.489 269.357 159.939C268.969 155.455 274.616 153.628 278.436 151.026C276.554 149.863 273.011 152.41 272.18 148.922C271.128 150.029 269.689 150.472 268.803 149.199C267.308 144.881 273.343 143.552 276.111 140.95C279.322 137.961 284.637 132.425 291.003 130.321C285.91 130.653 282.699 134.528 278.99 135.414C276.609 129.103 286.463 125.338 292.719 121.74C291.667 121.463 290.671 121.02 289.73 120.411C285.965 122.072 282.367 126.501 278.934 126.003C277.218 121.463 283.695 119.636 287.128 117.422C293.494 113.325 300.359 107.9 310.213 106.128C310.546 107.014 310.878 107.844 311.21 108.73C307.445 111.11 301.688 112.661 297.591 114.931C298.92 115.65 301.134 114.488 301.799 116.813C301.3 118.308 299.916 119.359 297.536 119.913C296.373 120.134 299.363 121.518 297.923 122.238C298.698 123.733 300.747 122.404 300.968 125.062C299.805 127.442 294.712 128.051 291.723 129.601C294.159 132.978 301.577 125.283 303.902 128.937C304.511 131.982 300.636 131.926 298.92 132.812C291.391 136.798 282.422 142.113 275.17 146.32C280.872 147.704 290.173 144.106 298.975 140.784C301.798 139.732 306.726 136.134 308.22 140.23C304.511 144.659 297.204 145.324 291.335 148.147C286.63 150.417 282.477 153.573 278.657 155.455C284.858 157.835 290.892 153.573 298.145 149.033C301.466 146.985 305.397 141.615 308.774 145.49C309.051 148.258 306.504 147.926 305.065 148.867C301.522 151.303 296.65 153.739 292.996 156.451C292 157.171 291.391 158.389 290.449 158.943C287.349 160.714 283.64 160.77 281.204 163.482C284.969 163.261 288.955 164.922 293.328 163.87C299.639 162.375 305.009 156.119 311.376 155.012C313.203 159.884 306.67 161.157 303.016 163.15C299.086 165.309 295.1 168.188 291.501 169.517C297.314 171.122 305.065 165.807 311.874 162.763C313.757 161.932 316.801 158.998 318.185 162.375C318.407 165.254 315.085 165.254 313.203 166.25C307.39 169.351 299.916 173.06 294.602 176.326C296.761 177.378 300.138 175.773 302.85 175.662C304.677 183.357 294.214 179.26 289.951 181.087C289.674 183.357 293.162 183.302 294.103 185.461C303.847 180.921 310.158 172.949 319.348 169.351C321.673 172.562 317.576 173.669 315.639 175.274C312.539 177.766 309.771 180.866 305.231 183.246C305.009 183.745 305.951 185.018 305.342 186.18C302.684 187.066 299.639 188.782 297.37 188.727C297.148 190.111 300.857 189.502 300.913 192.879C310.712 188.727 317.743 181.419 327.265 178.374C329.147 181.973 325.936 182.969 322.67 184.63C318.407 186.789 313.535 191.163 309.328 192.713C310.49 193.599 312.04 193.599 313.092 194.761C315.417 192.824 318.905 191.218 322.005 189.391C324.718 187.786 327.597 184.519 330.254 186.236C330.365 186.512 330.476 186.789 330.586 187.121C329.867 190.166 325.715 191.827 322.614 193.654C319.403 195.537 316.026 197.419 313.258 199.19C314.587 199.412 316.082 199.356 316.58 201.405C314.255 204.782 308.22 204.45 304.954 204.837C303.791 205.501 305.176 207.384 303.016 207.55C311.542 210.152 321.396 202.733 329.147 197.64C332.469 195.481 336.122 190.111 339.887 193.045C339.61 196.311 335.624 197.419 333.188 199.08C326.102 204.007 317.576 210.041 309.826 214.968C312.373 215.577 315.362 215.466 317.964 215.356C320.511 215.245 323.998 215.577 326.213 214.691C329.258 213.529 332.524 209.709 334.905 207.384C337.617 204.726 339.389 201.515 342.544 199.965C345.534 202.014 342.821 204.671 341.493 206.332C337.728 211.148 330.697 216.242 324.995 220.56C326.6 221.833 330.31 218.401 331.472 220.56C332.69 223.549 329.092 223.992 327.486 224.546C324.109 225.764 318.628 225.155 315.528 227.092C319.459 228.753 325.438 227.203 329.313 225.321C333.465 223.273 337.451 218.788 341.603 215.688C343.762 214.082 346.254 212.643 348.357 211.148C350.129 209.82 352.343 206.443 354.89 208.657C355.056 212.034 350.959 214.138 348.302 216.186C345.423 218.401 341.991 220.615 339.278 222.608C338.171 223.328 339.278 224.989 339.112 226.151C330.918 228.919 325.548 233.348 319.736 237.998C326.6 236.005 333.687 235.895 339.278 233.071C343.153 231.078 346.254 226.317 349.465 223.217C351.015 221.722 352.731 219.674 354.558 218.29C355.997 217.183 358.488 214.525 360.814 216.408C360.814 219.895 356.883 222.054 354.336 224.324C351.679 226.815 348.745 229.196 346.697 231.743C345.755 232.518 346.254 233.957 345.921 235.009C343.596 235.784 341.603 236.67 339.998 237.777C341.991 237.943 344.814 236.172 345.534 239.161C343.984 242.815 336.067 243.59 331.694 245.915C330.752 246.801 333.465 249.348 331.14 249.624C333.576 249.79 336.732 248.351 338.669 249.735C354.724 245.14 360.426 235.895 365.685 226.483C366.294 224.823 365.187 222.387 368.453 221.944C371.443 224.269 369.339 227.203 368.343 229.473C366.018 234.622 362.032 239.992 357.049 244.254C357.879 245.86 357.99 247.078 357.492 248.074C351.679 249.624 346.088 251.673 344.537 255.991C359.872 252.669 365.132 242.483 373.547 234.012C375.097 232.407 377.754 228.753 380.799 230.746C381.685 233.071 379.027 234.621 377.754 235.895C373.824 239.991 368.952 244.254 365.187 248.628C364.467 249.126 367.457 250.123 366.35 251.673C359.762 254.385 354.89 257.818 350.683 261.582C355.444 260.697 360.98 257.098 366.793 255.437C367.457 256.046 368.786 255.327 368.896 257.098C373.657 251.341 378.529 244.697 383.124 238.22C384.398 236.448 385.449 232.961 388.384 233.736C390.044 236.061 387.553 239.05 386.169 241.043C381.74 247.41 375.983 254.662 370.779 260.863C372.882 261.527 377.09 257.486 377.865 261.14C378.474 263.465 375.152 264.018 372.882 265.015C374.156 265.181 375.484 265.07 375.761 267.395C373.104 270.053 368.841 271.99 364.855 274.039C368.011 274.758 372.273 273.098 375.318 274.039C375.817 270.662 379.027 268.503 383.567 266.897C382.681 264.35 380.578 264.406 379.415 262.524C383.069 255.88 389.159 250.732 393.366 244.254C394.639 242.317 395.525 239.272 398.127 238.441C401.172 242.594 396.023 248.074 393.532 251.174C390.432 254.939 387.055 259.036 383.678 261.915C384.231 263.409 386.723 262.966 385.892 265.07C387.608 264.738 390.543 265.015 389.823 267.561C393.532 265.181 396.3 260.697 401.449 260.143C401.67 260.752 401.836 261.416 402.39 261.306C402.501 264.406 398.459 265.347 396.134 267.174C393.975 268.835 392.314 271.99 389.38 271.713C388.55 271.381 388.217 269.997 387.775 268.835C385.782 270.108 383.955 271.437 381.131 272.378C386.335 273.153 392.425 271.88 398.459 270.772C399.345 270.219 397.574 268.447 398.349 267.838C402.944 264.959 406.542 259.756 412.244 258.538C413.96 264.406 404.66 266.399 401.67 270.053C404.549 271.658 411.082 265.181 413.13 268.669C413.407 271.547 407.262 273.319 403.774 274.205C401.504 274.758 398.57 275.312 395.857 275.699C391.428 276.364 386.667 275.921 382.183 276.419C379.636 276.696 377.256 278.025 374.875 278.191C372.993 278.357 370.834 277.914 368.841 278.025C364.08 278.302 355.388 280.461 352.786 275.146C353.783 273.43 356.385 273.707 357.492 274.371C359.153 272.212 362.474 270.828 365.519 269.333C364.523 268.004 363.748 266.344 362.807 264.904C363.526 263.188 364.91 261.748 366.627 260.475C363.637 260.475 359.485 263.022 355.997 264.018C355.831 265.79 359.983 264.738 360.703 267.229C359.928 269.887 354.281 271.16 349.907 272.821C346.143 274.26 340.053 278.191 339.167 273.43C341.88 271.271 347.029 270.219 350.738 268.503C346.863 265.126 341.493 264.96 334.406 268.724C333.908 270.606 337.673 268.558 337.617 271.99C336.233 274.814 331.472 274.205 330.642 270.662C329.701 269.997 327.652 271.935 327.099 270.495C324.995 265.845 333.631 265.956 337.008 263.741C335.015 262.745 330.752 259.977 325.77 263.022C325.106 263.299 327.541 265.624 326.656 266.676C322.614 268.115 320.787 264.683 317.189 265.292C316.801 262.081 315.085 262.856 312.76 261.472C310.435 260.143 309.438 258.261 306.338 258.925C305.508 257.707 306.172 257.153 305.785 256.157C301.632 252.558 294.103 248.628 290.616 242.483C289.564 240.656 287.349 236.116 288.789 233.736C290.948 232.462 291.446 234.843 292.553 235.784C294.491 234.621 295.598 235.397 297.536 234.4C297.868 233.404 295.266 231.964 294.325 231.134C291.391 232.573 288.29 231.853 288.512 228.864C289.065 227.701 290.892 227.646 292 227.535C292.221 226.428 289.951 224.047 289.398 222.054C286.187 221.999 281.924 224.214 280.872 219.286C282.976 216.906 285.245 219.176 287.903 218.124C287.792 215.079 285.19 217.792 284.028 217.127C283.142 214.802 282.644 212.643 283.197 210.982C285.522 209.93 287.349 210.539 288.235 208.546C287.958 207.827 287.681 207.107 287.405 206.387C284.194 206.277 280.817 206.553 279.156 203.066C279.488 201.515 282.09 201.017 284.028 200.187C282.92 196.976 278.27 201.737 276.775 199.467C275.391 194.54 283.529 193.82 285.854 190.554C283.308 188.173 277.55 192.99 276.277 187.731C278.104 184.243 282.09 186.845 285.024 185.904C285.246 185.128 282.201 184.686 281.259 183.855C279.433 185.184 274.616 187.841 273.343 185.35C272.291 182.859 275.225 182.084 277.716 181.198C275.391 181.032 271.848 179.26 271.903 176.437C271.294 174.942 273.011 174.555 274.45 173.946C274.838 172.783 274.007 171.122 275.004 170.236C278.436 170.569 282.699 170.79 286.519 167.856C280.595 167.247 273.62 165.808 268.582 171.676C269.523 175.551 269.634 180.644 270.796 185.295C271.793 189.225 275.114 192.99 273.62 196.644C269.357 197.695 267.751 190.111 267.032 187.177C266.478 184.962 266.644 183.357 265.869 180.146C264.706 175.274 265.205 172.229 265.205 167.911C265.205 166.472 264.43 164.811 264.43 163.206C264.43 161.877 265.26 160.382 265.26 158.887C265.315 152.908 260.333 144.327 267.419 143.608C268.028 151.303 269.135 158.943 268.526 165.752ZM369.727 266.731C370.336 266.565 372.882 265.624 371.277 265.624C370.723 265.79 368.121 266.731 369.727 266.731ZM326.49 240.822C327.099 242.04 326.268 242.649 325.991 243.479C329.092 242.594 330.697 241.043 331.86 239.272C330.033 239.936 328.593 239.715 326.49 240.822ZM308.774 221.667C311.597 223.494 316.968 222.608 319.293 219.176C315.584 219.12 311.099 218.179 308.774 221.667ZM325.05 251.341C326.324 250.732 328.981 251.119 329.147 250.289C328.095 250.344 325.493 249.79 325.05 251.341ZM314.421 233.957C315.916 233.957 320.289 233.846 320.511 231.632C318.351 233.182 315.417 232.241 314.421 233.957ZM302.297 198.194C302.407 199.301 301.3 199.91 301.356 201.017C303.625 201.128 305.729 199.19 307.113 197.806C305.618 197.862 303.902 198.083 302.297 198.194ZM319.182 245.085C320.068 245.804 323.5 245.029 324.164 243.701C322.393 244.863 319.902 243.535 319.182 245.085ZM322.559 255.271C320.4 255.05 316.082 255.327 313.978 257.541C316.137 258.648 318.241 259.811 320.345 261.084C322.005 260.143 325.216 259.866 325.825 258.482C324.22 258.427 323.057 257.596 322.559 255.271ZM301.965 214.304C303.625 215.024 305.563 213.473 306.56 212.034C305.231 212.864 302.297 213.031 301.965 214.304ZM287.294 174.499C287.072 175.994 289.619 174.997 289.176 174.278C288.456 174.61 287.847 174.721 287.294 174.499ZM290.007 193.433C291.391 192.602 293.716 193.654 294.103 192.381C292.719 192.215 290.449 191.218 290.007 193.433ZM309.715 245.196C307.224 246.469 303.127 247.078 301.632 248.794C304.401 250.455 306.947 252.448 309.66 254.219C313.646 253.61 313.757 251.23 314.753 249.292C312.539 249.126 310.49 248.683 309.715 245.196ZM281.868 174.61C279.931 175.33 278.325 176.16 277.44 177.323C279.599 175.994 282.256 177.821 283.419 176.049C282.588 176.271 282.588 174.61 281.868 174.61ZM300.027 231.466C300.581 231.244 300.691 232.075 301.245 232.02C300.968 231.189 302.574 231.189 302.075 230.193C301.466 230.691 299.584 230.525 300.027 231.466ZM301.909 237.722C298.92 238.552 296.096 238.884 293.162 239.549C294.546 241.818 296.373 243.036 297.813 245.251C300.47 243.922 304.677 243.313 306.338 241.486C304.567 240.933 303.736 238.165 301.909 237.722Z" fill="#BCDFFF"/>
</svg>
