<svg xmlns="http://www.w3.org/2000/svg" width="157" height="19" viewBox="0 0 157 19" fill="none">
    <mask id="mask0_51_59320" style="mask-type:luminance" maskUnits="userSpaceOnUse" x="3" y="2" width="152" height="17">
        <path d="M3.32288 18.0229L154.738 13.5158L154.416 2.70049L3.00094 7.2076L3.32288 18.0229Z" fill="white"/>
    </mask>
    <g mask="url(#mask0_51_59320)">
        <path d="M6.47629 13.5213C7.68072 13.4934 8.88558 13.4883 10.0902 13.5062C10.6009 13.491 11.0532 13.5235 11.5618 13.5062L18.0041 13.5928C20.6052 13.6057 23.1501 13.6685 25.7491 13.6815C29.4236 13.7572 33.096 13.7854 36.7705 13.8589C37.6188 13.8806 38.4671 13.8546 39.3154 13.8741C41.4621 13.9022 43.611 13.9303 45.7577 13.913C47.9044 13.9412 50.0533 13.9693 52.2 13.9498C53.0483 13.9715 53.8966 13.9931 54.7428 13.9671L64.9678 13.9368C67.0582 13.9217 69.1487 13.9044 71.2954 13.9325C72.1437 13.9065 72.9357 13.9303 73.7819 13.9044L83.665 13.7486L93.4356 13.5949L96.0324 13.517L102.412 13.3287C105.742 13.2292 109.017 13.1318 112.347 13.0777L115.565 12.9825L122.338 12.7812L122.905 12.7639C117.822 12.87 112.685 12.976 107.601 13.0366C105.455 13.0539 103.366 13.1167 101.217 13.134C100.315 13.1599 99.3564 13.1902 98.4518 13.1708C95.3443 13.2162 92.293 13.214 89.1876 13.2617C85.6278 13.2768 82.0701 13.3374 78.5124 13.3504C77.8914 13.3699 77.3244 13.3396 76.7033 13.359C74.7817 13.3244 72.9163 13.3331 70.9946 13.2984L59.4668 13.2292C58.901 13.2384 58.335 13.2247 57.7702 13.1881C55.9048 13.1513 53.9832 13.0712 52.1156 13.0366L41.9945 12.7856C41.0899 12.7661 40.1269 12.7033 39.2245 12.686C37.0733 12.6195 34.9229 12.53 32.7736 12.4177L24.5719 12.1126L13.1458 11.6257C12.2391 11.6062 11.3324 11.5413 10.3715 11.5239L5.44837 11.2578C5.27958 11.2643 5.10646 11.1777 5.10213 10.9938C5.0978 10.8553 5.26227 10.7124 5.43323 10.7081C6.0543 10.6908 6.61695 10.628 7.23802 10.6086C7.11684 10.3835 7.05625 10.2472 7.05408 10.1108C7.03893 9.60445 7.53233 9.13269 8.20967 9.11105C12.9013 9.20194 17.5388 9.33827 22.2304 9.38372C26.2988 9.39887 30.3672 9.46162 34.4377 9.47894C38.9021 9.52871 43.4249 9.57848 47.8871 9.58281C49.3002 9.58714 50.7133 9.5893 52.1286 9.63907C52.5225 9.62825 52.9185 9.66071 53.3708 9.64773C60.6008 9.57199 67.833 9.53953 75.063 9.46162C78.9224 9.44632 82.7816 9.40809 86.6405 9.34693C88.0536 9.35126 89.4105 9.31014 90.8214 9.31447L113.016 8.92927L122.503 8.78428C125.214 8.74966 127.924 8.66959 130.637 8.68041C132.897 8.65877 135.1 8.68474 137.359 8.6631C138.491 8.67608 139.62 8.64146 140.691 8.65661L148.326 8.84055C148.153 8.6631 148.144 8.3861 148.196 8.20216C148.244 7.97277 148.408 7.7845 148.688 7.68279C148.91 7.58541 149.246 7.4837 149.475 7.5681C150.044 7.73473 150.616 7.90136 151.129 8.07015H151.072C151.129 8.07015 151.131 8.1156 151.187 8.11343C151.243 8.11343 151.302 8.15672 151.302 8.15672H151.245C151.529 8.24328 151.815 8.32551 152.156 8.45102C152.442 8.53542 152.784 8.6631 153.07 8.74533C153.414 8.87517 153.697 9.00285 154.043 9.13053C154.207 9.19661 154.349 9.30732 154.452 9.45003C154.556 9.59275 154.618 9.76173 154.63 9.93771C154.632 10.1193 154.579 10.2974 154.478 10.4484C154.326 10.6867 154.087 10.8572 153.812 10.9245C153.531 10.9808 153.249 11.0327 152.968 11.0435L152.799 11.0479C152.63 11.0522 152.405 11.0608 152.234 11.0197C151.78 10.9873 151.384 10.9526 150.932 10.9656C150.594 10.9764 150.254 10.9397 149.858 10.9526C148.915 10.9423 147.972 10.9092 147.03 10.8531C146.805 10.8596 146.521 10.8228 146.294 10.8293C146.411 10.9159 146.469 11.0067 146.474 11.0998C146.522 11.1824 146.544 11.2772 146.539 11.3725C146.539 11.4179 146.541 11.5088 146.599 11.5542C146.601 11.6451 146.604 11.7382 146.549 11.7836C146.549 11.7836 146.606 11.7836 146.608 11.8269C146.781 11.9135 146.952 12.0022 147.069 12.1818C147.186 12.3216 147.252 12.4972 147.255 12.6795C147.256 12.8616 147.202 13.0397 147.099 13.1902C147.045 13.2379 146.991 13.3309 146.937 13.3785C146.77 13.5213 146.604 13.5733 146.435 13.623C146.069 13.729 145.69 13.7872 145.309 13.7962L144.351 13.8221L142.996 13.8633L141.077 13.9195L135.996 14.071L131.196 14.2138L126.85 14.3437C121.036 14.5168 115.275 14.6423 109.46 14.77C105.111 14.8522 100.763 14.9366 96.4176 15.0665C94.4981 15.1227 92.5224 15.1357 90.6007 15.1465C86.251 15.1855 81.9013 15.2677 77.5516 15.3067C76.3095 15.3435 75.0673 15.3348 73.8252 15.3716C73.0916 15.3932 72.412 15.3673 71.6784 15.3889L58.796 15.3608L54.8401 15.3391C54.1044 15.3608 53.3708 15.3391 52.635 15.3132C48.3394 15.2591 44.1001 15.2006 39.8045 15.1444C37.5993 15.1184 35.3964 15.0924 33.189 15.021C29.402 14.9496 25.6149 14.8782 21.882 14.7613C18.6013 14.6748 15.325 14.6358 12.0465 14.5947C11.5358 14.5644 11.0294 14.5795 10.4624 14.5514C9.61413 14.5298 8.76799 14.5557 7.91969 14.5341C7.1796 14.3718 6.38973 14.3956 5.65612 14.4172C5.60418 14.6034 5.38345 14.7483 5.21249 14.7072C4.70395 14.7224 4.25167 14.6899 3.74096 14.6575C3.51373 14.6185 3.28651 14.5341 3.22375 14.3545C3.161 14.1251 3.3233 13.8914 3.54836 13.8395L4.21921 13.6815C4.44643 13.6274 4.61522 13.623 4.84028 13.6166C5.40293 13.5538 5.91148 13.5387 6.47629 13.5213ZM138.618 11.0565C139.296 11.037 140.029 11.0132 140.707 10.9959C140.759 10.8553 140.869 10.76 140.979 10.6648C140.698 10.6735 140.412 10.6367 140.187 10.6432C139.679 10.6583 139.17 10.628 138.662 10.6432C136.402 10.6648 134.197 10.6389 131.938 10.6605C130.921 10.6432 129.904 10.628 128.887 10.6605C127.307 10.7038 125.669 10.7081 124.087 10.7557L113.133 10.944L91.8407 11.3032C86.7596 11.4071 81.6741 11.4222 76.5908 11.4352C68.9626 11.4785 61.2824 11.5694 53.6543 11.6127C52.1308 11.6127 50.603 11.6127 49.0773 11.5651C44.7255 11.511 40.3736 11.5045 36.0218 11.4504C31.7824 11.3919 27.489 11.3833 23.2497 11.3249C22.8536 11.3378 22.4576 11.3032 22.0616 11.314C23.1934 11.3725 24.3815 11.3833 25.5132 11.4417C29.5275 11.5499 33.5418 11.7079 37.5582 11.8161C38.9713 11.8659 40.3866 11.9156 41.7434 11.9676C42.4792 11.9914 43.215 12.0152 43.8923 11.9957C48.1317 12.052 52.3147 12.158 56.4978 12.2164L58.9302 12.2814C60.116 12.2922 61.3041 12.303 62.4337 12.2684L75.3162 12.2987C76.277 12.316 77.2357 12.2878 78.1424 12.3073L78.876 12.2857C79.5533 12.264 80.2307 12.2424 80.8518 12.2727C85.1452 12.2359 89.4927 12.1515 93.7861 12.1169C95.7641 12.1039 97.742 12.0909 99.7156 12.0303L118.915 11.5975C125.576 11.4006 132.126 11.2513 138.618 11.0565ZM14.7429 6.85397C14.916 6.84748 15.0567 6.96001 15.061 7.10283C15.0653 7.2435 14.9311 7.36252 14.758 7.36901C14.5871 7.3755 14.4442 7.26297 14.4399 7.12015C14.4356 6.97732 14.5719 6.86046 14.7429 6.85397Z" fill="#BDEDFC"/>
    </g>
</svg>
