<svg width="158" height="20" viewBox="0 0 158 20" fill="none" xmlns="http://www.w3.org/2000/svg">
<path d="M26.4362 6.98307L19.4539 0.000732422H30.0126L36.995 6.98307L26.7474 17.2285H16.1886L26.4362 6.98307Z" fill="white"/>
<path d="M36.995 6.98315H26.4362L16.1886 17.2286L36.995 6.98315Z" fill="white"/>
<path d="M36.995 6.98315H26.4362L16.1886 17.2286L36.995 6.98315Z" fill="white"/>
<path opacity="0.37" d="M36.995 6.98315H26.4362L24.8036 8.61578L36.995 6.98315Z" fill="white"/>
<path d="M36.995 6.98315L25.6881 12.107L16.1886 17.2286L36.995 6.98315Z" fill="white"/>
<path d="M36.995 6.98307L30.0127 0.000732422H19.4539L36.995 6.98307Z" fill="white"/>
<path d="M36.995 6.98307L30.0127 0.000732422H19.4539L36.995 6.98307Z" fill="white"/>
<path opacity="0.37" d="M36.995 6.98307H26.4363L19.4539 0.000732422L36.995 6.98307Z" fill="white"/>
<path d="M36.995 6.98307L28.2245 3.0976L19.4539 0.000732422L36.995 6.98307Z" fill="white"/>
<path d="M10.6471 13.0169L17.6295 19.9993H7.07069L0.0883484 13.0169L10.3359 2.77148H20.8947L10.6471 13.0169Z" fill="white"/>
<path d="M0.0883484 13.0169H10.6471L20.8947 2.77148L0.0883484 13.0169Z" fill="white"/>
<path d="M0.0883484 13.0169H10.6471L20.8947 2.77148L0.0883484 13.0169Z" fill="white"/>
<path opacity="0.37" d="M0.0883484 13.0167H10.6471L12.2797 11.384L0.0883484 13.0167Z" fill="white"/>
<path d="M0.0883484 13.0169L11.3952 7.89315L20.8947 2.77148L0.0883484 13.0169Z" fill="white"/>
<path d="M0.0883484 13.0168L7.07069 19.9992H17.6295L0.0883484 13.0168Z" fill="white"/>
<path d="M0.0883484 13.0168L7.07069 19.9992H17.6295L0.0883484 13.0168Z" fill="white"/>
<path opacity="0.37" d="M0.0883484 13.0168H10.6471L17.6295 19.9992L0.0883484 13.0168Z" fill="white"/>
<path d="M0.0883484 13.0168L8.8589 16.9023L17.6295 19.9992L0.0883484 13.0168Z" fill="white"/>
<path d="M50.5602 19.5883H43.6617V0H50.2637C53.5782 0 56.0843 0.832227 57.782 2.49668C59.4797 4.15228 60.3285 6.56928 60.3285 9.74767C60.3285 12.8818 59.5201 15.3077 57.9033 17.0252C56.2864 18.734 53.8387 19.5883 50.5602 19.5883ZM48.081 3.94422V15.6707H49.873C51.8581 15.6707 53.3492 15.2235 54.3462 14.3293C55.3433 13.4263 55.8418 11.8902 55.8418 9.72112C55.8418 8.5259 55.6891 7.52988 55.3837 6.73307C55.0783 5.9274 54.6202 5.32979 54.0094 4.94024C53.4076 4.55069 52.7833 4.28951 52.1366 4.15671C51.4898 4.01505 50.7084 3.94422 49.7922 3.94422H48.081Z" fill="white"/>
<path d="M76.1195 13.6919H66.2569C66.3108 14.6569 66.6297 15.3829 67.2135 15.8699C67.7974 16.3568 68.5654 16.6003 69.5175 16.6003C70.784 16.6003 71.6194 16.0558 72.0236 14.9668L75.8905 15.7503C74.8036 18.5746 72.5895 19.9911 69.248 20C67.2449 20 65.5563 19.3714 64.1819 18.1142C62.8076 16.8482 62.1205 14.9845 62.1205 12.5232C62.1205 11.2749 62.3181 10.1549 62.7133 9.16335C63.1086 8.17176 63.643 7.38823 64.3167 6.81275C64.9904 6.22842 65.7449 5.78575 66.5802 5.48473C67.4156 5.18371 68.3049 5.0332 69.248 5.0332C71.1972 5.0332 72.832 5.62638 74.1524 6.81275C75.4818 7.99026 76.1465 9.70341 76.1465 11.9522C76.1465 12.2089 76.142 12.4745 76.133 12.749C76.124 13.0146 76.1195 13.2359 76.1195 13.413V13.6919ZM69.1268 8.43293C68.4082 8.43293 67.7794 8.66313 67.2405 9.12351C66.7015 9.57503 66.3916 10.1726 66.3108 10.9163H71.9427C71.8888 10.1726 71.6014 9.57503 71.0804 9.12351C70.5684 8.66313 69.9172 8.43293 69.1268 8.43293Z" fill="white"/>
<path d="M86.319 19.5883H82.6812L76.8202 5.44489H81.0239L84.4732 14.5817L88.0032 5.44489H92.1396L86.319 19.5883Z" fill="white"/>
<path d="M101.248 19.5883H94.3493V0H100.951C104.266 0 106.772 0.832227 108.47 2.49668C110.167 4.15228 111.016 6.56928 111.016 9.74767C111.016 12.8818 110.208 15.3077 108.591 17.0252C106.974 18.734 104.526 19.5883 101.248 19.5883ZM98.7686 3.94422V15.6707H100.561C102.546 15.6707 104.037 15.2235 105.034 14.3293C106.031 13.4263 106.529 11.8902 106.529 9.72112C106.529 8.5259 106.377 7.52988 106.071 6.73307C105.766 5.9274 105.308 5.32979 104.697 4.94024C104.095 4.55069 103.471 4.28951 102.824 4.15671C102.177 4.01505 101.396 3.94422 100.48 3.94422H98.7686Z" fill="white"/>
<path d="M114.816 18.1142C113.477 16.8482 112.808 14.9845 112.808 12.5232C112.808 10.0531 113.477 8.18946 114.816 6.93227C116.163 5.66622 117.865 5.0332 119.922 5.0332C121.988 5.0332 123.69 5.66622 125.029 6.93227C126.376 8.18946 127.05 10.0531 127.05 12.5232C127.05 14.9845 126.376 16.8482 125.029 18.1142C123.69 19.3714 121.988 20 119.922 20C117.865 20 116.163 19.3714 114.816 18.1142ZM117.712 9.48207C117.201 10.1815 116.945 11.1952 116.945 12.5232C116.945 13.8424 117.201 14.8517 117.712 15.5511C118.233 16.2506 118.97 16.6003 119.922 16.6003C120.883 16.6003 121.62 16.2506 122.132 15.5511C122.653 14.8517 122.913 13.8424 122.913 12.5232C122.913 11.1952 122.653 10.1815 122.132 9.48207C121.62 8.78265 120.883 8.43293 119.922 8.43293C118.97 8.43293 118.233 8.78265 117.712 9.48207Z" fill="white"/>
<path d="M132.574 12.5232C132.574 15.2413 133.477 16.6003 135.282 16.6003C136.683 16.6003 137.532 15.8212 137.829 14.2629L141.911 14.834C141.543 16.6135 140.761 17.9194 139.567 18.7517C138.381 19.5839 136.953 20 135.282 20C133.297 20 131.658 19.3758 130.364 18.1275C129.08 16.8703 128.437 15.0022 128.437 12.5232C128.437 10.0354 129.08 8.16733 130.364 6.91899C131.658 5.6618 133.297 5.0332 135.282 5.0332C136.953 5.0332 138.381 5.45374 139.567 6.29482C140.761 7.12705 141.543 8.43736 141.911 10.2258L137.856 10.8367C137.559 9.24303 136.701 8.44179 135.282 8.43293C134.42 8.43293 133.751 8.7915 133.274 9.50863C132.807 10.2169 132.574 11.2218 132.574 12.5232Z" fill="white"/>
<path d="M144.121 19.5883V0H148.257V10.7437H148.863C149.34 10.7437 149.726 10.6906 150.022 10.5843C150.319 10.4781 150.633 10.2258 150.965 9.82736C151.19 9.57061 151.459 9.07924 151.774 8.35325L152.259 7.26428C152.681 6.50288 153.175 6.01151 153.741 5.79017C154.316 5.55998 155.138 5.44489 156.207 5.44489H157.055L156.638 9.0571H156.207C155.748 9.0571 155.421 9.14121 155.223 9.30943C155.025 9.46879 154.81 9.79637 154.576 10.2922C154.334 10.8145 154.064 11.2218 153.768 11.5139C153.48 11.8061 153.085 12.0142 152.582 12.1381V12.2444C153.409 12.4214 154.311 13.3023 155.29 14.8871L157.662 19.5883H153.108L151.208 15.5378C150.714 14.6171 149.932 14.1523 148.863 14.1434H148.257V19.5883H144.121Z" fill="white"/>
</svg>
