<svg xmlns="http://www.w3.org/2000/svg" width="14" height="16" viewBox="0 0 14 16" fill="none">
    <path d="M5.64744 2.44054C5.71192 4.33157 4.97843 5.73407 4.20463 7.11295C3.92252 7.60934 3.44699 7.82998 2.85859 7.79846C2.43139 7.77482 2.0042 7.75118 1.57699 7.77482C1.1095 7.80634 0.738694 8.12939 0.650094 8.52335C0.569494 8.87004 0.819294 9.36643 1.23039 9.55553C1.51249 9.68948 1.83489 9.84708 2.14119 9.84708C3.19709 9.85496 3.79357 10.4932 4.31749 11.2496C4.93813 12.1242 5.27665 13.117 5.57488 14.1256C5.69579 14.5274 5.80058 14.9293 5.94567 15.3232C6.08269 15.6935 6.34868 15.9536 6.77588 15.9693C7.19501 15.9851 7.48518 15.7251 7.67863 15.402C7.80759 15.1814 7.8882 14.9214 7.92851 14.6692C8.02523 14.1019 8.06551 13.5267 8.15418 12.9515C8.38793 11.4624 9.79849 10.1938 11.3058 10.0913C11.7894 10.0598 12.273 10.0598 12.7485 9.99678C13.216 9.93374 13.5707 9.57917 13.6271 9.20096C13.6916 8.77548 13.3531 8.29485 12.8453 8.14514C12.3294 8.00331 11.7974 7.9324 11.2816 7.79057C9.21814 7.23902 8.13 5.97833 7.92044 3.88243C7.86401 3.3624 7.88014 2.83449 7.83983 2.31446C7.80759 1.81807 7.5819 1.41623 7.14664 1.14045C6.53406 0.754368 5.77641 1.05377 5.67162 1.73927C5.60714 2.05444 5.64744 2.36962 5.64744 2.44054Z" fill="#073742"/>
</svg>
